<svg width="1136" height="591" viewBox="0 0 1136 591" fill="none" xmlns="http://www.w3.org/2000/svg">
<rect width="1136" height="591" fill="white"/>
<g clip-path="url(#clip0_51_3757)">
<path opacity="0.2" d="M337.71 424.834V498.138C337.71 506.231 331.15 512.794 323.053 512.794C314.956 512.794 308.402 506.231 308.402 498.138V424.834C308.402 421.832 307.95 418.931 307.11 416.202C304.26 406.953 296.967 399.65 287.722 396.806C284.994 395.966 282.094 395.513 279.094 395.513C276.093 395.513 273.193 395.966 270.465 396.806C261.22 399.65 253.92 406.953 251.077 416.202C250.883 416.834 250.711 417.48 250.553 418.134L249.297 422.622C247.093 427.936 241.861 431.677 235.752 431.677C227.662 431.677 221.101 425.114 221.101 417.013C221.101 415.405 221.36 413.854 221.841 412.403C221.826 412.432 221.812 412.461 221.798 412.497C221.783 412.525 221.769 412.561 221.755 412.59C222.846 407.448 224.611 402.551 226.959 398.005C227.389 397.165 227.849 396.332 228.315 395.513C228.567 395.075 228.825 394.645 229.091 394.214C233.936 386.315 240.59 379.658 248.486 374.811C248.917 374.545 249.347 374.286 249.785 374.035C250.604 373.561 251.429 373.109 252.276 372.678C257.53 369.963 263.251 368.025 269.281 367.012C272.475 366.473 275.749 366.193 279.094 366.193C282.439 366.193 285.712 366.473 288.906 367.012C294.936 368.032 300.657 369.971 305.911 372.678C306.751 373.109 307.584 373.561 308.402 374.035C308.84 374.286 309.271 374.545 309.701 374.811C317.597 379.651 324.251 386.315 329.097 394.214C329.362 394.645 329.621 395.075 329.872 395.513C330.346 396.332 330.798 397.158 331.236 397.998C333.942 403.255 335.88 408.978 336.899 415.01C337.438 418.206 337.718 421.48 337.718 424.826L337.71 424.834Z" fill="#878787"/>
<path opacity="0.2" d="M132.717 459.554C132.717 459.999 132.738 460.437 132.781 460.868V462.519C132.781 463.022 132.767 463.518 132.738 464.013C132.724 463.518 132.717 463.022 132.717 462.527V459.554Z" fill="#40B2DB"/>
<path opacity="0.2" d="M157.754 425.795C155.098 423.145 151.437 421.501 147.382 421.501C139.285 421.501 132.717 428.064 132.717 436.172V389.222C132.717 381.122 139.278 374.559 147.367 374.559C155.457 374.559 161.487 380.605 161.989 388.246C162.011 388.569 162.025 388.892 162.025 389.222V435.418C161.839 431.669 160.245 428.287 157.754 425.795Z" fill="#686868"/>
<path opacity="0.2" d="M249.95 418.543V462.527C249.95 465.873 249.67 469.148 249.132 472.343C248.622 475.359 247.883 478.296 246.935 481.14C245.981 483.984 244.818 486.727 243.468 489.355C243.03 490.203 242.578 491.028 242.104 491.847C241.853 492.285 241.595 492.716 241.336 493.147C236.491 501.039 229.83 507.703 221.941 512.543C221.51 512.808 221.08 513.067 220.642 513.318C219.823 513.792 218.998 514.245 218.151 514.683C215.524 516.04 212.782 517.196 209.939 518.151C207.097 519.099 204.161 519.839 201.146 520.348C197.952 520.887 194.678 521.167 191.333 521.167C187.988 521.167 184.708 520.887 181.521 520.348H181.514C175.484 519.329 169.763 517.39 164.509 514.683C163.669 514.245 162.836 513.792 162.025 513.318C161.587 513.067 161.149 512.808 160.726 512.543C155.744 509.491 151.251 505.706 147.396 501.347C149.657 498.798 151.688 496.055 153.476 493.14C153.734 492.716 153.993 492.278 154.244 491.84C154.718 491.028 155.17 490.195 155.608 489.355C158.314 484.099 160.252 478.375 161.271 472.343C161.357 471.841 161.429 471.345 161.501 470.842C161.817 468.616 162.011 466.347 162.068 464.042C162.19 466.505 162.621 468.889 163.317 471.158C166.16 480.408 173.453 487.711 182.698 490.554C185.433 491.395 188.326 491.847 191.333 491.847C194.341 491.847 197.234 491.395 199.962 490.554C209.207 487.711 216.507 480.408 219.35 471.158C220.19 468.43 220.642 465.528 220.642 462.527V423.153C220.721 420.396 220.986 417.681 221.431 415.024C221.575 414.213 221.726 413.401 221.898 412.597C221.912 412.568 221.927 412.532 221.941 412.504C224.224 407.448 229.299 403.922 235.199 403.887H235.393C243.44 403.937 249.95 410.479 249.95 418.543Z" fill="#4F4F4F"/>
<path opacity="0.2" d="M220.642 419.376V421.071H220.62C220.62 420.503 220.628 419.943 220.642 419.376Z" fill="#231815"/>
<path opacity="0.2" d="M162.068 464.042C162.011 466.347 161.817 468.616 161.501 470.842C161.429 471.345 161.358 471.84 161.271 472.336C160.252 478.375 158.314 484.098 155.608 489.355C155.17 490.195 154.718 491.028 154.244 491.839C153.993 492.277 153.734 492.715 153.476 493.139C151.689 496.055 149.657 498.798 147.396 501.347C147.31 501.254 147.224 501.153 147.138 501.053C144.991 498.589 143.046 495.947 141.331 493.146C141.065 492.715 140.807 492.284 140.555 491.846C140.082 491.028 139.629 490.202 139.199 489.355C136.485 484.098 134.547 478.375 133.535 472.343C133.076 469.621 132.803 466.842 132.738 464.013C132.767 463.517 132.781 463.022 132.781 462.519V460.867C132.738 460.437 132.717 459.999 132.717 459.553V436.172C132.717 428.065 139.285 421.501 147.382 421.501C151.437 421.501 155.098 423.146 157.754 425.795C160.245 428.287 161.839 431.669 162.025 435.418V462.526C162.025 463.036 162.04 463.539 162.068 464.042Z" fill="#964163"/>
<path opacity="0.2" d="M147.138 501.053C147.224 501.153 147.31 501.254 147.396 501.347C143.556 505.706 139.062 509.49 134.081 512.542C133.65 512.808 133.219 513.067 132.781 513.318C131.963 513.792 131.138 514.244 130.29 514.675C127.663 516.032 124.921 517.196 122.079 518.144C119.236 519.099 116.3 519.831 113.285 520.341C110.091 520.88 106.818 521.16 103.473 521.16C100.128 521.16 96.8475 520.88 93.6604 520.341H93.6532C87.6235 519.328 81.9025 517.39 76.6481 514.675C75.8083 514.244 74.9828 513.792 74.1645 513.318C73.7266 513.067 73.2959 512.808 72.8652 512.542C64.9693 507.702 58.3151 501.038 53.4699 493.139C53.2043 492.716 52.9459 492.278 52.6946 491.84C52.2209 491.028 51.7686 490.195 51.338 489.355C49.9813 486.727 48.8184 483.983 47.8709 481.14C46.9162 478.296 46.1769 475.359 45.6744 472.343C45.136 469.147 44.8561 465.866 44.8561 462.519V423.282C44.8561 415.189 51.4169 408.626 59.5067 408.626C63.5552 408.626 67.2232 410.263 69.872 412.92C72.5207 415.57 74.1645 419.239 74.1645 423.282V462.519C74.1645 465.528 74.6167 468.429 75.4566 471.158C78.2991 480.407 85.5921 487.703 94.8376 490.554C97.5725 491.394 100.465 491.84 103.473 491.84C106.481 491.84 109.373 491.394 112.101 490.554C121.347 487.703 128.647 480.407 131.489 471.158C132.193 468.882 132.623 466.49 132.738 464.013C132.803 466.842 133.076 469.621 133.535 472.343C134.547 478.375 136.485 484.098 139.199 489.355C139.629 490.202 140.082 491.028 140.555 491.847C140.806 492.285 141.065 492.716 141.331 493.146C143.046 495.947 144.991 498.59 147.138 501.053Z" fill="#D81B60"/>
<path opacity="0.2" d="M162.09 456.509V462.519C162.09 463.029 162.083 463.539 162.068 464.041C162.04 463.539 162.025 463.036 162.025 462.526V435.418C162.04 435.669 162.047 435.921 162.047 436.172V455.474C162.076 455.812 162.09 456.164 162.09 456.509Z" fill="#F64A80"/>
<path opacity="0.2" d="M323.053 550.487C331.148 550.487 337.711 543.921 337.711 535.823C337.711 527.724 331.148 521.159 323.053 521.159C314.958 521.159 308.395 527.724 308.395 535.823C308.395 543.921 314.958 550.487 323.053 550.487Z" fill="#878787"/>
<path opacity="0.2" d="M147.382 450.606C155.477 450.606 162.039 444.04 162.039 435.942C162.039 427.843 155.477 421.278 147.382 421.278C139.286 421.278 132.724 427.843 132.724 435.942C132.724 444.04 139.286 450.606 147.382 450.606Z" fill="white"/>
<path opacity="0.2" d="M60.2245 401.035C68.3198 401.035 74.8823 394.47 74.8823 386.372C74.8823 378.273 68.3198 371.708 60.2245 371.708C52.1292 371.708 45.5667 378.273 45.5667 386.372C45.5667 394.47 52.1292 401.035 60.2245 401.035Z" fill="#D81B60"/>
<path d="M59.9374 401.057C68.0327 401.057 74.5952 394.492 74.5952 386.393C74.5952 378.295 68.0327 371.73 59.9374 371.73C51.8421 371.73 45.2796 378.295 45.2796 386.393C45.2796 394.492 51.8421 401.057 59.9374 401.057Z" stroke="black" stroke-width="0.2" stroke-miterlimit="10"/>
<path d="M147.353 450.85C155.448 450.85 162.011 444.285 162.011 436.186C162.011 428.088 155.448 421.522 147.353 421.522C139.258 421.522 132.695 428.088 132.695 436.186C132.695 444.285 139.258 450.85 147.353 450.85Z" stroke="black" stroke-width="0.2" stroke-miterlimit="10"/>
<path d="M235.077 431.921C242.812 431.921 249.082 425.648 249.082 417.911C249.082 410.173 242.812 403.9 235.077 403.9C227.343 403.9 221.073 410.173 221.073 417.911C221.073 425.648 227.343 431.921 235.077 431.921Z" stroke="black" stroke-width="0.2" stroke-miterlimit="10"/>
<path d="M322.766 550.695C330.861 550.695 337.424 544.13 337.424 536.032C337.424 527.933 330.861 521.368 322.766 521.368C314.67 521.368 308.108 527.933 308.108 536.032C308.108 544.13 314.67 550.695 322.766 550.695Z" stroke="black" stroke-width="0.2" stroke-miterlimit="10"/>
<path d="M102.891 521.038C135.102 521.038 161.214 494.915 161.214 462.692C161.214 430.468 135.102 404.346 102.891 404.346C70.6809 404.346 44.569 430.468 44.569 462.692C44.569 494.915 70.6809 521.038 102.891 521.038Z" stroke="black" stroke-width="0.2" stroke-miterlimit="10"/>
<path d="M103.186 491.839C119.372 491.839 132.494 478.712 132.494 462.519C132.494 446.326 119.372 433.199 103.186 433.199C86.9991 433.199 73.8773 446.326 73.8773 462.519C73.8773 478.712 86.9991 491.839 103.186 491.839Z" stroke="black" stroke-width="0.2" stroke-miterlimit="10"/>
<path d="M190.752 491.868C206.939 491.868 220.061 478.741 220.061 462.548C220.061 446.355 206.939 433.228 190.752 433.228C174.566 433.228 161.444 446.355 161.444 462.548C161.444 478.741 174.566 491.868 190.752 491.868Z" stroke="black" stroke-width="0.2" stroke-miterlimit="10"/>
<path d="M279.115 453.881C295.302 453.881 308.424 440.753 308.424 424.56C308.424 408.367 295.302 395.24 279.115 395.24C262.929 395.24 249.807 408.367 249.807 424.56C249.807 440.753 262.929 453.881 279.115 453.881Z" stroke="black" stroke-width="0.2" stroke-miterlimit="10"/>
<path d="M190.752 521.03C222.963 521.03 249.075 494.908 249.075 462.685C249.075 430.461 222.963 404.339 190.752 404.339C158.541 404.339 132.43 430.461 132.43 462.685C132.43 494.908 158.541 521.03 190.752 521.03Z" stroke="black" stroke-width="0.2" stroke-miterlimit="10"/>
<path d="M279.115 482.907C311.326 482.907 337.438 456.784 337.438 424.561C337.438 392.337 311.326 366.215 279.115 366.215C246.904 366.215 220.793 392.337 220.793 424.561C220.793 456.784 246.904 482.907 279.115 482.907Z" stroke="black" stroke-width="0.2" stroke-miterlimit="10"/>
<path d="M322.773 363.371H322.766C314.476 363.371 307.756 370.094 307.756 378.387V497.807C307.756 506.1 314.476 512.823 322.766 512.823H322.773C331.062 512.823 337.782 506.1 337.782 497.807V378.387C337.782 370.094 331.062 363.371 322.773 363.371Z" stroke="#050505" stroke-width="0.2" stroke-miterlimit="10"/>
<path d="M73.8774 423.311C73.8774 415.212 67.3165 408.647 59.2232 408.647C51.1299 408.647 44.569 415.212 44.569 423.311V505.929C44.569 514.027 51.1299 520.592 59.2232 520.592C67.3165 520.592 73.8774 514.027 73.8774 505.929V423.311Z" stroke="#050505" stroke-width="0.2" stroke-miterlimit="10"/>
<path d="M161.767 389.689C161.767 381.591 155.206 375.025 147.112 375.025C139.019 375.025 132.458 381.591 132.458 389.689V505.928C132.458 514.027 139.019 520.592 147.112 520.592C155.206 520.592 161.767 514.027 161.767 505.928V389.689Z" stroke="#050505" stroke-width="0.2" stroke-miterlimit="10"/>
<path d="M308.115 347.063L307.756 568.304" stroke="black" stroke-width="0.2" stroke-miterlimit="10"/>
<path d="M249.807 343.336L249.075 569.897" stroke="black" stroke-width="0.2" stroke-miterlimit="10"/>
<path d="M220.061 346V573.631" stroke="black" stroke-width="0.2" stroke-miterlimit="10"/>
<path d="M162.011 342.266V573.631" stroke="black" stroke-width="0.2" stroke-miterlimit="10"/>
<path d="M132.702 342.266V573.631" stroke="black" stroke-width="0.2" stroke-miterlimit="10"/>
<path d="M73.8774 342.266L74.5952 573.631" stroke="black" stroke-width="0.2" stroke-miterlimit="10"/>
<path d="M44.569 342.266V570.967" stroke="black" stroke-width="0.2" stroke-miterlimit="10"/>
<path d="M337.424 346L337.782 564.038" stroke="black" stroke-width="0.2" stroke-miterlimit="10"/>
<path d="M28.7267 371.73H350.057" stroke="black" stroke-width="0.2" stroke-miterlimit="10"/>
<path d="M19.0576 375.384L354.852 374.659" stroke="black" stroke-width="0.2" stroke-miterlimit="10"/>
<path d="M34.3257 404.339H353" stroke="black" stroke-width="0.2" stroke-miterlimit="10"/>
<path d="M34.3257 403.9H353" stroke="black" stroke-width="0.2" stroke-miterlimit="10"/>
<path d="M34.3257 408.647H353" stroke="black" stroke-width="0.2" stroke-miterlimit="10"/>
<path d="M34.3259 421.53H353" stroke="black" stroke-width="0.2" stroke-miterlimit="10"/>
<path d="M34.3257 432.625H353" stroke="black" stroke-width="0.2" stroke-miterlimit="10"/>
<path d="M34.3259 433.228H353" stroke="black" stroke-width="0.2" stroke-miterlimit="10"/>
<path d="M34.3257 450.851H353" stroke="black" stroke-width="0.2" stroke-miterlimit="10"/>
<path d="M34.3259 453.881H353" stroke="black" stroke-width="0.2" stroke-miterlimit="10"/>
<path d="M34.3257 462.519H353" stroke="black" stroke-width="0.2" stroke-miterlimit="10"/>
<path d="M35.8833 491.84H354.558" stroke="black" stroke-width="0.2" stroke-miterlimit="10"/>
<path d="M35.8834 521.188H354.558" stroke="black" stroke-width="0.2" stroke-miterlimit="10"/>
<path d="M34.3257 549.978H353" stroke="black" stroke-width="0.2" stroke-miterlimit="10"/>
<path d="M35.8834 512.815H354.558" stroke="black" stroke-width="0.2" stroke-miterlimit="10"/>
<path d="M34.3259 482.906H353" stroke="black" stroke-width="0.2" stroke-miterlimit="10"/>
<path d="M31.4185 395.24H350.093" stroke="black" stroke-width="0.2" stroke-miterlimit="10"/>
</g>
<circle cx="983.242" cy="352" r="16.5" fill="#D9D9D9" stroke="black"/>
<circle cx="937.242" cy="547" r="16.5" fill="#D9D9D9" stroke="black"/>
<path d="M981.702 359V348.86H983.682V359H981.702ZM981.802 346.64C981.575 346.4 981.462 346.106 981.462 345.76C981.462 345.413 981.575 345.12 981.802 344.88C982.042 344.64 982.335 344.52 982.682 344.52C983.029 344.52 983.322 344.64 983.562 344.88C983.802 345.12 983.922 345.413 983.922 345.76C983.922 346.093 983.802 346.38 983.562 346.62C983.322 346.86 983.029 346.98 982.682 346.98C982.335 346.98 982.042 346.866 981.802 346.64Z" fill="black"/>
<path d="M938.982 540.06V542.1C938.089 541.54 937.075 541.26 935.942 541.26C935.209 541.26 934.629 541.427 934.202 541.76C933.789 542.08 933.582 542.507 933.582 543.04C933.582 543.573 933.789 544 934.202 544.32C934.615 544.64 935.249 544.987 936.102 545.36C936.662 545.6 937.095 545.807 937.402 545.98C937.722 546.153 938.082 546.4 938.482 546.72C938.895 547.027 939.195 547.4 939.382 547.84C939.582 548.267 939.682 548.76 939.682 549.32C939.682 550.507 939.262 551.44 938.422 552.12C937.582 552.8 936.495 553.14 935.162 553.14C933.682 553.14 932.455 552.853 931.482 552.28V550.14C932.535 550.927 933.755 551.32 935.142 551.32C935.875 551.32 936.455 551.153 936.882 550.82C937.309 550.473 937.522 550 937.522 549.4C937.522 549.04 937.395 548.713 937.142 548.42C936.889 548.113 936.615 547.887 936.322 547.74C936.029 547.58 935.589 547.367 935.002 547.1C934.655 546.94 934.409 546.827 934.262 546.76C934.129 546.693 933.902 546.573 933.582 546.4C933.262 546.227 933.022 546.08 932.862 545.96C932.715 545.84 932.529 545.673 932.302 545.46C932.075 545.247 931.909 545.033 931.802 544.82C931.709 544.607 931.615 544.36 931.522 544.08C931.442 543.787 931.402 543.473 931.402 543.14C931.402 541.993 931.815 541.087 932.642 540.42C933.482 539.753 934.562 539.42 935.882 539.42C937.095 539.42 938.129 539.633 938.982 540.06Z" fill="black"/>
<line x1="915.907" y1="412.409" x2="969.751" y2="361.888" stroke="black" stroke-width="2"/>
<line x1="951.136" y1="536.996" x2="1011.19" y2="494.045" stroke="black" stroke-width="2"/>
<path d="M1078.37 436.47V471.105C1078.37 474.928 1075.27 478.03 1071.44 478.03C1067.62 478.03 1064.52 474.928 1064.52 471.105V436.47C1064.52 435.052 1064.3 433.681 1063.91 432.392C1062.56 428.022 1059.11 424.571 1054.74 423.228C1053.45 422.831 1052.08 422.617 1050.66 422.617C1049.25 422.617 1047.88 422.831 1046.59 423.228C1042.22 424.571 1038.77 428.022 1037.42 432.392C1037.33 432.69 1037.25 432.996 1037.17 433.304L1036.58 435.425C1035.54 437.936 1033.07 439.703 1030.18 439.703C1026.35 439.703 1023.25 436.602 1023.25 432.775C1023.25 432.015 1023.38 431.282 1023.6 430.597C1023.6 430.611 1023.59 430.624 1023.58 430.641C1023.58 430.655 1023.57 430.672 1023.56 430.685C1024.08 428.256 1024.91 425.942 1026.02 423.794C1026.23 423.397 1026.44 423.004 1026.66 422.617C1026.78 422.41 1026.9 422.206 1027.03 422.003C1029.32 418.271 1032.46 415.125 1036.2 412.835C1036.4 412.71 1036.6 412.587 1036.81 412.469C1037.2 412.245 1037.59 412.031 1037.99 411.827C1040.47 410.545 1043.18 409.629 1046.03 409.15C1047.54 408.896 1049.08 408.764 1050.66 408.764C1052.25 408.764 1053.79 408.896 1055.3 409.15C1058.15 409.632 1060.86 410.548 1063.34 411.827C1063.74 412.031 1064.13 412.245 1064.52 412.469C1064.72 412.587 1064.93 412.71 1065.13 412.835C1068.86 415.122 1072.01 418.271 1074.3 422.003C1074.42 422.206 1074.55 422.41 1074.67 422.617C1074.89 423.004 1075.1 423.394 1075.31 423.791C1076.59 426.274 1077.51 428.979 1077.99 431.829C1078.24 433.338 1078.37 434.886 1078.37 436.467L1078.37 436.47Z" fill="#878787"/>
<path d="M1036.89 433.498V454.279C1036.89 455.86 1036.76 457.411 1036.5 458.917C1036.02 461.767 1035.11 464.472 1033.83 466.955C1033.62 467.352 1033.41 467.746 1033.18 468.132C1033.07 468.339 1032.94 468.543 1032.82 468.747C1030.53 472.479 1027.38 475.624 1023.65 477.914C1023.45 478.04 1023.24 478.162 1023.04 478.281C1022.65 478.505 1022.26 478.718 1021.86 478.922C1019.38 480.204 1016.67 481.12 1013.82 481.599C1012.31 481.853 1010.77 481.986 1009.19 481.986C1007.6 481.986 1006.06 481.853 1004.55 481.599C1001.7 481.117 998.994 480.201 996.51 478.922C996.113 478.718 995.719 478.505 995.333 478.281C995.126 478.162 994.922 478.04 994.719 477.914C992.31 476.438 990.145 474.603 988.299 472.486C987.285 471.322 986.365 470.073 985.551 468.75C985.425 468.546 985.303 468.343 985.185 468.136C984.961 467.749 984.747 467.359 984.543 466.959C983.261 464.475 982.345 461.771 981.866 458.921C981.612 457.411 981.479 455.864 981.479 454.283V419.648C981.479 415.821 984.581 412.72 988.408 412.72C992.235 412.72 995.082 415.573 995.319 419.187C995.329 419.339 995.333 419.492 995.333 419.648V454.283C995.333 455.701 995.546 457.072 995.943 458.361C997.287 462.731 1000.74 466.182 1005.11 467.525C1006.4 467.922 1007.77 468.136 1009.19 468.136C1010.6 468.136 1011.97 467.922 1013.26 467.525C1017.63 466.182 1021.08 462.731 1022.43 458.361C1022.83 457.072 1023.04 455.701 1023.04 454.283V435.679C1023.08 434.377 1023.2 433.094 1023.42 431.839C1023.48 431.452 1023.55 431.068 1023.63 430.688C1023.64 430.675 1023.65 430.658 1023.65 430.644C1024.74 428.256 1027.13 426.59 1029.92 426.573H1030.01C1033.81 426.597 1036.89 429.688 1036.89 433.498Z" fill="#4F4F4F"/>
<path d="M1023.04 433.895V434.695H1023.03C1023.03 434.427 1023.03 434.163 1023.04 433.895Z" fill="#231815"/>
<path d="M922.413 451.436V454.276C922.413 455.613 922.318 456.926 922.135 458.209C922.101 458.446 922.067 458.68 922.026 458.914C921.544 461.768 920.628 464.472 919.349 466.955C919.142 467.352 918.928 467.746 918.704 468.129C918.586 468.336 918.463 468.543 918.341 468.743C916.051 472.476 912.906 475.624 909.174 477.911C908.97 478.037 908.767 478.159 908.56 478.277C908.173 478.501 907.783 478.715 907.382 478.919C906.14 479.56 904.844 480.11 903.501 480.558C902.157 481.009 900.769 481.355 899.344 481.596C897.835 481.85 896.287 481.983 894.706 481.983C893.125 481.983 891.575 481.85 890.068 481.596H890.065C887.215 481.117 884.511 480.201 882.027 478.919C881.63 478.715 881.24 478.501 880.853 478.277C880.646 478.159 880.443 478.037 880.239 477.911C876.507 475.624 873.362 472.476 871.071 468.743C870.946 468.543 870.824 468.336 870.705 468.129C870.481 467.746 870.267 467.352 870.064 466.955C869.423 465.714 868.873 464.418 868.425 463.074C867.974 461.73 867.624 460.343 867.387 458.918C867.132 457.408 867 455.857 867 454.276V435.737C867 431.914 870.101 428.812 873.925 428.812C875.838 428.812 877.572 429.586 878.824 430.841C880.076 432.093 880.853 433.827 880.853 435.737V454.276C880.853 455.698 881.067 457.069 881.464 458.358C882.807 462.728 886.255 466.175 890.625 467.522C891.917 467.919 893.285 468.129 894.706 468.129C896.128 468.129 897.495 467.919 898.785 467.522C903.155 466.175 906.605 462.728 907.949 458.358C908.346 457.069 908.56 455.698 908.56 454.276V453.496C908.539 453.292 908.529 453.085 908.529 452.875V441.828C908.529 437.997 911.634 434.896 915.461 434.896C917.378 434.896 919.108 435.673 920.363 436.925C921.619 438.18 922.392 439.914 922.392 441.828V450.948C922.406 451.107 922.413 451.273 922.413 451.436Z" fill="#D81B60"/>
<path d="M1071.44 495.839C1075.27 495.839 1078.37 492.737 1078.37 488.911C1078.37 485.084 1075.27 481.982 1071.44 481.982C1067.62 481.982 1064.51 485.084 1064.51 488.911C1064.51 492.737 1067.62 495.839 1071.44 495.839Z" fill="#878787"/>
<path d="M874.264 425.226C878.091 425.226 881.193 422.124 881.193 418.297C881.193 414.471 878.091 411.369 874.264 411.369C870.438 411.369 867.336 414.471 867.336 418.297C867.336 422.124 870.438 425.226 874.264 425.226Z" fill="#D81B60"/>
<path d="M944.646 448.647H958.32" stroke="#231815" stroke-width="3" stroke-miterlimit="10" stroke-linecap="round"/>
<path d="M951.483 455.481V441.811" stroke="#231815" stroke-width="3" stroke-miterlimit="10" stroke-linecap="round"/>
<path d="M518.657 111.495V199.619C518.657 209.348 510.779 217.239 501.056 217.239C491.333 217.239 483.464 209.348 483.464 199.619V111.495C483.464 107.887 482.921 104.399 481.912 101.119C478.49 89.9998 469.733 81.2202 458.631 77.8016C455.356 76.7916 451.873 76.2477 448.27 76.2477C444.667 76.2477 441.185 76.7916 437.91 77.8016C426.808 81.2202 418.042 89.9998 414.629 101.119C414.396 101.878 414.189 102.655 413.999 103.441L412.491 108.837C409.845 115.225 403.561 119.722 396.226 119.722C386.512 119.722 378.634 111.832 378.634 102.094C378.634 100.161 378.944 98.2959 379.521 96.5521C379.504 96.5866 379.487 96.6211 379.47 96.6643C379.452 96.6988 379.435 96.742 379.418 96.7765C380.728 90.5954 382.848 84.7079 385.667 79.2433C386.184 78.2333 386.736 77.2319 387.296 76.2477C387.598 75.7211 387.908 75.2031 388.227 74.6852C394.045 65.1891 402.035 57.1865 411.517 51.3594C412.034 51.0399 412.551 50.7292 413.077 50.427C414.06 49.8572 415.051 49.3134 416.068 48.7954C422.377 45.5322 429.247 43.2014 436.488 41.9841C440.323 41.3367 444.254 41 448.27 41C452.287 41 456.218 41.3367 460.053 41.9841C467.294 43.21 474.163 45.5409 480.473 48.7954C481.481 49.3134 482.481 49.8572 483.464 50.427C483.989 50.7292 484.507 51.0399 485.024 51.3594C494.505 57.1779 502.496 65.1891 508.314 74.6852C508.633 75.2031 508.943 75.7211 509.245 76.2477C509.813 77.2319 510.356 78.2246 510.882 79.2347C514.132 85.5539 516.459 92.4342 517.683 99.6858C518.33 103.527 518.666 107.464 518.666 111.487L518.657 111.495Z" fill="#878787"/>
<path d="M272.502 153.235C272.502 153.771 272.528 154.297 272.58 154.815V156.8C272.58 157.404 272.563 158 272.528 158.595C272.511 158 272.502 157.404 272.502 156.809V153.235Z" fill="#40B2DB"/>
<path d="M302.567 112.654C299.378 109.468 294.982 107.492 290.112 107.492C280.389 107.492 272.502 115.382 272.502 125.128V68.6871C272.502 58.9493 280.38 51.0589 290.095 51.0589C299.809 51.0589 307.049 58.3278 307.653 67.5131C307.678 67.9015 307.696 68.29 307.696 68.6871V124.222C307.472 119.716 305.558 115.65 302.567 112.654Z" fill="#686868"/>
<path d="M413.275 103.934V156.81C413.275 160.833 412.939 164.77 412.292 168.611C411.68 172.237 410.793 175.768 409.655 179.187C408.508 182.605 407.112 185.903 405.492 189.062C404.966 190.081 404.423 191.074 403.854 192.058C403.552 192.585 403.242 193.103 402.932 193.621C397.113 203.108 389.115 211.119 379.642 216.938C379.125 217.257 378.607 217.568 378.082 217.87C377.099 218.44 376.108 218.984 375.091 219.51C371.936 221.142 368.643 222.532 365.23 223.68C361.817 224.82 358.291 225.709 354.671 226.322C350.835 226.969 346.905 227.306 342.888 227.306C338.872 227.306 334.932 226.969 331.105 226.322H331.097C323.856 225.096 316.987 222.765 310.677 219.51C309.669 218.984 308.669 218.44 307.695 217.87C307.169 217.568 306.643 217.257 306.135 216.938C300.153 213.269 294.757 208.719 290.128 203.479C292.844 200.415 295.283 197.117 297.429 193.612C297.739 193.103 298.05 192.576 298.351 192.049C298.92 191.074 299.463 190.073 299.989 189.062C303.239 182.743 305.566 175.863 306.79 168.611C306.893 168.007 306.98 167.411 307.066 166.807C307.445 164.131 307.678 161.403 307.747 158.632C307.893 161.593 308.41 164.459 309.246 167.187C312.66 178.306 321.417 187.086 332.519 190.504C335.803 191.514 339.277 192.058 342.888 192.058C346.5 192.058 349.973 191.514 353.249 190.504C364.351 187.086 373.117 178.306 376.53 167.187C377.539 163.907 378.082 160.419 378.082 156.81V109.477C378.176 106.162 378.495 102.899 379.03 99.7044C379.202 98.7289 379.383 97.7534 379.59 96.7865C379.607 96.752 379.625 96.7088 379.642 96.6743C382.383 90.5968 388.477 86.3581 395.562 86.3149H395.795C405.457 86.3754 413.275 94.2398 413.275 103.934Z" fill="#4F4F4F"/>
<path d="M307.747 158.632C307.678 161.403 307.446 164.131 307.066 166.807C306.98 167.411 306.894 168.007 306.791 168.603C305.567 175.863 303.239 182.743 299.99 189.062C299.464 190.072 298.921 191.074 298.352 192.049C298.05 192.576 297.74 193.102 297.43 193.612C295.284 197.117 292.844 200.414 290.129 203.479C290.026 203.367 289.922 203.246 289.819 203.125C287.242 200.164 284.906 196.987 282.846 193.62C282.527 193.102 282.216 192.584 281.915 192.058C281.346 191.074 280.803 190.081 280.286 189.062C277.027 182.743 274.7 175.863 273.485 168.611C272.933 165.339 272.606 161.998 272.528 158.597C272.563 158.001 272.58 157.406 272.58 156.802V154.816C272.528 154.298 272.502 153.771 272.502 153.236V125.128C272.502 115.381 280.389 107.491 290.112 107.491C294.982 107.491 299.378 109.468 302.567 112.653C305.558 115.649 307.472 119.715 307.696 124.221V156.81C307.696 157.423 307.713 158.027 307.747 158.632Z" fill="#964163"/>
<path d="M289.819 203.124C289.922 203.245 290.026 203.366 290.129 203.478C285.518 208.718 280.122 213.268 274.14 216.937C273.623 217.256 273.106 217.567 272.58 217.869C271.597 218.439 270.606 218.983 269.589 219.501C266.434 221.132 263.142 222.531 259.728 223.67C256.315 224.819 252.79 225.699 249.17 226.312C245.334 226.96 241.403 227.296 237.387 227.296C233.37 227.296 229.431 226.96 225.604 226.312H225.595C218.355 225.095 211.485 222.764 205.176 219.501C204.167 218.983 203.176 218.439 202.193 217.869C201.668 217.567 201.15 217.256 200.633 216.937C191.152 211.118 183.162 203.107 177.343 193.611C177.024 193.102 176.714 192.575 176.412 192.049C175.844 191.073 175.301 190.072 174.783 189.062C173.154 185.902 171.758 182.604 170.62 179.186C169.474 175.767 168.586 172.236 167.983 168.61C167.336 164.769 167 160.824 167 156.801V109.631C167 99.902 174.878 92.0117 184.592 92.0117C189.454 92.0117 193.858 93.9799 197.039 97.1741C200.219 100.36 202.193 104.771 202.193 109.631V156.801C202.193 160.418 202.736 163.906 203.745 167.186C207.158 178.305 215.916 187.076 227.017 190.503C230.301 191.513 233.775 192.049 237.387 192.049C240.998 192.049 244.472 191.513 247.747 190.503C258.849 187.076 267.615 178.305 271.029 167.186C271.873 164.449 272.39 161.575 272.528 158.596C272.606 161.998 272.933 165.339 273.485 168.61C274.7 175.862 277.028 182.742 280.286 189.062C280.803 190.08 281.346 191.073 281.915 192.057C282.217 192.584 282.527 193.102 282.846 193.62C284.906 196.986 287.242 200.163 289.819 203.124Z" fill="#D81B60"/>
<path d="M307.772 149.575V156.8C307.772 157.413 307.763 158.026 307.746 158.63C307.712 158.026 307.694 157.422 307.694 156.809V124.22C307.712 124.522 307.72 124.824 307.72 125.127V148.332C307.755 148.737 307.772 149.16 307.772 149.575Z" fill="#F64A80"/>
<path d="M501.055 262.554C510.776 262.554 518.656 254.662 518.656 244.926C518.656 235.19 510.776 227.298 501.055 227.298C491.335 227.298 483.454 235.19 483.454 244.926C483.454 254.662 491.335 262.554 501.055 262.554Z" fill="#878787"/>
<path d="M290.112 142.477C299.833 142.477 307.713 134.585 307.713 124.849C307.713 115.113 299.833 107.221 290.112 107.221C280.391 107.221 272.511 115.113 272.511 124.849C272.511 134.585 280.391 142.477 290.112 142.477Z" fill="white"/>
<path d="M185.453 82.8868C195.174 82.8868 203.054 74.9944 203.054 65.2586C203.054 55.5228 195.174 47.6304 185.453 47.6304C175.732 47.6304 167.852 55.5228 167.852 65.2586C167.852 74.9944 175.732 82.8868 185.453 82.8868Z" fill="#D81B60"/>
<path d="M562.048 145.499C560.152 145.499 558.549 146.156 557.238 147.468C555.928 148.78 555.273 150.437 555.273 152.423V210.53C555.273 212.525 555.902 214.173 557.169 215.486C558.436 216.798 560.065 217.454 562.048 217.454C564.03 217.454 565.66 216.798 566.927 215.486C568.194 214.173 568.823 212.525 568.823 210.53V152.423C568.823 150.437 568.194 148.78 566.927 147.468C565.66 146.156 564.03 145.499 562.048 145.499Z" fill="black"/>
<path d="M562.047 139.015C565.788 139.015 568.821 135.977 568.821 132.231C568.821 128.484 565.788 125.446 562.047 125.446C558.306 125.446 555.273 128.484 555.273 132.231C555.273 135.977 558.306 139.015 562.047 139.015Z" fill="#D81B60"/>
<path d="M623.867 144.42C630.28 144.42 635.253 145.758 638.779 148.426C642.304 151.093 644.761 154.667 646.166 159.148C647.562 163.628 648.269 168.635 648.269 174.151V210.539C648.269 212.533 647.614 214.182 646.304 215.494C644.993 216.806 643.39 217.462 641.494 217.462C639.598 217.462 637.857 216.806 636.546 215.494C635.236 214.182 634.581 212.533 634.581 210.539V174.289C634.581 171.035 634.124 168.108 633.228 165.536C632.323 162.955 630.789 160.9 628.617 159.355C626.444 157.818 623.376 157.05 619.394 157.05C615.687 157.05 612.429 157.818 609.636 159.355C606.835 160.891 604.637 162.955 603.06 165.536C601.474 168.117 600.689 171.035 600.689 174.289V210.539C600.689 212.533 600.034 214.182 598.724 215.494C597.414 216.806 595.811 217.462 593.914 217.462C592.018 217.462 590.277 216.806 588.967 215.494C587.657 214.182 587.002 212.533 587.002 210.539V152.966C587.002 150.981 587.657 149.323 588.967 148.011C590.277 146.699 591.923 146.043 593.914 146.043C595.906 146.043 597.414 146.699 598.724 148.011C600.034 149.323 600.689 150.981 600.689 152.966V160.572L598.25 161.927C598.879 159.933 599.991 157.922 601.569 155.884C603.146 153.847 605.068 151.948 607.326 150.178C609.585 148.417 612.119 147.01 614.92 145.965C617.721 144.929 620.704 144.403 623.867 144.403V144.42Z" fill="black"/>
<path d="M662.904 206.326C662.094 205.057 661.732 203.589 661.818 201.915C661.904 200.24 662.852 198.815 664.662 197.641C665.929 196.83 667.257 196.485 668.662 196.623C670.058 196.761 671.394 197.46 672.661 198.729C675.187 201.535 678.014 203.753 681.134 205.385C684.254 207.017 688.021 207.828 692.452 207.828C694.262 207.742 696.115 207.44 698.011 206.947C699.907 206.455 701.537 205.549 702.89 204.228C704.243 202.916 704.924 200.991 704.924 198.461C704.924 196.2 704.2 194.413 702.752 193.1C701.304 191.788 699.407 190.683 697.054 189.777C694.701 188.87 692.124 188.059 689.331 187.334C686.435 186.522 683.548 185.616 680.652 184.614C677.755 183.622 675.118 182.327 672.722 180.747C670.325 179.167 668.403 177.104 666.964 174.566C665.516 172.036 664.792 168.911 664.792 165.199C664.792 160.943 665.964 157.283 668.317 154.201C670.662 151.128 673.782 148.728 677.669 147.001C681.557 145.283 685.711 144.42 690.142 144.42C692.857 144.42 695.649 144.757 698.546 145.439C701.442 146.121 704.243 147.183 706.95 148.633C709.665 150.083 712.009 151.982 714 154.339C714.905 155.513 715.423 156.92 715.56 158.552C715.698 160.184 714.948 161.677 713.319 163.032C712.233 163.939 710.923 164.319 709.389 164.189C707.855 164.051 706.588 163.533 705.596 162.627C703.881 160.451 701.666 158.785 698.951 157.602C696.236 156.428 693.167 155.841 689.728 155.841C688.013 155.841 686.228 156.066 684.375 156.523C682.522 156.981 680.962 157.836 679.695 159.105C678.428 160.374 677.798 162.23 677.798 164.673C677.798 166.934 678.548 168.747 680.04 170.103C681.531 171.458 683.496 172.598 685.935 173.495C688.375 174.402 691.038 175.213 693.934 175.938C696.735 176.664 699.511 177.527 702.269 178.52C705.027 179.512 707.51 180.807 709.725 182.387C711.94 183.976 713.742 186.004 715.147 188.499C716.543 190.994 717.25 194.136 717.25 197.935C717.25 202.372 715.966 206.153 713.388 209.27C710.811 212.386 707.562 214.769 703.631 216.4C699.701 218.032 695.563 218.843 691.228 218.843C686.073 218.843 680.945 217.911 675.842 216.064C670.739 214.208 666.421 210.97 662.895 206.352L662.904 206.326Z" fill="black"/>
<path d="M730.965 146.861H762.822C764.632 146.861 766.141 147.474 767.365 148.691C768.589 149.917 769.192 151.428 769.192 153.241C769.192 155.054 768.58 156.547 767.365 157.721C766.141 158.895 764.632 159.483 762.822 159.483H730.965C729.155 159.483 727.646 158.87 726.422 157.652C725.198 156.435 724.595 154.916 724.595 153.103C724.595 151.29 725.207 149.796 726.422 148.622C727.646 147.448 729.155 146.861 730.965 146.861ZM745.196 129.207C747.187 129.207 748.807 129.863 750.074 131.176C751.341 132.488 751.97 134.145 751.97 136.131V199.133C751.97 200.765 752.238 202.077 752.781 203.069C753.324 204.062 754.065 204.744 755.022 205.107C755.97 205.469 756.944 205.651 757.935 205.651C758.926 205.651 759.814 205.469 760.581 205.107C761.348 204.744 762.279 204.563 763.357 204.563C764.434 204.563 765.434 205.064 766.339 206.056C767.244 207.058 767.692 208.413 767.692 210.131C767.692 212.307 766.52 214.068 764.167 215.423C761.814 216.778 759.288 217.46 756.573 217.46C755.039 217.46 753.229 217.322 751.152 217.055C749.074 216.787 747.057 216.105 745.118 215.017C743.17 213.93 741.55 212.186 740.239 209.786C738.929 207.386 738.274 204.019 738.274 199.668V136.131C738.274 134.137 738.955 132.488 740.308 131.176C741.662 129.863 743.291 129.207 745.187 129.207H745.196Z" fill="black"/>
<path d="M842.663 144.964C844.646 144.964 846.275 145.62 847.542 146.932C848.809 148.244 849.438 149.902 849.438 151.888V210.539C849.438 212.533 848.809 214.182 847.542 215.494C846.275 216.806 844.646 217.462 842.663 217.462C840.681 217.462 839.052 216.806 837.785 215.494C836.518 214.182 835.888 212.533 835.888 210.539V200.766L838.733 201.31C838.733 202.847 838.078 204.634 836.768 206.671C835.457 208.709 833.673 210.634 831.415 212.438C829.156 214.251 826.484 215.762 823.416 216.987C820.339 218.213 817.046 218.818 813.521 218.818C807.289 218.818 801.678 217.212 796.713 214C791.739 210.789 787.809 206.378 784.921 200.766C782.025 195.155 780.586 188.775 780.586 181.619C780.586 174.462 782.034 167.841 784.921 162.273C787.809 156.705 791.722 152.336 796.644 149.168C801.566 146 807.013 144.42 812.978 144.42C816.865 144.42 820.451 145.05 823.752 146.319C827.053 147.588 829.924 149.22 832.363 151.206C834.802 153.2 836.699 155.306 838.06 157.516C839.414 159.735 840.095 161.841 840.095 163.827L835.888 164.232V151.879C835.888 149.98 836.518 148.348 837.785 146.993C839.052 145.637 840.672 144.955 842.663 144.955V144.964ZM815.012 206.335C819.261 206.335 823.011 205.247 826.26 203.08C829.51 200.905 832.044 197.943 833.854 194.188C835.664 190.433 836.569 186.246 836.569 181.628C836.569 177.009 835.664 172.822 833.854 169.067C832.044 165.311 829.519 162.368 826.26 160.244C823.002 158.12 819.253 157.05 815.012 157.05C810.771 157.05 807.168 158.112 803.962 160.244C800.755 162.368 798.221 165.294 796.368 168.998C794.515 172.71 793.592 176.923 793.592 181.628C793.592 186.332 794.515 190.433 796.368 194.188C798.221 197.943 800.747 200.913 803.962 203.08C807.168 205.255 810.849 206.335 815.012 206.335Z" fill="black"/>
<path d="M904.345 147.269C906.155 147.269 907.647 147.856 908.819 149.03C909.991 150.204 910.577 151.697 910.577 153.51C910.577 155.323 909.991 156.816 908.819 157.991C907.647 159.165 906.155 159.76 904.345 159.76H869.229C867.514 159.76 866.04 159.173 864.825 157.991C863.601 156.816 862.998 155.323 862.998 153.51C862.998 151.697 863.61 150.204 864.825 149.03C866.049 147.856 867.514 147.269 869.229 147.269H904.345ZM901.63 117.123C903.345 117.123 905.112 117.347 906.914 117.805C908.724 118.262 910.232 119.031 911.456 120.11C912.68 121.189 913.284 122.605 913.284 124.323C913.284 126.222 912.741 127.741 911.655 128.872C910.569 130.003 909.301 130.573 907.862 130.573C906.957 130.573 905.742 130.348 904.199 129.891C902.664 129.442 901.122 129.209 899.587 129.209C897.51 129.209 895.838 129.684 894.571 130.633C893.304 131.583 892.399 132.757 891.856 134.164C891.313 135.571 891.045 136.944 891.045 138.308V210.538C891.045 212.533 890.39 214.181 889.08 215.494C887.77 216.806 886.167 217.462 884.27 217.462C882.374 217.462 880.659 216.806 879.392 215.494C878.125 214.181 877.496 212.533 877.496 210.538V138.446C877.496 132.196 879.547 127.085 883.667 123.105C887.779 119.126 893.769 117.131 901.63 117.131V117.123ZM960.062 147.269C961.872 147.269 963.363 147.856 964.535 149.03C965.707 150.204 966.294 151.697 966.294 153.51C966.294 155.323 965.707 156.816 964.535 157.991C963.363 159.165 961.872 159.76 960.062 159.76H924.946C923.231 159.76 921.757 159.173 920.541 157.991C919.317 156.816 918.714 155.323 918.714 153.51C918.714 151.697 919.326 150.204 920.541 149.03C921.765 147.856 923.231 147.269 924.946 147.269H960.062ZM957.347 117.123C959.062 117.123 960.829 117.347 962.63 117.805C964.44 118.262 965.949 119.031 967.173 120.11C968.397 121.189 969 122.605 969 124.323C969 126.222 968.457 127.741 967.371 128.872C966.285 130.003 965.018 130.573 963.578 130.573C962.673 130.573 961.458 130.348 959.915 129.891C958.381 129.442 956.838 129.209 955.304 129.209C953.226 129.209 951.554 129.684 950.287 130.633C949.02 131.583 948.115 132.757 947.572 134.164C947.029 135.571 946.762 136.944 946.762 138.308V210.538C946.762 212.533 946.107 214.181 944.797 215.494C943.486 216.806 941.883 217.462 939.987 217.462C938.091 217.462 936.375 216.806 935.108 215.494C933.841 214.181 933.212 212.533 933.212 210.538V138.446C933.212 132.196 935.263 127.085 939.383 123.105C943.495 119.126 949.486 117.131 957.347 117.131V117.123Z" fill="black"/>
<path d="M742.631 428.011V497.139C742.631 504.771 736.451 510.961 728.824 510.961C721.197 510.961 715.024 504.771 715.024 497.139V428.011C715.024 425.181 714.598 422.445 713.807 419.872C711.122 411.149 704.253 404.262 695.544 401.581C692.975 400.788 690.243 400.362 687.417 400.362C684.59 400.362 681.859 400.788 679.289 401.581C670.581 404.262 663.704 411.149 661.027 419.872C660.844 420.467 660.682 421.077 660.533 421.693L659.35 425.926C657.274 430.937 652.345 434.465 646.591 434.465C638.971 434.465 632.791 428.275 632.791 420.637C632.791 419.12 633.034 417.657 633.487 416.289C633.474 416.316 633.46 416.343 633.447 416.377C633.433 416.404 633.42 416.438 633.406 416.465C634.434 411.617 636.097 406.998 638.308 402.712C638.714 401.919 639.147 401.134 639.586 400.362C639.823 399.949 640.066 399.542 640.316 399.136C644.88 391.687 651.148 385.409 658.586 380.838C658.991 380.588 659.397 380.344 659.81 380.107C660.58 379.66 661.358 379.233 662.156 378.827C667.105 376.267 672.494 374.439 678.174 373.484C681.183 372.976 684.266 372.712 687.417 372.712C690.568 372.712 693.651 372.976 696.66 373.484C702.339 374.446 707.728 376.274 712.678 378.827C713.469 379.233 714.253 379.66 715.024 380.107C715.436 380.344 715.842 380.588 716.248 380.838C723.685 385.402 729.953 391.687 734.517 399.136C734.767 399.542 735.011 399.949 735.247 400.362C735.694 401.134 736.12 401.912 736.532 402.705C739.081 407.662 740.907 413.059 741.867 418.747C742.374 421.761 742.638 424.849 742.638 428.005L742.631 428.011Z" fill="#878787" fill-opacity="0.1"/>
<path d="M549.537 460.754C549.537 461.174 549.557 461.587 549.598 461.993V463.55C549.598 464.024 549.584 464.491 549.557 464.959C549.544 464.491 549.537 464.024 549.537 463.557V460.754Z" fill="#40B2DB"/>
<path d="M573.121 428.92C570.619 426.421 567.171 424.871 563.351 424.871C555.724 424.871 549.537 431.06 549.537 438.706V394.431C549.537 386.792 555.717 380.603 563.337 380.603C570.957 380.603 576.637 386.305 577.11 393.51C577.131 393.815 577.144 394.119 577.144 394.431V437.995C576.968 434.46 575.467 431.27 573.121 428.92Z" fill="#686868" fill-opacity="0.2"/>
<path d="M659.965 422.08V463.558C659.965 466.714 659.701 469.802 659.194 472.815C658.714 475.66 658.018 478.429 657.125 481.111C656.226 483.793 655.13 486.38 653.859 488.858C653.447 489.657 653.021 490.436 652.575 491.208C652.338 491.621 652.095 492.027 651.851 492.434C647.287 499.876 641.013 506.16 633.582 510.725C633.176 510.975 632.77 511.219 632.358 511.456C631.587 511.903 630.809 512.33 630.012 512.743C627.537 514.023 624.954 515.113 622.276 516.014C619.599 516.907 616.834 517.605 613.994 518.086C610.985 518.594 607.902 518.858 604.751 518.858C601.6 518.858 598.51 518.594 595.508 518.086H595.501C589.821 517.124 584.433 515.296 579.483 512.743C578.692 512.33 577.908 511.903 577.144 511.456C576.731 511.219 576.319 510.975 575.92 510.725C571.227 507.847 566.995 504.278 563.364 500.167C565.494 497.763 567.407 495.176 569.091 492.427C569.334 492.027 569.578 491.614 569.814 491.201C570.26 490.436 570.686 489.65 571.099 488.858C573.648 483.901 575.474 478.504 576.434 472.815C576.515 472.341 576.582 471.874 576.65 471.4C576.948 469.301 577.13 467.161 577.184 464.987C577.299 467.31 577.705 469.558 578.361 471.698C581.038 480.42 587.908 487.307 596.617 489.989C599.193 490.781 601.918 491.208 604.751 491.208C607.584 491.208 610.309 490.781 612.878 489.989C621.587 487.307 628.463 480.42 631.141 471.698C631.932 469.125 632.358 466.389 632.358 463.558V426.428C632.432 423.827 632.682 421.268 633.102 418.762C633.237 417.997 633.379 417.232 633.541 416.473C633.555 416.446 633.568 416.412 633.582 416.385C635.732 411.618 640.512 408.293 646.07 408.259H646.253C653.832 408.306 659.965 414.475 659.965 422.08Z" fill="#E1E1E1"/>
<path d="M632.358 422.866V424.464H632.338C632.338 423.929 632.345 423.401 632.358 422.866Z" fill="#231815"/>
<path d="M577.185 464.987C577.131 467.161 576.948 469.301 576.651 471.4C576.583 471.874 576.515 472.341 576.434 472.809C575.474 478.504 573.649 483.901 571.099 488.858C570.687 489.65 570.261 490.436 569.815 491.201C569.578 491.614 569.335 492.027 569.091 492.427C567.408 495.176 565.494 497.763 563.364 500.167C563.283 500.079 563.202 499.984 563.121 499.889C561.099 497.567 559.267 495.075 557.651 492.434C557.401 492.027 557.157 491.621 556.921 491.208C556.474 490.436 556.048 489.657 555.643 488.858C553.087 483.901 551.261 478.504 550.308 472.815C549.875 470.249 549.618 467.628 549.557 464.96C549.584 464.493 549.598 464.025 549.598 463.551V461.994C549.557 461.587 549.537 461.174 549.537 460.754V438.705C549.537 431.06 555.724 424.87 563.351 424.87C567.171 424.87 570.619 426.421 573.121 428.92C575.467 431.27 576.968 434.459 577.144 437.994V463.558C577.144 464.039 577.158 464.513 577.185 464.987Z" fill="#964163"/>
<path d="M563.121 499.889C563.202 499.984 563.283 500.078 563.364 500.167C559.747 504.277 555.514 507.846 550.822 510.724C550.416 510.975 550.011 511.218 549.598 511.455C548.827 511.902 548.05 512.329 547.252 512.735C544.777 514.015 542.194 515.112 539.517 516.006C536.839 516.907 534.074 517.597 531.234 518.078C528.225 518.586 525.142 518.85 521.991 518.85C518.84 518.85 515.75 518.586 512.748 518.078H512.741C507.062 517.123 501.673 515.295 496.723 512.735C495.932 512.329 495.155 511.902 494.384 511.455C493.971 511.218 493.566 510.975 493.16 510.724C485.722 506.16 479.455 499.875 474.891 492.426C474.64 492.027 474.397 491.614 474.16 491.201C473.714 490.435 473.288 489.65 472.882 488.857C471.605 486.379 470.509 483.792 469.617 481.11C468.717 478.429 468.021 475.659 467.548 472.815C467.041 469.801 466.777 466.706 466.777 463.551V426.549C466.777 418.917 472.957 412.728 480.577 412.728C484.39 412.728 487.846 414.272 490.341 416.777C492.836 419.276 494.384 422.736 494.384 426.549V463.551C494.384 466.388 494.81 469.124 495.601 471.697C498.279 480.42 505.148 487.3 513.857 489.988C516.433 490.781 519.158 491.201 521.991 491.201C524.824 491.201 527.549 490.781 530.118 489.988C538.827 487.3 545.704 480.42 548.381 471.697C549.044 469.551 549.449 467.296 549.558 464.959C549.618 467.627 549.875 470.248 550.308 472.815C551.261 478.503 553.087 483.9 555.643 488.857C556.049 489.657 556.475 490.435 556.921 491.207C557.157 491.62 557.401 492.027 557.651 492.433C559.267 495.074 561.099 497.566 563.121 499.889Z" fill="#D81B60" fill-opacity="0.2"/>
<path d="M577.204 457.882V463.55C577.204 464.031 577.197 464.512 577.184 464.986C577.157 464.512 577.143 464.038 577.143 463.557V437.993C577.157 438.23 577.164 438.467 577.164 438.704V456.907C577.191 457.225 577.204 457.557 577.204 457.882Z" fill="#F64A80"/>
<path d="M728.824 546.508C736.449 546.508 742.63 540.317 742.63 532.68C742.63 525.043 736.449 518.852 728.824 518.852C721.198 518.852 715.017 525.043 715.017 532.68C715.017 540.317 721.198 546.508 728.824 546.508Z" fill="#878787"/>
<path d="M728.824 546.508C736.449 546.508 742.63 540.317 742.63 532.68C742.63 525.043 736.449 518.852 728.824 518.852C721.198 518.852 715.017 525.043 715.017 532.68C715.017 540.317 721.198 546.508 728.824 546.508Z" stroke="black"/>
<path d="M563.351 452.315C570.976 452.315 577.158 446.124 577.158 438.486C577.158 430.849 570.976 424.658 563.351 424.658C555.726 424.658 549.544 430.849 549.544 438.486C549.544 446.124 555.726 452.315 563.351 452.315Z" fill="white"/>
<path d="M563.351 452.315C570.976 452.315 577.158 446.124 577.158 438.486C577.158 430.849 570.976 424.658 563.351 424.658C555.726 424.658 549.544 430.849 549.544 438.486C549.544 446.124 555.726 452.315 563.351 452.315Z" stroke="black"/>
<path d="M481.252 405.57C488.878 405.57 495.059 399.378 495.059 391.741C495.059 384.104 488.878 377.913 481.252 377.913C473.627 377.913 467.445 384.104 467.445 391.741C467.445 399.378 473.627 405.57 481.252 405.57Z" fill="#D81B60"/>
<path d="M481.252 405.57C488.878 405.57 495.059 399.378 495.059 391.741C495.059 384.104 488.878 377.913 481.252 377.913C473.627 377.913 467.445 384.104 467.445 391.741C467.445 399.378 473.627 405.57 481.252 405.57Z" stroke="black"/>
<line x1="445.244" y1="373.564" x2="756.244" y2="547.564" stroke="black"/>
<defs>
<clipPath id="clip0_51_3757">
<rect width="321" height="215" fill="white" transform="translate(32 346)"/>
</clipPath>
</defs>
</svg>
