<?xml version="1.0" encoding="UTF-8"?>
<svg id="_圖層_1" data-name="圖層 1" xmlns="http://www.w3.org/2000/svg" viewBox="0 0 826.81 826.81">
  <defs>
    <style>
      .cls-1 {
        fill: #f2c0d6;
      }

      .cls-1, .cls-2, .cls-3, .cls-4, .cls-5, .cls-6 {
        stroke-width: 2px;
      }

      .cls-1, .cls-2, .cls-3, .cls-4, .cls-5, .cls-6, .cls-7 {
        stroke-miterlimit: 10;
      }

      .cls-1, .cls-2, .cls-5, .cls-6 {
        stroke: #020202;
      }

      .cls-2 {
        fill: #e8e8e8;
      }

      .cls-3 {
        fill: #56342b;
        stroke: #000;
      }

      .cls-4 {
        fill: #c9c2bd;
        stroke: #070707;
      }

      .cls-5 {
        fill: #f9c0c0;
      }

      .cls-6 {
        fill: #f4d4bd;
      }

      .cls-7 {
        fill: none;
        stroke: #5b362f;
      }

      .cls-8 {
        fill: #5b362f;
      }

      .cls-8, .cls-9, .cls-10, .cls-11 {
        stroke-width: 0px;
      }

      .cls-9 {
        fill: #cec9c6;
      }

      .cls-10 {
        fill: #e5c3ac;
      }

      .cls-11 {
        fill: #e8c5af;
      }
    </style>
  </defs>
  <path class="cls-5" d="m807.05,417.34c0,99.3-37.24,189.89-98.53,258.58-27.79,31.16-60.53,57.81-96.98,78.72-2.15,1.23-4.31,2.44-6.48,3.62-55.38,30.38-118.96,47.65-186.58,47.65-139.88,0-262.49-73.91-330.92-184.81-36.56-59.24-57.65-129.04-57.65-203.76C29.91,202.74,203.88,28.77,418.48,28.77s388.57,173.97,388.57,388.57Z"/>
  <g>
    <path class="cls-11" d="m340.75,436.52s7.15,55.85-4.11,80.63c-11.26,24.77-41.66,39.41-50.67,43.92-9.01,4.5.85,30.08,19.99,39.08,19.14,9.01,44.19,18.34,79.1,12.71,34.91-5.63,74.32-27.02,93.46-42.79,19.14-15.76-19.14-34.91-11.26-54.05s22.52-39.41,22.52-39.41c0,0-37.16,20.55-61.93,20.97-24.77.42-31.53,6.05-54.05-15.34-22.52-21.39-33.05-45.72-33.05-45.72Z"/>
    <path class="cls-6" d="m335.29,255.32s-25.01,97.21-17.51,132.22c7.5,35.01,50.02,107.54,80.03,120.05,30.01,12.5,70.03-12.5,100.04-32.51,30.01-20.01,47.52-53.84,67.53-91.94,20.01-38.11,27.51-82.47,25.01-127.81-2.5-45.35-22.51-114.62-92.54-133.76-70.03-19.13-127.55,45.89-140.05,70.9-12.5,25.01-22.51,62.85-22.51,62.85Z"/>
    <path class="cls-4" d="m263.45,535.16s31.53,81.07,108.1,77.7,144.13-77.7,144.13-77.7c0,0,28.15-9.01,52.92,0,24.77,9.01,30.4,11.26,30.4,11.26,0,0-76.79,85.87-90.3,99.39-13.51,13.51-93.87,59.69-93.87,59.69,0,0-44.13,38.93-70.28,20.62-26.16-18.31-100.26-87.18-110.72-101.13-10.46-13.95-53.35-65.91-45.92-68.99,3.43-1.42,12.79-10.35,26.74-16.45,13.95-6.1,19.21-12.39,34-8.38l14.79,4Z"/>
    <path class="cls-2" d="m708.52,675.92c-27.79,31.16-60.53,57.81-96.98,78.72-2.15,1.23-4.31,2.44-6.48,3.62-55.38,30.38-118.96,47.65-186.58,47.65-139.88,0-262.49-73.91-330.92-184.81,1.53-3.89,2.47-6.26,2.47-6.26,0,0,12.31-17.59,28.69-24.87,16.19-7.19,62.85-31.32,68.34-34.16.29-.15.65-.08.86.18,0,.01,0,.02.02.03,5.02,6.81,62.7,84.75,105.99,127.56.01.01.02.02.03.03,7.75,7.66,15.04,14.2,21.48,18.98.02.02.03.03.05.04.09.07.17.14.26.2,44,32.52,36.34,30.61,59.3,19.13,22.95-11.48,95.64-48.42,124.33-80.64,7.73-8.68,18.76-19.54,30.74-30.78,3.04-2.84,6.14-5.72,9.27-8.58,13.58-12.47,27.61-24.85,38.95-34.7l.02-.02c3.17-2.74,6.14-5.31,8.82-7.6l.02-.02s.02-.03.03-.03c9.06-7.8,14.92-12.72,14.92-12.72,0,0,8.63,4.26,19.58,11.22h.01c5.24,3.33,11.04,7.3,16.66,11.7h0c4.22,3.32,8.35,6.88,12.09,10.62,11.04,11.03,34.17,37.36,58.02,95.51Z"/>
    <path class="cls-3" d="m540.37,165.21s-48.94,59.77-102,79.78c-53.06,20.01-75.57,12.5-98.08,35.01-22.51,22.51-23.44,71.06-20.94,101.08,2.5,30.01,25.83,54.17,25.83,84.19s5.11,59.83-14.9,87.34c-20.01,27.51-35.01,37.62-57.52,22.56-22.51-15.06-62.52-37.57-52.52-97.59,10-60.02,40.93-146.81,59.64-201.89,20.54-60.47,66.12-135.4,123.64-159.54s98.67-19.66,119.35-6.27c20.68,13.38,17.5,55.33,17.5,55.33Z"/>
    <path class="cls-3" d="m532.57,127.54s34.91-6.76,51.8,29.28c16.89,36.03,18.02,28.15,36.03,84.45,18.02,56.3,54.05,173.41,24.77,233.09-29.28,59.68-6.78,95.44-6.78,95.44,0,0-26.5-25.04-43.99-13.24-22.89,15.44-38.19,25.9-52.83,25.9s-14.64,2.25-9.01,9.01,21.39,30.4-14.64,14.64c-36.03-15.76-56.3-19.14-61.93-38.29-5.63-19.14,5.41-47.97,25.24-80.19,9.01-14.64,37.37-20.24,56.51-58.53,19.14-38.29,35.36-59.46,34.23-95.5-1.13-36.03-3.06-66.44-16.73-95.71-13.67-29.28-26.06-45.04-26.06-56.3s3.38-54.05,3.38-54.05Z"/>
    <path class="cls-8" d="m531.45,173.71s5.63,96.84,27.02,131.75c21.39,34.91,33.78,48.42,50.67,57.43,16.89,9.01,40.54,5.63,37.16,0s1.13-6.76-23.65-40.54c-24.77-33.78-34.91-65.31-43.92-97.96-9.01-32.65-7.88-54.05-28.15-70.94-20.27-16.89-15.76-18.02-19.14-10.13s0,30.4,0,30.4Z"/>
    <path class="cls-9" d="m611.54,754.64c-2.15,1.23-4.31,2.44-6.48,3.62,1.34-28.02,3.27-51.18,3.27-51.18,0,0,1.19,20.63,3.21,47.56Z"/>
    <g>
      <path class="cls-8" d="m473.34,140.84c-57.89,26.54-111,63.49-156.01,108.54"/>
      <path class="cls-8" d="m472.58,139.55c-22.71,10.42-44.68,22.42-65.72,35.9-20.9,13.39-40.88,28.22-59.75,44.35-10.65,9.1-20.94,18.62-30.84,28.53-1.37,1.37.75,3.49,2.12,2.12,17.57-17.58,36.36-33.94,56.21-48.91,19.78-14.91,40.58-28.46,62.22-40.51,12.18-6.78,24.62-13.08,37.28-18.89,1.75-.8.23-3.39-1.51-2.59h0Z"/>
    </g>
    <g>
      <path class="cls-8" d="m474.94,115.78c-69.46,11.19-131.52,60.56-158.06,125.72"/>
      <path class="cls-8" d="m474.54,114.34c-13.64,2.21-27.03,5.88-39.91,10.86s-25.28,11.25-36.96,18.66-22.55,15.87-32.57,25.32-19.19,19.95-27.21,31.2c-8.02,11.24-14.91,23.3-20.43,35.95-.69,1.58-1.36,3.18-2.01,4.78-.73,1.79,2.17,2.56,2.89.8,5.15-12.61,11.67-24.66,19.31-35.93,7.61-11.23,16.35-21.68,26-31.22,9.7-9.59,20.32-18.24,31.68-25.79s23.41-14.03,36-19.22c12.54-5.17,25.6-9.1,38.93-11.61,1.69-.32,3.39-.61,5.09-.89,1.9-.31,1.09-3.2-.8-2.89h0Z"/>
    </g>
    <g>
      <path class="cls-8" d="m285.12,344.1c-30.32,53.39-41.78,117.25-31.91,177.85"/>
      <path class="cls-8" d="m283.83,343.34c-11.89,20.97-20.93,43.54-26.9,66.89-5.97,23.35-8.91,47.51-8.65,71.61.15,13.57,1.33,27.11,3.5,40.51.31,1.9,3.2,1.09,2.89-.8-3.81-23.54-4.39-47.58-1.9-71.29,2.48-23.56,8.04-46.82,16.48-68.96,4.79-12.57,10.54-24.76,17.17-36.46.95-1.68-1.64-3.2-2.59-1.51h0Z"/>
    </g>
    <path class="cls-7" d="m299.09,412.98c.4,40.33.8,80.66,1.21,120.99"/>
    <g>
      <path class="cls-8" d="m331.97,454.29c4.8,33.31-1.11,68.09-16.64,97.94"/>
      <path class="cls-8" d="m330.53,454.69c3.66,25.65.9,52.12-7.71,76.54-2.45,6.95-5.39,13.71-8.78,20.25-.89,1.71,1.7,3.23,2.59,1.51,12.24-23.61,18.61-50.15,18.47-76.74-.04-7.49-.62-14.95-1.68-22.36-.27-1.9-3.16-1.09-2.89.8h0Z"/>
    </g>
    <g>
      <path class="cls-8" d="m279.51,430.91c-3.5,39.02-2.2,78.46,3.85,117.16"/>
      <path class="cls-8" d="m278.01,430.91c-2.72,30.57-2.54,61.38.59,91.91.88,8.58,1.99,17.13,3.32,25.65.3,1.9,3.19,1.09,2.89-.8-4.68-30.03-6.49-60.5-5.41-90.87.31-8.65.85-17.28,1.62-25.9.17-1.92-2.83-1.91-3,0h0Z"/>
    </g>
    <g>
      <path class="cls-8" d="m534.19,471.46c-5.85,18.24-11.71,36.49-17.56,54.73-2.2,6.85-4.42,13.82-4.55,21.01-.14,7.19,2.1,14.77,7.52,19.49"/>
      <path class="cls-8" d="m532.74,471.06c-4.38,13.64-8.75,27.29-13.13,40.93-2.15,6.69-4.42,13.35-6.38,20.09-1.78,6.12-3.15,12.58-2.5,18.99s3.02,12.43,7.8,16.68c1.44,1.28,3.57-.83,2.12-2.12-9.2-8.19-7.71-21.65-4.66-32.3,1.88-6.58,4.11-13.07,6.21-19.59,2.09-6.5,4.17-13.01,6.26-19.51,2.39-7.46,4.78-14.91,7.18-22.37.59-1.84-2.3-2.63-2.89-.8h0Z"/>
    </g>
    <g>
      <path class="cls-8" d="m491.32,508.03c-7.82,32.23,4.9,68.5,31.14,88.79"/>
      <path class="cls-8" d="m489.88,507.63c-3.07,12.79-3.03,26.18-.22,39.01,2.8,12.79,8.36,25.05,16.28,35.49,4.47,5.89,9.63,11.21,15.47,15.75,1.51,1.17,3.64-.94,2.12-2.12-10.08-7.83-18.16-17.97-23.81-29.4s-8.78-23.92-9.14-36.56c-.2-7.19.52-14.37,2.19-21.36.45-1.88-2.44-2.68-2.89-.8h0Z"/>
    </g>
    <g>
      <path class="cls-8" d="m545.43,157.67c13.46,6.49,23.29,18.96,29.5,32.55,6.21,13.59,9.19,28.39,12.13,43.04,5.13,25.62,10.26,51.24,15.39,76.86"/>
      <path class="cls-8" d="m544.67,158.97c17.8,8.67,28.15,26.78,33.88,45.01,3.31,10.51,5.39,21.35,7.55,32.13,2.34,11.67,4.67,23.34,7.01,35,2.63,13.14,5.26,26.27,7.89,39.41.38,1.89,3.27,1.09,2.89-.8-4.74-23.66-9.48-47.33-14.21-70.99-4.21-21.01-7.9-43.13-20.13-61.24-5.94-8.8-13.75-16.44-23.36-21.12-1.73-.84-3.25,1.74-1.51,2.59h0Z"/>
    </g>
    <g>
      <path class="cls-8" d="m582.47,166.98c19.41,37.16,29.83,78.97,30.13,120.89"/>
      <path class="cls-8" d="m581.18,167.73c7.51,14.4,13.67,29.47,18.4,45s8.06,31.47,9.88,47.6c1.03,9.14,1.57,18.33,1.65,27.53.02,1.93,3.02,1.93,3,0-.13-16.42-1.79-32.82-4.92-48.94s-7.8-32.13-13.88-47.48c-3.41-8.6-7.26-17.03-11.53-25.23-.89-1.71-3.48-.2-2.59,1.51h0Z"/>
    </g>
    <path class="cls-8" d="m529.37,184.2c-8.79,11.07-18.87,21.09-29.95,29.86-11.08,8.77-23.2,16.26-35.96,22.32-12.76,6.06-26.23,10.66-40.04,13.63-13.25,2.85-26.79,4-40.05,6.83-12.51,2.67-25.08,7.01-34.68,15.78-1.21,1.11-2.36,2.28-3.45,3.5-1.28,1.44.83,3.56,2.12,2.12,8.75-9.79,20.99-14.79,33.52-17.77,13.13-3.12,26.61-4.28,39.83-6.85,13.87-2.7,27.4-7.06,40.3-12.83,12.9-5.77,25.16-12.99,36.46-21.48,11.24-8.45,21.57-18.1,30.63-28.86,1.15-1.36,2.28-2.75,3.39-4.14,1.19-1.5-.92-3.63-2.12-2.12h0Z"/>
    <ellipse class="cls-8" cx="407.82" cy="326.53" rx="23.89" ry="17.17" transform="translate(-11.25 638.5) rotate(-75.35)"/>
    <path class="cls-8" d="m389.6,311.7c4.54-4.52,10.72-7.27,17.14-7.49,6.58-.23,13.13,2.15,18.06,6.5,1.44,1.27,3.57-.84,2.12-2.12-5.52-4.87-12.8-7.63-20.18-7.38s-14.16,3.29-19.26,8.37c-1.37,1.37.75,3.49,2.12,2.12h0Z"/>
    <path class="cls-8" d="m398.46,302.75c.44.06.13.02.02,0-.09-.02-.18-.04-.28-.06-.18-.05-.36-.1-.54-.16-.1-.04-.35-.18,0,.01-.08-.04-.17-.08-.26-.12-.17-.08-.33-.17-.49-.27-.06-.04-.41-.33-.47-.32.07-.02.27.22,0,0-.06-.05-.12-.1-.18-.16-.14-.13-.27-.26-.4-.4-.06-.07-.13-.14-.19-.21-.03-.04-.06-.07-.09-.11-.08-.1-.08-.1,0,0,.08.1.08.1,0,0l-.05-.08c-.05-.08-.11-.16-.16-.24-.1-.16-.2-.32-.28-.49-.04-.08-.09-.17-.13-.25-.05-.11-.1-.35,0,.01-.05-.18-.13-.35-.19-.53s-.1-.36-.13-.55c-.02-.09-.01-.2-.05-.28l.03.21c0-.06-.01-.12-.02-.19-.03-.38-.02-.75.03-1.13.1-.78-.76-1.53-1.5-1.5-.9.04-1.4.66-1.5,1.5-.25,2,.52,3.97,1.74,5.51.57.73,1.3,1.35,2.09,1.83.92.55,1.91.83,2.96.97.35.04.82-.2,1.06-.44.26-.26.46-.69.44-1.06s-.14-.79-.44-1.06c-.31-.29-.64-.39-1.06-.44h0Z"/>
    <path class="cls-8" d="m392.42,306.05c-.22,0-.43-.02-.64-.03-.19,0,.28.05,0,0-.12-.02-.23-.04-.34-.07-.19-.04-.38-.1-.56-.16-.05-.02-.3-.08-.33-.12l.14.06c-.05-.02-.11-.05-.16-.07-.32-.15-.82-.35-1.06-.63.22.25,0,0-.06-.06-.07-.06-.15-.13-.22-.2-.16-.15-.3-.31-.44-.47-.19-.21.08.12-.02-.02-.06-.08-.12-.16-.17-.24-.12-.18-.23-.37-.33-.57-.05-.09-.09-.18-.13-.27-.17-.35.09.29-.03-.08-.06-.19-.13-.38-.18-.57-.06-.21-.09-.43-.14-.64-.04-.19.02.28,0-.02,0-.12-.02-.24-.02-.36,0-.2,0-.4,0-.6,0-.1,0-.26.03-.36l-.02.16c.01-.08.03-.16.04-.24.15-.77-.22-1.66-1.05-1.85-.74-.17-1.68.22-1.85,1.05-.47,2.37.12,4.77,1.66,6.64,1.42,1.72,3.67,2.7,5.89,2.7.78,0,1.54-.69,1.5-1.5s-.66-1.5-1.5-1.5h0Z"/>
    <ellipse class="cls-8" cx="504.89" cy="357.99" rx="23.89" ry="17.17" transform="translate(12.53 733.03) rotate(-72.64)"/>
    <path class="cls-8" d="m531.11,354.34c-1.58-6.83-5.72-12.9-11.44-16.94-6.21-4.39-14.07-5.97-21.52-4.73-1.9.31-1.09,3.21.8,2.89,6.68-1.11,13.68.53,19.21,4.43,5.09,3.59,8.66,9.11,10.06,15.15.44,1.88,3.33,1.08,2.89-.8h0Z"/>
    <path class="cls-8" d="m523.88,345.35c1.82.84,3.9.97,5.79.27s3.51-1.97,4.36-3.78c.33-.71.22-1.65-.54-2.05-.66-.35-1.7-.22-2.05.54-.16.34-.36.64-.56.96-.1.15.19-.22,0-.01-.07.08-.14.16-.21.24-.12.13-.25.25-.38.37-.07.06-.14.11-.2.17-.13.12.24-.16.01,0-.16.11-.32.22-.49.32-.15.09-.31.17-.47.25-.07.03-.16.1-.24.11.33-.05.08-.04-.04,0-.33.12-.67.22-1.02.29-.08.02-.23.06-.31.05.15.02.26-.03.03-.01-.18.01-.35.02-.53.02-.19,0-.39-.02-.58-.03-.29-.02.22.05.03,0-.09-.02-.17-.03-.26-.05-.17-.04-.34-.08-.51-.13-.1-.03-.2-.07-.3-.1-.29-.1.27.12-.03-.01-.71-.33-1.65-.23-2.05.54-.35.66-.22,1.7.54,2.05h0Z"/>
    <path class="cls-8" d="m527.25,351.35c1.98,1.22,4.59,1.54,6.76.67s3.73-2.49,4.56-4.65c.28-.73-.31-1.68-1.05-1.85-.86-.2-1.54.26-1.85,1.05-.05.12-.07.15,0,.01-.05.1-.09.2-.15.3-.09.18-.19.35-.3.52-.05.08-.33.44-.16.24-.13.15-.26.31-.4.45s-.29.28-.44.41c-.09.08-.13.1-.01.01-.09.07-.18.13-.28.19-.17.11-.34.21-.52.31-.08.04-.16.08-.24.12-.25.12.09-.02-.07.03-.4.12-.78.25-1.2.31.22-.03-.03,0-.12,0-.1,0-.2.01-.3.01-.22,0-.45,0-.67-.02-.1,0-.21-.02-.04,0-.12-.02-.24-.04-.37-.07-.19-.04-.39-.09-.58-.15-.12-.04-.24-.08-.35-.12.15.06.02.01-.05-.02-.22-.11-.44-.23-.65-.36-.67-.41-1.68-.17-2.05.54s-.18,1.61.54,2.05h0Z"/>
    <g>
      <path class="cls-10" d="m455.46,359.8c-3.64,4.11-3.93,10.16-3.51,15.64.41,5.48,1.31,11.17-.58,16.33-1.89,5.16-7.88,9.33-12.86,7.01"/>
      <path class="cls-8" d="m454.4,358.74c-5.72,6.68-3.78,15.61-3.42,23.6.18,4.1-.06,8.65-2.78,11.96-2.07,2.5-5.67,4.6-8.94,3.18-1.75-.77-3.28,1.82-1.51,2.59,5.77,2.52,12.12-1.36,14.59-6.75,3.19-6.96.86-14.66.98-21.96.06-3.7.73-7.6,3.21-10.5,1.25-1.46-.86-3.59-2.12-2.12h0Z"/>
    </g>
    <path class="cls-8" d="m408.13,415.22c9.68,13.33,26.69,20.5,43.02,18.79,4.66-.49,9.15-1.67,13.44-3.56,1.76-.78.24-3.36-1.51-2.59-14.02,6.18-31.04,3.64-43.34-5.21-3.44-2.48-6.52-5.52-9.01-8.95-1.12-1.55-3.73-.05-2.59,1.51h0Z"/>
    <ellipse class="cls-1" cx="359.6" cy="362.16" rx="13.16" ry="20.01" transform="translate(-103.67 576.29) rotate(-70.01)"/>
    <ellipse class="cls-1" cx="514.11" cy="418.36" rx="13.16" ry="20.01" transform="translate(-54.8 758.48) rotate(-70.01)"/>
    <path class="cls-8" d="m370.31,273.38c19.31-5.08,40.32-3.29,58.56,4.83,5.21,2.32,10.18,5.14,14.85,8.42,1.58,1.11,3.08-1.49,1.51-2.59-16.88-11.87-37.89-17.63-58.47-16.33-5.82.37-11.61,1.3-17.25,2.78-1.87.49-1.07,3.39.8,2.89h0Z"/>
    <path class="cls-8" d="m570.93,345.22c-11.64-17.15-29.18-29.97-48.96-36.11-5.65-1.75-11.46-2.91-17.34-3.53-1.92-.2-1.9,2.8,0,3,19.81,2.07,38.71,11.22,52.88,25.17,4.03,3.96,7.66,8.31,10.84,12.98,1.08,1.59,3.68.09,2.59-1.51h0Z"/>
  </g>
</svg>