<?xml version="1.0" encoding="UTF-8"?>
<svg id="_圖層_1" data-name="圖層 1" xmlns="http://www.w3.org/2000/svg" viewBox="0 0 1080 1104">
  <defs>
    <style>
      .cls-1 {
        stroke-width: .89px;
      }

      .cls-1, .cls-2 {
        stroke: #000;
      }

      .cls-1, .cls-2, .cls-3 {
        stroke-miterlimit: 10;
      }

      .cls-1, .cls-4 {
        fill: #020202;
      }

      .cls-2 {
        stroke-linecap: round;
      }

      .cls-2, .cls-3 {
        fill: none;
        stroke-width: 17.87px;
      }

      .cls-5 {
        font-family: Fragille-Reguler, Fragille;
        font-size: 152.43px;
      }

      .cls-3 {
        stroke: #020202;
      }

      .cls-6 {
        fill: #fff;
      }

      .cls-6, .cls-4 {
        stroke-width: 0px;
      }
    </style>
  </defs>
  <text class="cls-5" transform="translate(185.41 567.2) rotate(-74.6)"><tspan x="0" y="0"> </tspan></text>
  <text class="cls-5" transform="translate(194.41 524.28) rotate(-63.92)"><tspan x="0" y="0">C</tspan></text>
  <text class="cls-5" transform="translate(235.45 441.68) rotate(-51.2)"><tspan x="0" y="0">e</tspan></text>
  <text class="cls-5" transform="translate(282.25 385.15) rotate(-42.6)"><tspan x="0" y="0">l</tspan></text>
  <text class="cls-5" transform="translate(310.82 358.7) rotate(-36.57)"><tspan x="0" y="0">i</tspan></text>
  <text class="cls-5" transform="translate(340.27 334.77) rotate(-27.87)"><tspan x="0" y="0">a</tspan></text>
  <text class="cls-5" transform="translate(406.37 301.13) rotate(-19.33)"><tspan x="0" y="0">’</tspan></text>
  <text class="cls-5" transform="translate(439.4 288.19) rotate(-11.41)"><tspan x="0" y="0">s</tspan></text>
  <text class="cls-5" transform="translate(503.62 275.75) rotate(-2.88)"><tspan x="0" y="0"> </tspan></text>
  <text class="cls-5" transform="translate(547.02 270.16) rotate(8.34)"><tspan x="0" y="0">D</tspan></text>
  <text class="cls-5" transform="translate(647.67 286.03) rotate(21.88)"><tspan x="0" y="0">e</tspan></text>
  <text class="cls-5" transform="translate(715.08 313.06) rotate(32.57)"><tspan x="0" y="0">s</tspan></text>
  <text class="cls-5" transform="translate(769.99 348.99) rotate(40.61)"><tspan x="0" y="0">i</tspan></text>
  <text class="cls-5" transform="translate(799.91 372.18) rotate(49.52)"><tspan x="0" y="0">g</tspan></text>
  <text class="cls-5" transform="translate(850.41 429.55) rotate(62.15)"><tspan x="0" y="0">n</tspan></text>
  <path class="cls-4" d="m1006.13,574.64h0c0-25.59-20.75-46.34-46.34-46.34h0c25.59,0,46.34-20.75,46.34-46.34h0c0,25.59,20.75,46.34,46.34,46.34h0c-25.59,0-46.34,20.75-46.34,46.34Z"/>
  <path class="cls-4" d="m81.54,379.48h0c0-20.92-16.96-37.87-37.87-37.87h0c20.92,0,37.87-16.96,37.87-37.88h0c0,20.92,16.96,37.87,37.87,37.87h0c-20.92,0-37.87,16.96-37.87,37.88Z"/>
  <g>
    <path class="cls-1" d="m820.1,471.51s-.02-.04-.03-.05c-55.7-94.16-158.27-157.31-275.59-157.31-176.71,0-319.96,143.25-319.96,319.96,0,30.21,4.18,59.43,12.01,87.14,37.94,134.36,161.45,232.82,307.95,232.82,136.67,0,253.33-85.69,299.18-206.28.12-.29.22-.59.33-.88,8.16-21.66,14.04-44.44,17.35-68.04,0-.08.03-.15.03-.23,2.03-14.55,3.07-29.41,3.07-44.52,0-59.36-16.17-114.95-44.34-162.6Z"/>
    <g>
      <path class="cls-6" d="m865.11,632.97c0,10.87-.5,21.64-1.48,32.25-.58,6.31-1.33,12.57-2.26,18.77,0,.08-.02.15-.03.23-3.49,23.54-9.37,46.3-17.35,68.04-.11.29-.21.59-.33.88-45.85,120.59-162.51,206.28-299.18,206.28-145.54,0-268.38-97.18-307.19-230.17-.51-1.76-.87-3.56-1.05-5.38-.99-9.71-1.51-19.57-1.51-29.56,0-21.17-3.96-58.23.41-78.09,8.22-37.37,18.92-58.2,40.22-88.48,12.56-18.36,31.72-36.51,49.16-46.47,12.51-7.15,31.28-12.51,50.94-14.3,18.71-1.7,32.74-1.13,49.27,2.68,11.62,2.68,24.44,7.95,33.96,14.3,13.41,8.94,26.81,21.45,28.19,45.45.72,12.63-.42,16.97-5.96,25.16-9.45,14.04-23.81,24.07-42.01,24.13-24.7.09-38.17-7.55-47.37-25.02-8.94-16.98-25.11-32.9-28.6-33.96,0,0-69.71,40.22-74.96,126.02-.31,4.99-.72,9.75-.98,14.33-.84,14.5,4.45,41.3,8.02,55.38,15.88,62.64,77.68,100.96,141.38,114.05,11.1,2.28,22.58,3.48,34.36,3.48,9.44,0,18.69-.77,27.71-2.25,1-.16,1.99-.34,2.98-.52,50.48-9.22,91.9-45.13,109.59-93.3,11.85-32.28,16.96-69.16,15.87-104.28-.46-14.57-2.82-28.65-6.83-42.02,0,0,0,0,0,0-1.41-3.84-5-13.74-8.42-22.23-4.81-11.95-9.7-24.03-11.17-27.46-2.35-5.49-7.15-17.49-10.53-26.55-5.15-13.79-6.26-11.62,11.62-10.72,16.65.83,30.86,7.9,47.37,22.34,14.3,12.51,27.12,49.1,84.39,27.59,42.52-15.97,38.95-41,43.41-58.87,3.11-12.44,11.92-32.48,16.09-36.64,12.51-12.51,8.94-9.83,13.41-2.68,1.34,2.14,2.6,3.73,3.57,5.36,2.68,4.47,4.07,6.86,6.28,10.1,1.35,1.98,2.68,3.98,3.99,6,0,.02.02.04.03.05,20.81,32.21,35.3,68.88,41.73,108.25,2.16,15.64,3.28,31.62,3.28,47.85Z"/>
      <path class="cls-6" d="m590.94,504.29c33.96-2.23,68.59,13.62,89.1,40.79,9.12-4.81,23.46-10.66,37.72-14.64s28.6-6.26,42.76-7.83c9.53-19.04,19.05-38.07,28.58-57.11,5.82,11.02,11.68,22.18,14.72,34.26,3.04,12.09,3.01,25.39-2.66,36.49-6.83,13.39-20.68,21.66-34.48,27.62-24.17,10.43-51.12,15.97-77.03,11.27-21.26-3.86-42.11-15.59-52.01-34.8-3.1-6.02-5.11-12.67-9.18-18.09-5.94-7.9-15.45-12.13-24.54-16.04"/>
      <ellipse class="cls-6" cx="438.02" cy="532.67" rx="50.05" ry="52.28"/>
    </g>
    <path class="cls-6" d="m711.5,505.41h0c0-15.3-12.4-27.71-27.71-27.71h0c15.3,0,27.71-12.4,27.71-27.71h0c0,15.3,12.4,27.71,27.71,27.71h0c-15.3,0-27.71,12.4-27.71,27.71Z"/>
    <path class="cls-6" d="m430.87,704.71h0c0-26.65-21.61-48.26-48.26-48.26h0c26.65,0,48.26-21.61,48.26-48.26h0c0,26.65,21.61,48.26,48.26,48.26h0c-26.65,0-48.26,21.61-48.26,48.26Z"/>
    <path class="cls-6" d="m387.52,428.55h0c0-20.98-17.01-37.98-37.98-37.98h0c20.98,0,37.98-17.01,37.98-37.98h0c0,20.98,17.01,37.98,37.98,37.98h0c-20.98,0-37.98,17.01-37.98,37.98Z"/>
    <path class="cls-6" d="m595.31,423.18h0c0-8.88-7.2-16.09-16.09-16.09h0c8.88,0,16.09-7.2,16.09-16.09h0c0,8.88,7.2,16.09,16.09,16.09h0c-8.88,0-16.09,7.2-16.09,16.09Z"/>
    <path class="cls-6" d="m532.31,488.43h0c0-6.17-5-11.17-11.17-11.17h0c6.17,0,11.17-5,11.17-11.17h0c0,6.17,5,11.17,11.17,11.17h0c-6.17,0-11.17,5-11.17,11.17Z"/>
    <path class="cls-6" d="m538.56,767.28h0c0-11.11-9-20.11-20.11-20.11h0c11.11,0,20.11-9,20.11-20.11h0c0,11.11,9,20.11,20.11,20.11h0c-11.11,0-20.11,9-20.11,20.11Z"/>
    <path class="cls-2" d="m653.89,634.63c2.59,2.75,11.68,11.75,24.09,11.18,13.92-.64,22.13-12.87,23.96-15.74"/>
    <path class="cls-2" d="m763.82,618.54c2.59,2.75,11.68,11.75,24.09,11.18,13.92-.64,22.13-12.87,23.96-15.74"/>
    <path class="cls-3" d="m820.1,476.87s-.02-.04-.03-.05c-55.7-94.16-158.27-157.31-275.59-157.31-176.71,0-319.96,143.25-319.96,319.96,0,30.21,4.18,59.43,12.01,87.14,37.94,134.36,161.45,232.82,307.95,232.82,136.67,0,253.33-85.69,299.18-206.28.12-.29.22-.59.33-.88,8.16-21.66,14.04-44.44,17.35-68.04,0-.08.03-.15.03-.23,2.03-14.55,3.07-29.41,3.07-44.52,0-59.36-16.17-114.95-44.34-162.6Z"/>
  </g>
</svg>