<?xml version="1.0" encoding="UTF-8"?>
<svg id="_圖層_1" data-name=" 圖層 1" xmlns="http://www.w3.org/2000/svg" xmlns:xlink="http://www.w3.org/1999/xlink" viewBox="0 0 1080 1080">
  <defs>
    <style>
      .cls-1 {
        filter: url(#drop-shadow-1);
      }

      .cls-2 {
        fill: #fab4aa;
      }

      .cls-2, .cls-3, .cls-4 {
        stroke-width: 0px;
      }

      .cls-3 {
        fill: #285a6e;
      }

      .cls-4 {
        fill: #fff;
      }
    </style>
    <filter id="drop-shadow-1">
      <feOffset dx="4.98" dy="4.98"/>
      <feGaussianBlur result="blur" stdDeviation="12.45"/>
      <feFlood flood-color="#000" flood-opacity=".3"/>
      <feComposite in2="blur" operator="in"/>
      <feComposite in="SourceGraphic"/>
    </filter>
  </defs>
  <path class="cls-3" d="m932,286.67v523.85c-7.44,12.17-15.57,24.03-24.39,35.53-14.27,17.68-29.92,34.59-46.93,50.59-11.39,10.71-23.18,20.79-35.27,30.22-5.27,4.1-10.6,8.09-15.99,11.95H279.87c-1.05,0-2.1-.01-3.14-.04-1.05-.03-2.09-.07-3.13-.12-.8-.04-1.6-.09-2.39-.15-.35-.02-.7-.04-1.04-.07h-.01c-1.61-.13-3.21-.29-4.8-.49-1.28-.14-2.55-.31-3.82-.5-.83-.13-1.67-.26-2.5-.41-.05,0-.1-.01-.15-.02-.6-.11-1.21-.22-1.81-.34-.39-.06-.78-.14-1.16-.22-.5-.1-1-.2-1.5-.31-.53-.1-1.06-.22-1.59-.35-.26-.05-.51-.11-.76-.17-.66-.15-1.32-.31-1.98-.48-.39-.1-.77-.19-1.15-.29-1.23-.32-2.46-.66-3.67-1.03-1.42-.42-2.83-.86-4.23-1.33-.83-.28-1.65-.56-2.47-.86-.81-.29-1.63-.6-2.43-.91-.78-.3-1.56-.6-2.33-.93-.06-.01-.11-.03-.17-.06-.62-.25-1.24-.51-1.85-.78-.41-.17-.81-.34-1.21-.53-.47-.2-.93-.41-1.39-.62-.2-.09-.4-.18-.6-.28-.66-.3-1.31-.61-1.95-.93-.78-.37-1.55-.76-2.31-1.15-1.53-.78-3.04-1.6-4.53-2.45-.75-.42-1.48-.85-2.21-1.28,0,0,0-.01-.02-.01-.63-.38-1.26-.76-1.88-1.15-.19-.11-.37-.23-.56-.35-.52-.33-1.04-.66-1.56-1-1.04-.67-2.08-1.37-3.1-2.09-.49-.33-.98-.68-1.47-1.03-2.15-1.54-4.26-3.15-6.3-4.82-.41-.34-.82-.68-1.22-1.02-.27-.22-.53-.45-.8-.68-.42-.36-.84-.72-1.25-1.1-.25-.21-.51-.43-.76-.67-.4-.35-.8-.71-1.19-1.08-.26-.23-.52-.47-.78-.72-.48-.45-.96-.9-1.43-1.36-.61-.59-1.22-1.19-1.82-1.79-1.2-1.21-2.38-2.44-3.52-3.7-.58-.63-1.14-1.26-1.7-1.9-.46-.51-.9-1.03-1.34-1.56-.21-.23-.4-.46-.58-.69-.32-.37-.62-.74-.93-1.12-.27-.32-.53-.64-.78-.97-.36-.45-.72-.9-1.07-1.36-.15-.19-.29-.37-.42-.56-.41-.53-.81-1.06-1.2-1.59-.12-.14-.22-.29-.32-.43-.43-.58-.85-1.17-1.27-1.76-1.97-2.79-3.83-5.67-5.55-8.62-.38-.63-.75-1.27-1.1-1.92-.16-.25-.3-.51-.43-.76-.28-.5-.56-1.01-.82-1.52-.14-.24-.27-.48-.39-.73-.27-.5-.53-1.01-.79-1.52-.27-.51-.52-1.02-.77-1.54-.94-1.91-1.83-3.85-2.66-5.82-.28-.65-.56-1.32-.82-1.98-.1-.2-.18-.41-.25-.61-.15-.36-.29-.73-.43-1.09-.24-.61-.48-1.22-.7-1.84-.11-.28-.21-.56-.31-.85-.2-.56-.4-1.12-.59-1.68-.13-.38-.26-.75-.38-1.13-.13-.36-.25-.72-.36-1.08-.21-.65-.41-1.31-.61-1.97-.26-.83-.5-1.67-.74-2.51-.47-1.69-4.77-22.3-4.52-32.97V286.67c0-67.23,54.51-121.74,121.77-121.74h530.39c67.23,0,121.74,54.51,121.74,121.74h0Z"/>
  <g class="cls-1">
    <g>
      <path class="cls-4" d="m279.87,935.31c-1.02,0-2.03,0-3.04-.04-1.03-.03-2.05-.07-3.06-.12-.76-.04-1.53-.09-2.29-.14-.61-.05-8.3-.86-9.42-1.03l-.23-.04c-.72-.11-1.45-.23-2.16-.36l-.31-.06h-.03c-.52-.09-1.04-.19-1.55-.29l-.16-.03c-.32-.05-.65-.12-.97-.18l-.15-.03c-.44-.09-.88-.18-1.32-.27l-.11-.02c-.47-.09-.94-.19-1.4-.31l-.18-.04c-.19-.04-.37-.08-.55-.12-.71-.16-1.34-.32-1.97-.48,0,0-.92-.23-1.13-.28-1.32-.34-2.48-.67-3.54-.99-1.29-.37-2.63-.79-4.14-1.3-.8-.27-1.59-.54-2.38-.83-.8-.29-1.59-.59-2.36-.89-.75-.29-1.49-.57-2.22-.88l-.39-.17h-.07c-.51-.22-1.02-.43-1.52-.66-.43-.18-.77-.32-1.12-.49l-.13-.06c-.44-.19-.87-.38-1.3-.58-.19-.09-.34-.15-.49-.23l-.12-.06c-.62-.28-1.23-.57-1.83-.87-.81-.39-1.55-.76-2.28-1.13-1.42-.72-2.9-1.52-4.39-2.38-.63-.35-1.22-.7-1.81-1.05l-.71-.7h-.46c-.33-.21-.67-.41-1-.62l-.12-.07c-.09-.05-.18-.11-.27-.17l-.17-.11c-.5-.32-1.01-.64-1.52-.97-1.03-.66-2.03-1.34-3-2.02-.5-.34-.93-.65-1.37-.96l-.08-.06c-2.12-1.52-4.18-3.09-6.11-4.68-.38-.32-.78-.65-1.17-.98-.21-.17-.37-.31-.53-.45l-.26-.23c-.38-.33-.77-.66-1.14-1l-.13-.11c-.19-.16-.39-.33-.59-.51l-.12-.11c-.36-.32-.73-.65-1.08-.98l-.09-.09c-.22-.2-.44-.4-.67-.62-.5-.47-.96-.9-1.41-1.34-.61-.59-1.21-1.17-1.79-1.76-1.28-1.29-2.4-2.47-3.4-3.57-.58-.63-1.12-1.24-1.66-1.86-.46-.51-.87-1-1.28-1.49l-.11-.13c-.15-.16-.28-.33-.41-.49l-.1-.13c-.27-.31-.52-.63-.79-.95l-.08-.1c-.27-.32-.49-.59-.7-.87l-.08-.1c-.33-.42-.67-.83-.99-1.26-.14-.18-.24-.3-.32-.42l-.11-.16c-.39-.51-.78-1.02-1.15-1.52l-.08-.11-.09-.1-.13-.19c-.44-.59-.83-1.15-1.23-1.7-1.96-2.78-3.78-5.59-5.41-8.4-.38-.63-.72-1.22-1.04-1.82l-.06-.12-.07-.11c-.1-.16-.19-.33-.27-.49l-.05-.1c-.26-.46-.52-.93-.76-1.4l-.09-.17c-.09-.16-.18-.32-.26-.48l-.08-.15c-.25-.46-.49-.93-.73-1.4l-.05-.1c-.25-.47-.48-.94-.71-1.41-.95-1.92-1.81-3.82-2.59-5.66-.28-.64-.54-1.28-.79-1.9l-.06-.15-.07-.14c-.03-.06-.05-.13-.08-.2l-.03-.1-.04-.1c-.1-.25-.2-.5-.3-.75l-.1-.26c-.23-.59-.46-1.16-.66-1.74l-.04-.11c-.09-.24-.18-.47-.26-.71l-.06-.16c-.18-.5-.36-1-.52-1.5l-.08-.25c-.09-.27-.19-.54-.27-.82l-.05-.13c-.11-.3-.21-.61-.31-.92-.21-.66-.4-1.29-.59-1.91-.26-.83-1.64-5.82-2-7.43-.63-2.62-3.1-14.33-2.94-20.49v-.2s-.01-.2-.01-.2c-.02-.17-.02-.34-.03-.51-.04-.78-.07-1.48-.08-2.19v-.16s-.02-.16-.02-.16c0-.06,0-.33,0-.33-.03-.94-.04-1.89-.04-2.84v-502.32c4.99-5.26,10.36-10.78,16-15.9,27.49-24.94,46.34-41.58,85.65-68.41,48.28-32.94,87.7-47.08,136.08-48.81,5.49-.2,10.94-.3,16.18-.3,77.65,0,111.52,20.75,134.4,41.06,20.71,18.39,33.34,33.37,45.03,53.43,8.71,14.96,15.45,33.09,18.04,48.51.75,4.49,1.26,8.6,1.56,12.55v.08l.03.27.04.28c3.08,22.84-5.41,46.17-22.69,62.42-13.79,12.97-31.6,20.11-50.12,20.12-18.95,0-36.37-7.42-49.05-20.9-16.6-17.67-22.16-42.57-14.87-66.62l.04-.14.03-.14c.63-2.89,1.49-5.93,2.57-9.05,8.97-26.06,10.34-59.88,7.25-66.14l-1.17-2.36-2.59.47c-.87.16-21.69,3.98-52.17,17.05-28.07,12.03-69.86,34.52-109.58,73.33-52.05,50.86-67.64,81.09-76.73,106.18-15.82,43.67-14.81,92.52,3.18,153.74,13.84,47.12,39.45,83.4,76.09,107.83,31.62,21.08,70.31,32.23,111.9,32.23,22.35,0,44.45-3.19,65.69-9.49,49.39-14.65,91.63-52.2,126.44-87,9.05-9.05,17.42-18.88,24.87-29.22,3.76-5.19,7.35-10.61,10.7-16.16l.26.26,3.43-6.86c3.13-6.26,8.97-17.9,13.79-28.31,10.21-22.04,16.03-34.74,17.81-38.83,3.07-7.03,9.9-21.79,16.02-34.3.22-.45,1.13-2.3,1.36-2.74.96-1.94,1.78-3.65,2.5-5.17,1.11-2.33,2.25-4.71,3.04-6,1.21,1.17,3.19,3.6,5.25,6.13,1.63,2.01,3.67,4.51,6.09,7.36,3.52,4.14,6.51,8.39,9.12,12.98v.16l.55.82.88,1.58h.17c20.33,31.03,28.48,69.08,22.37,104.69l-.5,2.93,2.82.97c12.13,4.17,32.11,12.87,51.84,24.8,15.8,9.56,31.65,21.25,49.89,36.78l1.45,1.23,64.68-19.34.17-.07c14.67-6.11,29.78-10.72,35.14-10.72h.22c1.85.06,3.54.11,5.07.15,4.25.12,7.86.22,9.96.42-.03.07-.06.14-.08.2-.63,1.5-1.48,3.57-2.19,6.24-.49,1.84-.85,3.54-1.17,5.03-.3,1.41-.58,2.74-.92,3.94l-.67,2.35c-1.67,5.86-2.68,9.4-3.78,14.37-.79,3.54-1.52,6.68-2.24,9.58l-.02.04-.11.45c-2.45,9.87-5.3,19.77-8.48,29.43-9.73,29.54-22.88,57.96-39.08,84.47l-.51.84v7.53c0,1.41-.02,2.67-.07,3.87-.02.77-.05,1.49-.09,2.22-.05,1.01-.12,2.02-.19,3.01-.1,1.44-.23,2.78-.38,4.02v.11c-.07.62-.14,1.23-.22,1.84-.4,3.15-.93,6.28-1.57,9.31-.16.81-.34,1.58-.51,2.34-.21.91-.43,1.8-.65,2.7l-.08.29c-.05.18-.09.36-.15.54l-.05.17c-.14.55-.28,1.1-.44,1.64-.24.88-.48,1.69-.73,2.48-.22.74-.44,1.44-.67,2.12-.22.69-.43,1.32-.65,1.93-.23.69-.45,1.31-.67,1.93l-.04.11c-.02.06-.04.12-.07.18l-.08.21c-.26.72-.53,1.44-.81,2.14l-.12.29c-.32.81-.65,1.63-.99,2.43-.06.14-.12.27-.17.39l-.07.17c-.27.67-.56,1.32-.86,1.98l-.07.16c-.05.13-.12.26-.18.39l-.1.22c-.27.6-.56,1.21-.84,1.81-.11.23-.2.42-.29.6-.27.57-.52,1.07-.77,1.57l-.21.41c-.12.23-.23.45-.35.68-.35.69-.69,1.32-1.02,1.94l-.02.03-.13.24c-.36.67-.73,1.34-1.11,2l-.06.12c-.13.25-.27.49-.43.74l-.08.14c-.29.52-.61,1.06-.93,1.57l-.1.18c-.07.13-.15.25-.23.37-.4.65-.76,1.24-1.12,1.8-.17.28-.33.52-.49.76-.37.57-.7,1.08-1.04,1.58-.21.32-.37.56-.53.79-.37.53-.71,1.02-1.05,1.51-.24.36-.46.66-.68.96l-.06.08c-.26.38-.53.75-.81,1.12-.28.39-.53.72-.78,1.04-.33.45-.62.83-.93,1.21l-.08.1c-.24.32-.48.63-.74.94l-.09.12c-.27.35-.55.7-.84,1.05-.29.37-.57.71-.87,1.04l-.08.09-.07.09c-.21.27-.45.55-.69.82l-.07.08c-.3.35-.6.71-.9,1.05-.37.44-.7.8-1.04,1.17l-.08.09c-.28.32-.57.64-.87.96l-.08.08c-.17.2-.35.39-.55.59l-.11.12c-.38.42-.79.84-1.19,1.25-.29.31-.52.55-.77.79l-.11.11c-.35.37-.72.74-1.09,1.1l-.1.1c-.25.25-.5.5-.75.74-.37.35-.68.66-1.01.96l-.11.11c-.32.32-.65.63-.98.91l-.12.11c-.39.37-.78.73-1.17,1.08l-.33.29c-.62.56-1.25,1.1-1.87,1.64l-.12.11c-.68.58-1.37,1.14-2.06,1.71-.65.53-1.3,1.05-1.96,1.56l-.1.08c-.19.15-.38.3-.58.45-.58.44-1.11.85-1.66,1.26l-.44.32c-.56.42-1.14.83-1.72,1.24-.69.49-1.38.96-2.07,1.42-.42.3-.79.54-1.16.77-.58.39-1.11.72-1.64,1.06-.68.44-1.35.85-2.02,1.25l-.1.06c-.29.18-.56.35-.85.51-.65.39-1.23.72-1.82,1.06-.96.55-1.91,1.07-2.88,1.58-.69.37-1.36.72-2.05,1.07-.85.44-1.68.85-2.52,1.24-.88.42-1.72.82-2.57,1.19-.88.4-1.73.77-2.59,1.13-.99.41-1.97.81-2.97,1.2-.76.29-1.53.58-2.3.87-1.77.65-3.55,1.25-5.31,1.8-4.6,1.43-9.33,2.59-14.05,3.44-.81.15-1.64.28-2.46.42l-.54.09.1-.02c-.79.12-1.6.24-2.4.34l-.12.02c-.11.02-.21.03-.31.04-1.03.14-1.98.24-2.92.34-1.75.19-3.57.34-5.43.45h-.11c-.17.02-.34.03-.5.04-.66.03-1.29.06-1.92.08-.62.03-1.17.05-1.73.06-.98.03-1.9.04-2.83.04H279.87Z"/>
      <path class="cls-2" d="m415.5,184.83c35.59,0,65.66,4.66,89.37,13.85,20.38,7.9,33.03,17.74,42.7,26.33,20.42,18.12,32.84,32.86,44.33,52.58,8.5,14.61,15.09,32.31,17.62,47.33.73,4.33,1.22,8.3,1.51,12.11v.23l.05.43.02.16v.08s.01.03.01.03v.03c2.93,21.72-5.15,43.93-21.61,59.41-13.15,12.36-30.1,19.17-47.73,19.17s-34.49-7.03-46.5-19.8c-7.79-8.29-13.18-18.59-15.57-29.79-2.34-10.92-1.82-22.47,1.5-33.42l.08-.27.06-.28c.6-2.75,1.42-5.66,2.46-8.65,5.53-16.06,7.58-32.85,8.31-41.43.54-6.39,1.51-21.84-1.23-27.4l-2.33-4.72-5.18.93c-.89.16-22.09,4.05-52.93,17.28-28.34,12.15-70.55,34.86-110.65,74.04-31.06,30.35-61.96,64.37-77.58,107.49-7.84,21.64-11.53,44.24-11.28,69.07.27,26.41,4.97,54.82,14.39,86.85,7.22,24.58,17.81,46.58,31.47,65.41,12.73,17.55,28.23,32.47,46.04,44.35,32.19,21.47,71.56,32.81,113.84,32.81,22.69,0,45.12-3.24,66.68-9.64,22.56-6.69,45.14-18.47,69.01-36,18.01-13.23,36.73-29.71,58.91-51.88,9.18-9.18,17.67-19.16,25.22-29.64,2.96-4.09,5.81-8.31,8.53-12.62l.57.57,4.34-8.7,1.25-2.51c3.14-6.27,8.99-17.95,13.83-28.41,10.21-22.04,16.05-34.77,17.84-38.9,2.99-6.84,9.93-21.83,15.95-34.14.24-.48.48-.96.71-1.43.22-.44.43-.88.66-1.34.96-1.95,1.79-3.67,2.51-5.2.21-.44.43-.89.64-1.34.58.7,1.18,1.44,1.78,2.18,1.65,2.02,3.69,4.54,6.14,7.42,3.17,3.72,5.89,7.54,8.28,11.64v.3l1.06,1.58,1.81,3.26h.33c19.1,30,26.69,66.45,20.82,100.6l-1.01,5.87,5.63,1.94c11.96,4.11,31.68,12.7,51.16,24.48,15.64,9.47,31.34,21.05,49.44,36.45l2.9,2.47,3.65-1.09c10.44-3.12,20.89-6.25,31.34-9.37,10.45-3.12,20.9-6.25,31.34-9.37l.35-.1.34-.14c15.5-6.45,29.61-10.45,33.79-10.45h.12c1.85.06,3.54.11,5.07.15,1.82.05,3.56.1,5.09.15-.23.71-.46,1.48-.68,2.31-.51,1.93-.88,3.67-1.21,5.2-.3,1.41-.56,2.63-.86,3.71l-.67,2.36c-1.63,5.72-2.7,9.49-3.83,14.55-.76,3.4-1.46,6.42-2.15,9.21l-.02.04-.18.74c-2.43,9.79-5.26,19.61-8.41,29.18-9.64,29.29-22.68,57.46-38.74,83.74l-1.03,1.68v8.51c0,1.35-.02,2.57-.07,3.74v.04s0,.04,0,.04c-.02.7-.05,1.39-.08,2.11-.04.87-.1,1.82-.19,2.94-.1,1.35-.22,2.64-.37,3.82v.11s-.02.11-.02.11c-.05.59-.13,1.16-.19,1.71-.39,3.06-.9,6.09-1.52,9.02v.04s-.02.04-.02.04c-.15.74-.31,1.48-.48,2.22-.19.86-.41,1.71-.62,2.57l-.08.29c-.04.14-.07.27-.11.41l-.05.18-.04.18c-.13.54-.26,1.03-.4,1.47l-.02.08-.02.08c-.21.75-.43,1.52-.67,2.28l-.02.05v.05c-.24.76-.44,1.38-.63,1.94l-.02.07-.02.07c-.19.59-.38,1.18-.59,1.76l-.02.06-.02.06c-.21.62-.41,1.21-.6,1.73l-.05.13-.03.07-.06.15-.08.21c-.22.6-.45,1.21-.68,1.8h0s-.21.55-.21.55c-.33.83-.65,1.62-.95,2.35v.03s-.02.03-.02.03c-.03.07-.06.14-.09.21l-.08.16-.07.17c-.22.53-.47,1.12-.81,1.85l-.05.11-.06.16c-.03.07-.07.14-.1.21l-.07.14-.04.09-.04.09c-.26.57-.53,1.15-.8,1.72l-.03.06-.03.06c-.06.14-.14.28-.21.43l-.03.06-.03.06c-.24.49-.48.98-.72,1.46l-.2.4c-.1.2-.2.39-.3.58l-.04.08-.04.08c-.27.53-.56,1.07-.82,1.55l-.03.04-.25.48c-.34.64-.69,1.27-1.05,1.89l-.07.11-.06.11c-.09.17-.19.34-.3.52l-.09.14-.08.14c-.29.52-.57,1-.84,1.43l-.1.15-.09.17c-.05.08-.09.15-.14.23l-.03.05-.03.05c-.34.56-.68,1.11-1.03,1.65l-.02.04-.02.03c-.14.22-.27.44-.42.65l-.03.04-.02.04c-.32.5-.64.99-.97,1.48l-.05.07-.05.07c-.13.2-.26.4-.4.59l-.02.03-.02.03c-.34.49-.68.97-1.01,1.46l-.03.05-.03.05c-.18.27-.38.53-.57.79l-.06.08-.06.09c-.23.34-.47.67-.72.99l-.05.06-.05.06c-.21.29-.43.59-.66.88l-.05.07-.05.07c-.29.39-.54.71-.78,1.01l-.08.1-.08.1c-.2.27-.41.54-.63.81l-.09.11-.08.11c-.24.32-.51.64-.77.96l-.03.03-.03.04c-.29.36-.5.62-.71.85l-.16.17-.14.18c-.14.17-.32.39-.56.67l-.04.04-.04.04c-.29.34-.58.68-.87,1.01l-.05.06-.05.06c-.29.34-.59.67-.9,1l-.08.09-.08.09c-.24.28-.5.56-.76.83l-.08.09-.08.09c-.12.14-.25.28-.39.42l-.11.12-.11.12c-.36.39-.73.78-1.1,1.16l-.06.06-.06.06c-.19.2-.38.4-.58.59l-.11.11-.1.11c-.32.34-.66.67-1,1.01l-.03.03-.03.03c-.25.25-.49.49-.74.73l-.05.05-.05.04c-.29.28-.58.56-.87.83l-.12.11-.11.11c-.24.24-.52.5-.81.75l-.12.1-.11.11c-.36.34-.71.67-1.08.99l-.03.02-.03.02-.05.04-.11.09-.16.14c-.6.54-1.2,1.06-1.8,1.58l-.03.02-.09.08c-.66.56-1.32,1.1-2.01,1.66-.61.5-1.24,1-1.86,1.48l-.1.08-.1.08c-.14.12-.3.23-.45.35l-.03.02-.03.02c-.51.39-1.02.78-1.54,1.16-.07.05-.13.1-.2.14l-.04.03-.1.07-.15.11c-.54.4-1.09.8-1.68,1.22-.56.4-1.18.82-1.95,1.34l-.07.04-.07.05c-.28.2-.6.41-.95.63l-.07.04-.07.05c-.49.33-1,.65-1.54,1-.65.42-1.29.81-1.9,1.17l-.1.06-.09.06c-.24.15-.48.29-.72.43l-.07.04-.07.04c-.58.35-1.16.68-1.68.98-.93.53-1.83,1.03-2.79,1.54-.62.33-1.28.68-1.96,1.02h-.03s-.03.03-.03.03c-.96.49-1.69.85-2.37,1.17l-.04.02-.04.02c-.85.41-1.66.79-2.42,1.12h-.03s-.03.03-.03.03c-.85.39-1.68.75-2.45,1.07-.97.4-1.93.79-2.88,1.17-.75.29-1.49.57-2.27.86-1.7.62-3.43,1.21-5.14,1.74-4.47,1.39-9.05,2.51-13.63,3.34-.8.14-1.61.28-2.41.41h-.03s-.03.01-.03.01h-.09c-.1.03-.2.04-.3.06-.75.11-1.52.22-2.28.33h-.1s-.11.03-.11.03c-.06,0-.13.02-.19.02h-.05s-.05.01-.05.01c-.81.11-1.71.21-2.77.32-1.66.18-3.42.32-5.24.43h-.1s-.1.01-.1.01c-.12.01-.25.01-.4.02-.61.03-1.23.06-1.84.08h-.07s-.07,0-.07,0c-.51.03-1.02.04-1.54.05h-.05s-.05,0-.05,0c-.8.02-1.65.04-2.67.04H279.87c-1.11,0-2.07-.01-2.94-.04-1-.03-2-.07-2.98-.11-.74-.04-1.48-.08-2.21-.14h0c-.91-.08-8.18-.86-9.11-1l-.17-.03c-.72-.11-1.45-.23-2.17-.36l-.62-.11h-.03c-.39-.07-.79-.15-1.18-.22l-.15-.03-.15-.02c-.26-.04-.53-.1-.78-.15h-.05s-.03-.02-.03-.02c-.45-.09-.9-.18-1.35-.28l-.1-.02-.1-.02c-.35-.07-.75-.15-1.22-.27l-.17-.04-.17-.03c-.15-.03-.3-.07-.45-.1h-.04s-.04-.02-.04-.02c-.6-.14-1.19-.28-1.79-.43l-.55-.14c-.19-.05-.37-.09-.57-.15-1.26-.33-2.37-.64-3.38-.95l-.05-.02-.05-.02c-1.2-.35-2.49-.75-3.94-1.24-.86-.29-1.59-.54-2.35-.82-.66-.24-1.4-.51-2.28-.85-.74-.28-1.44-.55-2.09-.83l-.78-.33-.1-.02c-.37-.15-.73-.31-1.07-.46l-.08-.03-.08-.03c-.3-.12-.59-.25-.89-.39l-.13-.06-.13-.06c-.41-.18-.82-.36-1.26-.56-.11-.05-.23-.1-.34-.16l-.11-.06-.12-.05c-.58-.26-1.16-.54-1.72-.82l-.06-.03-.06-.03c-.72-.34-1.44-.71-2.13-1.06-1.37-.7-2.8-1.47-4.24-2.29h-.02s-.02-.03-.02-.03c-.45-.25-.89-.51-1.33-.76l-1.42-1.42h-.93s-.08-.05-.12-.08l-.09-.06-.11-.06-.15-.09-.2-.13c-.49-.31-.97-.62-1.5-.96-.97-.63-1.94-1.28-2.85-1.92l-.06-.04-.06-.04c-.43-.29-.86-.6-1.3-.91-2.07-1.48-4.07-3.01-5.93-4.53-.38-.32-.76-.63-1.14-.95l-.06-.05-.06-.05c-.13-.11-.26-.22-.4-.34l-.27-.23c-.35-.3-.7-.6-1.05-.92l-.12-.12-.13-.11c-.14-.11-.32-.27-.41-.36l-.12-.11-.12-.11c-.33-.29-.66-.58-.98-.89l-.09-.08-.09-.08c-.19-.17-.38-.34-.57-.52l-.04-.04-.03-.03c-.44-.41-.88-.82-1.34-1.28-.58-.56-1.16-1.14-1.72-1.69-1.25-1.26-2.33-2.39-3.3-3.47l-.02-.02-.02-.02c-.54-.59-1.06-1.17-1.58-1.77l-.03-.04-.04-.04c-.33-.37-.67-.77-1.15-1.34l-.11-.13-.11-.12c-.07-.07-.14-.16-.24-.28l-.11-.14-.11-.13c-.25-.29-.48-.57-.72-.87l-.08-.1-.04-.04-.04-.04c-.19-.23-.37-.45-.55-.68l-.06-.07-.06-.07c-.32-.41-.65-.81-.97-1.23l-.04-.05-.04-.05c-.05-.07-.1-.13-.14-.18l-.12-.17-.13-.16c-.38-.49-.74-.97-1.1-1.46l-.15-.21-.05-.06-.06-.09-.04-.05-.04-.05c-.4-.54-.79-1.09-1.18-1.63-1.88-2.66-3.64-5.39-5.22-8.11l-.03-.04-.03-.04c-.36-.59-.66-1.12-.93-1.62l-.12-.22-.14-.22c-.05-.08-.08-.15-.12-.23l-.05-.1-.05-.09c-.2-.36-.47-.84-.69-1.28l-.09-.18-.1-.17c-.05-.09-.1-.17-.12-.23l-.07-.15-.08-.15c-.24-.45-.48-.91-.71-1.37l-.02-.05-.03-.05c-.23-.43-.44-.86-.65-1.3v-.03s-.03-.03-.03-.03c-.9-1.83-1.74-3.66-2.49-5.45v-.03s-.02-.03-.02-.03c-.29-.66-.53-1.25-.74-1.78l-.11-.29-.06-.12-.05-.14-.08-.19c-.09-.23-.18-.46-.27-.69l-.11-.28c-.21-.54-.42-1.07-.62-1.61l-.04-.11-.04-.11c-.07-.19-.14-.38-.21-.57v-.04s-.03-.04-.03-.04c-.19-.52-.38-1.05-.56-1.59l-.08-.24c-.08-.24-.17-.49-.25-.73l-.04-.14-.05-.13c-.09-.25-.17-.5-.25-.75l-.02-.05-.02-.05c-.2-.61-.38-1.23-.57-1.85v-.04s-.02-.03-.02-.03c-.22-.71-1.57-5.6-1.9-7.08v-.05s-.02-.05-.02-.05c-.5-2.05-2.98-13.71-2.84-19.53v-.39s-.02-.39-.02-.39c-.01-.12-.01-.25-.02-.4v-.03s0-.03,0-.03c-.04-.77-.06-1.41-.07-1.99v-.32s-.02-.14-.02-.14v-.03s0-.11,0-.11v-.11c-.03-.82-.04-1.69-.04-2.74v-500.92c4.67-4.91,9.66-9.99,14.85-14.71,27.38-24.84,46.15-41.42,85.27-68.11,24.21-16.52,45.25-27.76,66.2-35.38,21.6-7.86,43.22-11.93,68.03-12.82,5.45-.2,10.85-.29,16.05-.29m0-7c-5.23,0-10.67.1-16.3.3-50.73,1.81-90.43,17.01-137.92,49.42-38.98,26.59-58.24,43.5-86.03,68.7-6.02,5.46-11.64,11.27-17.15,17.1v503.71c0,.99.01,1.97.04,2.95,0,.2,0,.4.02.59,0,.76.04,1.51.08,2.27.01.23.02.47.04.7-.18,7.13,2.75,20.19,3.03,21.35.39,1.72,1.79,6.79,2.05,7.62.2.66.4,1.32.61,1.97.11.36.23.72.36,1.08.12.38.25.75.38,1.13.19.56.39,1.12.59,1.68.1.29.2.57.31.85.22.62.46,1.23.7,1.84.14.36.28.73.43,1.09.07.2.15.41.25.61.26.66.54,1.33.82,1.98.83,1.97,1.72,3.91,2.66,5.82.25.52.5,1.03.77,1.54.26.51.52,1.02.79,1.52.12.25.25.49.39.73.26.51.54,1.02.82,1.52.13.25.27.51.43.76.35.65.72,1.29,1.1,1.92,1.72,2.95,3.58,5.83,5.55,8.62.42.59.84,1.18,1.27,1.76.1.14.2.29.32.43.39.53.79,1.06,1.2,1.59.13.19.27.37.42.56.35.46.71.91,1.07,1.36.25.33.51.65.78.97.31.38.61.75.93,1.12.18.23.37.46.58.69.44.53.88,1.05,1.34,1.56.56.64,1.12,1.27,1.7,1.9,1.14,1.26,2.32,2.49,3.52,3.7.6.6,1.21,1.2,1.82,1.79.47.46.95.91,1.43,1.36.26.25.52.49.78.72.39.37.79.73,1.19,1.08.25.24.51.46.76.67.41.38.83.74,1.25,1.1.27.23.53.46.8.68.4.34.81.68,1.22,1.02,2.04,1.67,4.15,3.28,6.3,4.82.49.35.98.7,1.47,1.03,1.02.72,2.06,1.42,3.1,2.09.52.34,1.04.67,1.56,1,.19.12.37.24.56.35.62.39,1.25.77,1.88,1.15.01,0,.01,0,.02,0,.73.43,1.46.86,2.21,1.28,1.49.85,3,1.67,4.53,2.45.76.39,1.53.78,2.31,1.15.64.32,1.29.63,1.95.93.2.1.4.19.6.28.46.21.92.42,1.39.62.4.19.8.36,1.21.53.61.27,1.23.53,1.85.78.06.03.11.05.17.06.77.33,1.55.63,2.33.93.8.31,1.62.62,2.43.91.82.3,1.64.58,2.47.86,1.4.47,2.81.92,4.23,1.33,1.21.37,2.44.71,3.67,1.03.38.1.76.19,1.15.29.66.17,1.32.33,1.98.48.25.06.5.12.76.17.53.13,1.06.25,1.59.35.5.11,1,.21,1.5.31.38.08.77.16,1.16.22.6.12,1.21.23,1.81.34.05.01.1.02.15.02.83.15,1.67.28,2.5.41,1.27.19,9.32,1.04,9.67,1.06.79.06,1.59.11,2.39.15,1.04.05,2.08.09,3.13.12,1.04.03,2.09.04,3.14.04h530.39c.97,0,1.93-.01,2.89-.04.6-.01,1.19-.03,1.78-.06.65-.02,1.3-.05,1.95-.08.22,0,.45-.02.68-.04,1.87-.11,3.73-.26,5.58-.46.98-.1,1.96-.21,2.94-.34.17-.02.34-.04.52-.07.82-.11,1.64-.23,2.45-.35.17-.03.33-.05.5-.08.84-.14,1.68-.28,2.51-.43,4.93-.89,9.76-2.08,14.46-3.54,1.84-.57,3.67-1.19,5.47-1.85.8-.29,1.59-.59,2.39-.9,1.02-.4,2.03-.81,3.04-1.23.89-.37,1.78-.76,2.66-1.16.88-.39,1.76-.8,2.63-1.22.88-.41,1.74-.84,2.6-1.28.72-.36,1.42-.73,2.13-1.11,1-.53,1.98-1.07,2.96-1.63.62-.35,1.23-.7,1.84-1.07.33-.19.65-.38.98-.59.71-.42,1.42-.86,2.12-1.31.55-.35,1.1-.7,1.64-1.06.41-.26.82-.53,1.22-.81.72-.48,1.44-.97,2.14-1.47.61-.43,1.21-.86,1.8-1.3.15-.1.29-.21.43-.31.57-.42,1.12-.84,1.68-1.27.24-.18.48-.36.71-.55.69-.53,1.37-1.07,2.04-1.62.71-.58,1.42-1.16,2.12-1.76.05-.04.09-.07.13-.11.65-.56,1.3-1.12,1.94-1.7.1-.08.2-.17.3-.26.43-.38.85-.77,1.27-1.17.39-.34.78-.7,1.16-1.08.35-.32.69-.65,1.03-.98.31-.29.61-.59.91-.89.41-.4.81-.8,1.19-1.2.29-.28.57-.57.84-.86.43-.44.86-.89,1.27-1.34.25-.25.48-.5.7-.75.33-.35.66-.71.97-1.07.37-.4.73-.8,1.08-1.21.34-.38.67-.77,1-1.16.28-.32.56-.65.81-.97.34-.38.66-.77.97-1.16.31-.38.62-.76.91-1.14.29-.35.57-.71.84-1.07.34-.42.66-.84.97-1.26.28-.36.55-.72.81-1.08.31-.41.61-.82.9-1.24.25-.34.5-.68.73-1.02.35-.5.7-1,1.05-1.51.19-.27.38-.55.56-.83.36-.53.71-1.07,1.06-1.61.18-.27.35-.54.52-.81.38-.59.76-1.2,1.13-1.81.12-.19.24-.38.35-.58.35-.56.69-1.14,1.01-1.71.2-.32.38-.63.55-.95.4-.69.79-1.39,1.17-2.1.03-.04.06-.09.08-.14.37-.68.74-1.37,1.09-2.06.14-.26.27-.51.4-.77.33-.66.66-1.31.98-1.98.11-.22.22-.44.32-.66.3-.63.6-1.26.88-1.89.12-.25.24-.49.34-.74.32-.7.63-1.4.92-2.11.08-.17.16-.35.23-.52.35-.83.69-1.67,1.02-2.51.03-.05.04-.1.06-.15.31-.78.61-1.57.9-2.37.07-.16.13-.33.19-.49.24-.65.47-1.31.69-1.97.23-.65.45-1.31.66-1.97.25-.73.48-1.47.7-2.21.26-.83.51-1.68.74-2.52.18-.6.34-1.2.49-1.81.1-.33.18-.66.27-.99.23-.92.46-1.84.67-2.77.18-.79.36-1.59.52-2.39.67-3.15,1.21-6.36,1.62-9.6.08-.65.16-1.3.22-1.96.17-1.38.3-2.78.4-4.18.08-1.03.15-2.07.2-3.1.04-.76.07-1.51.09-2.27.05-1.33.07-2.66.07-4v-6.54c16.55-27.07,29.7-55.68,39.42-85.2,3.22-9.8,6.07-19.7,8.55-29.68.01-.02.02-.05.03-.07.83-3.36,1.61-6.73,2.36-10.09,1.22-5.5,2.35-9.31,4.4-16.53.74-2.63,1.17-5.52,2.1-9.03,3.09-11.72,9.41-10.62-16.03-11.4-.11,0-.22,0-.33,0-6.16,0-22.04,4.97-36.49,10.99-20.89,6.25-41.79,12.49-62.68,18.74-15.61-13.29-32.13-26.08-50.35-37.11-18.23-11.02-38.49-20.29-52.51-25.11,6.44-37.51-2.71-77.24-23.92-108.75,0-.02,0-.03-.01-.03-2.8-5.05-6.09-9.79-9.94-14.31-8.62-10.14-11.88-15.3-14.31-15.3-2.28,0-3.83,4.51-8.37,13.68-.45.9-.9,1.83-1.37,2.77-5.92,12.1-12.9,27.13-16.09,34.44-2.14,4.92-9.99,21.94-17.78,38.76-5.53,11.95-12.37,25.46-15,30.73,0,0,0,0-.01,0,0,0,0,0,0,0-3.91,6.76-8.18,13.36-12.82,19.77-7.27,10.09-15.44,19.73-24.5,28.79-35.76,35.75-77.52,72.05-124.96,86.12-20.39,6.05-42.4,9.35-64.69,9.35-76.14,0-155.54-38.52-184.64-137.55-37.75-128.46,4.88-190.23,72.64-256.43,76.14-74.39,159.93-89.44,159.93-89.44,2.33,4.72,1.57,37.34-7.42,63.45-1.11,3.21-2.01,6.36-2.68,9.45-7.33,24.17-2.29,50.92,15.67,70.03,13.78,14.66,32.52,22.01,51.6,22.01s37.57-7.01,52.52-21.07c18.8-17.68,26.87-42.35,23.76-65.44-.01-.08-.02-.16-.03-.24v-.06c-.33-4.43-.9-8.76-1.61-13-2.73-16.23-9.84-34.86-18.47-49.69-12.28-21.08-25.52-36.35-45.73-54.29-19.99-17.73-53.96-41.94-136.73-41.94h0Z"/>
    </g>
  </g>
</svg>