<?xml version="1.0" encoding="UTF-8"?>
<svg id="_圖層_1" data-name="圖層 1" xmlns="http://www.w3.org/2000/svg" xmlns:xlink="http://www.w3.org/1999/xlink" viewBox="0 0 1080 1080">
  <defs>
    <style>
      .cls-1 {
        filter: url(#drop-shadow-1);
      }

      .cls-2, .cls-3 {
        stroke-width: 0px;
      }

      .cls-3 {
        fill: #fff;
      }
    </style>
    <filter id="drop-shadow-1" filterUnits="userSpaceOnUse">
      <feOffset dx="4.98" dy="4.98"/>
      <feGaussianBlur result="blur" stdDeviation="12.45"/>
      <feFlood flood-color="#000" flood-opacity=".3"/>
      <feComposite in2="blur" operator="in"/>
      <feComposite in="SourceGraphic"/>
    </filter>
  </defs>
  <g class="cls-1">
    <path class="cls-2" d="m932,286.67v523.85c-7.44,12.17-15.57,24.03-24.39,35.53-14.27,17.68-29.92,34.59-46.93,50.59-11.39,10.71-23.18,20.79-35.27,30.22-5.27,4.1-10.6,8.09-15.99,11.95H279.87c-1.05,0-2.1-.01-3.14-.04-1.05-.03-2.09-.07-3.13-.12-.8-.04-1.6-.09-2.39-.15-.35-.02-.7-.04-1.04-.07h-.01c-1.61-.13-3.21-.29-4.8-.49-1.28-.14-2.55-.31-3.82-.5-.83-.13-1.67-.26-2.5-.41-.05,0-.1-.01-.15-.02-.6-.11-1.21-.22-1.81-.34-.39-.06-.78-.14-1.16-.22-.5-.1-1-.2-1.5-.31-.53-.1-1.06-.22-1.59-.35-.26-.05-.51-.11-.76-.17-.66-.15-1.32-.31-1.98-.48-.39-.1-.77-.19-1.15-.29-1.23-.32-2.46-.66-3.67-1.03-1.42-.42-2.83-.86-4.23-1.33-.83-.28-1.65-.56-2.47-.86-.81-.29-1.63-.6-2.43-.91-.78-.3-1.56-.6-2.33-.93-.06-.01-.11-.03-.17-.06-.62-.25-1.24-.51-1.85-.78-.41-.17-.81-.34-1.21-.53-.47-.2-.93-.41-1.39-.62-.2-.09-.4-.18-.6-.28-.66-.3-1.31-.61-1.95-.93-.78-.37-1.55-.76-2.31-1.15-1.53-.78-3.04-1.6-4.53-2.45-.75-.42-1.48-.85-2.21-1.28-.01,0-.01-.01-.02-.01-.63-.38-1.26-.76-1.88-1.15-.19-.11-.37-.23-.56-.35-.52-.33-1.04-.66-1.56-1-1.04-.67-2.08-1.37-3.1-2.09-.49-.33-.98-.68-1.47-1.03-2.15-1.54-4.26-3.15-6.3-4.82-.41-.34-.82-.68-1.22-1.02-.27-.22-.53-.45-.8-.68-.42-.36-.84-.72-1.25-1.1-.25-.21-.51-.43-.76-.67-.4-.35-.8-.71-1.19-1.08-.26-.23-.52-.47-.78-.72-.48-.45-.96-.9-1.43-1.36-.61-.59-1.22-1.19-1.82-1.79-1.2-1.21-2.38-2.44-3.52-3.7-.58-.63-1.14-1.26-1.7-1.9-.46-.51-.9-1.03-1.34-1.56-.21-.23-.4-.46-.58-.69-.32-.37-.62-.74-.93-1.12-.27-.32-.53-.64-.78-.97-.36-.45-.72-.9-1.07-1.36-.15-.19-.29-.37-.42-.56-.41-.53-.81-1.06-1.2-1.59-.12-.14-.22-.29-.32-.43-.43-.58-.85-1.17-1.27-1.76-1.97-2.79-3.83-5.67-5.55-8.62-.38-.63-.75-1.27-1.1-1.92-.16-.25-.3-.51-.43-.76-.28-.5-.56-1.01-.82-1.52-.14-.24-.27-.48-.39-.73-.27-.5-.53-1.01-.79-1.52-.27-.51-.52-1.02-.77-1.54-.94-1.91-1.83-3.85-2.66-5.82-.28-.65-.56-1.32-.82-1.98-.1-.2-.18-.41-.25-.61-.15-.36-.29-.73-.43-1.09-.24-.61-.48-1.22-.7-1.84-.11-.28-.21-.56-.31-.85-.2-.56-.4-1.12-.59-1.68-.13-.38-.26-.75-.38-1.13-.13-.36-.25-.72-.36-1.08-.21-.65-.41-1.31-.61-1.97-.26-.83-.5-1.67-.74-2.51-.47-1.69-.91-3.39-1.31-5.11-.28-1.17-.53-2.36-.76-3.55h0c-.07-.27-.12-.54-.18-.8-.05-.27-.11-.55-.15-.83-.16-.85-.32-1.7-.46-2.56-.01-.05-.02-.09-.02-.14-.13-.78-.25-1.55-.36-2.33-.05-.27-.09-.55-.12-.82-.08-.61-.16-1.21-.24-1.82-.04-.31-.08-.62-.1-.93-.08-.67-.15-1.33-.22-2-.01-.05-.02-.1-.02-.16-.02-.22-.04-.43-.06-.65-.02-.2-.04-.41-.06-.61-.01-.18-.03-.35-.04-.53-.02-.22-.04-.44-.05-.66-.02-.14-.03-.27-.03-.41-.07-.85-.12-1.7-.16-2.55-.02-.23-.03-.47-.04-.7-.04-.76-.07-1.51-.08-2.27-.02-.19-.02-.39-.02-.59-.03-.98-.04-1.96-.04-2.95V286.67c0-67.23,54.51-121.74,121.77-121.74h530.39c67.23,0,121.74,54.51,121.74,121.74Z"/>
    <path class="cls-3" d="m932,810.52v6.54c0,1.34-.02,2.67-.07,4-.02.76-.05,1.51-.09,2.27-.05,1.03-.12,2.07-.2,3.1-.1,1.4-.23,2.8-.4,4.18-.06.66-.14,1.31-.22,1.96-.41,3.24-.95,6.45-1.62,9.6-.16.8-.34,1.6-.52,2.39-.21.93-.44,1.85-.67,2.77-.09.33-.17.66-.27.99-.15.61-.31,1.21-.49,1.81-.23.84-.48,1.69-.74,2.52-.22.74-.45,1.48-.7,2.21-.21.66-.43,1.32-.66,1.97-.22.66-.45,1.32-.69,1.97-.06.16-.12.33-.19.49-.29.8-.59,1.59-.9,2.37-.02.05-.03.1-.06.15-.33.84-.67,1.68-1.02,2.51-.07.17-.15.35-.23.52-.29.71-.6,1.41-.92,2.11-.1.25-.22.49-.34.74-.28.63-.58,1.26-.88,1.89-.1.22-.21.44-.32.66-.32.67-.65,1.32-.98,1.98-.13.26-.26.51-.4.77-.35.69-.72,1.38-1.09,2.06-.02.05-.05.1-.08.14-.38.71-.77,1.41-1.17,2.1-.17.32-.35.63-.55.95-.32.57-.66,1.15-1.01,1.71-.11.2-.23.39-.35.58-.37.61-.75,1.22-1.13,1.81-.17.27-.34.54-.52.81-.35.54-.7,1.08-1.06,1.61-.18.28-.37.56-.56.83-.35.51-.7,1.01-1.05,1.51-.23.34-.48.68-.73,1.02-.29.42-.59.83-.9,1.24-.26.36-.53.72-.81,1.08-.31.42-.63.84-.97,1.26-.27.36-.55.72-.84,1.07-.29.38-.6.76-.91,1.14-.31.39-.63.78-.97,1.16-.25.32-.53.65-.81.97-.33.39-.66.78-1,1.16-.35.41-.71.81-1.08,1.21-.31.36-.64.72-.97,1.07-.22.25-.45.5-.7.75-.41.45-.84.9-1.27,1.34-.27.29-.55.58-.84.86-.38.4-.78.8-1.19,1.2-.3.3-.6.6-.91.89-.34.33-.68.66-1.03.98-.38.38-.77.74-1.16,1.08-.42.4-.84.79-1.27,1.17-.1.09-.2.18-.3.26-.64.58-1.29,1.14-1.94,1.7-.04.04-.08.07-.13.11-.7.6-1.41,1.18-2.12,1.76-.67.55-1.35,1.09-2.04,1.62-.23.19-.47.37-.71.55-.56.43-1.11.85-1.68,1.27-.14.1-.28.21-.43.31-.59.44-1.19.87-1.8,1.3-.7.5-1.42.99-2.14,1.47-.4.28-.81.55-1.22.81-.54.36-1.09.71-1.64,1.06-.7.45-1.41.89-2.12,1.31-.33.21-.65.4-.98.59-.61.37-1.22.72-1.84,1.07-.98.56-1.96,1.1-2.96,1.63-.71.38-1.41.75-2.13,1.11-.86.44-1.72.87-2.6,1.28-.87.42-1.75.83-2.63,1.22-.88.4-1.77.79-2.66,1.16-1.01.42-2.02.83-3.04,1.23-.8.31-1.59.61-2.39.9-1.81.66-3.63,1.27-5.47,1.85-4.7,1.46-9.53,2.65-14.46,3.54-.83.15-1.67.29-2.51.43-.17.03-.33.05-.5.08-.81.12-1.63.24-2.45.35-.18.03-.35.05-.52.07-.98.13-1.96.24-2.94.34-1.85.2-3.71.35-5.58.46-.23.02-.46.03-.68.04-.65.03-1.3.06-1.95.08-.59.03-1.18.05-1.78.06-.96.03-1.92.04-2.89.04h-.84c5.39-3.86,10.72-7.85,15.99-11.95,12.09-9.43,23.88-19.51,35.27-30.22,17.01-16,32.66-32.91,46.93-50.59,8.82-11.5,16.95-23.36,24.39-35.53Z"/>
    <path class="cls-3" d="m846.52,933.32c1.84-.58,3.66-1.19,5.47-1.85-1.8.66-3.63,1.28-5.47,1.85Z"/>
    <g>
      <g>
        <path class="cls-3" d="m357.73,938.81h-77.86c-1.05,0-2.1-.01-3.14-.04-1.05-.03-2.09-.07-3.13-.12-.8-.04-1.6-.09-2.39-.15-.35-.02-.7-.04-1.04-.07.59,1.46,1.22,2.92,1.89,4.37-2.24-1.6-4.48-3.21-6.7-4.86-22.22-16.35-43.26-34.94-62.83-55.76-14.19-15.1-27.17-30.91-38.94-47.3-1.69-2.37-3.36-4.74-5.01-7.13-.01-.01-.01-.02-.02-.03-.01-.18-.03-.35-.04-.53-.02-.22-.04-.44-.05-.66-.02-.14-.03-.27-.03-.41-.07-.85-.12-1.7-.16-2.55-.02-.23-.03-.47-.04-.7-.04-.76-.07-1.51-.08-2.27-.02-.19-.02-.39-.02-.59-.03-.98-.04-1.96-.04-2.95v-129.64l26.45,33.3,53.78,67.73,37.05,46.66,53.08,66.85,29.27,36.85Z"/>
        <path class="cls-3" d="m988.86,659.92c-.93,3.51-1.36,6.4-2.1,9.03-2.05,7.22-3.18,11.03-4.4,16.53-.75,3.36-1.53,6.73-2.36,10.09-.01.02-.02.05-.03.07-2.48,9.98-5.33,19.88-8.55,29.68-9.72,29.52-22.87,58.13-39.42,85.2-7.44,12.17-15.57,24.03-24.39,35.53-14.27,17.68-29.92,34.59-46.93,50.59-11.39,10.71-23.18,20.79-35.27,30.22-5.27,4.1-10.6,8.09-15.99,11.95h-451.69l-29.27-36.85-53.08-66.85-37.05-46.66-53.78-67.73-26.45-33.3v-374.07c5.51-5.83,11.23-11.53,17.15-17.1,22.19-20.86,57.13-61.52,82.26-76.51,47.28-28.2,79.65-37.51,132.38-45.02,10.72-1.68,22.15-2.52,33.67-2.58,22.47-.13,45.22,2.73,63.48,8.32,19.83,6.07,43.94,20.46,65.19,39.31,20.21,17.94,33.45,33.21,45.73,54.29,8.63,14.83,15.74,33.46,18.47,49.69.71,4.24,1.28,8.57,1.61,13v.06c.01.07.02.13.02.2.01.02.01.06,0,.09,1.39,19.46-2.21,40.65-21.49,60.99-12.54,13.2-18.21,16.27-32.24,18.54-24.04,3.92-48.69-1.26-66.7-20.26-21.37-22.59-28.08-41.98-23.2-64.47-.01,0,0,0,0,0,.01-.05.02-.09.03-.14.01-.02.01-.03.02-.06.67-3.15,1.59-6.36,2.72-9.63,8.99-26.11,9.75-58.73,7.42-63.45,0,0-110.84-33.45-205.96,45.58-5.53,4.6-10.93,8.86-16,13.1-16.03,13.41-38.9,45.35-50.15,62.96-18.86,29.55-27.66,62.55-28.68,96.46-1.07,35.75,6.51,72.51,20.07,107.32,7.69,19.74,17.3,38.85,28.35,56.8,8.55,13.89,18.61,27.11,30.2,39.45,9.3,9.89,19.22,18.83,29.66,26.82,1.16.89,2.32,1.76,3.49,2.62,59.39,43.83,137.86,51.88,205.78,22.96,45.52-19.4,89.2-50.37,124.96-86.12,9.06-9.06,17.23-18.7,24.5-28.79,4.64-6.41,8.91-13.01,12.82-19.77.01-.01.02,0,.02,0,2.63-5.27,9.47-18.78,15-30.73,7.79-16.82,15.64-33.84,17.78-38.76,3.19-7.31,10.17-22.34,16.09-34.44.47-.94.92-1.87,1.37-2.77,9.38-18.98,6.01-18,22.68,1.62,3.85,4.52,7.14,9.26,9.94,14.31,0,.02.01.02.01.03.98,1.77,1.9,3.58,2.76,5.43,6.63,14.21,9.81,30.9,10.55,51.9.96,27.31-24.76,76.8,54.22,115.65,58.64,28.84,81.35.44,104.49-12.5,3.86-2.15,8.49-4.39,13.43-6.53,1.27-.56,2.56-1.11,3.86-1.65.01-.01.03-.01.04-.02,14.75-6.15,31.02-11.22,36.93-11.03,25.45.78,19.12-.32,16.03,11.41Z"/>
        <path class="cls-3" d="m725.44,482.43c35.8,33.4,53.31,85.33,45.03,133.59,14.02,4.82,34.28,14.09,52.51,25.11,18.22,11.03,34.74,23.82,50.35,37.11,29.34-8.77,58.68-17.54,88.02-26.31-5.83,16.96-11.74,34.1-21.42,49.19-9.68,15.09-23.65,28.17-40.87,33.17-20.77,6.03-43.08-.34-62.92-8.94-34.75-15.06-67.11-37.86-87.71-69.65-16.91-26.09-25.14-59.5-14.76-88.81,3.25-9.19,8.25-17.84,9.92-27.45,2.43-14.02-2.51-28.15-7.37-41.53l-10.78-15.49Z"/>
        <ellipse class="cls-3" cx="545.01" cy="350.08" rx="75.22" ry="72" transform="translate(-91.88 468.25) rotate(-43.23)"/>
      </g>
      <path class="cls-3" d="m263.98,866.13c-5.24,23.84-3.31,49.11,6.18,72.3h.01c.59,1.46,1.22,2.92,1.89,4.37-2.24-1.6-4.48-3.21-6.7-4.86-1.28-.14-2.55-.31-3.82-.5-.83-.13-1.67-.26-2.5-.41-.05,0-.1-.01-.15-.02-.6-.11-1.21-.22-1.81-.34-.39-.06-.78-.14-1.16-.22-.5-.1-1-.2-1.5-.31-.53-.1-1.06-.22-1.59-.35-.26-.05-.51-.11-.76-.17-.66-.15-1.32-.31-1.98-.48-.39-.1-.77-.19-1.15-.29-1.23-.32-2.46-.66-3.67-1.03-1.42-.41-2.83-.86-4.23-1.33-.83-.28-1.65-.56-2.47-.86-.81-.29-1.63-.6-2.43-.91-.78-.3-1.56-.6-2.33-.93-.06-.01-.11-.03-.17-.06-.62-.25-1.24-.51-1.85-.78-.41-.17-.81-.34-1.21-.53-.47-.2-.93-.41-1.39-.62-.2-.09-.4-.18-.6-.28-.66-.3-1.31-.61-1.95-.93-.78-.37-1.55-.76-2.31-1.15-1.53-.78-3.04-1.6-4.53-2.45-.75-.42-1.48-.85-2.21-1.28-.01,0-.01-.01-.02-.01-.63-.38-1.26-.76-1.88-1.15-.19-.11-.37-.23-.56-.35-.52-.33-1.04-.66-1.56-1-1.04-.67-2.08-1.37-3.1-2.09-.49-.33-.98-.68-1.47-1.03-2.15-1.54-4.26-3.15-6.3-4.82-.41-.34-.82-.68-1.22-1.02-.27-.22-.53-.45-.8-.68-.42-.36-.84-.72-1.25-1.1-.25-.21-.51-.43-.76-.67-.4-.35-.8-.71-1.19-1.08-.26-.23-.52-.47-.78-.72-.48-.45-.96-.9-1.43-1.36-.61-.59-1.22-1.19-1.82-1.79-1.2-1.21-2.38-2.44-3.52-3.7-.58-.63-1.14-1.26-1.7-1.9-.46-.51-.9-1.03-1.34-1.56-.21-.23-.4-.46-.58-.69-.32-.37-.62-.74-.93-1.12-.27-.32-.53-.64-.78-.97-.36-.45-.72-.9-1.07-1.36-.15-.19-.29-.37-.42-.56-.41-.53-.81-1.06-1.2-1.59-.12-.14-.22-.29-.32-.43-.43-.58-.85-1.17-1.27-1.76-1.97-2.79-3.83-5.67-5.55-8.62-.38-.63-.75-1.27-1.1-1.92-.16-.25-.3-.51-.43-.76-.28-.5-.56-1.01-.82-1.52-.14-.24-.27-.48-.39-.73-.27-.5-.53-1.01-.79-1.52-.27-.51-.52-1.02-.77-1.54-.94-1.91-1.83-3.85-2.66-5.82-.28-.65-.56-1.32-.82-1.98-.1-.2-.18-.41-.25-.61-.15-.36-.29-.73-.43-1.09-.24-.61-.48-1.22-.7-1.84-.11-.28-.21-.56-.31-.85-.2-.56-.4-1.12-.59-1.68-.13-.38-.26-.75-.38-1.13-.13-.36-.25-.72-.36-1.08-.21-.65-.41-1.31-.61-1.97-.26-.83-.5-1.67-.74-2.51-.48-1.69-.92-3.39-1.31-5.11-.28-1.16-.54-2.34-.78-3.52,0,0,.01-.02.02-.03h0c.93-2.21,1.94-4.37,3.04-6.49,5.5-10.54,13.11-19.98,22.8-27.67,6.17-4.89,12.83-8.81,19.82-11.77,10.16-4.31,21.03-6.62,32.12-6.99,20.19-.69,41.1,4.99,59.75,16.51-9.29,9-16.87,19.19-22.7,30.15-5.23,9.83-9.05,20.28-11.4,31.02Z"/>
      <path class="cls-3" d="m590.03,938.81h-102.53c32.96-14.43,70.25-14.07,102.53,0Z"/>
    </g>
  </g>
</svg>