<?xml version="1.0" encoding="UTF-8"?>
<svg id="_圖層_1" data-name="圖層 1" xmlns="http://www.w3.org/2000/svg" viewBox="0 0 582.45 302.88">
  <defs>
    <style>
      .cls-1 {
        fill: #fab4aa;
      }

      .cls-1, .cls-2 {
        stroke-width: 0px;
      }

      .cls-2 {
        fill: #285a6e;
      }
    </style>
  </defs>
  <path class="cls-2" d="m312.93,117.77c-2.25,4.41-5.63,8.28-10.13,11.61-4.5,3.33-9.99,5-16.46,5s-13.11-1.41-19.07-4.22c-5.96-2.81-10.79-7.13-14.5-12.95-3.71-5.82-5.56-12.95-5.56-21.39,0-7.32,1.41-13.7,4.22-19.14,2.81-5.44,6.59-9.73,11.33-12.88,4.74-3.14,9.97-5.09,15.69-5.84,1.69-.19,2.91-.28,3.66-.28,4.5,0,8.8.98,12.88,2.96,4.08,1.97,7.5,4.6,10.27,7.88,2.77,3.29,4.62,6.9,5.56,10.84.56,2.35.84,4.46.84,6.33,0,3.38-1.08,5.91-3.24,7.6-2.16,1.69-5.54,2.53-10.13,2.53h-28.71c2.63,8.16,6.31,15.06,11.05,20.69,4.74,5.63,9.87,8.44,15.41,8.44,3.94,0,6.99-.75,9.15-2.25,2.16-1.5,4.22-3.61,6.19-6.33l1.55,1.41Zm-43.84-51.93c-1.74,3.19-2.6,7.23-2.6,12.1s.7,9.85,2.11,14.92h16.04c3,0,5.25-.98,6.76-2.96,1.5-1.97,2.25-4.5,2.25-7.6,0-3.38-.77-6.87-2.32-10.48-1.55-3.61-3.61-6.52-6.19-8.73-2.58-2.2-5.33-3.12-8.23-2.74-3.47.47-6.08,2.3-7.81,5.49Z"/>
  <path class="cls-2" d="m351.35,27.57v1.83h-13.65l.14.14c1.69.38,3.33,1.81,4.93,4.29,1.59,2.49,2.39,6.78,2.39,12.88v78.25c0,2.44.58,4.32,1.76,5.63,1.17,1.31,2.65,1.97,4.43,1.97v1.83h-35.6v-1.83h14.5c-2.35-.28-4.32-1.81-5.91-4.57-1.6-2.77-2.39-6.97-2.39-12.6V37.14c0-2.53-.59-4.46-1.76-5.77-1.17-1.31-2.65-1.97-4.43-1.97v-1.83h35.6Z"/>
  <path class="cls-2" d="m389.77,60.36h-13.65v.14c1.88.47,3.59,1.92,5.14,4.36,1.55,2.44,2.32,6.71,2.32,12.81v47.29c0,2.44.58,4.32,1.76,5.63,1.17,1.31,2.65,1.97,4.43,1.97v1.83h-35.6v-1.83h14.5c-2.35-.28-4.32-1.81-5.91-4.57-1.6-2.77-2.39-6.97-2.39-12.6v-47.29c0-2.53-.56-4.45-1.69-5.77-1.13-1.31-2.63-1.97-4.5-1.97v-1.83h35.6v1.83Zm-26.67-9.85c-2.3-2.25-3.45-4.97-3.45-8.16s1.15-6.05,3.45-8.3c2.3-2.25,5.04-3.38,8.23-3.38s5.91,1.15,8.16,3.45c2.25,2.3,3.38,5.04,3.38,8.23s-1.13,5.91-3.38,8.16c-2.25,2.25-4.97,3.38-8.16,3.38s-5.93-1.13-8.23-3.38Z"/>
  <path class="cls-2" d="m461.82,134.38h-19.42c-5.72,0-8.96-4.36-9.71-13.09-2.16,3.85-4.71,6.99-7.67,9.43-2.96,2.44-6.78,3.66-11.47,3.66-5.63,0-10.25-1.9-13.86-5.7-3.61-3.8-5.89-9.31-6.83-16.54-.19-1.88-.28-3.28-.28-4.22,0-4.5.92-8.51,2.74-12.03,1.83-3.52,4.27-6.26,7.32-8.23,3.05-1.97,6.31-2.96,9.78-2.96,3.75,0,7.39,1.17,10.91,3.52,3.52,2.35,6.54,5.91,9.08,10.7v-25.61c0-4.88-.61-8.44-1.83-10.7-1.22-2.25-3.61-3.38-7.18-3.38-2.06,0-3.82.61-5.28,1.83-1.46,1.22-2.18,2.81-2.18,4.78,0,1.41.33,2.77.99,4.08.75,1.69,1.12,3.14,1.12,4.36,0,2.16-.75,3.94-2.25,5.35-1.5,1.41-3.38,2.11-5.63,2.11-2.53,0-4.53-.84-5.98-2.53-1.46-1.69-2.18-3.8-2.18-6.33,0-1.78.4-3.54,1.2-5.28.8-1.73,1.9-3.26,3.31-4.57,4.13-3.75,10.18-5.63,18.15-5.63,9.48,0,17,1.69,22.59,5.07,5.58,3.38,8.37,9.57,8.37,18.58v43.91c0,2.44.58,4.32,1.76,5.63,1.17,1.31,2.65,1.97,4.43,1.97v1.83Zm-43.49-14.99c2.44,2.3,4.88,3.45,7.32,3.45,2.72,0,4.69-1.08,5.91-3.24.75-1.31,1.12-3.42,1.12-6.33,0-3.28-.54-6.71-1.62-10.27-1.08-3.56-2.7-6.57-4.85-9.01-3.19-3.47-6.19-5.21-9.01-5.21-2.07,0-3.73.89-5,2.67-1.27,1.78-1.9,4.22-1.9,7.32,0,2.91.61,6.15,1.83,9.71,1.69,4.97,3.75,8.61,6.19,10.91Z"/>
  <g>
    <path class="cls-2" d="m328.32,244.33c0,2.53.56,4.43,1.69,5.7,1.13,1.27,2.63,1.9,4.5,1.9v1.83h-35.6v-1.83h14.5c-2.35-.28-4.32-1.81-5.91-4.57-1.6-2.77-2.39-6.97-2.39-12.59v-31.52c0-4.41-.87-7.83-2.6-10.27-1.74-2.44-4.25-3.66-7.53-3.66-.84,0-1.5.05-1.97.14-3.38.47-6.29,2.58-8.73,6.33-2.44,3.75-3.66,8.35-3.66,13.79v34.76c0,2.44.58,4.32,1.76,5.63,1.17,1.32,2.65,1.97,4.43,1.97v1.83h-35.6v-1.83h14.5c-2.35-.28-4.32-1.81-5.91-4.57-1.6-2.77-2.39-6.97-2.39-12.59v-78.39c0-2.44-.56-4.31-1.69-5.63-1.13-1.31-2.63-1.97-4.5-1.97v-1.83h35.6v1.83h-13.65v.14c1.78.38,3.47,1.78,5.07,4.22,1.59,2.44,2.39,6.71,2.39,12.81v32.51c2.63-6.66,6.21-11.77,10.77-15.34,4.55-3.56,9.64-5.35,15.27-5.35,7.79,0,13.35,2.51,16.68,7.53,3.33,5.02,5,11.42,5,19.21v39.83Z"/>
    <path class="cls-2" d="m406.57,253.75h-19.42c-5.72,0-8.96-4.36-9.71-13.09-2.16,3.85-4.71,6.99-7.67,9.43-2.96,2.44-6.78,3.66-11.47,3.66-5.63,0-10.25-1.9-13.86-5.7-3.61-3.8-5.89-9.31-6.83-16.54-.19-1.88-.28-3.28-.28-4.22,0-4.5.92-8.51,2.74-12.03,1.83-3.52,4.27-6.26,7.32-8.23,3.05-1.97,6.31-2.96,9.78-2.96,3.75,0,7.39,1.17,10.91,3.52,3.52,2.35,6.54,5.91,9.08,10.7v-25.61c0-4.88-.61-8.44-1.83-10.7-1.22-2.25-3.61-3.38-7.18-3.38-2.06,0-3.82.61-5.28,1.83-1.46,1.22-2.18,2.81-2.18,4.78,0,1.41.33,2.77.98,4.08.75,1.69,1.13,3.14,1.13,4.36,0,2.16-.75,3.94-2.25,5.35-1.5,1.41-3.38,2.11-5.63,2.11-2.53,0-4.53-.84-5.98-2.53-1.46-1.69-2.18-3.8-2.18-6.33,0-1.78.4-3.54,1.2-5.28.8-1.74,1.9-3.26,3.31-4.57,4.13-3.75,10.18-5.63,18.15-5.63,9.48,0,17,1.69,22.59,5.07,5.58,3.38,8.37,9.57,8.37,18.58v43.91c0,2.44.58,4.32,1.76,5.63,1.17,1.32,2.65,1.97,4.43,1.97v1.83Zm-43.49-14.99c2.44,2.3,4.88,3.45,7.32,3.45,2.72,0,4.69-1.08,5.91-3.24.75-1.31,1.13-3.42,1.13-6.33,0-3.28-.54-6.71-1.62-10.27-1.08-3.56-2.7-6.57-4.86-9.01-3.19-3.47-6.19-5.21-9.01-5.21-2.06,0-3.73.89-5,2.67-1.27,1.78-1.9,4.22-1.9,7.32,0,2.91.61,6.15,1.83,9.71,1.69,4.97,3.75,8.61,6.19,10.91Z"/>
    <path class="cls-2" d="m485.52,244.33c0,2.53.56,4.43,1.69,5.7s2.63,1.9,4.5,1.9v1.83h-35.6v-1.83h14.5c-2.35-.28-4.32-1.81-5.91-4.57-1.6-2.77-2.39-6.97-2.39-12.59v-31.52c0-4.41-.87-7.83-2.6-10.27-1.74-2.44-4.25-3.66-7.53-3.66-.84,0-1.5.05-1.97.14-3.1.38-5.77,2.09-8.02,5.14-2.25,3.05-3.38,6.4-3.38,10.06v39.69c0,2.44.58,4.32,1.76,5.63,1.17,1.32,2.65,1.97,4.43,1.97v1.83h-35.6v-1.83h14.5c-2.35-.28-4.32-1.81-5.91-4.57-1.6-2.77-2.39-6.97-2.39-12.59v-47.29c0-2.53-.56-4.46-1.69-5.77-1.12-1.31-2.63-1.97-4.5-1.97v-1.83h18.29c4.31,0,7.25,1.5,8.8,4.5,1.55,3,2.32,6.24,2.32,9.71v6.33c2.72-6.66,6.26-11.77,10.62-15.34,4.36-3.56,9.36-5.35,14.99-5.35,12.48,0,19.42,7.08,20.83,21.25l.28,5.63v39.69Z"/>
    <path class="cls-2" d="m559.54,270.92c-4.13,4.03-9.36,7.06-15.69,9.08-6.33,2.02-12.78,3.03-19.35,3.03-8.26,0-14.54-1.41-18.86-4.22-2.16-1.41-3.85-3.29-5.07-5.63-1.22-2.35-1.83-4.6-1.83-6.75,0-3.29,1.01-5.98,3.03-8.09,2.02-2.11,4.52-3.17,7.53-3.17,2.72,0,5.02.96,6.9,2.89,1.88,1.92,2.81,4.2,2.81,6.83,0,3.56-1.69,6.57-5.07,9.01-.75.37-1.13.99-1.13,1.83,0,.19.09.56.28,1.13.56,1.03,2.13,1.88,4.71,2.53,2.58.66,5.56.99,8.94.99,6.47,0,12.19-1.15,17.17-3.45,4.97-2.3,7.46-5.79,7.46-10.48,0-3-1.03-5.28-3.1-6.83-2.06-1.55-4.64-2.58-7.74-3.1-3.1-.52-7.37-1.01-12.81-1.48-6.29-.47-11.42-1.06-15.41-1.76-3.99-.7-7.62-2.13-10.91-4.29-3.29-2.16-5.49-5.3-6.61-9.43-.19-.94-.28-1.73-.28-2.39,0-3.1,1.24-6.36,3.73-9.78,2.48-3.42,5.98-6.12,10.48-8.09-3.1-1.97-5.49-4.46-7.18-7.46-1.69-3-2.53-6.52-2.53-10.55,0-7.41,2.86-13.16,8.58-17.24,5.72-4.08,13.13-6.12,22.24-6.12,3.75,0,7.46.42,11.12,1.27.84-3.1,2.16-5.75,3.94-7.95,1.78-2.2,3.61-3.59,5.49-4.15,1.88-.66,3.75-.99,5.63-.99,2.72,0,5.04.66,6.97,1.97,1.92,1.32,3.17,2.91,3.73,4.79.28.94.42,1.88.42,2.81,0,1.69-.49,3.19-1.48,4.5-.99,1.32-2.37,2.3-4.15,2.96-.94.19-1.6.28-1.97.28-1.88,0-3.52-.73-4.92-2.18-1.41-1.45-2.11-3.17-2.11-5.14,0-1.69.51-3.24,1.55-4.64.28-.47.42-.89.42-1.27,0-.56-.21-1.06-.63-1.48-.42-.42-.96-.63-1.62-.63-.47,0-.84.05-1.13.14-1.69.56-3.19,1.95-4.5,4.15-1.32,2.21-2.16,4.81-2.53,7.81,5.07,1.69,9.1,4.25,12.1,7.67,3,3.43,4.5,7.91,4.5,13.44,0,7.51-2.84,13.28-8.51,17.31-5.68,4.03-13.11,6.05-22.31,6.05-7.51,0-13.89-1.36-19.14-4.08-1.88,1.03-2.81,2.39-2.81,4.08,0,.28.09.7.28,1.27.75,2.44,2.93,4.22,6.54,5.35,3.61,1.13,8.98,2.25,16.11,3.38,7.41,1.22,13.42,2.44,18.01,3.66,4.6,1.22,8.56,3.26,11.89,6.12,3.33,2.86,5,6.83,5,11.89,0,5.72-2.06,10.6-6.19,14.64Zm-39.62-87.81c-1.08,2.06-1.62,4.83-1.62,8.3,0,4.22.77,8.8,2.32,13.72,1.55,4.93,3.59,9.06,6.12,12.38,2.53,3.33,5.25,5,8.16,5,2.25,0,3.92-1.03,5-3.1,1.08-2.06,1.62-4.78,1.62-8.16,0-4.31-.77-8.94-2.32-13.86-1.55-4.93-3.59-9.05-6.12-12.38-2.53-3.33-5.25-5-8.16-5-2.25,0-3.92,1.03-5,3.1Z"/>
  </g>
  <path class="cls-1" d="m501.37,152.3h0c0-16.27-13.19-29.46-29.46-29.46h0c16.27,0,29.46-13.19,29.46-29.47h0c0,16.27,13.19,29.46,29.46,29.46h0c-16.27,0-29.46,13.19-29.46,29.47Z"/>
  <path class="cls-1" d="m276.96,226.05c-3.66-5.54-7.66-10.97-12.35-16.03-4.68-5.06-10.17-9.75-14.09-12.51,4.53-9.48,5.7-20.46,3.61-30.74-1.08-5.25-3-10.29-5.6-14.92l-2.54,2.38c-.81.84-3.89,4.52-6.71,7.53-1.96,2.1-3.84,3.89-4.71,4.18-.03.01-.06.02-.09.03l-.04.02c-1.91,1.61-4.76,3.98-7.57,6.33-2.96,2.5-6.46,5.25-7.83,6.3-4.86,3.33-10.25,6.13-16.03,8.2-13.99,5.03-29.48,7.75-44.02,7.2-21.7-.83-41.53-12.82-51.81-31.94-.22-.37-.38-.77-.6-1.14-1.79-3.44-3.3-7.04-4.53-10.85-1.53-4.74-2.53-9.54-3.07-14.29-3.04-27.34,9.99-54.07,33.13-68.61,5.24-3.27,10.91-5.65,16.87-7.2,1.89-.48,3.85-.98,5.89-1.46,28.29-6.81,55.43,10.03,55.58,17.03.02,1.57-3.77,2.01-6.6,3.69-7.15,4.29-8.56,13.49-5.31,23.42,2.37,7.31,6.61,12.88,13.48,14.85,3.99,1.17,9.21,1.53,14.21-.4,9.49-3.67,12.78-10.7,14.63-17.25,1.31-4.66,1.75-10.48,1.31-15.52-.33-3.49-1.03-6.92-1.94-10.01-4.36-14.01-6.39-17.71-12.65-24.83-27.81-31.48-62.27-42.67-106.5-38.22-19.6,1.99-32.68,7.02-54.06,19.48-15.99,10.71-32.6,29.72-41.91,50.19-21.2,46.64-13.38,92.78-4.81,119.37,8.73,27.07,26.63,65.02,92.75,84.52,27.06,7.98,59.3,7.35,100.41-1.84,24.3-5.43,56.77-19.93,67.83-29.27,9.16-7.74,21.98-16.28,25.39-28.04-9.87.09-19.79.22-29.71.34Z"/>
</svg>