<?xml version="1.0" encoding="UTF-8"?>
<svg id="_圖層_1" data-name=" 圖層 1" xmlns="http://www.w3.org/2000/svg" viewBox="0 0 1020.7 889.71">
  <defs>
    <style>
      .cls-1 {
        font-size: 152.42px;
      }

      .cls-1, .cls-2, .cls-3, .cls-4, .cls-5, .cls-6, .cls-7 {
        font-family: Fragille-Reguler, Fragille;
        isolation: isolate;
      }

      .cls-1, .cls-2, .cls-3, .cls-4, .cls-5, .cls-6, .cls-7, .cls-8 {
        fill: #fab4aa;
      }

      .cls-2 {
        font-size: 152.42px;
      }

      .cls-3 {
        font-size: 152.43px;
      }

      .cls-4 {
        font-size: 152.43px;
      }

      .cls-5 {
        font-size: 152.43px;
      }

      .cls-9 {
        fill: none;
        stroke: #285a6e;
        stroke-linecap: round;
        stroke-miterlimit: 10;
        stroke-width: 14.38px;
      }

      .cls-6 {
        font-size: 152.44px;
      }

      .cls-7 {
        font-size: 152.44px;
      }

      .cls-8, .cls-10 {
        stroke-width: 0px;
      }

      .cls-10 {
        fill: #fff;
      }
    </style>
  </defs>
  <g>
    <text class="cls-5" transform="translate(150.75 372.24) rotate(-63.92)"><tspan x="0" y="0">C</tspan></text>
    <text class="cls-3" transform="translate(191.78 289.64) rotate(-51.2)"><tspan x="0" y="0">e</tspan></text>
    <text class="cls-5" transform="translate(238.58 233.11) rotate(-42.6)"><tspan x="0" y="0">l</tspan></text>
    <text class="cls-5" transform="translate(267.15 206.66) rotate(-36.57)"><tspan x="0" y="0">i</tspan></text>
    <text class="cls-5" transform="translate(296.6 182.73) rotate(-27.87)"><tspan x="0" y="0">a</tspan></text>
    <text class="cls-5" transform="translate(362.7 149.09) rotate(-19.33)"><tspan x="0" y="0">’</tspan></text>
    <text class="cls-2" transform="translate(395.73 136.15) rotate(-11.41)"><tspan x="0" y="0">s</tspan></text>
    <text class="cls-4" transform="translate(503.35 118.12) rotate(8.34)"><tspan x="0" y="0">D</tspan></text>
    <text class="cls-7" transform="translate(604 134) rotate(21.88)"><tspan x="0" y="0">e</tspan></text>
    <text class="cls-1" transform="translate(671.41 161.02) rotate(32.57)"><tspan x="0" y="0">s</tspan></text>
    <text class="cls-5" transform="translate(726.33 196.95) rotate(40.61)"><tspan x="0" y="0">i</tspan></text>
    <text class="cls-5" transform="translate(756.24 220.14) rotate(49.52)"><tspan x="0" y="0">g</tspan></text>
    <text class="cls-6" transform="translate(806.75 277.51) rotate(62.15)"><tspan x="0" y="0">n</tspan></text>
  </g>
  <path class="cls-8" d="m962.5,422.6h0c0-25.6-20.8-46.3-46.3-46.3h0c25.6,0,46.3-20.8,46.3-46.3h0c0,25.6,20.8,46.3,46.3,46.3h0c-25.6,0-46.3,20.7-46.3,46.3Z"/>
  <path class="cls-8" d="m37.9,227.4h0c0-20.9-17-37.9-37.9-37.9h0c20.9,0,37.9-17,37.9-37.9h0c0,20.9,17,37.9,37.9,37.9h0c-21,.1-37.9,17-37.9,37.9Z"/>
  <path class="cls-8" d="m729.47,399.89h0c-.2-15.3-12.9-27.6-28.1-27.2h0c15.3-.2,27.6-12.9,27.2-28.1h0c.2,15.3,12.9,27.6,28.1,27.2h0c-15.1.3-27.4,12.8-27.2,28.1Z"/>
  <path class="cls-8" d="m572.44,519h0c-.4-26.6-22.3-48-48.9-47.5h0c26.6-.4,48-22.3,47.5-48.9h0c.4,26.6,22.3,48,48.9,47.5h0c-26.6.3-47.8,22.2-47.5,48.9h0Z"/>
  <path class="cls-8" d="m461.69,388.8h0c-.4-21-17.6-37.7-38.6-37.4h0c21-.4,37.7-17.6,37.4-38.6h0c.4,21,17.6,37.7,38.6,37.4h0c-21,.4-37.8,17.6-37.4,38.6Z"/>
  <path class="cls-8" d="m637.25,228.19h0c-.1-8.9-7.4-16-16.3-15.8h0c8.9-.1,16-7.4,15.8-16.3h0c.1,8.9,7.4,16,16.3,15.8h0c-8.8.2-15.9,7.5-15.8,16.3Z"/>
  <g>
    <g>
      <path class="cls-10" d="m832.4,549.49c-11.95-8.82-24.54-17.15-38.28-24.19-13.74-7.04-28.88-12.67-39.25-15.43,2.22-23.4-3.76-47.39-16.08-67.38-6.31-10.2-14.21-19.31-23.26-27.04l-3.51,6.95c-1.05,2.39-4.69,12.5-8.31,21-2.5,5.93-5.06,11.13-6.67,12.42,1.67-1.56,4.05-6.56,6.43-12.23-1.02,1.79-1.88,3.49-2.67,5.01-.51.9-.94,1.79-1.29,2.5-.5.98-1.53,2.69-2.84,5.02.07-.05.15-.11.22-.17l-.06.07c-2.77,4.85-6.94,12.03-11.03,19.13-4.31,7.54-9.54,16.01-11.62,19.27-7.66,10.74-16.83,20.77-27.38,29.58-25.52,21.33-55.98,38.97-86.98,49.01-46.25,14.95-97.13,5.02-133.45-27.25-.74-.61-1.4-1.31-2.13-1.92-6.41-5.86-12.36-12.26-17.86-19.31-6.85-8.79-12.65-18.1-17.46-27.67-27.42-55.11-20.63-121.32,16.8-169.68,8.49-10.9,18.57-20.26,29.9-28.11,3.59-2.46,7.34-5.02,11.27-7.6,54.21-36.08,124.21-21.58,129.9-6.99,1.24,3.28-6.38,7.14-11.03,12.84-11.72,14.52-7.6,34.94,6.86,53.3,10.61,13.53,23.81,21.98,39.75,20.82,9.29-.62,20.53-3.88,29.56-11.77,17.11-15.02,18.63-32.33,17.46-47.51-.84-10.79-4.4-23.37-9.18-33.63-3.38-7.07-7.49-13.74-11.77-19.54-19.94-26.08-27.06-32.29-45.68-42.44-82.68-44.75-163.69-41.74-253.23,1.64-39.65,19.26-63.28,39.91-98.62,82.55-25.36,34.83-44.07,64.52-53.71,113.93-21.03,107.39,2.29,223.87,78.94,313.01,117.42,145.29,305.3,159.71,432.46,97.09,77.21-45.37,122.51-90.48,147.73-129.54,15.36-23.69,30.64-58.25,41.02-88.96,7.18-21.31,9.13-53.01,7.25-80.36-20.68,7.8-41.43,15.69-62.18,23.58Z"/>
      <path class="cls-10" d="m696.57,456.04c-.08.09-.24.19-.41.21l.42-.04s.08-.09-.02-.17Z"/>
    </g>
    <path class="cls-9" d="m677.59,554.4c.09,3.64-1.21,15.23,8.17,22.85,10.49,8.62,26.39,6.02,29.61,5.04"/>
    <path class="cls-9" d="m765.06,616.71c.59,3.6,1.08,15.19,11.52,21.43,11.7,6.97,26.94,1.98,30.05.67"/>
  </g>
</svg>