<?xml version="1.0" encoding="UTF-8"?>
<svg id="_圖層_1" data-name=" 圖層 1" xmlns="http://www.w3.org/2000/svg" viewBox="0 0 1020.7 889.71">
  <defs>
    <style>
      .cls-1 {
        fill: none;
        stroke: #285a6e;
        stroke-linecap: round;
        stroke-miterlimit: 10;
        stroke-width: 14.38px;
      }

      .cls-2 {
        isolation: isolate;
      }

      .cls-3 {
        fill: #fab4aa;
      }

      .cls-3, .cls-4 {
        stroke-width: 0px;
      }

      .cls-4 {
        fill: #fff;
      }
    </style>
  </defs>
  <g>
    <g class="cls-2">
      <g class="cls-2">
        <path class="cls-3" d="m170.61,278.27c4.23,5.69,7.08,12.35,8.55,19.97,1.47,7.62.18,15.59-3.89,23.89-4.15,8.49-9.69,15.34-16.6,20.56-6.91,5.22-15.03,8.12-24.37,8.69-9.34.58-19.39-1.77-30.16-7.04-10.41-5.09-18.23-11.58-23.48-19.47-5.25-7.88-7.95-16.28-8.12-25.19-.17-8.91,1.8-17.56,5.92-25.96,2.46-5.02,5.43-9.48,8.92-13.37,3.49-3.89,8.26-8.43,14.3-13.62l33.41,16.35-.74,1.51c-9.83-1.19-18.63-1.11-26.42.22-7.78,1.34-14.19,3.57-19.24,6.71-5.04,3.13-8.61,6.85-10.71,11.13-2.64,5.39-2.59,10.95.14,16.7,2.73,5.75,8.07,10.57,16.01,14.45,7.85,3.84,17.18,5.98,28,6.41,10.82.43,20.7-.73,29.62-3.49,8.93-2.76,14.62-6.64,17.08-11.67,2.59-5.06,3.66-9.61,3.19-13.63-.47-4.02-1.72-8.11-3.75-12.27l2.31-.91Z"/>
      </g>
    </g>
    <g class="cls-2">
      <g class="cls-2">
        <path class="cls-3" d="m225.23,219.33c2.2,4.89,3.17,10.37,2.92,16.43-.24,6.06-2.56,11.82-6.96,17.29-4.58,5.7-10.09,10.11-16.51,13.23-6.42,3.12-13.34,4.27-20.77,3.45-7.43-.82-14.7-4.09-21.83-9.83-6.18-4.97-10.61-10.48-13.29-16.55-2.68-6.07-3.74-12.17-3.18-18.3.56-6.13,2.47-11.87,5.72-17.21.99-1.55,1.74-2.64,2.25-3.28,3.06-3.8,6.8-6.76,11.23-8.86,4.43-2.11,8.97-3.21,13.62-3.32,4.65-.11,8.96.78,12.92,2.66,2.36,1.12,4.34,2.31,5.92,3.59,2.85,2.29,4.26,4.92,4.22,7.89-.04,2.97-1.62,6.39-4.74,10.27l-19.49,24.23c8.67,3.32,16.99,4.89,24.96,4.72,7.97-.18,13.83-2.6,17.59-7.28,2.67-3.33,4.11-6.41,4.31-9.25.2-2.84-.18-6.01-1.14-9.52l2.24-.35Zm-73.59,1.76c1.51,3.63,4.33,7.1,8.45,10.41,4.12,3.31,8.79,6.09,14.03,8.34l10.89-13.54c2.04-2.53,2.73-5.1,2.09-7.71-.65-2.6-2.27-4.96-4.89-7.06-2.85-2.29-6.33-4.01-10.43-5.16-4.1-1.14-7.96-1.38-11.57-.7-3.61.68-6.25,2.38-7.9,5.09-1.96,3.25-2.18,6.69-.67,10.32Z"/>
      </g>
    </g>
    <g class="cls-2">
      <g class="cls-2">
        <path class="cls-3" d="m189.78,120.81l1.34,1.46-10.88,10.01h.22c1.62-.93,3.98-.99,7.07-.18,3.09.81,6.88,3.65,11.35,8.51l35.7,38.82,4.13,4.49,6.4,6.96,11.14,12.12c1.79,1.95,3.63,3.01,5.53,3.2,1.9.19,3.56-.37,4.98-1.68l1.34,1.46-12.57,11.56-15.82,14.55-1.34-1.46,11.56-10.63c-2.08,1.5-4.76,1.73-8.06.69-3.3-1.03-7.01-3.8-11.14-8.29l-57.37-62.39c-1.86-2.02-3.73-3.12-5.63-3.31-1.9-.19-3.56.37-4.98,1.68l-1.34-1.46,28.39-26.1Z"/>
      </g>
    </g>
    <g class="cls-2">
      <g class="cls-2">
        <path class="cls-3" d="m222.02,127.02c-3.45-.47-6.21-2.1-8.27-4.88-2.12-2.86-2.91-6-2.36-9.45.55-3.44,2.21-6.19,4.98-8.25,2.77-2.06,5.88-2.81,9.33-2.27,3.44.55,6.19,2.21,8.25,4.98,2.06,2.78,2.84,5.87,2.33,9.28-.51,3.41-2.15,6.15-4.92,8.21-2.78,2.06-5.89,2.85-9.34,2.38Zm29.56-8.64l-11.87,8.81.09.12c1.94-.8,4.36-.64,7.28.48,2.92,1.12,6.35,4.34,10.29,9.64l30.52,41.13c1.57,2.12,3.29,3.38,5.16,3.76,1.87.39,3.58,0,5.13-1.15l1.18,1.59-13.83,10.26-17.14,12.71-1.18-1.59,12.61-9.35c-2.22,1.27-4.92,1.22-8.09-.16-3.17-1.38-6.58-4.52-10.21-9.41l-30.52-41.13c-1.63-2.2-3.37-3.51-5.19-3.93-1.83-.42-3.56-.02-5.19,1.19l-1.18-1.59,30.97-22.98,1.18,1.59Z"/>
      </g>
    </g>
    <g class="cls-2">
      <g class="cls-2">
        <path class="cls-3" d="m364.24,146.96l-15.09,7.98-3.5,1.85c-5.48,2.9-10.79.36-15.92-7.62-.12,4.78-.97,9.08-2.57,12.91-1.59,3.83-4.64,6.94-9.13,9.31-5.39,2.85-10.78,3.37-16.16,1.56-5.38-1.81-10.35-5.93-14.91-12.38-1.13-1.7-1.93-3-2.41-3.9-2.28-4.31-3.44-8.62-3.46-12.91-.03-4.29.92-8.16,2.84-11.59,1.92-3.43,4.54-6.03,7.87-7.78,3.59-1.9,7.67-2.62,12.22-2.15,4.56.46,9.26,2.35,14.11,5.65l-12.97-24.52c-2.47-4.67-4.86-7.78-7.17-9.32-2.31-1.54-5.17-1.4-8.58.4-1.98,1.05-3.35,2.52-4.13,4.42-.78,1.91-.66,3.8.33,5.69.71,1.35,1.72,2.49,3.01,3.41,1.57,1.24,2.67,2.44,3.29,3.61,1.09,2.07,1.28,4.15.55,6.26-.72,2.11-2.16,3.73-4.32,4.87-2.43,1.28-4.76,1.48-7.01.6-2.25-.88-4.01-2.53-5.29-4.96-.9-1.71-1.41-3.59-1.53-5.66-.12-2.06.17-4.08.85-6.05,2.05-5.68,6.9-10.54,14.53-14.58,9.07-4.8,17.14-6.99,24.19-6.59,7.05.41,12.86,4.92,17.42,13.55l22.23,42.04c1.24,2.34,2.75,3.84,4.53,4.5,1.79.67,3.54.54,5.24-.36l.93,1.75Zm-49.23,7.67c3.5.97,6.42.83,8.75-.4,2.6-1.38,3.95-3.41,4.02-6.09.05-1.64-.66-3.85-2.13-6.63-1.66-3.14-3.91-6.15-6.75-9.02-2.84-2.87-5.91-4.92-9.21-6.17-4.81-1.71-8.57-1.85-11.26-.43-1.98,1.05-3.12,2.74-3.43,5.09-.31,2.35.32,5,1.89,7.97,1.47,2.79,3.7,5.58,6.67,8.37,4.13,3.91,7.95,6.34,11.45,7.31Z"/>
      </g>
    </g>
    <g class="cls-2">
      <g class="cls-2">
        <path class="cls-3" d="m345.94,66.77c-.65-.31-1.52-.81-2.63-1.5-.98-.95-1.68-1.72-2.11-2.33-.65-.63-1.23-1.67-1.74-3.11s-.72-2.98-.65-4.62c.1-1.54.5-3.03,1.18-4.45.62-1.29,1.55-2.48,2.79-3.56,1.01-1.11,2.38-1.97,4.11-2.57,1.44-.5,3.04-.69,4.81-.56,1.93.29,3.4.8,4.41,1.52,1.33.72,2.55,1.75,3.66,3.08.95,1.18,1.75,2.67,2.38,4.49,1.18,3.36,1.73,6.77,1.65,10.24-.17,3.19-.8,6.31-1.88,9.38-1.08,3.07-2.43,5.81-4.07,8.21-1.63,2.41-3.38,4.63-5.25,6.69-.6.75-1.19.9-1.78.46-.26-.12-.42-.28-.49-.47-.17-.48-.03-1.01.41-1.6.68-1.75,1.18-3.38,1.51-4.89.42-2.19.55-3.96.4-5.31-.12-1.25-.38-2.45-.78-3.6-.77-2.21-1.84-3.55-3.2-4.05l-2.77-1.45Z"/>
      </g>
    </g>
    <g class="cls-2">
      <g class="cls-2">
        <path class="cls-3" d="m448.12,120.29c-5.94,4.72-12.85,7.88-20.71,9.47l-1.05.21c-8.47,1.71-15.29,1.3-20.46-1.23-5.18-2.53-8.28-6.34-9.3-11.42-.7-3.49-.42-6.42.87-8.8,1.28-2.38,3.1-3.92,5.45-4.6l3.2-.33c2.07,0,3.97.68,5.7,2.04,1.72,1.36,2.84,3.29,3.34,5.78.38,1.89.28,4.19-.32,6.9-.3,1.1-.31,2.29-.05,3.59.42,2.09,1.62,3.69,3.61,4.79,1.98,1.1,4.42,1.62,7.31,1.56l.15-.03c.62-.02,1.47-.14,2.57-.36,2.79-.56,4.89-1.81,6.32-3.76,1.42-1.94,1.75-4.81.99-8.6-.58-2.89-1.99-5.25-4.23-7.08-2.23-1.83-4.59-3.19-7.05-4.1-2.46-.9-6.35-2.16-11.65-3.79-5.98-1.9-11.14-4.72-15.47-8.46-4.33-3.74-7.07-8.45-8.22-14.12-1.95-9.66-.05-16.81,5.7-21.44,5.75-4.63,11.91-7.61,18.49-8.94,8.17-1.65,14.7-1.38,19.6.79,4.89,2.17,7.83,5.65,8.79,10.43.66,3.29.3,6-1.08,8.15-1.38,2.14-3.27,3.46-5.66,3.94-2.29.46-4.47.07-6.53-1.17-2.06-1.24-3.38-3.26-3.94-6.05-.38-1.89-.37-3.87.05-5.92.12-1.47.13-2.46.02-2.96-.44-2.19-1.81-3.81-4.09-4.85-2.28-1.04-4.92-1.26-7.91-.66-2.59.52-4.53,1.98-5.81,4.36-1.28,2.38-1.57,5.32-.87,8.8.8,3.99,3.01,6.96,6.62,8.93,3.61,1.97,8.56,3.87,14.84,5.71l3.29.89c6.94,2.02,12.3,4.57,16.08,7.64,3.78,3.07,6.23,7.35,7.33,12.83,1.99,9.86.01,17.15-5.92,21.88Z"/>
      </g>
    </g>
    <g class="cls-2">
      <g class="cls-2">
        <path class="cls-3" d="m592.17,118.12c-11.35,7.02-26.28,9.17-44.78,6.45l-42.53-6.24.29-1.96,17.34,2.54c-2.4-1.17-4.19-3.62-5.39-7.34-1.2-3.72-1.35-8.64-.45-14.78l10.66-72.7c.8-5.43-1.62-8.56-7.25-9.38l.29-1.96,42.53,6.24c38.67,5.98,55.44,26.41,50.33,61.3-2.67,18.2-9.68,30.81-21.03,37.82Zm-17.8-3.61c4.58-5.7,7.58-13.37,9-23.02,1.4-9.55,1.16-19.65-.72-30.3-1.88-10.65-5.17-19.73-9.87-27.25-4.7-7.52-10.27-11.75-16.7-12.69l-8.9-1.3c2.12,1.65,3.72,4.37,4.81,8.18,1.08,3.81,1.21,8.57.37,14.3l-9,61.38c-1.49,10.16,2.7,16.27,12.57,18.33,7.71.62,13.86-1.92,18.45-7.62Z"/>
      </g>
    </g>
    <g class="cls-2">
      <g class="cls-2">
        <path class="cls-3" d="m681.01,145.54c-4.04,3.53-9,6.05-14.87,7.58-5.87,1.53-12.06.99-18.57-1.62-6.79-2.73-12.61-6.71-17.46-11.94-4.85-5.24-7.97-11.52-9.34-18.87-1.38-7.34-.36-15.26,3.05-23.75,2.95-7.36,6.94-13.2,11.97-17.53,5.03-4.33,10.55-7.12,16.59-8.37,6.03-1.25,12.07-1.09,18.13.46,1.77.49,3.04.89,3.79,1.19,4.53,1.82,8.44,4.54,11.75,8.17,3.31,3.63,5.69,7.65,7.14,12.07,1.46,4.42,1.86,8.8,1.21,13.14-.38,2.59-.95,4.82-1.71,6.71-1.36,3.39-3.47,5.5-6.32,6.33-2.85.83-6.59.31-11.21-1.54l-28.86-11.59c-.66,9.27.26,17.68,2.75,25.25,2.49,7.57,6.51,12.47,12.08,14.71,3.96,1.59,7.33,2.07,10.1,1.43,2.77-.64,5.7-1.92,8.78-3.87l.99,2.04Zm-23.1-69.89c-3.03,2.51-5.53,6.21-7.5,11.11-1.97,4.91-3.27,10.19-3.9,15.85l16.13,6.48c3.02,1.21,5.68,1.13,7.98-.24,2.3-1.38,4.08-3.62,5.33-6.73,1.36-3.4,2-7.22,1.9-11.48-.1-4.25-1-8.01-2.7-11.27-1.71-3.26-4.09-5.28-7.17-6.08-3.68-.93-7.04-.14-10.07,2.36Z"/>
      </g>
    </g>
    <g class="cls-2">
      <g class="cls-2">
        <path class="cls-3" d="m720.12,185.99c-7.56-.73-14.72-3.25-21.48-7.57l-.9-.57c-7.28-4.65-11.9-9.68-13.87-15.1-1.97-5.42-1.55-10.31,1.23-14.67,1.91-3,4.16-4.91,6.74-5.73,2.58-.83,4.95-.67,7.11.47l2.53,1.98c1.49,1.44,2.39,3.24,2.69,5.42.3,2.18-.24,4.34-1.61,6.48-1.04,1.63-2.72,3.21-5.02,4.75-.98.58-1.82,1.43-2.53,2.54-1.15,1.8-1.39,3.78-.73,5.96.66,2.17,2.05,4.24,4.18,6.2l.13.08c.46.41,1.16.92,2.1,1.52,2.4,1.53,4.78,2.09,7.16,1.68,2.37-.41,4.6-2.25,6.68-5.5,1.59-2.48,2.21-5.16,1.87-8.03-.34-2.87-1.08-5.48-2.22-7.84-1.15-2.36-3.06-5.96-5.75-10.82-2.98-5.52-4.74-11.13-5.26-16.83-.52-5.7.78-10.99,3.9-15.87,5.3-8.3,11.64-12.13,18.99-11.47,7.36.66,13.86,2.79,19.51,6.4,7.02,4.49,11.54,9.21,13.55,14.18,2.01,4.96,1.71,9.5-.92,13.61-1.8,2.83-3.95,4.53-6.43,5.11-2.48.58-4.75.22-6.81-1.09-1.97-1.26-3.27-3.05-3.89-5.38-.62-2.33-.17-4.69,1.36-7.09,1.04-1.63,2.42-3.04,4.15-4.22,1.11-.98,1.8-1.68,2.07-2.11,1.2-1.88,1.34-3.99.43-6.33-.92-2.34-2.66-4.32-5.23-5.96-2.23-1.42-4.63-1.72-7.21-.89-2.58.83-4.82,2.74-6.74,5.73-2.19,3.43-2.67,7.1-1.43,11.02,1.23,3.92,3.47,8.73,6.71,14.42l1.75,2.92c3.59,6.27,5.68,11.83,6.27,16.66.59,4.84-.62,9.61-3.63,14.32-5.42,8.48-11.9,12.35-19.45,11.63Z"/>
      </g>
    </g>
    <g class="cls-2">
      <g class="cls-2">
        <path class="cls-3" d="m808.95,162.18l-11.22-9.62-.1.12c1.21,1.71,1.59,4.11,1.15,7.21-.45,3.1-2.82,7.15-7.12,12.17l-33.34,38.88c-1.72,2.01-2.56,3.96-2.52,5.87.04,1.91.79,3.49,2.26,4.75l-1.29,1.5-13.08-11.21-16.2-13.89,1.29-1.5,11.92,10.22c-1.73-1.88-2.28-4.53-1.63-7.93.64-3.4,2.94-7.41,6.91-12.04l33.34-38.88c1.79-2.08,2.68-4.06,2.68-5.93,0-1.87-.77-3.47-2.31-4.79l1.29-1.51,29.28,25.1-1.29,1.51Zm-14.98-26.9c-.3-3.47.67-6.52,2.92-9.14,2.31-2.7,5.21-4.17,8.69-4.4,3.48-.23,6.53.78,9.15,3.03,2.62,2.25,4.05,5.11,4.28,8.59.23,3.48-.78,6.53-3.03,9.15-2.25,2.62-5.09,4.07-8.53,4.33-3.44.26-6.47-.73-9.09-2.98-2.62-2.25-4.09-5.11-4.39-8.58Z"/>
      </g>
    </g>
    <g class="cls-2">
      <g class="cls-2">
        <path class="cls-3" d="m788.8,286.94c-6.23-.57-12.4-2.75-18.51-6.54-6.11-3.8-11.48-8.41-16.1-13.82-5.81-6.8-9.07-12.97-9.78-18.5-.36-2.77,0-5.48,1.08-8.13,1.07-2.66,2.5-4.74,4.28-6.26,2.71-2.31,5.63-3.38,8.79-3.2,3.16.18,5.79,1.5,7.9,3.98,1.91,2.24,2.74,4.81,2.47,7.71-.26,2.9-1.48,5.27-3.64,7.12-2.94,2.51-6.6,3.22-10.98,2.16-.84-.36-1.6-.24-2.3.36-.15.13-.4.47-.73,1.02-.45,1.19-.05,3.08,1.23,5.67,1.27,2.59,3.1,5.27,5.47,8.05,4.55,5.33,9.52,9.24,14.91,11.72,5.39,2.48,10.02,2.07,13.88-1.23,2.47-2.11,3.62-4.56,3.45-7.35-.18-2.79-1.14-5.64-2.89-8.55-1.75-2.91-4.35-6.78-7.79-11.59-4.03-5.51-7.16-10.15-9.39-13.93-2.22-3.78-3.6-7.78-4.13-12-.53-4.22.51-8.25,3.12-12.08.64-.81,1.23-1.45,1.77-1.91,2.55-2.18,6.11-3.45,10.68-3.81,4.57-.36,9.25.62,14.04,2.95-.55-3.94-.19-7.65,1.1-11.16,1.29-3.5,3.59-6.67,6.91-9.51,6.11-5.21,12.85-6.9,20.24-5.05,7.38,1.84,14.28,6.52,20.68,14.02,2.64,3.09,4.9,6.44,6.77,10.05,3.14-1.48,6.25-2.26,9.32-2.34,3.07-.08,5.5.45,7.28,1.6,1.86,1.08,3.45,2.4,4.77,3.94,1.91,2.24,3,4.62,3.28,7.12.27,2.51-.17,4.66-1.32,6.44-.58.89-1.25,1.67-2.02,2.33-1.39,1.19-2.98,1.84-4.75,1.95-1.78.11-3.56-.33-5.35-1.34-.82-.64-1.35-1.12-1.62-1.43-1.32-1.55-1.88-3.41-1.67-5.59.21-2.18,1.12-3.96,2.75-5.35,1.39-1.19,3.03-1.85,4.91-1.99.58-.1,1.03-.28,1.34-.54.46-.4.72-.92.77-1.56.05-.65-.15-1.24-.62-1.78-.33-.39-.63-.66-.91-.83-1.65-1-3.85-1.26-6.59-.79-2.74.47-5.48,1.6-8.22,3.41,2.17,5.36,2.9,10.48,2.19,15.36-.71,4.88-3.35,9.27-7.91,13.16-6.18,5.28-12.93,7-20.25,5.16-7.31-1.84-14.21-6.55-20.67-14.12-5.28-6.19-8.64-12.4-10.09-18.64-2.17-.82-3.95-.64-5.34.55-.23.2-.51.57-.85,1.12-1.48,2.33-1.42,5.38.2,9.15,1.61,3.77,4.46,8.98,8.55,15.65,4.21,6.96,7.42,12.77,9.65,17.41,2.23,4.64,3.33,9.35,3.32,14.1-.02,4.76-2.11,8.92-6.29,12.48-4.71,4.02-10.18,5.75-16.41,5.19Zm44.49-94.39c-2.46.56-5.12,2.06-7.98,4.5-3.48,2.97-6.7,6.82-9.67,11.56-2.97,4.74-4.94,9.32-5.9,13.75-.96,4.43-.42,7.84,1.62,10.24,1.58,1.85,3.6,2.5,6.06,1.94,2.46-.56,5.08-2.03,7.86-4.41,3.55-3.03,6.82-6.92,9.79-11.66,2.97-4.74,4.94-9.32,5.9-13.75s.42-7.84-1.62-10.24c-1.58-1.85-3.61-2.5-6.06-1.94Z"/>
      </g>
    </g>
    <g class="cls-2">
      <g class="cls-2">
        <path class="cls-3" d="m855.02,347c-2.43,1.28-3.96,2.78-4.6,4.5-.64,1.72-.49,3.48.46,5.28l-1.75.92-18.02-34.1,1.75-.93,7.33,13.88c-.92-2.39-.46-5.05,1.39-7.98,1.84-2.93,5.46-5.82,10.85-8.67l30.19-15.95c4.22-2.23,7.06-4.79,8.52-7.69,1.46-2.9,1.36-5.92-.31-9.06-.43-.81-.81-1.41-1.13-1.82-1.93-2.78-4.92-4.47-8.98-5.08-4.06-.61-7.84,0-11.35,1.86l-12.4,6.55-11.05,5.84-14.55,7.69c-2.34,1.24-3.84,2.75-4.5,4.53-.67,1.79-.55,3.54.36,5.24l-1.75.92-18.02-34.1,1.75-.92,7.34,13.88c-.92-2.39-.46-5.05,1.39-7.97,1.84-2.93,5.46-5.82,10.85-8.67l45.29-23.93c2.43-1.28,3.98-2.79,4.67-4.54.69-1.74.56-3.51-.39-5.31l1.75-.92,9.26,17.52c2.18,4.13,2.23,7.7.14,10.7-2.09,3-4.8,5.38-8.12,7.14l-6.07,3.21c7.76-.77,14.44.04,20.07,2.41,5.62,2.37,9.86,6.26,12.71,11.65,6.31,11.95,3.04,22.18-9.81,30.7l-5.25,3.12-9.84,5.2-13.61,7.19-14.56,7.69Z"/>
      </g>
    </g>
  </g>
  <path class="cls-3" d="m962.5,422.6h0c0-25.6-20.8-46.3-46.3-46.3h0c25.6,0,46.3-20.8,46.3-46.3h0c0,25.6,20.8,46.3,46.3,46.3h0c-25.6,0-46.3,20.7-46.3,46.3Z"/>
  <path class="cls-3" d="m37.9,227.4h0c0-20.9-17-37.9-37.9-37.9h0c20.9,0,37.9-17,37.9-37.9h0c0,20.9,17,37.9,37.9,37.9h0c-21,.1-37.9,17-37.9,37.9Z"/>
  <path class="cls-3" d="m729.47,399.89h0c-.2-15.3-12.9-27.6-28.1-27.2h0c15.3-.2,27.6-12.9,27.2-28.1h0c.2,15.3,12.9,27.6,28.1,27.2h0c-15.1.3-27.4,12.8-27.2,28.1Z"/>
  <path class="cls-3" d="m572.44,519h0c-.4-26.6-22.3-48-48.9-47.5h0c26.6-.4,48-22.3,47.5-48.9h0c.4,26.6,22.3,48,48.9,47.5h0c-26.6.3-47.8,22.2-47.5,48.9h0Z"/>
  <path class="cls-3" d="m461.69,388.8h0c-.4-21-17.6-37.7-38.6-37.4h0c21-.4,37.7-17.6,37.4-38.6h0c.4,21,17.6,37.7,38.6,37.4h0c-21,.4-37.8,17.6-37.4,38.6Z"/>
  <path class="cls-3" d="m637.25,228.19h0c-.1-8.9-7.4-16-16.3-15.8h0c8.9-.1,16-7.4,15.8-16.3h0c.1,8.9,7.4,16,16.3,15.8h0c-8.8.2-15.9,7.5-15.8,16.3Z"/>
  <g>
    <g>
      <path class="cls-4" d="m832.4,549.49c-11.95-8.82-24.54-17.15-38.28-24.19-13.74-7.04-28.88-12.67-39.25-15.43,2.22-23.4-3.76-47.39-16.08-67.38-6.31-10.2-14.21-19.31-23.26-27.04l-3.51,6.95c-1.05,2.39-4.69,12.5-8.31,21-2.5,5.93-5.06,11.13-6.67,12.42,1.67-1.56,4.05-6.56,6.43-12.23-1.02,1.79-1.88,3.49-2.67,5.01-.51.9-.94,1.79-1.29,2.5-.5.98-1.53,2.69-2.84,5.02.07-.05.15-.11.22-.17l-.06.07c-2.77,4.85-6.94,12.03-11.03,19.13-4.31,7.54-9.54,16.01-11.62,19.27-7.66,10.74-16.83,20.77-27.38,29.58-25.52,21.33-55.98,38.97-86.98,49.01-46.25,14.95-97.13,5.02-133.45-27.25-.74-.61-1.4-1.31-2.13-1.92-6.41-5.86-12.36-12.26-17.86-19.31-6.85-8.79-12.65-18.1-17.46-27.67-27.42-55.11-20.63-121.32,16.8-169.68,8.49-10.9,18.57-20.26,29.9-28.11,3.59-2.46,7.34-5.02,11.27-7.6,54.21-36.08,124.21-21.58,129.9-6.99,1.24,3.28-6.38,7.14-11.03,12.84-11.72,14.52-7.6,34.94,6.86,53.3,10.61,13.53,23.81,21.98,39.75,20.82,9.29-.62,20.53-3.88,29.56-11.77,17.11-15.02,18.63-32.33,17.46-47.51-.84-10.79-4.4-23.37-9.18-33.63-3.38-7.07-7.49-13.74-11.77-19.54-19.94-26.08-27.06-32.29-45.68-42.44-82.68-44.75-163.69-41.74-253.23,1.64-39.65,19.26-63.28,39.91-98.62,82.55-25.36,34.83-44.07,64.52-53.71,113.93-21.03,107.39,2.29,223.87,78.94,313.01,117.42,145.29,305.3,159.71,432.46,97.09,77.21-45.37,122.51-90.48,147.73-129.54,15.36-23.69,30.64-58.25,41.02-88.96,7.18-21.31,9.13-53.01,7.25-80.36-20.68,7.8-41.43,15.69-62.18,23.58h-.02Z"/>
      <path class="cls-4" d="m696.57,456.04c-.08.09-.24.19-.41.21l.42-.04s.08-.09-.02-.17h.01Z"/>
    </g>
    <path class="cls-1" d="m677.59,554.4c.09,3.64-1.21,15.23,8.17,22.85,10.49,8.62,26.39,6.02,29.61,5.04"/>
    <path class="cls-1" d="m765.06,616.71c.59,3.6,1.08,15.19,11.52,21.43,11.7,6.97,26.94,1.98,30.05.67"/>
  </g>
</svg>