<?xml version="1.0" encoding="UTF-8"?>
<svg id="_圖層_1" data-name=" 圖層 1" xmlns="http://www.w3.org/2000/svg" viewBox="0 0 689.96 720.38">
  <defs>
    <style>
      .cls-1 {
        stroke-width: 17px;
      }

      .cls-1, .cls-2 {
        stroke: #fab4aa;
      }

      .cls-1, .cls-2, .cls-3 {
        stroke-miterlimit: 10;
      }

      .cls-1, .cls-3 {
        fill: none;
      }

      .cls-2 {
        fill: #285a6e;
        stroke-width: .89px;
      }

      .cls-3 {
        stroke: #285a6e;
        stroke-linecap: round;
        stroke-width: 17.87px;
      }

      .cls-4 {
        fill: #fab4aa;
      }

      .cls-4, .cls-5 {
        stroke-width: 0px;
      }

      .cls-5 {
        fill: #fff;
      }
    </style>
  </defs>
  <path class="cls-2" d="m651.93,456.15s0-.1,0,0c33.9-104.1,13.5-222.8-64-310.9C471.13,12.65,268.93-.25,136.33,116.45c-22.7,20-41.9,42.4-57.5,66.6C3.03,300.25,10.73,458.05,107.53,568.05c90.3,102.6,231.7,133.6,352.5,88.3.3-.1.6-.2.9-.3,21.6-8.2,42.6-18.8,62.5-31.9.1,0,.1-.1.2-.1,12.3-8.1,24.1-17.1,35.5-27.1,44.5-39.3,75.6-88.2,92.8-140.8h0Z"/>
  <path class="cls-5" d="m560.43,596.55c-8.2,7.2-16.6,13.9-25.2,20.2-5.1,3.7-10.3,7.3-15.6,10.7-.1,0-.1.1-.2.1-20,12.9-41,23.6-62.5,31.9-.3.1-.6.2-.9.3-120.8,45.3-262.2,14.3-352.5-88.3C7.33,462.35-.87,305.95,73.33,188.95c1-1.5,2.1-3,3.3-4.4,6.6-7.2,13.7-14.1,21.2-20.7,15.9-14,41.1-41.5,58.9-51.3,33.5-18.5,56.2-24.2,93-28.3,22.1-2.7,48.4-.3,67.4,6.2,13.6,4.7,30.1,15.2,44.4,28.8,13.6,12.9,22.5,23.8,30.5,38.8,5.7,10.5,10.2,23.6,11.7,34.9,2.2,16,1.6,34.3-15.5,51.2-9,8.9-13,10.9-22.8,12.2-16.8,2.2-33.8-2-45.9-15.6-16.4-18.5-19.5-33.6-12.5-52.1s8.1-40.6,6.6-43.9c0,0-76.2-25.8-144.1,27-4,3.1-7.8,5.9-11.4,8.7-11.4,9-28.1,30.6-36.3,42.6-36.5,53.3-24.5,125,7.8,181.5,5.6,9.8,12.3,19.2,20.1,28.1,6.2,7.1,12.9,13.5,20,19.3.8.6,1.6,1.3,2.4,1.9,40.3,31.8,94.6,39.2,142.4,20.6,32.1-12.4,63.1-33,88.8-57,10.6-10,19.7-21,27-32.9h0c2-3.6,7-12.8,11.1-21,5.8-11.5,11.6-23.2,13.2-26.5,2.6-5.4,8.4-16.9,13-25.5,7-13,4.6-12.4,15.7,1.6,10.4,13,14.5,28.4,14.5,50.3.1,19-18.9,52.8,35.1,81.6,40.1,21.4,56.5,2.2,72.9-6.3,11.4-5.9,32.3-12.5,38.1-12.1,17.7,1.1,13.3.2,10.9,8.3-.7,2.4-1.1,4.4-1.7,6.2-1.6,5-2.5,7.6-3.4,11.4-.6,2.3-1.2,4.6-1.9,7v.1c-10.4,36.9-28.4,72-53.7,102.8-10.3,12-21.5,23.4-33.7,34.1h0Z"/>
  <path class="cls-4" d="m549.82,282.23h0c-.22-15.3-12.87-27.55-28.08-27.24h0c15.3-.22,27.55-12.87,27.24-28.08h0c.22,15.3,12.87,27.55,28.08,27.24h0c-15.2.22-27.45,12.77-27.24,28.08Z"/>
  <path class="cls-4" d="m333.81,416.27h0c-.38-26.61-22.33-47.97-48.94-47.48h0c26.61-.38,47.97-22.33,47.48-48.94h0c.38,26.61,22.33,47.97,48.94,47.48h0c-26.61.38-47.87,22.33-47.48,48.94h0Z"/>
  <path class="cls-4" d="m194.77,250.31h0c-.35-21.01-17.55-37.71-38.56-37.36h0c21.01-.35,37.71-17.55,37.36-38.56h0c.35,21.01,17.55,37.71,38.56,37.36h0c-21.01.35-37.71,17.55-37.36,38.56Z"/>
  <path class="cls-4" d="m439.17,108.6h0c-.09-8.9-7.41-15.99-16.31-15.79h0c8.9-.09,15.99-7.41,15.79-16.31h0c.09,8.9,7.41,15.99,16.31,15.79h0c-8.8.2-15.89,7.51-15.79,16.31Z"/>
  <path class="cls-5" d="m383.13,236.75h0c-.2-6.2-5.3-11-11.5-10.9h0c6.2-.2,11-5.3,10.9-11.5h0c.2,6.2,5.3,11,11.5,10.9h0c-6.2.2-11.1,5.3-10.9,11.5Z"/>
  <path class="cls-5" d="m396.93,515.25h0c-.3-11.1-9.5-19.9-20.6-19.6h0c11.1-.3,19.9-9.5,19.6-20.6h0c.3,11.1,9.5,19.9,20.6,19.6h0c-11.2.3-19.9,9.5-19.6,20.6Z"/>
  <path class="cls-3" d="m419.63,439.15c-.4,3.8-1.1,16.5,7.5,25.5,9.7,10,24.3,8.1,27.6,7.6"/>
  <path class="cls-3" d="m504.33,511.05c-.4,3.8-1.1,16.5,7.5,25.5,9.7,10,24.3,8.1,27.6,7.6"/>
  <path class="cls-1" d="m647.83,459.65h0c33.9-104.1,13.5-222.8-64-310.9C467.13,16.15,264.93,3.25,132.33,120.05c-22.7,20-41.9,42.4-57.5,66.6C-.97,303.85,6.73,461.65,103.53,571.65c90.3,102.6,231.7,133.5,352.5,88.3.3-.1.6-.2.9-.3,21.6-8.2,42.6-18.8,62.5-31.9.1,0,.1-.1.2-.1,12.3-8.1,24.1-17.1,35.5-27.1,44.5-39.4,75.6-88.3,92.7-140.9h0Z"/>
  <path class="cls-5" d="m475.83,305.75c24.1,24,35.1,60.5,28.2,93.8,9.6,3.7,23.5,10.6,35.9,18.6,12.4,8.1,23.6,17.3,34.1,26.9,20.6-5.4,41.2-10.8,61.8-16.3-4.4,11.7-8.9,23.4-16,33.7-7.1,10.3-17.1,19-29.1,22.1-14.6,3.7-29.9-1.2-43.5-7.6-23.8-11.3-45.8-27.8-59.3-50.4-11.2-18.5-16.1-41.9-8.2-62,2.5-6.3,6.1-12.2,7.5-18.8,2-9.7-1.1-19.6-4.2-29"/>
  <ellipse class="cls-5" cx="353.55" cy="209.74" rx="52.3" ry="50.1" transform="translate(-50.42 285.88) rotate(-41.35)"/>
</svg>