<?xml version="1.0" encoding="utf-8"?>
<!-- Generator: Adobe Illustrator 27.8.1, SVG Export Plug-In . SVG Version: 6.00 Build 0)  -->
<svg version="1.1" id="_圖層_1" xmlns="http://www.w3.org/2000/svg" xmlns:xlink="http://www.w3.org/1999/xlink" x="0px" y="0px"
	 viewBox="0 0 858.4 843.9" style="enable-background:new 0 0 858.4 843.9;" xml:space="preserve">
<style type="text/css">
	.st0{fill:none;stroke:#020202;stroke-width:0.98;stroke-miterlimit:10;}
	.st1{fill:none;stroke:#000000;stroke-width:1.23;stroke-miterlimit:10;}
	.st2{fill:none;stroke:#FFFFFF;stroke-width:20.59;stroke-linecap:round;stroke-miterlimit:10;}
</style>
<path d="M675.3,346.1c12.3,24.9,16.7,53.8,11.4,81.1c11.9,4.4,29.1,12.7,44.5,22.5c15.4,9.8,29.3,21,42.4,32.7
	c25.3-7,50.6-13.9,75.8-20.9c-0.8,32.3-6.6,69.5-17.4,93.8c-15.6,35-37.4,74-58.1,100.2c-34,43.2-92.3,91.3-188.2,136.2
	c-221.9,103.9-386.9-4.8-498.4-162c-80.5-113.4-95-253-58.4-377.2c16.8-57.1,42.1-90,75.8-128.2C151,77.9,181,56.3,229.9,38
	C340.2-3.3,435.8,2.1,528.2,64c20.8,14,28.5,22.1,49.1,54.9c4.4,7.3,8.5,15.6,11.7,24.3c4.5,12.6,7.3,27.8,7.1,40.6
	c-0.3,18-4,38.2-25.8,54c-11.5,8.3-25.1,10.9-36.1,10.7c-18.9-0.4-33.5-11.8-44.5-28.9c-15-23.2-17.6-47.7-2.2-63.5
	c6.1-6.2,15.5-9.9,14.4-13.9c0,0,0,0,0,0c-5.1-17.8-85.9-42.6-153.7-6.1c-4.9,2.6-9.6,5.2-14.1,7.7c-14.2,8-27.2,17.9-38.3,29.8
	c-49.4,52.8-64.7,130-38.5,197.9c4.6,11.8,10.4,23.4,17.5,34.5c5.7,8.9,12,17.1,18.9,24.7c0.8,0.8,1.5,1.7,2.3,2.5
	c39.2,42,98,59.3,154.1,46.8c37.6-8.3,75.4-25.8,107.8-48.1c13.4-9.2,25.3-20,35.4-31.8c0,0,0,0,0,0c2.8-3.7,9.9-13,15.8-21.4
	c5.6-7.9,11.3-15.9,15.1-21.3c0,0,0.1-0.1,0.1-0.1c2-1.1,5.7-7.1,9.4-14c5.2-9.6,10.6-21.1,12.1-23.8l4.9-7.8
	C660.7,321.8,669,333.4,675.3,346.1"/>
<path class="st0" d="M624.2,357.5c1.8-2.6,3.2-4.5,3.9-5.6c0.5-0.8,1.1-1.8,1.8-2.8c1.1-1.7,2.3-3.6,3.7-5.6
	C629.8,350.4,626.2,356.4,624.2,357.5L624.2,357.5z"/>
<path class="st1" d="M624.1,357.6c-0.1,0-0.3,0-0.5,0c0.2,0,0.4-0.1,0.6-0.2C624.1,357.5,624.1,357.6,624.1,357.6L624.1,357.6z"/>
<path class="st2" d="M590.9,471.1c-0.3,4.3-3.1,17.8,7.1,27.8c11.4,11.3,30.4,9.9,34.3,9.3"/>
<path class="st2" d="M686.9,554.1c0.3,4.3-0.4,18,11.2,26.5c13,9.5,31.6,5.3,35.3,4.1"/>
</svg>
