<?xml version="1.0" encoding="utf-8"?>
<!-- Generator: Adobe Illustrator 27.8.1, SVG Export Plug-In . SVG Version: 6.00 Build 0)  -->
<svg version="1.1" id="_圖層_1" xmlns="http://www.w3.org/2000/svg" xmlns:xlink="http://www.w3.org/1999/xlink" x="0px" y="0px"
	 viewBox="0 0 690 720.4" style="enable-background:new 0 0 690 720.4;" xml:space="preserve">
<style type="text/css">
	.st0{fill:#285A6E;stroke:#FAB4AA;stroke-width:0.89;stroke-miterlimit:10;}
	.st1{fill:#FFFFFF;}
	.st2{fill:#FAB4AA;}
	.st3{fill:none;stroke:#285A6E;stroke-width:17.87;stroke-linecap:round;stroke-miterlimit:10;}
	.st4{fill:none;stroke:#FAB4AA;stroke-width:17;stroke-miterlimit:10;}
</style>
<g>
	<path class="st0" d="M651.9,456.1C651.9,456.1,651.9,456.1,651.9,456.1c33.9-104.1,13.5-222.8-64-310.9
		C471.1,12.7,268.9-0.2,136.3,116.5c-22.7,20-41.9,42.4-57.5,66.6c-75.8,117.2-68.1,275,28.7,385c90.3,102.6,231.7,133.6,352.5,88.3
		c0.3-0.1,0.6-0.2,0.9-0.3c21.6-8.2,42.6-18.8,62.5-31.9c0.1,0,0.1-0.1,0.2-0.1c12.3-8.1,24.1-17.1,35.5-27.1
		C603.6,557.7,634.7,508.8,651.9,456.1L651.9,456.1z"/>
	<path class="st1" d="M560.4,596.6c-8.2,7.2-16.6,13.9-25.2,20.2c-5.1,3.7-10.3,7.3-15.6,10.7c-0.1,0-0.1,0.1-0.2,0.1
		c-20,12.9-41,23.6-62.5,31.9c-0.3,0.1-0.6,0.2-0.9,0.3c-120.8,45.3-262.2,14.3-352.5-88.3C7.3,462.4-0.9,306,73.3,189
		c1-1.5,2.1-3,3.3-4.4c6.6-7.2,13.7-14.1,21.2-20.7c15.9-14,41.1-41.5,58.9-51.3c33.5-18.5,56.2-24.2,93-28.3
		c22.1-2.7,48.4-0.3,67.4,6.2c13.6,4.7,30.1,15.2,44.4,28.8c13.6,12.9,22.5,23.8,30.5,38.8c5.7,10.5,10.2,23.6,11.7,34.9
		c2.2,16,1.6,34.3-15.5,51.2c-9,8.9-13,10.9-22.8,12.2c-16.8,2.2-33.8-2-45.9-15.6c-16.4-18.5-19.5-33.6-12.5-52.1
		s8.1-40.6,6.6-43.9c0,0-76.2-25.8-144.1,27c-4,3.1-7.8,5.9-11.4,8.7c-11.4,9-28.1,30.6-36.3,42.6c-36.5,53.3-24.5,125,7.8,181.5
		c5.6,9.8,12.3,19.2,20.1,28.1c6.2,7.1,12.9,13.5,20,19.3c0.8,0.6,1.6,1.3,2.4,1.9c40.3,31.8,94.6,39.2,142.4,20.6
		c32.1-12.4,63.1-33,88.8-57c10.6-10,19.7-21,27-32.9l0,0c2-3.6,7-12.8,11.1-21c5.8-11.5,11.6-23.2,13.2-26.5
		c2.6-5.4,8.4-16.9,13-25.5c7-13,4.6-12.4,15.7,1.6c10.4,13,14.5,28.4,14.5,50.3c0.1,19-18.9,52.8,35.1,81.6
		c40.1,21.4,56.5,2.2,72.9-6.3c11.4-5.9,32.3-12.5,38.1-12.1c17.7,1.1,13.3,0.2,10.9,8.3c-0.7,2.4-1.1,4.4-1.7,6.2
		c-1.6,5-2.5,7.6-3.4,11.4c-0.6,2.3-1.2,4.6-1.9,7c0,0,0,0,0,0.1c-10.4,36.9-28.4,72-53.7,102.8
		C583.8,574.4,572.6,585.8,560.4,596.6L560.4,596.6z"/>
	<path class="st2" d="M549.8,282.2L549.8,282.2c-0.2-15.3-12.9-27.6-28.1-27.2l0,0c15.3-0.2,27.6-12.9,27.2-28.1l0,0
		c0.2,15.3,12.9,27.6,28.1,27.2l0,0C561.8,254.4,549.6,266.9,549.8,282.2z"/>
	<path class="st2" d="M333.8,416.3L333.8,416.3c-0.4-26.6-22.3-48-48.9-47.5l0,0c26.6-0.4,48-22.3,47.5-48.9l0,0
		c0.4,26.6,22.3,48,48.9,47.5l0,0C354.7,367.7,333.4,389.7,333.8,416.3L333.8,416.3z"/>
	<path class="st2" d="M194.8,250.3L194.8,250.3c-0.4-21-17.6-37.7-38.6-37.4l0,0c21-0.4,37.7-17.6,37.4-38.6l0,0
		c0.4,21,17.6,37.7,38.6,37.4l0,0C211.1,212.1,194.4,229.3,194.8,250.3z"/>
	<path class="st2" d="M439.2,108.6L439.2,108.6c-0.1-8.9-7.4-16-16.3-15.8l0,0c8.9-0.1,16-7.4,15.8-16.3l0,0
		c0.1,8.9,7.4,16,16.3,15.8l0,0C446.2,92.5,439.1,99.8,439.2,108.6z"/>
	<path class="st1" d="M383.1,236.8L383.1,236.8c-0.2-6.2-5.3-11-11.5-10.9l0,0c6.2-0.2,11-5.3,10.9-11.5l0,0
		c0.2,6.2,5.3,11,11.5,10.9l0,0C387.8,225.5,382.9,230.6,383.1,236.8z"/>
	<path class="st1" d="M396.9,515.2L396.9,515.2c-0.3-11.1-9.5-19.9-20.6-19.6l0,0c11.1-0.3,19.9-9.5,19.6-20.6l0,0
		c0.3,11.1,9.5,19.9,20.6,19.6l0,0C405.3,495,396.6,504.1,396.9,515.2z"/>
	<path class="st3" d="M419.6,439.1c-0.4,3.8-1.1,16.5,7.5,25.5c9.7,10,24.3,8.1,27.6,7.6"/>
	<path class="st3" d="M504.3,511.1c-0.4,3.8-1.1,16.5,7.5,25.5c9.7,10,24.3,8.1,27.6,7.6"/>
	<path class="st4" d="M647.8,459.6L647.8,459.6c33.9-104.1,13.5-222.8-64-310.9C467.1,16.2,264.9,3.3,132.3,120.1
		c-22.7,20-41.9,42.4-57.5,66.6c-75.8,117.2-68.1,275,28.7,385c90.3,102.6,231.7,133.5,352.5,88.3c0.3-0.1,0.6-0.2,0.9-0.3
		c21.6-8.2,42.6-18.8,62.5-31.9c0.1,0,0.1-0.1,0.2-0.1c12.3-8.1,24.1-17.1,35.5-27.1C599.6,561.2,630.7,512.2,647.8,459.6
		L647.8,459.6z"/>
	<path class="st1" d="M475.8,305.8c24.1,24,35.1,60.5,28.2,93.8c9.6,3.7,23.5,10.6,35.9,18.6c12.4,8.1,23.6,17.3,34.1,26.9
		c20.6-5.4,41.2-10.8,61.8-16.3c-4.4,11.7-8.9,23.4-16,33.7c-7.1,10.3-17.1,19-29.1,22.1c-14.6,3.7-29.9-1.2-43.5-7.6
		c-23.8-11.3-45.8-27.8-59.3-50.4c-11.2-18.5-16.1-41.9-8.2-62c2.5-6.3,6.1-12.2,7.5-18.8c2-9.7-1.1-19.6-4.2-29"/>
	
		<ellipse transform="matrix(0.7507 -0.6607 0.6607 0.7507 -50.4186 285.8759)" class="st1" cx="353.6" cy="209.7" rx="52.3" ry="50.1"/>
</g>
</svg>
