<?xml version="1.0" encoding="utf-8"?>
<!-- Generator: Adobe Illustrator 27.8.1, SVG Export Plug-In . SVG Version: 6.00 Build 0)  -->
<svg version="1.1" id="_圖層_1" xmlns="http://www.w3.org/2000/svg" xmlns:xlink="http://www.w3.org/1999/xlink" x="0px" y="0px"
	 viewBox="0 0 1020.7 853.6" style="enable-background:new 0 0 1020.7 853.6;" xml:space="preserve">
<style type="text/css">
	.st0{fill:#FAB4AA;}
	.st1{font-family:'Fragille-Reguler';}
	.st2{font-size:152.43px;}
	.st3{fill:#285A6E;stroke:#FAB4AA;stroke-width:0.89;stroke-miterlimit:10;}
	.st4{fill:#FFFFFF;}
	.st5{fill:none;stroke:#285A6E;stroke-width:17.87;stroke-linecap:round;stroke-miterlimit:10;}
	.st6{fill:none;stroke:#FAB4AA;stroke-width:17;stroke-miterlimit:10;}
</style>
<g>
	<text transform="matrix(0.4396 -0.8982 0.8982 0.4396 150.7501 372.2406)" class="st0 st1 st2">C</text>
	<text transform="matrix(0.6266 -0.7793 0.7793 0.6266 191.78 289.6409)" class="st0 st1 st2">e</text>
	<text transform="matrix(0.7361 -0.6769 0.6769 0.7361 238.5799 233.1106)" class="st0 st1 st2">l</text>
	<text transform="matrix(0.8031 -0.5958 0.5958 0.8031 267.1502 206.6606)" class="st0 st1 st2">i</text>
	<text transform="matrix(0.884 -0.4675 0.4675 0.884 296.6 182.7307)" class="st0 st1 st2">a</text>
	<text transform="matrix(0.9436 -0.331 0.331 0.9436 362.7 149.0907)" class="st0 st1 st2">’</text>
	<text transform="matrix(0.9802 -0.1978 0.1978 0.9802 395.7299 136.1506)" class="st0 st1 st2">s</text>
	<text transform="matrix(0.9894 0.145 -0.145 0.9894 503.3501 118.1205)" class="st0 st1 st2">D</text>
	<text transform="matrix(0.928 0.3727 -0.3727 0.928 603.9999 134.0005)" class="st0 st1 st2">e</text>
	<text transform="matrix(0.8427 0.5383 -0.5383 0.8427 671.4099 161.0207)" class="st0 st1 st2">s</text>
	<text transform="matrix(0.7592 0.6509 -0.6509 0.7592 726.3295 196.9508)" class="st0 st1 st2">i</text>
	<text transform="matrix(0.6492 0.7606 -0.7606 0.6492 756.2405 220.1408)" class="st0 st1 st2">g</text>
	<text transform="matrix(0.4672 0.8842 -0.8842 0.4672 806.75 277.5106)" class="st0 st1 st2">n</text>
</g>
<path class="st0" d="M962.5,422.6L962.5,422.6c0-25.6-20.8-46.3-46.3-46.3l0,0c25.6,0,46.3-20.8,46.3-46.3l0,0
	c0,25.6,20.8,46.3,46.3,46.3l0,0C983.2,376.3,962.5,397,962.5,422.6z"/>
<path class="st0" d="M37.9,227.4L37.9,227.4c0-20.9-17-37.9-37.9-37.9l0,0c20.9,0,37.9-17,37.9-37.9l0,0c0,20.9,17,37.9,37.9,37.9
	l0,0C54.8,189.6,37.9,206.5,37.9,227.4z"/>
<g>
	<path class="st3" d="M809.6,603.9C809.6,603.9,809.6,603.8,809.6,603.9c33.9-104.1,13.5-222.8-64-310.9
		c-116.8-132.6-319-145.5-451.6-28.8c-22.7,20-41.9,42.4-57.5,66.6c-75.8,117.2-68.1,275,28.7,385
		c90.3,102.6,231.7,133.6,352.5,88.3c0.3-0.1,0.6-0.2,0.9-0.3c21.6-8.2,42.6-18.8,62.5-31.9c0.1,0,0.1-0.1,0.2-0.1
		c12.3-8.1,24.1-17.1,35.5-27.1C761.3,705.4,792.4,656.5,809.6,603.9L809.6,603.9z"/>
	<path class="st4" d="M718.1,744.3c-8.2,7.2-16.6,13.9-25.2,20.2c-5.1,3.7-10.3,7.3-15.6,10.7c-0.1,0-0.1,0.1-0.2,0.1
		c-20,12.9-41,23.6-62.5,31.9c-0.3,0.1-0.6,0.2-0.9,0.3c-120.8,45.3-262.2,14.3-352.5-88.3C165,610.1,156.8,453.7,231,336.7
		c1-1.5,2.1-3,3.3-4.4c6.6-7.2,13.7-14.1,21.2-20.7c15.9-14,41.1-41.5,58.9-51.3c33.5-18.5,56.2-24.2,93-28.3
		c22.1-2.7,48.4-0.3,67.4,6.2c13.6,4.7,30.1,15.2,44.4,28.8c13.6,12.9,22.5,23.8,30.5,38.8c5.7,10.5,10.2,23.6,11.7,34.9
		c2.2,16,1.6,34.3-15.5,51.2c-9,8.9-13,10.9-22.8,12.2c-16.8,2.2-33.8-2-45.9-15.6c-16.4-18.5-19.5-33.6-12.5-52.1
		s8.1-40.6,6.6-43.9c0,0-76.2-25.8-144.1,27c-4,3.1-7.8,5.9-11.4,8.7c-11.4,9-28.1,30.6-36.3,42.6c-36.5,53.3-24.5,125,7.8,181.5
		c5.6,9.8,12.3,19.2,20.1,28.1c6.2,7.1,12.9,13.5,20,19.3c0.8,0.6,1.6,1.3,2.4,1.9c40.3,31.8,94.6,39.2,142.4,20.6
		c32.1-12.4,63.1-33,88.8-57c10.6-10,19.7-21,27-32.9l0,0c2-3.6,7-12.8,11.1-21c5.8-11.5,11.6-23.2,13.2-26.5
		c2.6-5.4,8.4-16.9,13-25.5c7-13,4.6-12.4,15.7,1.6c10.4,13,14.5,28.4,14.5,50.3c0.1,19-18.9,52.8,35.1,81.6
		c40.1,21.4,56.5,2.2,72.9-6.3c11.4-5.9,32.3-12.5,38.1-12.1c17.7,1.1,13.3,0.2,10.9,8.3c-0.7,2.4-1.1,4.4-1.7,6.2
		c-1.6,5-2.5,7.6-3.4,11.4c-0.6,2.3-1.2,4.6-1.9,7c0,0,0,0,0,0.1c-10.4,36.9-28.4,72-53.7,102.8
		C741.5,722.2,730.3,733.6,718.1,744.3L718.1,744.3z"/>
	<path class="st0" d="M707.4,430L707.4,430c-0.2-15.3-12.9-27.6-28.1-27.2l0,0c15.3-0.2,27.6-12.9,27.2-28.1l0,0
		c0.2,15.3,12.9,27.6,28.1,27.2l0,0C719.5,402.2,707.2,414.7,707.4,430z"/>
	<path class="st0" d="M491.4,564.1L491.4,564.1c-0.4-26.6-22.3-48-48.9-47.5l0,0c26.6-0.4,48-22.3,47.5-48.9l0,0
		c0.4,26.6,22.3,48,48.9,47.5l0,0C512.3,515.5,491.1,537.4,491.4,564.1L491.4,564.1z"/>
	<path class="st0" d="M352.4,398.1L352.4,398.1c-0.4-21-17.6-37.7-38.6-37.4l0,0c21-0.4,37.7-17.6,37.4-38.6l0,0
		c0.4,21,17.6,37.7,38.6,37.4l0,0C368.8,359.9,352,377.1,352.4,398.1z"/>
	<path class="st0" d="M596.8,256.4L596.8,256.4c-0.1-8.9-7.4-16-16.3-15.8l0,0c8.9-0.1,16-7.4,15.8-16.3l0,0
		c0.1,8.9,7.4,16,16.3,15.8l0,0C603.8,240.3,596.7,247.6,596.8,256.4z"/>
	<path class="st4" d="M540.8,384.5L540.8,384.5c-0.2-6.2-5.3-11-11.5-10.9l0,0c6.2-0.2,11-5.3,10.9-11.5l0,0
		c0.2,6.2,5.3,11,11.5,10.9l0,0C545.5,373.2,540.6,378.3,540.8,384.5z"/>
	<path class="st4" d="M554.6,663L554.6,663c-0.3-11.1-9.5-19.9-20.6-19.6l0,0c11.1-0.3,19.9-9.5,19.6-20.6l0,0
		c0.3,11.1,9.5,19.9,20.6,19.6l0,0C563,642.7,554.3,651.9,554.6,663z"/>
	<path class="st5" d="M577.3,586.9c-0.4,3.8-1.1,16.5,7.5,25.5c9.7,10,24.3,8.1,27.6,7.6"/>
	<path class="st5" d="M662,658.8c-0.4,3.8-1.1,16.5,7.5,25.5c9.7,10,24.3,8.1,27.6,7.6"/>
	<path class="st6" d="M805.5,607.4L805.5,607.4c33.9-104.1,13.5-222.8-64-310.9C624.8,163.9,422.6,151,290,267.8
		c-22.7,20-41.9,42.4-57.5,66.6c-75.8,117.2-68.1,275,28.7,385c90.3,102.6,231.7,133.5,352.5,88.3c0.3-0.1,0.6-0.2,0.9-0.3
		c21.6-8.2,42.6-18.8,62.5-31.9c0.1,0,0.1-0.1,0.2-0.1c12.3-8.1,24.1-17.1,35.5-27.1C757.3,708.9,788.4,660,805.5,607.4L805.5,607.4
		z"/>
	<path class="st4" d="M633.5,453.5c24.1,24,35.1,60.5,28.2,93.8c9.6,3.7,23.5,10.6,35.9,18.6c12.4,8.1,23.6,17.3,34.1,26.9
		c20.6-5.4,41.2-10.8,61.8-16.3c-4.4,11.7-8.9,23.4-16,33.7c-7.1,10.3-17.1,19-29.1,22.1c-14.6,3.7-29.9-1.2-43.5-7.6
		c-23.8-11.3-45.8-27.8-59.3-50.4c-11.2-18.5-16.1-41.9-8.2-62c2.5-6.3,6.1-12.2,7.5-18.8c2-9.7-1.1-19.6-4.2-29"/>
	
		<ellipse transform="matrix(0.7507 -0.6607 0.6607 0.7507 -108.7536 426.8631)" class="st4" cx="511.2" cy="357.5" rx="52.3" ry="50.1"/>
</g>
</svg>
