<svg width="22" height="22" viewBox="0 0 22 22" fill="none" xmlns="http://www.w3.org/2000/svg">
<path d="M8.94354 11.9336C9.37299 12.5077 9.9209 12.9827 10.5501 13.3265C11.1793 13.6703 11.875 13.8747 12.5902 13.9259C13.3053 13.9771 14.0231 13.8739 14.6949 13.6233C15.3666 13.3728 15.9767 12.9806 16.4835 12.4736L19.4835 9.47356C20.3943 8.53055 20.8983 7.26754 20.8869 5.95655C20.8755 4.64557 20.3497 3.39151 19.4226 2.46447C18.4956 1.53743 17.2415 1.01158 15.9305 1.00019C14.6196 0.988797 13.3566 1.49277 12.4135 2.40356L10.6935 4.11356" stroke="black" stroke-width="2" stroke-linecap="round" stroke-linejoin="round"/>
<path d="M12.9436 9.93333C12.5141 9.3592 11.9662 8.88415 11.337 8.54039C10.7078 8.19663 10.0121 7.99221 9.29691 7.941C8.58177 7.88978 7.86397 7.99296 7.19221 8.24355C6.52045 8.49413 5.91044 8.88626 5.40356 9.39333L2.40356 12.3933C1.49277 13.3363 0.988797 14.5994 1.00019 15.9103C1.01158 17.2213 1.53743 18.4754 2.46447 19.4024C3.39151 20.3295 4.64557 20.8553 5.95655 20.8667C7.26754 20.8781 8.53055 20.3741 9.47356 19.4633L11.1836 17.7533" stroke="black" stroke-width="2" stroke-linecap="round" stroke-linejoin="round"/>
</svg>
