<svg width="159" height="224" viewBox="0 0 159 224" fill="none" xmlns="http://www.w3.org/2000/svg">
<path d="M58.2513 77.5402C58.2513 77.5402 58.7034 95.0544 58.2513 98.1992C57.7991 101.344 54.2065 107.634 51.0578 109.424C47.9092 111.214 40.2637 109.424 40.2637 109.424L75.7867 135.921C75.7867 135.921 82.084 138.614 91.5218 125.14C100.968 111.666 102.437 104.481 102.437 104.481L89.2774 106.835C89.2774 106.835 86.1288 108.972 89.2774 100.441C92.426 91.9096 91.5218 88.7648 91.5218 88.7648L58.2432 77.5402H58.2513Z" fill="url(#paint0_linear_221_85)"/>
<path d="M82.7624 94.6028C99.0282 94.6028 112.214 78.8189 112.214 59.3485C112.214 39.8781 99.0282 24.0942 82.7624 24.0942C66.4966 24.0942 53.3105 39.8781 53.3105 59.3485C53.3105 78.8189 66.4966 94.6028 82.7624 94.6028Z" fill="#FAE2DB"/>
<path d="M81.002 72.8229C81.002 72.8229 83.101 76.4596 89.1803 76.9515C95.2596 77.4434 98.053 74.2099 98.053 74.2099" stroke="#070001" stroke-miterlimit="10" stroke-linecap="round"/>
<path d="M108.305 72.0588C108.402 70.8692 106.651 69.7559 104.393 69.5721C102.135 69.3883 100.226 70.2036 100.129 71.3932C100.032 72.5828 101.784 73.6961 104.041 73.8799C106.299 74.0637 108.208 73.2484 108.305 72.0588Z" fill="#ECAFC0"/>
<path d="M96.0427 69.2104C97.96 69.2104 99.5143 67.658 99.5143 65.743C99.5143 63.828 97.96 62.2756 96.0427 62.2756C94.1254 62.2756 92.5712 63.828 92.5712 65.743C92.5712 67.658 94.1254 69.2104 96.0427 69.2104Z" fill="#231714"/>
<path d="M99.038 64.0496C99.038 64.0496 99.3771 64.0738 99.6112 63.9045C99.8453 63.7352 99.9826 63.4207 99.9826 63.4207" stroke="#070001" stroke-width="0.25" stroke-miterlimit="10" stroke-linecap="round"/>
<path d="M78.2254 25.9972C87.0315 25.9972 94.1704 20.1775 94.1704 12.9986C94.1704 5.81967 87.0315 0 78.2254 0C69.4192 0 62.2804 5.81967 62.2804 12.9986C62.2804 20.1775 69.4192 25.9972 78.2254 25.9972Z" fill="#342E2C"/>
<path d="M72.574 21.9251C72.574 21.9251 75.0121 24.6022 74.665 26.7713C74.3178 28.9405 73.6397 30.7306 73.6397 30.7306L87.752 30.15C87.752 30.15 86.8882 30.15 87.0254 26.3278C87.1707 22.5057 86.0162 20.9171 86.0162 20.9171L72.574 21.9251Z" fill="#342E2C"/>
<path d="M79.62 26.5733C84.6307 26.1934 88.6306 25.0684 88.554 24.0603C88.4774 23.0523 84.3533 22.543 79.3426 22.9229C74.332 23.3027 70.3321 24.4277 70.4087 25.4358C70.4853 26.4438 74.6093 26.9531 79.62 26.5733Z" fill="white"/>
<path d="M53.3027 57.131C53.3027 57.131 76.2555 57.5422 82.7546 54.6716C89.2537 51.8009 95.5428 46.6482 95.5428 46.6482C95.5428 46.6482 101.646 47.4869 102.438 51.8977C103.229 56.3085 112.206 65.1221 112.206 65.1221C112.206 65.1221 114.491 50.3495 107.814 39.3184C101.138 28.2873 95.5752 24.4974 83.8848 24.1184C72.1945 23.7313 63.1604 30.2468 58.2194 38.2056C53.2785 46.1725 53.3027 57.131 53.3027 57.131Z" fill="#342E2C"/>
<path d="M33.5228 106.731C33.5228 106.731 56.0072 118.858 62.7485 125.591C69.4898 132.325 76.2392 136.816 76.2392 136.816C76.2392 136.816 84.3368 135.469 91.0781 126.487C97.8195 117.504 102.655 106.723 102.655 106.723C102.655 106.723 118.956 107.174 124.809 108.964L130.654 110.762C130.654 110.762 129.306 142.654 126.609 154.33C123.913 166.006 123.913 174.538 123.913 187.569C123.913 196.237 124.494 206.857 124.89 212.985C125.067 215.727 128.587 218.831 120.159 218.098L36.3081 219.38C28.7837 219.38 32.4813 217.533 32.7719 215.404C33.3694 211.018 34.4916 203.196 36.1708 192.552C38.8674 175.481 37.1316 177.231 35.3312 158.37C33.5308 139.509 38.932 139.953 28.5899 127.382C18.2479 114.802 18.2479 112.561 18.2479 112.561L33.5389 106.723L33.5228 106.731Z" fill="#BB4420"/>
<path d="M126.9 109.029C126.9 109.029 135.619 110.48 137.654 118.899C139.688 127.317 143.176 137.477 143.757 142.412L144.339 147.347C144.339 147.347 119.924 164.184 118.471 158.088C117.018 151.992 116.146 146.186 115.274 141.251C114.402 136.316 111.496 129.059 113.53 120.35C115.565 111.641 117.018 110.19 118.471 109.029C119.924 107.868 120.506 108.738 126.9 109.029Z" fill="#BB4420"/>
<path d="M18.2317 112.569C18.2317 112.569 -1.11219 115.81 0.0503796 128.833C1.21295 141.856 5.84709 159.951 6.71095 163.055L7.58288 166.16L40.9019 159.41C40.9019 159.41 42.6377 148.452 38.8755 139.364C35.1052 130.276 31.9242 121.882 27.8633 118.125C23.8104 114.359 18.2317 112.569 18.2317 112.569Z" fill="#BB4420"/>
<path d="M60.7062 47.2853L61.2471 46.0596L61.3601 44.9872C61.3601 44.9872 61.7234 44.1405 61.9979 44.1324L63.3381 44.076C63.3381 44.076 63.6288 43.947 63.7741 44.334C63.9194 44.7211 64.4845 46.0032 64.4845 46.0032L67.7462 46.4225L68.7635 45.2371L68.715 44.1727C68.715 44.1727 68.7796 43.8179 69.3367 43.8179C69.8937 43.8179 70.7657 43.7776 70.8464 43.9712C70.9271 44.1647 71.1774 44.4711 71.2339 44.8662C71.2904 45.2613 71.468 45.6887 71.7264 46.229C71.9847 46.7692 72.227 47.7127 72.227 47.7127L66.0669 47.9707L60.6981 47.3095L60.7062 47.2853Z" fill="#1D1E1D"/>
<path d="M36.7523 53.9539L36.7766 54.4458C36.7766 54.4458 36.7362 54.9055 37.1076 54.8974L37.1399 55.6312L42.7105 55.3973L43.3241 54.5265L42.9608 53.2605C42.9608 53.2605 42.7751 53.3008 42.3472 53.2847C41.9193 53.2685 39.7314 53.4218 39.021 53.4218C38.3105 53.4218 37.3013 53.4862 37.3013 53.4862C37.3013 53.4862 37.1399 53.3814 36.7685 53.9459L36.7523 53.9539Z" fill="url(#paint1_linear_221_85)"/>
<path d="M37.0995 54.8893C37.0995 54.8893 39.2874 54.9216 40.0544 54.8893C40.8213 54.8571 42.8478 54.6474 42.8478 54.6474L37.0914 54.8893H37.0995Z" fill="#272626"/>
<path d="M52.5601 50.4059V50.1479C52.5601 50.1479 52.8023 49.8818 53.0526 49.8092C53.3028 49.7367 53.6581 49.7447 53.6581 49.7447L54.4008 49.7125C54.4008 49.7125 54.8449 49.7931 54.9983 49.906C55.1516 50.0189 55.1113 50.4785 55.1113 50.4785L52.657 50.664L52.5682 50.4059H52.5601Z" fill="url(#paint2_linear_221_85)"/>
<path d="M49.0401 51.5429L49.0805 52.5428C49.0805 52.5428 49.032 53.4862 49.5729 53.4621L49.6375 54.9619L57.8724 54.6152L58.7524 52.8573L58.1873 50.2769C58.1873 50.2769 57.9209 50.3495 57.275 50.3172C56.6291 50.285 53.4159 50.543 52.3663 50.5269C51.3168 50.5108 49.8151 50.6156 49.8151 50.6156C49.8151 50.6156 49.581 50.3898 49.032 51.5429H49.0401Z" fill="url(#paint3_linear_221_85)"/>
<path d="M49.581 53.462C49.581 53.462 52.8185 53.5749 53.9568 53.5266C55.0952 53.4782 58.0904 53.0992 58.0904 53.0992L49.5891 53.454L49.581 53.462Z" fill="#272626"/>
<path d="M80.9382 49.2206V48.9625C80.9382 48.9625 81.1723 48.6964 81.4064 48.6239C81.6406 48.5513 81.9877 48.5594 81.9877 48.5594L82.6982 48.5271C82.6982 48.5271 83.118 48.6077 83.2714 48.7206C83.4248 48.8335 83.3844 49.2931 83.3844 49.2931L81.027 49.4705L80.9382 49.2125V49.2206Z" fill="url(#paint4_linear_221_85)"/>
<path d="M77.1679 50.3656L77.2082 51.3655C77.2082 51.3655 77.1517 52.309 77.7249 52.2848L77.7895 53.7846L86.4846 53.4217L87.4211 51.6558L86.8318 49.0835C86.8318 49.0835 86.5492 49.1561 85.871 49.1238C85.1929 49.0916 81.7939 49.3577 80.6879 49.3415C79.5818 49.3254 77.9994 49.4383 77.9994 49.4383C77.9994 49.4383 77.7492 49.2125 77.1759 50.3656H77.1679Z" fill="url(#paint5_linear_221_85)"/>
<path d="M77.733 52.2848C77.733 52.2848 81.1481 52.3896 82.351 52.3412C83.5539 52.2928 86.7106 51.9058 86.7106 51.9058L77.733 52.2848Z" fill="#272626"/>
<path d="M56.2819 57.3487L56.9601 52.2767C56.9601 52.2767 56.726 51.3978 57.4849 50.672C58.2438 49.9463 63.2816 44.9952 63.2816 44.9952C63.2816 44.9952 64.3392 44.1566 65.0255 44.1324C65.7117 44.1082 67.7946 44.0195 67.7946 44.0195C67.7946 44.0195 69.1994 44.5517 69.7161 45.0275C70.2328 45.5032 75.1737 50.1398 75.1737 50.1398C75.1737 50.1398 75.9569 50.0108 76.1183 51.3816C76.2798 52.7525 77.4504 57.252 77.4504 57.252L74.0596 61.3483L59.3014 58.8002L56.2739 57.3487H56.2819Z" fill="url(#paint6_linear_221_85)"/>
<path d="M43.5098 52.2122L43.4937 51.809C43.4937 51.809 43.8893 51.3897 44.2768 51.2849C44.6643 51.18 45.2133 51.18 45.2133 51.18L46.3678 51.1236C46.3678 51.1236 47.054 51.2526 47.2882 51.43C47.5223 51.6074 47.4658 52.317 47.4658 52.317L43.647 52.5992L43.5098 52.2041V52.2122Z" fill="url(#paint7_linear_221_85)"/>
<path d="M42.4603 52.9218C42.4603 52.9218 42.5168 51.9542 43.0981 51.93L47.8452 51.7284C47.8452 51.7284 48.5638 51.551 48.6203 52.8573L48.7091 54.9861L42.5572 55.2441L42.4603 52.9218Z" fill="url(#paint8_linear_221_85)"/>
<path d="M35.2346 57.0181L36.3406 83.4185C36.3406 83.4185 35.6705 85.6038 37.9634 85.7651C40.2643 85.9263 90.2953 83.5718 90.2953 83.5718L93.3147 83.5556C93.3147 83.5556 94.6226 84.2169 94.5419 82.4106C94.4692 80.6043 93.3147 55.5183 93.3147 55.5183L93.0079 53.8653C93.0079 53.8653 93.0079 53.2121 90.9977 53.2282C88.9874 53.2444 41.5238 55.4377 41.5238 55.4377L36.494 55.6473C36.494 55.6473 35.1861 56.0505 35.2265 57.0181H35.2346Z" fill="#2B2C2D"/>
<path d="M35.3637 60.5984L93.4277 58.1632L93.2501 54.0185C93.2501 54.0185 93.3066 53.0266 91.5305 53.0992C89.7543 53.1718 36.599 55.3973 36.599 55.3973C36.599 55.3973 35.1538 55.5505 35.1942 56.5424C35.2346 57.5342 35.2669 58.9131 35.3637 60.5903V60.5984Z" fill="#E1E2E3"/>
<path d="M67.9402 84.234C76.5338 83.8743 83.2082 76.6246 82.848 68.0415C82.4879 59.4584 75.2295 52.792 66.6359 53.1517C58.0424 53.5115 51.3679 60.7611 51.7281 69.3442C52.0883 77.9274 59.3467 84.5938 67.9402 84.234Z" fill="url(#paint9_radial_221_85)"/>
<path d="M67.8939 83.1303C75.8771 82.7961 82.0775 76.0613 81.7429 68.0878C81.4083 60.1142 74.6654 53.9213 66.6822 54.2555C58.699 54.5897 52.4986 61.3244 52.8332 69.298C53.1678 77.2715 59.9107 83.4645 67.8939 83.1303Z" fill="url(#paint10_linear_221_85)"/>
<path d="M67.756 79.8432C73.9216 79.5851 78.7103 74.3837 78.4519 68.2255C78.1935 62.0674 72.9858 57.2845 66.8202 57.5426C60.6546 57.8007 55.8658 63.0021 56.1242 69.1602C56.3827 75.3184 61.5904 80.1013 67.756 79.8432Z" fill="url(#paint11_linear_221_85)"/>
<path d="M67.5842 75.7504C71.4867 75.5871 74.5178 72.2949 74.3542 68.3971C74.1906 64.4993 70.8944 61.472 66.9919 61.6353C63.0894 61.7987 60.0584 65.0909 60.222 68.9887C60.3855 72.8865 63.6817 75.9138 67.5842 75.7504Z" fill="url(#paint12_radial_221_85)"/>
<path d="M158.879 195.786C158.919 204.527 158.338 211.768 150.773 218.17C142.885 224.839 141.448 224.307 139.712 209.8C139.026 204.107 138.695 201.124 138.308 198.567L158.887 195.786H158.879Z" fill="#FAE2DB"/>
<path d="M158.879 195.786L134.158 199.301C133.552 195.318 137.476 191.488 134.602 181.11C130.283 165.531 128.991 163.62 126.763 157.604C126.763 157.604 131.494 155.242 135.781 152.806C140.544 150.105 143.128 148.162 143.128 148.162C147.721 160.209 157.458 185.625 158.152 190.665C158.435 192.689 158.871 195.423 158.871 195.794L158.879 195.786Z" fill="url(#paint13_linear_221_85)"/>
<path d="M129.815 216.251C132.35 220.347 136.725 223.073 141.553 223.089C143.814 223.089 146.074 222.549 147.536 220.783C151.419 216.074 146.123 199.293 142.127 187.811C137.977 175.901 131.647 171.119 119.844 147.581C115.476 138.88 109.954 127.406 109.373 126.124C108.791 124.842 98.1426 130.22 98.1426 130.22C98.1426 130.22 107.685 160.959 110.035 167.901C113.111 176.981 116.251 187.601 120.231 196.398C123.558 203.761 126.359 210.631 129.831 216.251H129.815Z" fill="#FAE2DB"/>
<path d="M82.8025 109.287C82.8025 109.287 79.0322 106.771 79.0322 103.844C79.0322 100.917 81.6238 96.1108 83.8844 100.078C86.1449 104.045 87.1622 106.352 87.1622 106.352L82.7944 109.287H82.8025Z" fill="#EECAC0"/>
<path d="M107.176 128.123C110.301 127.454 109.889 127.946 108.638 123.358C108.016 121.084 109.728 117.891 109.728 115.246C109.728 110.738 112.707 112.665 108.646 108.448C104.577 104.239 102.139 104.505 100.782 99.6345C99.4258 94.756 96.9877 87.7164 96.9877 83.9265C96.9877 80.1366 95.3568 74.1775 92.9187 83.9265C92.1032 94.756 93.7341 101.134 94.275 102.279C94.8159 103.424 89.1242 103.424 89.1242 103.424C89.1242 103.424 87.2269 100.989 84.5142 105.319C81.8016 109.65 79.3634 110.52 80.7197 114.826C82.0761 119.132 81.2607 120.761 83.6988 122.108C86.137 123.463 85.5961 124.277 87.7678 124.817C89.9396 125.358 90.4805 125.696 93.1932 125.938C95.9058 126.172 97.3268 129.147 98.1422 130.228C98.9576 131.309 104.036 130.51 104.036 130.51L107.184 128.14L107.176 128.123Z" fill="#FAE2DB"/>
<path d="M96.6243 109.892H89.3179C89.3179 109.892 87.6225 107.851 85.919 111.246C85.0713 112.94 84.4738 114.472 84.159 115.746C83.8441 117.02 83.7957 118.036 84.054 118.713C84.5626 120.068 84.8048 114.891 85.4426 113.996C86.0885 113.101 86.7828 111.617 87.3237 110.924C87.8727 110.23 88.2683 110.577 89.0111 110.577C89.7538 110.577 94.8885 110.577 95.7524 110.23L96.6162 109.883L96.6243 109.892Z" fill="#EECAC0"/>
<path d="M97.513 113.448H91.579C91.579 113.448 90.1984 111.795 88.8179 114.552C88.1316 115.931 87.6473 117.173 87.3889 118.205C87.1306 119.237 87.0983 120.068 87.3001 120.616C87.7118 121.721 87.9056 117.512 88.4304 116.786C88.9551 116.06 89.5203 114.859 89.9562 114.294C90.4003 113.73 90.7232 114.012 91.3287 114.012C91.9342 114.012 96.1001 114.012 96.8025 113.73L97.5049 113.448H97.513Z" fill="#EECAC0"/>
<path d="M99.7006 116.238H94.356C94.356 116.238 93.1127 114.746 91.8694 117.229C91.2477 118.471 90.8117 119.592 90.5776 120.519C90.3435 121.447 90.3112 122.197 90.4969 122.697C90.8682 123.688 91.0459 119.899 91.5141 119.245C91.9824 118.592 92.491 117.504 92.8947 116.996C93.2983 116.488 93.5809 116.746 94.1299 116.746C94.6789 116.746 98.433 116.746 99.0628 116.496L99.6925 116.246L99.7006 116.238Z" fill="#EECAC0"/>
<path d="M144.436 193.979C144.436 193.979 145.703 198.551 145.283 201.003C144.863 203.454 144.436 204.389 144.436 204.389C144.436 204.389 144.605 205.236 145.372 203.712C146.131 202.188 146.22 200.833 146.05 198.632C145.881 196.431 144.444 193.979 144.444 193.979H144.436Z" fill="url(#paint14_linear_221_85)"/>
<path d="M9.62537 165.748C9.62537 165.748 10.6023 185.795 15.1557 195.915C19.7171 206.034 23.5197 214.679 32.7557 215.412C41.9917 216.146 45.0515 200.898 41.2974 190.576C37.5352 180.263 30.8019 161.451 30.8019 161.451C30.8019 161.451 19.1601 163.894 16.2213 164.426C13.2826 164.958 9.62537 165.74 9.62537 165.74V165.748Z" fill="#FAE2DB"/>
<path d="M22.1392 207.558C21.8324 203.486 21.5175 194.511 22.0342 190.463C24.2383 172.981 28.17 158.588 29.5667 151.161C31.7304 139.654 32.6185 130.18 33.7245 115.238C34.33 107.158 34.5722 101.667 34.5722 101.667C34.5722 101.667 49.5565 101.336 49.6049 101.82C50.0651 106.835 49.7583 118.649 49.3627 125.93C48.5069 141.557 47.6512 161.265 47.199 170.57C46.5047 185.004 42.6618 205.365 39.3921 211.985C35.977 218.912 22.8012 216.437 22.1392 207.55V207.558Z" fill="#FAE2DB"/>
<path d="M27.1608 162.225C27.1608 162.225 23.7296 172.562 23.4551 180.827C23.1887 189.093 24.2705 199.535 25.3039 202.688L26.3373 205.841C26.3373 205.841 23.8184 201.712 23.2049 195.019C22.5913 188.327 22.01 179.287 23.3825 172.885C24.1575 169.264 23.0676 171.401 27.1528 162.225H27.1608Z" fill="#F0D7D4"/>
<path d="M34.5399 102.489C34.5399 102.489 34.992 100.054 34.0717 97.0945C33.1513 94.1432 30.6001 89.6598 28.9693 86.1924C27.3384 82.725 24.4805 78.04 27.6452 77.024C30.81 76.008 40.3932 73.1535 40.3932 73.1535C40.3932 73.1535 44.777 70.4038 48.6523 72.5406C52.5275 74.6775 63.031 81.709 63.031 81.709C63.031 81.709 65.7841 86.5956 60.5848 85.0716L58.9539 84.5635C58.9539 84.5635 59.7694 86.8052 57.1213 86.2972C54.4732 85.7892 51.7121 84.6684 51.7121 85.7892C51.7121 86.9101 52.4226 89.3534 50.6948 93.8367C48.9591 98.3201 49.6049 101.82 49.6049 101.82L48.6523 105.448L34.879 104.634L34.5319 102.489H34.5399Z" fill="#FAE2DB"/>
<path d="M58.2193 83.6766C58.2193 83.6766 53.682 81.6526 51.1792 79.9753C48.6765 78.2981 47.8611 75.7661 41.9675 77.1853L36.0739 78.6045L35.315 78.9835L37.8419 78.8787C37.8419 78.8787 41.9917 77.911 42.9605 77.6933C43.9293 77.4756 44.7366 76.7821 46.3513 77.4756C47.966 78.1691 49.0398 79.6286 50.2831 80.2173C51.5183 80.8059 52.4952 81.83 54.6427 82.4186C56.7903 83.0073 58.2112 83.6685 58.2112 83.6685L58.2193 83.6766Z" fill="#F6C5B9"/>
<path d="M26.2162 79.5721C26.2162 79.5721 23.2533 77.4353 25.4977 75.1936C27.7421 72.9519 34.984 65.8236 34.984 65.8236C34.984 65.8236 38.9642 60.937 42.7344 62.1546C46.5047 63.3803 48.515 64.6383 49.839 66.1704C51.1631 67.7024 55.8538 72.1778 55.8538 72.1778C55.8538 72.1778 59.1235 77.9755 53.0361 76.008C46.3836 73.8631 44.6721 69.4845 43.0412 69.5893C41.5073 69.6942 34.984 75.1936 34.984 75.1936L32.3359 79.9834L26.2162 79.5721Z" fill="#FAE2DB"/>
<path d="M26.2162 74.4759C26.2162 74.4759 26.7491 74.4437 27.1043 71.7262C27.4595 69.0088 27.9601 63.5174 27.9601 61.0177C27.9601 58.518 26.5311 55.8166 29.0339 54.0265C31.5285 52.2444 34.9597 49.3173 35.3876 48.8254C35.8155 48.3336 36.3887 47.253 38.2456 47.3256C40.1025 47.3982 41.2409 47.253 42.242 46.8257C43.2431 46.3983 50.5979 46.3257 45.3099 50.8172C41.2086 52.0993 39.0287 52.4541 38.3102 52.5992C37.5917 52.7444 35.5895 54.5587 34.5884 55.2683C33.5873 55.9779 33.8295 62.0256 34.0232 64.2915C34.217 66.5574 34.2412 69.0652 34.2412 69.0652L31.8111 72.9116L26.2082 74.4598L26.2162 74.4759Z" fill="#FAE2DB"/>
<defs>
<linearGradient id="paint0_linear_221_85" x1="67.7456" y1="125.374" x2="79.6503" y2="64.4232" gradientUnits="userSpaceOnUse">
<stop offset="0.34" stop-color="#FAE2DB"/>
<stop offset="1" stop-color="#EECAC0"/>
</linearGradient>
<linearGradient id="paint1_linear_221_85" x1="36.7734" y1="54.5782" x2="43.299" y2="54.3043" gradientUnits="userSpaceOnUse">
<stop stop-color="#D2D4D5"/>
<stop offset="0.14" stop-color="#87898A"/>
<stop offset="0.28" stop-color="#D1D2D3"/>
<stop offset="0.5" stop-color="#626365"/>
<stop offset="0.74" stop-color="#A3A5A6"/>
<stop offset="1" stop-color="#27282A"/>
</linearGradient>
<linearGradient id="paint2_linear_221_85" x1="52.5499" y1="50.2294" x2="55.0988" y2="50.1224" gradientUnits="userSpaceOnUse">
<stop stop-color="#D2D4D5"/>
<stop offset="0.14" stop-color="#87898A"/>
<stop offset="0.28" stop-color="#D1D2D3"/>
<stop offset="0.5" stop-color="#626365"/>
<stop offset="0.74" stop-color="#A3A5A6"/>
<stop offset="1" stop-color="#27282A"/>
</linearGradient>
<linearGradient id="paint3_linear_221_85" x1="49.0867" y1="52.8117" x2="58.734" y2="52.4069" gradientUnits="userSpaceOnUse">
<stop stop-color="#D2D4D5"/>
<stop offset="0.14" stop-color="#87898A"/>
<stop offset="0.28" stop-color="#D1D2D3"/>
<stop offset="0.5" stop-color="#626365"/>
<stop offset="0.74" stop-color="#A3A5A6"/>
<stop offset="1" stop-color="#27282A"/>
</linearGradient>
<linearGradient id="paint4_linear_221_85" x1="80.9354" y1="49.0411" x2="83.3794" y2="48.9386" gradientUnits="userSpaceOnUse">
<stop stop-color="#D2D4D5"/>
<stop offset="0.14" stop-color="#87898A"/>
<stop offset="0.28" stop-color="#D1D2D3"/>
<stop offset="0.5" stop-color="#626365"/>
<stop offset="0.74" stop-color="#A3A5A6"/>
<stop offset="1" stop-color="#27282A"/>
</linearGradient>
<linearGradient id="paint5_linear_221_85" x1="77.214" y1="51.6343" x2="87.4017" y2="51.2068" gradientUnits="userSpaceOnUse">
<stop stop-color="#D2D4D5"/>
<stop offset="0.14" stop-color="#87898A"/>
<stop offset="0.28" stop-color="#D1D2D3"/>
<stop offset="0.5" stop-color="#626365"/>
<stop offset="0.74" stop-color="#A3A5A6"/>
<stop offset="1" stop-color="#27282A"/>
</linearGradient>
<linearGradient id="paint6_linear_221_85" x1="56.1053" y1="53.3089" x2="77.247" y2="52.4217" gradientUnits="userSpaceOnUse">
<stop stop-color="#E9EBEB"/>
<stop offset="0.45" stop-color="#ACAEAF"/>
<stop offset="1" stop-color="#A1A3A4"/>
</linearGradient>
<linearGradient id="paint7_linear_221_85" x1="43.4904" y1="51.9322" x2="47.459" y2="51.7657" gradientUnits="userSpaceOnUse">
<stop stop-color="#D2D4D5"/>
<stop offset="0.14" stop-color="#87898A"/>
<stop offset="0.28" stop-color="#D1D2D3"/>
<stop offset="0.5" stop-color="#626365"/>
<stop offset="0.74" stop-color="#A3A5A6"/>
<stop offset="1" stop-color="#27282A"/>
</linearGradient>
<linearGradient id="paint8_linear_221_85" x1="42.4855" y1="53.5965" x2="48.6401" y2="53.3383" gradientUnits="userSpaceOnUse">
<stop stop-color="#D2D4D5"/>
<stop offset="0.14" stop-color="#87898A"/>
<stop offset="0.28" stop-color="#D1D2D3"/>
<stop offset="0.5" stop-color="#626365"/>
<stop offset="0.74" stop-color="#A3A5A6"/>
<stop offset="1" stop-color="#27282A"/>
</linearGradient>
<radialGradient id="paint9_radial_221_85" cx="0" cy="0" r="1" gradientUnits="userSpaceOnUse" gradientTransform="translate(66.7772 68.3914) rotate(-2.3971) scale(15.541 15.5222)">
<stop stop-color="#AFB0B0"/>
<stop offset="0.53" stop-color="#86878A"/>
<stop offset="1" stop-color="#555657"/>
</radialGradient>
<linearGradient id="paint10_linear_221_85" x1="53.7243" y1="65.4997" x2="81.8933" y2="72.1562" gradientUnits="userSpaceOnUse">
<stop stop-color="#404243"/>
<stop offset="0.53" stop-color="#292B2B"/>
<stop offset="1" stop-color="#101111"/>
</linearGradient>
<linearGradient id="paint11_linear_221_85" x1="56.1165" y1="69.1686" x2="78.444" y2="68.2317" gradientUnits="userSpaceOnUse">
<stop stop-color="#1C1F1F"/>
<stop offset="0.53" stop-color="#252727"/>
<stop offset="1" stop-color="#303031"/>
</linearGradient>
<radialGradient id="paint12_radial_221_85" cx="0" cy="0" r="1" gradientUnits="userSpaceOnUse" gradientTransform="translate(66.7772 68.3914) rotate(-2.3971) scale(7.05163 7.04313)">
<stop stop-color="#465D55"/>
<stop offset="0.45" stop-color="#040F0C"/>
<stop offset="1" stop-color="#001910"/>
</radialGradient>
<linearGradient id="paint13_linear_221_85" x1="140.867" y1="177.03" x2="130.465" y2="182.233" gradientUnits="userSpaceOnUse">
<stop stop-color="#FAE2DB"/>
<stop offset="0.87" stop-color="#F1CFC5"/>
<stop offset="1" stop-color="#F0CCC2"/>
</linearGradient>
<linearGradient id="paint14_linear_221_85" x1="144.436" y1="199.301" x2="146.123" y2="199.301" gradientUnits="userSpaceOnUse">
<stop stop-color="#FAE2DB"/>
<stop offset="0.87" stop-color="#F1CFC5"/>
<stop offset="1" stop-color="#F0CCC2"/>
</linearGradient>
</defs>
</svg>
