<?xml version="1.0" encoding="UTF-8"?>
<svg id="_圖層_1" data-name="圖層 1" xmlns="http://www.w3.org/2000/svg" viewBox="0 0 500 500">
  <defs>
    <style>
      .cls-1 {
        fill: #cc2f2c;
        stroke-linecap: round;
      }

      .cls-1, .cls-2, .cls-3, .cls-4, .cls-5, .cls-6, .cls-7, .cls-8 {
        stroke-miterlimit: 10;
      }

      .cls-1, .cls-2, .cls-3, .cls-4, .cls-5, .cls-6, .cls-8 {
        stroke: #000;
      }

      .cls-2 {
        fill: #fff;
      }

      .cls-3 {
        fill: #ffe3e3;
      }

      .cls-4 {
        fill: #ffcf03;
      }

      .cls-5 {
        fill: #e28686;
      }

      .cls-6 {
        fill: #6cd855;
      }

      .cls-7 {
        fill: #f9c0c0;
        stroke: #070707;
      }

      .cls-8 {
        fill: #fc3867;
      }

      .cls-9 {
        fill: #ccc;
      }

      .cls-9, .cls-10 {
        stroke-width: 0px;
      }

      .cls-10 {
        fill: #91881a;
      }
    </style>
  </defs>
  <path class="cls-10" d="m8.37,232.93c.07.09.14.17.22.25l-.23-.24h.01Z"/>
  <path class="cls-10" d="m23.61,218.51l.29.31c-.1-.1-.19-.2-.3-.3h.01Z"/>
  <path class="cls-10" d="m25.83,221.66c-.09-.18-.18-.36-.27-.53-.44-.82-.99-1.6-1.66-2.31l1.93,2.03.26.28c-.1.17-.19.35-.26.53Z"/>
  <path class="cls-10" d="m25.83,220.85l1.79-1.9c-.62.67-1.13,1.41-1.53,2.18-.1.17-.19.35-.26.53-.09-.18-.18-.36-.27-.53l.27-.28Z"/>
  <path class="cls-10" d="m28.04,218.51h.01c-.07.06-.13.12-.19.19l.18-.19Z"/>
  <path class="cls-10" d="m43.29,232.94l-.3.31c.1-.1.19-.21.29-.32h0Z"/>
  <g>
    <rect class="cls-7" x="194.53" y="100.94" width="183.02" height="298.12" rx="22.42" ry="22.42"/>
    <path class="cls-2" d="m368.54,141.93v228.36c0,6.79-4.5,12.52-10.67,14.39h-.01c-1.38.43-2.84.65-4.36.65h-134.92c-8.3,0-15.04-6.73-15.04-15.04v-228.36c0-8.31,6.74-15.05,15.04-15.05h134.92c8.3,0,15.04,6.74,15.04,15.05Z"/>
    <rect class="cls-5" x="122.45" y="156.2" width="235.93" height="161.13" rx="12.98" ry="12.98"/>
    <path class="cls-5" d="m357.87,341.7v42.98h-.01c-1.38.43-2.84.65-4.36.65h-134.92v-43.63c0-3.46,2.8-6.26,6.26-6.26h126.78c3.45,0,6.25,2.8,6.25,6.26Z"/>
    <circle class="cls-1" cx="145.82" cy="178.46" r="11.08"/>
    <rect class="cls-9" x="163.95" y="169.29" width="145.68" height="6.85"/>
    <rect class="cls-9" x="163.95" y="180.37" width="87.86" height="7.04"/>
    <rect class="cls-3" x="134.74" y="198.52" width="210.5" height="79.62"/>
    <polygon class="cls-9" points="135.09 255.64 191.17 217.35 217.12 242.16 266.19 201.04 302.97 241.45 344.72 211.67 344.72 277.62 135.09 277.62 135.09 255.64"/>
    <path class="cls-8" d="m151.84,294.89s-.08.1-.13.14l-1.21,1.28-6.46,6.83-6.46-6.83-1.19-1.26-.05-.06s-.07-.07-.1-.11c-1.65-1.89-1.53-4.75.31-6.49,1.84-1.74,4.71-1.7,6.5.05.05.04.09.09.13.13.3.32.54.67.74,1.03.04.08.08.16.12.24.03-.08.07-.16.12-.24.18-.34.41-.67.68-.97l.11-.11s.05-.06.08-.08c1.79-1.75,4.66-1.78,6.49-.04,1.84,1.73,1.96,4.6.31,6.49Z"/>
    <polygon class="cls-4" points="164.16 287.12 164.16 303.14 170.44 298.1 176.08 303.14 176.08 287.12 164.16 287.12"/>
    <polygon class="cls-6" points="326.58 292.16 344.72 285.87 337.03 304.39 335.34 295.03 326.58 292.16"/>
    <rect class="cls-2" x="255.51" y="110.47" width="61.05" height="5.39" rx="1.87" ry="1.87"/>
  </g>
</svg>