<?xml version="1.0" encoding="UTF-8"?>
<svg id="_圖層_1" data-name="圖層 1" xmlns="http://www.w3.org/2000/svg" viewBox="0 0 500 500">
  <defs>
    <style>
      .cls-1, .cls-2 {
        stroke-linecap: round;
      }

      .cls-1, .cls-2, .cls-3, .cls-4, .cls-5, .cls-6, .cls-7, .cls-8, .cls-9, .cls-10 {
        stroke-miterlimit: 10;
      }

      .cls-1, .cls-3, .cls-5, .cls-6, .cls-7, .cls-9, .cls-10 {
        stroke: #000;
      }

      .cls-1, .cls-10 {
        fill: none;
      }

      .cls-2 {
        fill: #fff3f3;
      }

      .cls-2, .cls-4, .cls-8 {
        stroke: #070707;
      }

      .cls-3 {
        fill: #fff;
      }

      .cls-4 {
        fill: #fee;
      }

      .cls-5 {
        fill: #ffcf03;
      }

      .cls-6 {
        fill: #e28686;
      }

      .cls-7 {
        fill: #6cd855;
      }

      .cls-8 {
        fill: #f9c0c0;
      }

      .cls-9 {
        fill: #fc3867;
      }
    </style>
  </defs>
  <rect class="cls-8" x="52.53" y="120.26" width="394.94" height="255.5" rx="21.58" ry="21.58"/>
  <path class="cls-6" d="m73.43,119.45h352.45c11.92,0,21.59,9.67,21.59,21.59v19.1H52.53v-19.79c0-11.54,9.37-20.9,20.9-20.9Z"/>
  <circle class="cls-5" cx="379.3" cy="139.79" r="11.46"/>
  <circle class="cls-7" cx="342.61" cy="139.79" r="11.46"/>
  <circle class="cls-9" cx="416" cy="139.79" r="11.46"/>
  <path class="cls-4" d="m427.46,202.23v163.06c0,3.86-1.15,7.46-3.13,10.47h-171.2c-1.98-3.01-3.13-6.61-3.13-10.47v-163.06c0-10.55,8.55-19.11,19.1-19.11h139.26c10.55,0,19.1,8.56,19.1,19.11Z"/>
  <line class="cls-10" x1="268.56" y1="214.49" x2="397.61" y2="214.49"/>
  <line class="cls-10" x1="268.56" y1="234.76" x2="318.56" y2="234.76"/>
  <line class="cls-10" x1="329.07" y1="234.76" x2="379.07" y2="234.76"/>
  <line class="cls-10" x1="268.56" y1="255.03" x2="359.95" y2="255.03"/>
  <line class="cls-10" x1="268.56" y1="275.3" x2="390.77" y2="275.3"/>
  <path class="cls-3" d="m426.68,377.89l-6.86,2.38c-1.05.37-1.61,1.52-1.25,2.57l3.73,10.75c.37,1.05-.19,2.2-1.25,2.57l-8.16,2.83c-1.05.37-2.2-.19-2.57-1.25l-3.73-10.75c-.37-1.05-1.52-1.61-2.57-1.25l-6.87,2.38c-1.54.54-3.05-.89-2.6-2.46l3.59-12.6,3.87-13.56c.38-1.35,1.99-1.9,3.12-1.08l11.44,8.25,10.62,7.66c1.33.96,1.02,3.01-.52,3.54Z"/>
  <line class="cls-1" x1="394.48" y1="365.06" x2="387.13" y2="365.06"/>
  <line class="cls-1" x1="401.99" y1="346.5" x2="402.87" y2="354"/>
  <line class="cls-1" x1="398.33" y1="358.05" x2="387.09" y2="350.58"/>
  <rect class="cls-2" x="74.52" y="183.12" width="154.26" height="31.38" rx="5.75" ry="5.75"/>
  <rect class="cls-2" x="74.52" y="223.65" width="154.26" height="66.45" rx="8.36" ry="8.36"/>
</svg>