<svg width="504" height="232" viewBox="0 0 504 232" fill="none" xmlns="http://www.w3.org/2000/svg">
<rect width="504" height="232" fill="white"/>
<ellipse cx="36.5" cy="64" rx="21.5" ry="22" fill="#613194"/>
<circle cx="89" cy="64" r="22" fill="#F9C927"/>
<circle cx="141" cy="64" r="22" fill="#FE346E"/>
<circle cx="193" cy="116" r="22" fill="#A1E0F4"/>
<ellipse cx="245.5" cy="64" rx="21.5" ry="22" fill="#FBF9F6"/>
<ellipse cx="36.5" cy="116" rx="21.5" ry="22" fill="#DEC8D5"/>
<circle cx="89" cy="116" r="22" fill="#F4E1A2"/>
<circle cx="141" cy="116" r="22" fill="#E99EB3"/>
<circle cx="193" cy="64" r="22" fill="#52C9EF"/>
<ellipse cx="245.5" cy="116" rx="21.5" ry="22" fill="#DEC8D5"/>
<ellipse cx="36.5" cy="168" rx="21.5" ry="22" fill="#9B77C2"/>
<path d="M60.5 168C60.5 181.541 49.7454 192.5 36.5 192.5C23.2546 192.5 12.5 181.541 12.5 168C12.5 154.459 23.2546 143.5 36.5 143.5C49.7454 143.5 60.5 154.459 60.5 168Z" stroke="black"/>
<circle cx="89" cy="168" r="22" fill="#C29A12"/>
<circle cx="141" cy="168" r="22" fill="#A21940"/>
<circle cx="193" cy="168" r="22" fill="#249CC3"/>
<ellipse cx="245.5" cy="168" rx="21.5" ry="22" fill="#3A363E"/>
<rect x="301" y="18.4735" width="71.6539" height="20.899" rx="3.98077" fill="#9B77C2"/>
<rect x="301" y="62.262" width="71.6539" height="20.899" rx="3.98077" fill="#FE346E"/>
<rect x="301" y="106.05" width="71.6539" height="20.899" rx="3.98077" fill="#F9C927"/>
<rect x="301" y="149.839" width="71.6539" height="20.899" rx="3.98077" fill="#52C9EF"/>
<rect x="301" y="193.627" width="71.6539" height="20.899" rx="3.98077" fill="#3A363E"/>
<path d="M384.779 26H383.609V17.3657H384.779V21.0798H389.055V17.3657H390.225V26H389.055V22.1665H384.779V26ZM397.494 26H392.227V17.3657H397.494V18.4405H392.86L393.398 17.9748V21.1395H397.088V22.1785H393.398V25.4029L392.86 24.9132H397.494V26ZM401.34 21.6888L398.39 17.3657H399.787L401.137 19.2884C401.328 19.5671 401.495 19.8298 401.638 20.0766C401.789 20.3234 401.929 20.5662 402.056 20.8051L404.337 17.3657H405.687L402.797 21.6769L405.722 26H404.337L403.011 24.1012C402.844 23.8623 402.681 23.6115 402.522 23.3488C402.363 23.0861 402.211 22.8313 402.068 22.5845L399.751 26H398.378L401.34 21.6888ZM413.21 17.3657L411.514 26H410.403L412.099 17.3657H413.21ZM416.16 17.3657L414.464 26H413.353L415.037 17.3657H416.16ZM410.248 19.7661H416.924L416.721 20.817H410.033L410.248 19.7661ZM409.89 22.5487H416.482L416.279 23.5996H409.675L409.89 22.5487ZM423.078 23.2652L421.059 26H419.698L422.17 22.7159L422.433 22.7995C422.202 22.9667 421.959 23.094 421.704 23.1816C421.457 23.2692 421.207 23.313 420.952 23.313C420.355 23.313 419.829 23.1816 419.376 22.9189C418.93 22.6562 418.579 22.2979 418.325 21.8441C418.078 21.3903 417.954 20.8767 417.954 20.3035C417.954 19.7064 418.09 19.177 418.36 18.7152C418.639 18.2455 419.013 17.8792 419.483 17.6165C419.961 17.3458 420.498 17.2105 421.095 17.2105C421.692 17.2105 422.23 17.3498 422.707 17.6284C423.193 17.8991 423.575 18.2693 423.854 18.7391C424.133 19.2008 424.272 19.7263 424.272 20.3155C424.272 20.6498 424.232 20.9683 424.152 21.2708C424.081 21.5654 423.957 21.8719 423.782 22.1904C423.607 22.5009 423.372 22.8592 423.078 23.2652ZM423.078 20.3035C423.078 19.9054 422.994 19.5551 422.827 19.2526C422.66 18.9421 422.425 18.6993 422.122 18.5241C421.828 18.349 421.485 18.2614 421.095 18.2614C420.713 18.2614 420.375 18.349 420.08 18.5241C419.786 18.6993 419.555 18.9421 419.387 19.2526C419.22 19.5551 419.137 19.9054 419.137 20.3035C419.137 20.6936 419.22 21.0439 419.387 21.3544C419.555 21.657 419.786 21.8958 420.08 22.071C420.375 22.2382 420.713 22.3218 421.095 22.3218C421.485 22.3218 421.828 22.2382 422.122 22.071C422.425 21.8958 422.66 21.657 422.827 21.3544C422.994 21.0439 423.078 20.6936 423.078 20.3035ZM426.939 17.3657V26H425.769V17.3657H426.939ZM429.16 22.1904H426.616V21.1753H429.065C429.55 21.1753 429.925 21.0519 430.187 20.8051C430.45 20.5583 430.581 20.208 430.581 19.7542C430.581 19.3242 430.442 18.9938 430.163 18.763C429.893 18.5241 429.503 18.4047 428.993 18.4047H426.413V17.3657H429.065C429.909 17.3657 430.569 17.5687 431.047 17.9748C431.533 18.3808 431.776 18.9381 431.776 19.6467C431.776 20.1801 431.644 20.626 431.381 20.9842C431.127 21.3345 430.749 21.5893 430.247 21.7485V21.5933C430.804 21.7286 431.222 21.9754 431.501 22.3337C431.788 22.684 431.931 23.1378 431.931 23.6951C431.931 24.1728 431.819 24.5868 431.596 24.9371C431.381 25.2795 431.067 25.5422 430.653 25.7253C430.239 25.9084 429.749 26 429.184 26H426.413V24.961H429.16C429.662 24.961 430.048 24.8376 430.319 24.5908C430.589 24.344 430.725 23.9977 430.725 23.5518C430.725 23.1219 430.585 22.7875 430.307 22.5487C430.036 22.3098 429.654 22.1904 429.16 22.1904ZM432.488 17.3657H438.519V18.4405H432.488V17.3657ZM437.611 17.8195L438.519 18.4405L435.247 26H434.029L437.611 17.8195ZM439.287 17.3657H445.318V18.4405H439.287V17.3657ZM444.411 17.8195L445.318 18.4405L442.046 26H440.828L444.411 17.8195ZM449.982 26.1314C449.162 26.1314 448.445 25.9483 447.832 25.582C447.219 25.2078 446.742 24.6903 446.399 24.0295C446.057 23.3607 445.886 22.5805 445.886 21.6888C445.886 20.7971 446.061 20.0169 446.411 19.3481C446.762 18.6794 447.247 18.1579 447.868 17.7837C448.497 17.4095 449.222 17.2224 450.042 17.2224C450.695 17.2224 451.284 17.3458 451.809 17.5926C452.335 17.8315 452.773 18.1698 453.123 18.6077C453.473 19.0456 453.7 19.5591 453.804 20.1483H452.55C452.39 19.583 452.084 19.1411 451.63 18.8227C451.176 18.5042 450.635 18.345 450.006 18.345C449.425 18.345 448.915 18.4843 448.477 18.763C448.047 19.0337 447.713 19.4198 447.474 19.9214C447.235 20.415 447.116 21.0002 447.116 21.6769C447.116 22.3457 447.235 22.9308 447.474 23.4324C447.713 23.934 448.051 24.3241 448.489 24.6027C448.927 24.8734 449.433 25.0088 450.006 25.0088C450.643 25.0088 451.192 24.8535 451.654 24.543C452.124 24.2246 452.438 23.7986 452.597 23.2652H453.839C453.72 23.8384 453.477 24.34 453.111 24.7699C452.753 25.1999 452.303 25.5342 451.761 25.7731C451.228 26.0119 450.635 26.1314 449.982 26.1314ZM460.649 25.9881L454.821 26V25.1043L457.603 22.7039C457.954 22.4093 458.244 22.1426 458.475 21.9038C458.706 21.6649 458.889 21.446 459.024 21.247C459.16 21.04 459.255 20.8369 459.311 20.6379C459.367 20.4389 459.395 20.2239 459.395 19.993C459.395 19.4516 459.247 19.0297 458.953 18.7271C458.666 18.4166 458.26 18.2614 457.735 18.2614C457.201 18.2614 456.771 18.4445 456.445 18.8107C456.126 19.169 455.963 19.6547 455.955 20.2677H454.785C454.801 19.6547 454.932 19.1172 455.179 18.6555C455.426 18.1937 455.768 17.8394 456.206 17.5926C456.652 17.3378 457.165 17.2105 457.747 17.2105C458.328 17.2105 458.829 17.3219 459.251 17.5448C459.673 17.7678 460 18.0823 460.231 18.4883C460.469 18.8864 460.589 19.3641 460.589 19.9214C460.589 20.2239 460.549 20.5145 460.469 20.7932C460.39 21.0638 460.262 21.3345 460.087 21.6052C459.92 21.868 459.701 22.1426 459.43 22.4292C459.16 22.7079 458.833 23.0144 458.451 23.3488L456.194 25.3073L455.8 24.9013H460.649V25.9881ZM384.779 41H383.609V32.3657H386.869C387.793 32.3657 388.513 32.5966 389.031 33.0584C389.556 33.5122 389.819 34.1451 389.819 34.9572C389.819 35.5543 389.672 36.0599 389.377 36.4739C389.09 36.8879 388.68 37.1824 388.147 37.3576L389.903 41H388.601L386.989 37.5845H384.779V41ZM384.779 33.4166V36.5455H386.881C387.423 36.5455 387.841 36.4062 388.135 36.1275C388.438 35.8489 388.589 35.4627 388.589 34.9691C388.589 34.4676 388.434 34.0854 388.123 33.8227C387.821 33.552 387.403 33.4166 386.869 33.4166H384.779ZM395.09 33.3211C394.469 33.3211 393.935 33.4644 393.49 33.751C393.044 34.0376 392.701 34.4357 392.463 34.9452C392.224 35.4548 392.104 36.0519 392.104 36.7366C392.104 37.4292 392.228 38.0224 392.475 38.516C392.729 39.0096 393.084 39.3878 393.537 39.6505C393.991 39.9053 394.513 40.0327 395.102 40.0327C395.476 40.0327 395.822 39.9849 396.141 39.8894C396.459 39.7938 396.738 39.6465 396.977 39.4475C397.216 39.2405 397.403 38.9778 397.538 38.6593C397.681 38.3408 397.753 37.9667 397.753 37.5367V36.7247L398.302 37.2859H394.863V36.247H398.852V41.0119H397.872L397.753 39.4117L397.908 39.6027C397.781 39.8894 397.578 40.1481 397.299 40.379C397.021 40.6099 396.686 40.797 396.296 40.9403C395.906 41.0756 395.476 41.1433 395.006 41.1433C394.194 41.1433 393.478 40.9602 392.857 40.594C392.236 40.2198 391.75 39.7023 391.4 39.0415C391.049 38.3807 390.874 37.6044 390.874 36.7127C390.874 35.8369 391.049 35.0607 391.4 34.384C391.758 33.7072 392.256 33.1778 392.893 32.7956C393.529 32.4135 394.27 32.2224 395.114 32.2224C395.743 32.2224 396.316 32.3378 396.833 32.5687C397.351 32.7917 397.777 33.1101 398.111 33.5241C398.454 33.9302 398.669 34.4118 398.756 34.9691H397.514C397.355 34.4198 397.052 34.0098 396.607 33.7391C396.169 33.4604 395.663 33.3211 395.09 33.3211ZM401.69 32.3657V41H400.519V32.3657H401.69ZM403.911 37.1904H401.367V36.1753H403.816C404.301 36.1753 404.675 36.0519 404.938 35.8051C405.201 35.5583 405.332 35.208 405.332 34.7542C405.332 34.3242 405.193 33.9938 404.914 33.763C404.644 33.5241 404.253 33.4047 403.744 33.4047H401.164V32.3657H403.816C404.659 32.3657 405.32 32.5687 405.798 32.9748C406.284 33.3808 406.526 33.9381 406.526 34.6467C406.526 35.1801 406.395 35.626 406.132 35.9842C405.878 36.3345 405.499 36.5893 404.998 36.7485V36.5933C405.555 36.7286 405.973 36.9754 406.252 37.3337C406.538 37.684 406.682 38.1378 406.682 38.6951C406.682 39.1728 406.57 39.5868 406.347 39.9371C406.132 40.2795 405.818 40.5422 405.404 40.7253C404.99 40.9084 404.5 41 403.935 41H401.164V39.961H403.911C404.413 39.961 404.799 39.8376 405.069 39.5908C405.34 39.344 405.476 38.9977 405.476 38.5518C405.476 38.1219 405.336 37.7875 405.058 37.5487C404.787 37.3098 404.405 37.1904 403.911 37.1904ZM412.642 33.4166H410.827V32.3657H413.765V41H412.642V33.4166ZM418.2 41.1433C417.61 41.1433 417.097 41.0279 416.659 40.797C416.229 40.5581 415.891 40.2277 415.644 39.8058C415.405 39.3758 415.286 38.8743 415.286 38.301H416.444C416.444 38.8583 416.603 39.2962 416.922 39.6147C417.24 39.9332 417.674 40.0924 418.223 40.0924C418.614 40.0924 418.952 40.0128 419.239 39.8535C419.525 39.6863 419.748 39.4594 419.907 39.1728C420.067 38.8782 420.146 38.5359 420.146 38.1458C420.146 37.7716 420.071 37.4412 419.919 37.1546C419.768 36.86 419.549 36.6291 419.262 36.4619C418.984 36.2947 418.641 36.2111 418.235 36.2111C417.877 36.2111 417.539 36.2907 417.22 36.45C416.902 36.6012 416.643 36.8003 416.444 37.0471L415.453 36.7963L416.504 32.3657H420.827V33.4405H416.934L417.471 32.9628L416.671 36.1753L416.277 36.2589C416.5 35.9166 416.802 35.6578 417.184 35.4827C417.567 35.2995 417.989 35.208 418.45 35.208C419.04 35.208 419.549 35.3354 419.979 35.5901C420.409 35.8369 420.743 36.1793 420.982 36.6172C421.221 37.0551 421.34 37.5487 421.34 38.098C421.34 38.6951 421.205 39.2246 420.934 39.6863C420.672 40.1402 420.305 40.4984 419.836 40.7612C419.374 41.0159 418.829 41.1433 418.2 41.1433ZM425.255 41.1433C424.666 41.1433 424.153 41.0279 423.715 40.797C423.285 40.5581 422.947 40.2277 422.7 39.8058C422.461 39.3758 422.341 38.8743 422.341 38.301H423.5C423.5 38.8583 423.659 39.2962 423.978 39.6147C424.296 39.9332 424.73 40.0924 425.279 40.0924C425.669 40.0924 426.008 40.0128 426.294 39.8535C426.581 39.6863 426.804 39.4594 426.963 39.1728C427.122 38.8782 427.202 38.5359 427.202 38.1458C427.202 37.7716 427.126 37.4412 426.975 37.1546C426.824 36.86 426.605 36.6291 426.318 36.4619C426.04 36.2947 425.697 36.2111 425.291 36.2111C424.933 36.2111 424.595 36.2907 424.276 36.45C423.958 36.6012 423.699 36.8003 423.5 37.0471L422.509 36.7963L423.56 32.3657H427.883V33.4405H423.989L424.527 32.9628L423.727 36.1753L423.333 36.2589C423.556 35.9166 423.858 35.6578 424.24 35.4827C424.622 35.2995 425.044 35.208 425.506 35.208C426.095 35.208 426.605 35.3354 427.035 35.5901C427.465 35.8369 427.799 36.1793 428.038 36.6172C428.277 37.0551 428.396 37.5487 428.396 38.098C428.396 38.6951 428.261 39.2246 427.99 39.6863C427.727 40.1402 427.361 40.4984 426.891 40.7612C426.43 41.0159 425.884 41.1433 425.255 41.1433ZM430.418 40.8925L430.514 40.8686C430.466 40.9164 430.406 40.9522 430.335 40.9761C430.271 41 430.191 41.0119 430.096 41.0119C429.905 41.0119 429.733 40.9482 429.582 40.8209C429.439 40.6855 429.367 40.5064 429.367 40.2835C429.367 40.0446 429.439 39.8496 429.582 39.6983C429.733 39.5391 429.929 39.4594 430.167 39.4594C430.422 39.4594 430.637 39.555 430.812 39.7461C430.987 39.9371 431.075 40.1999 431.075 40.5342C431.075 40.8209 431.007 41.0836 430.872 41.3224C430.745 41.5693 430.569 41.7683 430.346 41.9196C430.124 42.0788 429.869 42.1783 429.582 42.2181V41.7165C429.821 41.6688 430.02 41.5693 430.179 41.418C430.339 41.2747 430.418 41.0995 430.418 40.8925ZM437.378 33.4166H435.563V32.3657H438.501V41H437.378V33.4166ZM441.623 33.4166H439.808V32.3657H442.746V41H441.623V33.4166ZM449.353 38.2652L447.335 41H445.973L448.445 37.7159L448.708 37.7995C448.477 37.9667 448.234 38.094 447.98 38.1816C447.733 38.2692 447.482 38.313 447.227 38.313C446.63 38.313 446.105 38.1816 445.651 37.9189C445.205 37.6562 444.855 37.2979 444.6 36.8441C444.353 36.3903 444.23 35.8767 444.23 35.3035C444.23 34.7064 444.365 34.177 444.636 33.7152C444.915 33.2455 445.289 32.8792 445.758 32.6165C446.236 32.3458 446.774 32.2105 447.371 32.2105C447.968 32.2105 448.505 32.3498 448.983 32.6284C449.469 32.8991 449.851 33.2693 450.129 33.7391C450.408 34.2008 450.547 34.7263 450.547 35.3155C450.547 35.6498 450.507 35.9683 450.428 36.2708C450.356 36.5654 450.233 36.8719 450.058 37.1904C449.883 37.5009 449.648 37.8592 449.353 38.2652ZM449.353 35.3035C449.353 34.9054 449.269 34.5551 449.102 34.2526C448.935 33.9421 448.7 33.6993 448.398 33.5241C448.103 33.349 447.761 33.2614 447.371 33.2614C446.988 33.2614 446.65 33.349 446.356 33.5241C446.061 33.6993 445.83 33.9421 445.663 34.2526C445.496 34.5551 445.412 34.9054 445.412 35.3035C445.412 35.6936 445.496 36.0439 445.663 36.3544C445.83 36.657 446.061 36.8958 446.356 37.071C446.65 37.2382 446.988 37.3218 447.371 37.3218C447.761 37.3218 448.103 37.2382 448.398 37.071C448.7 36.8958 448.935 36.657 449.102 36.3544C449.269 36.0439 449.353 35.6936 449.353 35.3035ZM452.39 40.8925L452.486 40.8686C452.438 40.9164 452.378 40.9522 452.307 40.9761C452.243 41 452.163 41.0119 452.068 41.0119C451.877 41.0119 451.705 40.9482 451.554 40.8209C451.411 40.6855 451.339 40.5064 451.339 40.2835C451.339 40.0446 451.411 39.8496 451.554 39.6983C451.705 39.5391 451.901 39.4594 452.139 39.4594C452.394 39.4594 452.609 39.555 452.784 39.7461C452.959 39.9371 453.047 40.1999 453.047 40.5342C453.047 40.8209 452.979 41.0836 452.844 41.3224C452.717 41.5693 452.541 41.7683 452.318 41.9196C452.096 42.0788 451.841 42.1783 451.554 42.2181V41.7165C451.793 41.6688 451.992 41.5693 452.151 41.418C452.311 41.2747 452.39 41.0995 452.39 40.8925ZM459.35 33.4166H457.535V32.3657H460.473V41H459.35V33.4166ZM467.08 38.2652L465.062 41H463.7L466.172 37.7159L466.435 37.7995C466.204 37.9667 465.961 38.094 465.707 38.1816C465.46 38.2692 465.209 38.313 464.954 38.313C464.357 38.313 463.832 38.1816 463.378 37.9189C462.932 37.6562 462.582 37.2979 462.327 36.8441C462.08 36.3903 461.957 35.8767 461.957 35.3035C461.957 34.7064 462.092 34.177 462.363 33.7152C462.641 33.2455 463.016 32.8792 463.485 32.6165C463.963 32.3458 464.5 32.2105 465.098 32.2105C465.695 32.2105 466.232 32.3498 466.71 32.6284C467.195 32.8991 467.578 33.2693 467.856 33.7391C468.135 34.2008 468.274 34.7263 468.274 35.3155C468.274 35.6498 468.234 35.9683 468.155 36.2708C468.083 36.5654 467.96 36.8719 467.785 37.1904C467.609 37.5009 467.375 37.8592 467.08 38.2652ZM467.08 35.3035C467.08 34.9054 466.996 34.5551 466.829 34.2526C466.662 33.9421 466.427 33.6993 466.125 33.5241C465.83 33.349 465.488 33.2614 465.098 33.2614C464.715 33.2614 464.377 33.349 464.082 33.5241C463.788 33.6993 463.557 33.9421 463.39 34.2526C463.223 34.5551 463.139 34.9054 463.139 35.3035C463.139 35.6936 463.223 36.0439 463.39 36.3544C463.557 36.657 463.788 36.8958 464.082 37.071C464.377 37.2382 464.715 37.3218 465.098 37.3218C465.488 37.3218 465.83 37.2382 466.125 37.071C466.427 36.8958 466.662 36.657 466.829 36.3544C466.996 36.0439 467.08 35.6936 467.08 35.3035ZM474.46 32.3657V41H473.337V32.3657H474.46ZM468.871 38.2174L472.943 32.3657H474.197L470.089 38.2891L468.871 38.2174ZM475.487 39.2564H468.871V38.2174H475.487V39.2564Z" fill="#3A363E"/>
<path d="M384.282 69.7885H383.111V61.1542H384.282V64.8683H388.557V61.1542H389.727V69.7885H388.557V65.955H384.282V69.7885ZM396.996 69.7885H391.73V61.1542H396.996V62.229H392.363L392.9 61.7633V64.928H396.59V65.9669H392.9V69.1914L392.363 68.7017H396.996V69.7885ZM400.842 65.4773L397.892 61.1542H399.289L400.639 63.0769C400.83 63.3556 400.997 63.6183 401.14 63.8651C401.292 64.1119 401.431 64.3547 401.558 64.5936L403.839 61.1542H405.189L402.299 65.4654L405.225 69.7885H403.839L402.514 67.8897C402.347 67.6508 402.183 67.4 402.024 67.1373C401.865 66.8746 401.714 66.6198 401.57 66.373L399.254 69.7885H397.88L400.842 65.4773ZM412.712 61.1542L411.016 69.7885H409.906L411.602 61.1542H412.712ZM415.662 61.1542L413.966 69.7885H412.856L414.539 61.1542H415.662ZM409.751 63.5546H416.426L416.223 64.6055H409.536L409.751 63.5546ZM409.392 66.3372H415.984L415.781 67.3881H409.177L409.392 66.3372ZM419.141 61.1542V69.7885H417.97V61.1542H419.141ZM423.177 62.229H418.054V61.1542H423.177V62.229ZM422.532 66.1222H418.03V65.0593H422.532V66.1222ZM429.861 69.7885H424.595V61.1542H429.861V62.229H425.227L425.765 61.7633V64.928H429.455V65.9669H425.765V69.1914L425.227 68.7017H429.861V69.7885ZM436.68 62.0976L433.516 65.119L432.751 64.5458L435.808 61.608L435.749 62.1932H431.318V61.1542H436.68V62.0976ZM433.611 65.3221H432.751V64.5458C432.887 64.4582 433.054 64.4025 433.253 64.3786C433.46 64.3468 433.659 64.3308 433.85 64.3308C434.272 64.3308 434.666 64.3945 435.032 64.5219C435.398 64.6413 435.721 64.8205 436 65.0593C436.286 65.2982 436.505 65.5888 436.656 65.9311C436.816 66.2655 436.895 66.6477 436.895 67.0776C436.895 67.6588 436.76 68.1643 436.489 68.5943C436.226 69.0242 435.86 69.3546 435.39 69.5855C434.929 69.8163 434.407 69.9318 433.826 69.9318C433.261 69.9318 432.759 69.8203 432.321 69.5974C431.883 69.3745 431.537 69.052 431.282 68.6301C431.036 68.2002 430.912 67.6906 430.912 67.1015H432.071C432.071 67.6588 432.23 68.0967 432.548 68.4151C432.875 68.7256 433.309 68.8809 433.85 68.8809C434.407 68.8809 434.853 68.7137 435.187 68.3793C435.53 68.0449 435.701 67.603 435.701 67.0537C435.701 66.5362 435.526 66.1182 435.176 65.7998C434.825 65.4813 434.304 65.3221 433.611 65.3221ZM443.325 61.1542V69.7885H442.202V61.1542H443.325ZM437.736 67.0059L441.808 61.1542H443.062L438.954 67.0776L437.736 67.0059ZM444.352 68.0449H437.736V67.0059H444.352V68.0449ZM446.419 63.889L448.437 61.1542H449.799L447.327 64.4383L447.064 64.3547C447.295 64.1796 447.534 64.0522 447.781 63.9726C448.035 63.885 448.29 63.8412 448.545 63.8412C449.142 63.8412 449.664 63.9726 450.109 64.2353C450.563 64.4901 450.913 64.8444 451.16 65.2982C451.415 65.752 451.542 66.2655 451.542 66.8387C451.542 67.4438 451.403 67.9812 451.124 68.4509C450.854 68.9127 450.48 69.275 450.002 69.5377C449.532 69.8004 448.999 69.9318 448.402 69.9318C447.805 69.9318 447.263 69.7964 446.777 69.5258C446.3 69.2551 445.922 68.8848 445.643 68.4151C445.364 67.9454 445.225 67.4199 445.225 66.8387C445.225 66.4964 445.261 66.1779 445.332 65.8833C445.412 65.5888 445.539 65.2823 445.715 64.9638C445.89 64.6453 446.125 64.2871 446.419 63.889ZM446.419 66.8507C446.419 67.2488 446.503 67.603 446.67 67.9135C446.837 68.2161 447.068 68.4549 447.363 68.6301C447.665 68.7973 448.012 68.8809 448.402 68.8809C448.784 68.8809 449.122 68.7973 449.417 68.6301C449.711 68.4549 449.942 68.2161 450.109 67.9135C450.277 67.603 450.36 67.2488 450.36 66.8507C450.36 66.4526 450.277 66.1023 450.109 65.7998C449.942 65.4972 449.711 65.2623 449.417 65.0952C449.122 64.92 448.784 64.8324 448.402 64.8324C448.012 64.8324 447.665 64.92 447.363 65.0952C447.068 65.2623 446.837 65.4972 446.67 65.7998C446.503 66.1023 446.419 66.4526 446.419 66.8507ZM458.306 69.7885H453.039V61.1542H458.306V62.229H453.672L454.21 61.7633V64.928H457.9V65.9669H454.21V69.1914L453.672 68.7017H458.306V69.7885ZM384.282 84.7885H383.111V76.1542H386.372C387.295 76.1542 388.016 76.3851 388.533 76.8468C389.059 77.3007 389.321 77.9336 389.321 78.7457C389.321 79.3428 389.174 79.8483 388.879 80.2623C388.593 80.6763 388.183 80.9709 387.649 81.1461L389.405 84.7885H388.103L386.491 81.373H384.282V84.7885ZM384.282 77.2051V80.334H386.384C386.925 80.334 387.343 80.1947 387.637 79.916C387.94 79.6374 388.091 79.2512 388.091 78.7576C388.091 78.256 387.936 77.8739 387.626 77.6112C387.323 77.3405 386.905 77.2051 386.372 77.2051H384.282ZM394.592 77.1096C393.971 77.1096 393.438 77.2529 392.992 77.5395C392.546 77.8261 392.204 78.2242 391.965 78.7337C391.726 79.2433 391.607 79.8404 391.607 80.5251C391.607 81.2177 391.73 81.8109 391.977 82.3045C392.232 82.7981 392.586 83.1763 393.04 83.439C393.494 83.6938 394.015 83.8212 394.604 83.8212C394.978 83.8212 395.325 83.7734 395.643 83.6778C395.962 83.5823 396.24 83.435 396.479 83.236C396.718 83.029 396.905 82.7663 397.04 82.4478C397.184 82.1293 397.255 81.7551 397.255 81.3252V80.5131L397.805 81.0744H394.365V80.0354H398.354V84.8004H397.375L397.255 83.2002L397.411 83.3912C397.283 83.6778 397.08 83.9366 396.802 84.1675C396.523 84.3984 396.189 84.5855 395.798 84.7288C395.408 84.8641 394.978 84.9318 394.509 84.9318C393.697 84.9318 392.98 84.7487 392.359 84.3824C391.738 84.0083 391.252 83.4908 390.902 82.8299C390.552 82.1691 390.377 81.3929 390.377 80.5012C390.377 79.6254 390.552 78.8492 390.902 78.1724C391.26 77.4957 391.758 76.9663 392.395 76.5841C393.032 76.202 393.772 76.0109 394.616 76.0109C395.245 76.0109 395.818 76.1263 396.336 76.3572C396.853 76.5801 397.279 76.8986 397.614 77.3126C397.956 77.7186 398.171 78.2003 398.259 78.7576H397.017C396.857 78.2083 396.555 77.7983 396.109 77.5276C395.671 77.2489 395.166 77.1096 394.592 77.1096ZM401.192 76.1542V84.7885H400.022V76.1542H401.192ZM403.413 80.9789H400.87V79.9638H403.318C403.804 79.9638 404.178 79.8404 404.44 79.5936C404.703 79.3468 404.835 78.9965 404.835 78.5427C404.835 78.1127 404.695 77.7823 404.417 77.5514C404.146 77.3126 403.756 77.1932 403.246 77.1932H400.667V76.1542H403.318C404.162 76.1542 404.823 76.3572 405.3 76.7633C405.786 77.1693 406.029 77.7266 406.029 78.4352C406.029 78.9686 405.897 79.4144 405.635 79.7727C405.38 80.123 405.002 80.3778 404.5 80.537V80.3818C405.058 80.5171 405.475 80.7639 405.754 81.1222C406.041 81.4725 406.184 81.9263 406.184 82.4836C406.184 82.9613 406.073 83.3753 405.85 83.7256C405.635 84.068 405.32 84.3307 404.906 84.5138C404.492 84.6969 404.003 84.7885 403.437 84.7885H400.667V83.7495H403.413C403.915 83.7495 404.301 83.6261 404.572 83.3793C404.843 83.1325 404.978 82.7862 404.978 82.3403C404.978 81.9104 404.839 81.576 404.56 81.3372C404.289 81.0983 403.907 80.9789 403.413 80.9789ZM416.289 84.7765L410.461 84.7885V83.8928L413.243 81.4924C413.594 81.1978 413.884 80.9311 414.115 80.6923C414.346 80.4534 414.529 80.2345 414.664 80.0354C414.8 79.8284 414.895 79.6254 414.951 79.4264C415.007 79.2273 415.035 79.0124 415.035 78.7815C415.035 78.2401 414.887 77.8182 414.593 77.5156C414.306 77.2051 413.9 77.0499 413.375 77.0499C412.841 77.0499 412.411 77.233 412.085 77.5992C411.766 77.9575 411.603 78.4431 411.595 79.0562H410.425C410.441 78.4431 410.572 77.9057 410.819 77.444C411.066 76.9822 411.408 76.6279 411.846 76.3811C412.292 76.1263 412.805 75.9989 413.387 75.9989C413.968 75.9989 414.469 76.1104 414.891 76.3333C415.313 76.5563 415.64 76.8707 415.871 77.2768C416.109 77.6748 416.229 78.1525 416.229 78.7098C416.229 79.0124 416.189 79.303 416.109 79.5816C416.03 79.8523 415.902 80.123 415.727 80.3937C415.56 80.6564 415.341 80.9311 415.07 81.2177C414.8 81.4964 414.473 81.8029 414.091 82.1373L411.834 84.0958L411.44 83.6898H416.289V84.7765ZM420.186 84.9318C419.597 84.9318 419.083 84.8163 418.645 84.5855C418.216 84.3466 417.877 84.0162 417.63 83.5943C417.392 83.1643 417.272 82.6628 417.272 82.0895H418.431C418.431 82.6468 418.59 83.0847 418.908 83.4032C419.227 83.7216 419.661 83.8809 420.21 83.8809C420.6 83.8809 420.938 83.8013 421.225 83.642C421.512 83.4748 421.735 83.2479 421.894 82.9613C422.053 82.6667 422.133 82.3244 422.133 81.9343C422.133 81.5601 422.057 81.2297 421.906 80.9431C421.754 80.6485 421.536 80.4176 421.249 80.2504C420.97 80.0832 420.628 79.9996 420.222 79.9996C419.864 79.9996 419.525 80.0792 419.207 80.2385C418.888 80.3897 418.63 80.5888 418.431 80.8356L417.439 80.5848L418.49 76.1542H422.813V77.229H418.92L419.458 76.7513L418.657 79.9638L418.263 80.0474C418.486 79.705 418.789 79.4463 419.171 79.2711C419.553 79.088 419.975 78.9965 420.437 78.9965C421.026 78.9965 421.536 79.1238 421.965 79.3786C422.395 79.6254 422.73 79.9678 422.969 80.4057C423.207 80.8435 423.327 81.3372 423.327 81.8865C423.327 82.4836 423.192 83.0131 422.921 83.4748C422.658 83.9286 422.292 84.2869 421.822 84.5496C421.36 84.8044 420.815 84.9318 420.186 84.9318ZM429.75 76.1542V84.7885H428.627V76.1542H429.75ZM424.161 82.0059L428.233 76.1542H429.487L425.379 82.0776L424.161 82.0059ZM430.777 83.0449H424.161V82.0059H430.777V83.0449ZM432.941 84.681L433.037 84.6571C432.989 84.7049 432.929 84.7407 432.858 84.7646C432.794 84.7885 432.714 84.8004 432.619 84.8004C432.428 84.8004 432.256 84.7367 432.105 84.6093C431.962 84.474 431.89 84.2949 431.89 84.0719C431.89 83.8331 431.962 83.638 432.105 83.4868C432.256 83.3275 432.451 83.2479 432.69 83.2479C432.945 83.2479 433.16 83.3435 433.335 83.5345C433.51 83.7256 433.598 83.9883 433.598 84.3227C433.598 84.6093 433.53 84.8721 433.395 85.1109C433.268 85.3577 433.092 85.5568 432.869 85.708C432.647 85.8673 432.392 85.9668 432.105 86.0066V85.505C432.344 85.4573 432.543 85.3577 432.702 85.2065C432.861 85.0632 432.941 84.888 432.941 84.681ZM441.155 84.9318C440.566 84.9318 440.052 84.8163 439.615 84.5855C439.185 84.3466 438.846 84.0162 438.599 83.5943C438.361 83.1643 438.241 82.6628 438.241 82.0895H439.4C439.4 82.6468 439.559 83.0847 439.877 83.4032C440.196 83.7216 440.63 83.8809 441.179 83.8809C441.569 83.8809 441.907 83.8013 442.194 83.642C442.481 83.4748 442.704 83.2479 442.863 82.9613C443.022 82.6667 443.102 82.3244 443.102 81.9343C443.102 81.5601 443.026 81.2297 442.875 80.9431C442.724 80.6485 442.505 80.4176 442.218 80.2504C441.939 80.0832 441.597 79.9996 441.191 79.9996C440.833 79.9996 440.494 80.0792 440.176 80.2385C439.857 80.3897 439.599 80.5888 439.4 80.8356L438.408 80.5848L439.459 76.1542H443.782V77.229H439.889L440.427 76.7513L439.626 79.9638L439.232 80.0474C439.455 79.705 439.758 79.4463 440.14 79.2711C440.522 79.088 440.944 78.9965 441.406 78.9965C441.995 78.9965 442.505 79.1238 442.934 79.3786C443.364 79.6254 443.699 79.9678 443.938 80.4057C444.176 80.8435 444.296 81.3372 444.296 81.8865C444.296 82.4836 444.161 83.0131 443.89 83.4748C443.627 83.9286 443.261 84.2869 442.791 84.5496C442.329 84.8044 441.784 84.9318 441.155 84.9318ZM450.926 84.7765L445.098 84.7885V83.8928L447.881 81.4924C448.231 81.1978 448.522 80.9311 448.752 80.6923C448.983 80.4534 449.166 80.2345 449.302 80.0354C449.437 79.8284 449.533 79.6254 449.588 79.4264C449.644 79.2273 449.672 79.0124 449.672 78.7815C449.672 78.2401 449.525 77.8182 449.23 77.5156C448.944 77.2051 448.537 77.0499 448.012 77.0499C447.479 77.0499 447.049 77.233 446.722 77.5992C446.404 77.9575 446.241 78.4431 446.233 79.0562H445.062C445.078 78.4431 445.21 77.9057 445.456 77.444C445.703 76.9822 446.046 76.6279 446.483 76.3811C446.929 76.1263 447.443 75.9989 448.024 75.9989C448.605 75.9989 449.107 76.1104 449.529 76.3333C449.951 76.5563 450.277 76.8707 450.508 77.2768C450.747 77.6748 450.866 78.1525 450.866 78.7098C450.866 79.0124 450.826 79.303 450.747 79.5816C450.667 79.8523 450.54 80.123 450.365 80.3937C450.197 80.6564 449.979 80.9311 449.708 81.2177C449.437 81.4964 449.111 81.8029 448.729 82.1373L446.471 84.0958L446.077 83.6898H450.926V84.7765ZM453.362 84.681L453.458 84.6571C453.41 84.7049 453.35 84.7407 453.278 84.7646C453.215 84.7885 453.135 84.8004 453.04 84.8004C452.848 84.8004 452.677 84.7367 452.526 84.6093C452.383 84.474 452.311 84.2949 452.311 84.0719C452.311 83.8331 452.383 83.638 452.526 83.4868C452.677 83.3275 452.872 83.2479 453.111 83.2479C453.366 83.2479 453.581 83.3435 453.756 83.5345C453.931 83.7256 454.019 83.9883 454.019 84.3227C454.019 84.6093 453.951 84.8721 453.816 85.1109C453.688 85.3577 453.513 85.5568 453.29 85.708C453.067 85.8673 452.813 85.9668 452.526 86.0066V85.505C452.765 85.4573 452.964 85.3577 453.123 85.2065C453.282 85.0632 453.362 84.888 453.362 84.681ZM460.322 77.2051H458.507V76.1542H461.445V84.7885H460.322V77.2051ZM464.567 77.2051H462.752V76.1542H465.69V84.7885H464.567V77.2051ZM467.269 80.4773C467.269 79.5856 467.412 78.8054 467.699 78.1366C467.994 77.4599 468.408 76.9344 468.941 76.5602C469.475 76.1781 470.103 75.987 470.828 75.987C471.552 75.987 472.177 76.1781 472.703 76.5602C473.236 76.9344 473.646 77.4599 473.933 78.1366C474.228 78.8054 474.375 79.5856 474.375 80.4773C474.375 81.377 474.232 82.1612 473.945 82.8299C473.666 83.4987 473.26 84.0202 472.727 84.3944C472.201 84.7606 471.568 84.9437 470.828 84.9437C470.088 84.9437 469.451 84.7606 468.917 84.3944C468.384 84.0202 467.974 83.4987 467.687 82.8299C467.408 82.1612 467.269 81.377 467.269 80.4773ZM468.428 80.4773C468.428 81.1859 468.523 81.7989 468.714 82.3164C468.905 82.826 469.176 83.2161 469.526 83.4868C469.885 83.7575 470.318 83.8928 470.828 83.8928C471.33 83.8928 471.759 83.7575 472.118 83.4868C472.476 83.2161 472.747 82.826 472.93 82.3164C473.121 81.7989 473.216 81.1859 473.216 80.4773C473.216 79.7608 473.121 79.1477 472.93 78.6382C472.747 78.1207 472.476 77.7266 472.118 77.4559C471.759 77.1773 471.33 77.0379 470.828 77.0379C470.318 77.0379 469.885 77.1773 469.526 77.4559C469.176 77.7266 468.905 78.1207 468.714 78.6382C468.523 79.1477 468.428 79.7608 468.428 80.4773Z" fill="#3A363E"/>
<path d="M384.779 113.577H383.609V104.943H384.779V108.657H389.055V104.943H390.225V113.577H389.055V109.743H384.779V113.577ZM397.494 113.577H392.227V104.943H397.494V106.017H392.86L393.398 105.552V108.716H397.088V109.755H393.398V112.98L392.86 112.49H397.494V113.577ZM401.34 109.266L398.39 104.943H399.787L401.137 106.865C401.328 107.144 401.495 107.407 401.638 107.654C401.789 107.9 401.929 108.143 402.056 108.382L404.337 104.943H405.687L402.797 109.254L405.722 113.577H404.337L403.011 111.678C402.844 111.439 402.681 111.188 402.522 110.926C402.363 110.663 402.211 110.408 402.068 110.161L399.751 113.577H398.378L401.34 109.266ZM413.21 104.943L411.514 113.577H410.403L412.099 104.943H413.21ZM416.16 104.943L414.464 113.577H413.353L415.037 104.943H416.16ZM410.248 107.343H416.924L416.721 108.394H410.033L410.248 107.343ZM409.89 110.126H416.482L416.279 111.177H409.675L409.89 110.126ZM419.638 104.943V113.577H418.468V104.943H419.638ZM423.675 106.017H418.551V104.943H423.675V106.017ZM423.03 109.911H418.528V108.848H423.03V109.911ZM429.702 110.842L427.684 113.577H426.322L428.794 110.293L429.057 110.376C428.826 110.544 428.583 110.671 428.329 110.759C428.082 110.846 427.831 110.89 427.576 110.89C426.979 110.89 426.454 110.759 426 110.496C425.554 110.233 425.204 109.875 424.949 109.421C424.702 108.967 424.579 108.454 424.579 107.88C424.579 107.283 424.714 106.754 424.985 106.292C425.263 105.822 425.638 105.456 426.107 105.193C426.585 104.923 427.122 104.787 427.719 104.787C428.317 104.787 428.854 104.927 429.332 105.205C429.817 105.476 430.199 105.846 430.478 106.316C430.757 106.778 430.896 107.303 430.896 107.892C430.896 108.227 430.856 108.545 430.777 108.848C430.705 109.142 430.582 109.449 430.406 109.767C430.231 110.078 429.996 110.436 429.702 110.842ZM429.702 107.88C429.702 107.482 429.618 107.132 429.451 106.829C429.284 106.519 429.049 106.276 428.746 106.101C428.452 105.926 428.11 105.838 427.719 105.838C427.337 105.838 426.999 105.926 426.704 106.101C426.41 106.276 426.179 106.519 426.012 106.829C425.845 107.132 425.761 107.482 425.761 107.88C425.761 108.271 425.845 108.621 426.012 108.931C426.179 109.234 426.41 109.473 426.704 109.648C426.999 109.815 427.337 109.899 427.719 109.899C428.11 109.899 428.452 109.815 428.746 109.648C429.049 109.473 429.284 109.234 429.451 108.931C429.618 108.621 429.702 108.271 429.702 107.88ZM435.976 113.708C435.155 113.708 434.439 113.525 433.826 113.159C433.213 112.785 432.735 112.267 432.393 111.606C432.05 110.938 431.879 110.157 431.879 109.266C431.879 108.374 432.054 107.594 432.405 106.925C432.755 106.256 433.241 105.735 433.862 105.361C434.491 104.986 435.215 104.799 436.035 104.799C436.688 104.799 437.277 104.923 437.803 105.17C438.328 105.408 438.766 105.747 439.116 106.185C439.467 106.622 439.694 107.136 439.797 107.725H438.543C438.384 107.16 438.077 106.718 437.624 106.4C437.17 106.081 436.628 105.922 435.999 105.922C435.418 105.922 434.909 106.061 434.471 106.34C434.041 106.611 433.706 106.997 433.468 107.498C433.229 107.992 433.109 108.577 433.109 109.254C433.109 109.923 433.229 110.508 433.468 111.009C433.706 111.511 434.045 111.901 434.483 112.18C434.921 112.45 435.426 112.586 435.999 112.586C436.636 112.586 437.186 112.43 437.647 112.12C438.117 111.801 438.432 111.376 438.591 110.842H439.833C439.713 111.415 439.471 111.917 439.104 112.347C438.746 112.777 438.296 113.111 437.755 113.35C437.221 113.589 436.628 113.708 435.976 113.708ZM445.878 110.842L443.859 113.577H442.498L444.97 110.293L445.233 110.376C445.002 110.544 444.759 110.671 444.504 110.759C444.257 110.846 444.007 110.89 443.752 110.89C443.155 110.89 442.629 110.759 442.176 110.496C441.73 110.233 441.379 109.875 441.125 109.421C440.878 108.967 440.754 108.454 440.754 107.88C440.754 107.283 440.89 106.754 441.16 106.292C441.439 105.822 441.813 105.456 442.283 105.193C442.761 104.923 443.298 104.787 443.895 104.787C444.492 104.787 445.03 104.927 445.507 105.205C445.993 105.476 446.375 105.846 446.654 106.316C446.933 106.778 447.072 107.303 447.072 107.892C447.072 108.227 447.032 108.545 446.952 108.848C446.881 109.142 446.757 109.449 446.582 109.767C446.407 110.078 446.172 110.436 445.878 110.842ZM445.878 107.88C445.878 107.482 445.794 107.132 445.627 106.829C445.46 106.519 445.225 106.276 444.922 106.101C444.628 105.926 444.285 105.838 443.895 105.838C443.513 105.838 443.175 105.926 442.88 106.101C442.586 106.276 442.355 106.519 442.187 106.829C442.02 107.132 441.937 107.482 441.937 107.88C441.937 108.271 442.02 108.621 442.187 108.931C442.355 109.234 442.586 109.473 442.88 109.648C443.175 109.815 443.513 109.899 443.895 109.899C444.285 109.899 444.628 109.815 444.922 109.648C445.225 109.473 445.46 109.234 445.627 108.931C445.794 108.621 445.878 108.271 445.878 107.88ZM453.896 113.565L448.068 113.577V112.681L450.851 110.281C451.201 109.986 451.492 109.72 451.722 109.481C451.953 109.242 452.136 109.023 452.272 108.824C452.407 108.617 452.503 108.414 452.558 108.215C452.614 108.016 452.642 107.801 452.642 107.57C452.642 107.029 452.495 106.607 452.2 106.304C451.914 105.994 451.508 105.838 450.982 105.838C450.449 105.838 450.019 106.021 449.692 106.388C449.374 106.746 449.211 107.232 449.203 107.845H448.032C448.048 107.232 448.18 106.694 448.426 106.232C448.673 105.771 449.016 105.416 449.453 105.17C449.899 104.915 450.413 104.787 450.994 104.787C451.575 104.787 452.077 104.899 452.499 105.122C452.921 105.345 453.247 105.659 453.478 106.065C453.717 106.463 453.836 106.941 453.836 107.498C453.836 107.801 453.796 108.091 453.717 108.37C453.637 108.641 453.51 108.911 453.335 109.182C453.168 109.445 452.949 109.72 452.678 110.006C452.407 110.285 452.081 110.591 451.699 110.926L449.442 112.884L449.047 112.478H453.896V113.565ZM454.413 104.943H460.444V106.017H454.413V104.943ZM459.537 105.396L460.444 106.017L457.172 113.577H455.954L459.537 105.396ZM384.779 128.577H383.609V119.943H386.869C387.793 119.943 388.513 120.173 389.031 120.635C389.556 121.089 389.819 121.722 389.819 122.534C389.819 123.131 389.672 123.637 389.377 124.051C389.09 124.465 388.68 124.759 388.147 124.934L389.903 128.577H388.601L386.989 125.161H384.779V128.577ZM384.779 120.994V124.122H386.881C387.423 124.122 387.841 123.983 388.135 123.704C388.438 123.426 388.589 123.04 388.589 122.546C388.589 122.044 388.434 121.662 388.123 121.4C387.821 121.129 387.403 120.994 386.869 120.994H384.779ZM395.09 120.898C394.469 120.898 393.935 121.041 393.49 121.328C393.044 121.615 392.701 122.013 392.463 122.522C392.224 123.032 392.104 123.629 392.104 124.313C392.104 125.006 392.228 125.599 392.475 126.093C392.729 126.587 393.084 126.965 393.537 127.227C393.991 127.482 394.513 127.61 395.102 127.61C395.476 127.61 395.822 127.562 396.141 127.466C396.459 127.371 396.738 127.223 396.977 127.024C397.216 126.817 397.403 126.555 397.538 126.236C397.681 125.918 397.753 125.544 397.753 125.114V124.302L398.302 124.863H394.863V123.824H398.852V128.589H397.872L397.753 126.989L397.908 127.18C397.781 127.466 397.578 127.725 397.299 127.956C397.021 128.187 396.686 128.374 396.296 128.517C395.906 128.653 395.476 128.72 395.006 128.72C394.194 128.72 393.478 128.537 392.857 128.171C392.236 127.797 391.75 127.279 391.4 126.618C391.049 125.958 390.874 125.181 390.874 124.29C390.874 123.414 391.049 122.638 391.4 121.961C391.758 121.284 392.256 120.755 392.893 120.373C393.529 119.99 394.27 119.799 395.114 119.799C395.743 119.799 396.316 119.915 396.833 120.146C397.351 120.369 397.777 120.687 398.111 121.101C398.454 121.507 398.669 121.989 398.756 122.546H397.514C397.355 121.997 397.052 121.587 396.607 121.316C396.169 121.037 395.663 120.898 395.09 120.898ZM401.69 119.943V128.577H400.519V119.943H401.69ZM403.911 124.767H401.367V123.752H403.816C404.301 123.752 404.675 123.629 404.938 123.382C405.201 123.135 405.332 122.785 405.332 122.331C405.332 121.901 405.193 121.571 404.914 121.34C404.644 121.101 404.253 120.982 403.744 120.982H401.164V119.943H403.816C404.659 119.943 405.32 120.146 405.798 120.552C406.284 120.958 406.526 121.515 406.526 122.224C406.526 122.757 406.395 123.203 406.132 123.561C405.878 123.911 405.499 124.166 404.998 124.325V124.17C405.555 124.306 405.973 124.552 406.252 124.911C406.538 125.261 406.682 125.715 406.682 126.272C406.682 126.75 406.57 127.164 406.347 127.514C406.132 127.856 405.818 128.119 405.404 128.302C404.99 128.485 404.5 128.577 403.935 128.577H401.164V127.538H403.911C404.413 127.538 404.799 127.415 405.069 127.168C405.34 126.921 405.476 126.575 405.476 126.129C405.476 125.699 405.336 125.364 405.058 125.126C404.787 124.887 404.405 124.767 403.911 124.767ZM416.786 128.565L410.958 128.577V127.681L413.741 125.281C414.091 124.986 414.382 124.72 414.613 124.481C414.844 124.242 415.027 124.023 415.162 123.824C415.297 123.617 415.393 123.414 415.449 123.215C415.504 123.016 415.532 122.801 415.532 122.57C415.532 122.029 415.385 121.607 415.09 121.304C414.804 120.994 414.398 120.838 413.872 120.838C413.339 120.838 412.909 121.021 412.582 121.388C412.264 121.746 412.101 122.232 412.093 122.845H410.923C410.938 122.232 411.07 121.694 411.317 121.232C411.563 120.771 411.906 120.416 412.344 120.17C412.789 119.915 413.303 119.787 413.884 119.787C414.465 119.787 414.967 119.899 415.389 120.122C415.811 120.345 416.137 120.659 416.368 121.065C416.607 121.463 416.726 121.941 416.726 122.498C416.726 122.801 416.687 123.091 416.607 123.37C416.527 123.641 416.4 123.911 416.225 124.182C416.058 124.445 415.839 124.72 415.568 125.006C415.297 125.285 414.971 125.591 414.589 125.926L412.332 127.884L411.938 127.478H416.786V128.565ZM423.04 119.943V128.577H421.917V119.943H423.04ZM417.451 125.794L421.523 119.943H422.777L418.669 125.866L417.451 125.794ZM424.067 126.833H417.451V125.794H424.067V126.833ZM429.958 125.842L427.94 128.577H426.579L429.051 125.293L429.314 125.376C429.083 125.544 428.84 125.671 428.585 125.759C428.338 125.846 428.087 125.89 427.833 125.89C427.236 125.89 426.71 125.759 426.256 125.496C425.81 125.233 425.46 124.875 425.205 124.421C424.959 123.967 424.835 123.454 424.835 122.88C424.835 122.283 424.971 121.754 425.241 121.292C425.52 120.822 425.894 120.456 426.364 120.193C426.842 119.923 427.379 119.787 427.976 119.787C428.573 119.787 429.111 119.927 429.588 120.205C430.074 120.476 430.456 120.846 430.735 121.316C431.013 121.778 431.153 122.303 431.153 122.892C431.153 123.227 431.113 123.545 431.033 123.848C430.962 124.142 430.838 124.449 430.663 124.767C430.488 125.078 430.253 125.436 429.958 125.842ZM429.958 122.88C429.958 122.482 429.875 122.132 429.708 121.829C429.54 121.519 429.306 121.276 429.003 121.101C428.708 120.926 428.366 120.838 427.976 120.838C427.594 120.838 427.256 120.926 426.961 121.101C426.666 121.276 426.435 121.519 426.268 121.829C426.101 122.132 426.017 122.482 426.017 122.88C426.017 123.271 426.101 123.621 426.268 123.931C426.435 124.234 426.666 124.473 426.961 124.648C427.256 124.815 427.594 124.899 427.976 124.899C428.366 124.899 428.708 124.815 429.003 124.648C429.306 124.473 429.54 124.234 429.708 123.931C429.875 123.621 429.958 123.271 429.958 122.88ZM432.996 128.469L433.091 128.446C433.043 128.493 432.984 128.529 432.912 128.553C432.848 128.577 432.769 128.589 432.673 128.589C432.482 128.589 432.311 128.525 432.16 128.398C432.016 128.262 431.945 128.083 431.945 127.86C431.945 127.622 432.016 127.426 432.16 127.275C432.311 127.116 432.506 127.036 432.745 127.036C433 127.036 433.214 127.132 433.39 127.323C433.565 127.514 433.652 127.777 433.652 128.111C433.652 128.398 433.585 128.661 433.449 128.899C433.322 129.146 433.147 129.345 432.924 129.496C432.701 129.656 432.446 129.755 432.16 129.795V129.293C432.398 129.246 432.597 129.146 432.757 128.995C432.916 128.852 432.996 128.676 432.996 128.469ZM444.1 128.565L438.272 128.577V127.681L441.054 125.281C441.405 124.986 441.695 124.72 441.926 124.481C442.157 124.242 442.34 124.023 442.475 123.824C442.611 123.617 442.706 123.414 442.762 123.215C442.818 123.016 442.846 122.801 442.846 122.57C442.846 122.029 442.698 121.607 442.404 121.304C442.117 120.994 441.711 120.838 441.186 120.838C440.652 120.838 440.222 121.021 439.896 121.388C439.577 121.746 439.414 122.232 439.406 122.845H438.236C438.252 122.232 438.383 121.694 438.63 121.232C438.877 120.771 439.219 120.416 439.657 120.17C440.103 119.915 440.616 119.787 441.198 119.787C441.779 119.787 442.28 119.899 442.702 120.122C443.124 120.345 443.451 120.659 443.682 121.065C443.92 121.463 444.04 121.941 444.04 122.498C444.04 122.801 444 123.091 443.92 123.37C443.841 123.641 443.713 123.911 443.538 124.182C443.371 124.445 443.152 124.72 442.881 125.006C442.611 125.285 442.284 125.591 441.902 125.926L439.645 127.884L439.251 127.478H444.1V128.565ZM445.177 124.266C445.177 123.374 445.32 122.594 445.607 121.925C445.901 121.248 446.315 120.723 446.849 120.349C447.382 119.966 448.011 119.775 448.735 119.775C449.46 119.775 450.085 119.966 450.61 120.349C451.144 120.723 451.554 121.248 451.84 121.925C452.135 122.594 452.282 123.374 452.282 124.266C452.282 125.165 452.139 125.95 451.852 126.618C451.574 127.287 451.168 127.809 450.634 128.183C450.109 128.549 449.476 128.732 448.735 128.732C447.995 128.732 447.358 128.549 446.825 128.183C446.291 127.809 445.881 127.287 445.595 126.618C445.316 125.95 445.177 125.165 445.177 124.266ZM446.335 124.266C446.335 124.974 446.431 125.587 446.622 126.105C446.813 126.614 447.083 127.005 447.434 127.275C447.792 127.546 448.226 127.681 448.735 127.681C449.237 127.681 449.667 127.546 450.025 127.275C450.384 127.005 450.654 126.614 450.837 126.105C451.028 125.587 451.124 124.974 451.124 124.266C451.124 123.549 451.028 122.936 450.837 122.427C450.654 121.909 450.384 121.515 450.025 121.244C449.667 120.966 449.237 120.826 448.735 120.826C448.226 120.826 447.792 120.966 447.434 121.244C447.083 121.515 446.813 121.909 446.622 122.427C446.431 122.936 446.335 123.549 446.335 124.266ZM455.105 120.994H453.29V119.943H456.228V128.577H455.105V120.994ZM459.061 128.469L459.157 128.446C459.109 128.493 459.049 128.529 458.977 128.553C458.914 128.577 458.834 128.589 458.739 128.589C458.548 128.589 458.376 128.525 458.225 128.398C458.082 128.262 458.01 128.083 458.01 127.86C458.01 127.622 458.082 127.426 458.225 127.275C458.376 127.116 458.571 127.036 458.81 127.036C459.065 127.036 459.28 127.132 459.455 127.323C459.63 127.514 459.718 127.777 459.718 128.111C459.718 128.398 459.65 128.661 459.515 128.899C459.387 129.146 459.212 129.345 458.989 129.496C458.766 129.656 458.512 129.755 458.225 129.795V129.293C458.464 129.246 458.663 129.146 458.822 128.995C458.981 128.852 459.061 128.676 459.061 128.469ZM469.914 120.886L466.75 123.907L465.985 123.334L469.042 120.396L468.983 120.982H464.552V119.943H469.914V120.886ZM466.845 124.11H465.985V123.334C466.121 123.247 466.288 123.191 466.487 123.167C466.694 123.135 466.893 123.119 467.084 123.119C467.506 123.119 467.9 123.183 468.266 123.31C468.632 123.43 468.955 123.609 469.234 123.848C469.52 124.087 469.739 124.377 469.89 124.72C470.05 125.054 470.129 125.436 470.129 125.866C470.129 126.447 469.994 126.953 469.723 127.383C469.46 127.813 469.094 128.143 468.624 128.374C468.163 128.605 467.641 128.72 467.06 128.72C466.495 128.72 465.993 128.609 465.555 128.386C465.117 128.163 464.771 127.84 464.516 127.419C464.27 126.989 464.146 126.479 464.146 125.89H465.305C465.305 126.447 465.464 126.885 465.782 127.204C466.109 127.514 466.543 127.669 467.084 127.669C467.641 127.669 468.087 127.502 468.421 127.168C468.764 126.833 468.935 126.391 468.935 125.842C468.935 125.325 468.76 124.907 468.41 124.588C468.059 124.27 467.538 124.11 466.845 124.11ZM476.188 125.842L474.17 128.577H472.809L475.281 125.293L475.543 125.376C475.312 125.544 475.07 125.671 474.815 125.759C474.568 125.846 474.317 125.89 474.063 125.89C473.465 125.89 472.94 125.759 472.486 125.496C472.04 125.233 471.69 124.875 471.435 124.421C471.188 123.967 471.065 123.454 471.065 122.88C471.065 122.283 471.2 121.754 471.471 121.292C471.75 120.822 472.124 120.456 472.594 120.193C473.071 119.923 473.609 119.787 474.206 119.787C474.803 119.787 475.34 119.927 475.818 120.205C476.304 120.476 476.686 120.846 476.964 121.316C477.243 121.778 477.382 122.303 477.382 122.892C477.382 123.227 477.343 123.545 477.263 123.848C477.191 124.142 477.068 124.449 476.893 124.767C476.718 125.078 476.483 125.436 476.188 125.842ZM476.188 122.88C476.188 122.482 476.105 122.132 475.937 121.829C475.77 121.519 475.535 121.276 475.233 121.101C474.938 120.926 474.596 120.838 474.206 120.838C473.824 120.838 473.485 120.926 473.191 121.101C472.896 121.276 472.665 121.519 472.498 121.829C472.331 122.132 472.247 122.482 472.247 122.88C472.247 123.271 472.331 123.621 472.498 123.931C472.665 124.234 472.896 124.473 473.191 124.648C473.485 124.815 473.824 124.899 474.206 124.899C474.596 124.899 474.938 124.815 475.233 124.648C475.535 124.473 475.77 124.234 475.937 123.931C476.105 123.621 476.188 123.271 476.188 122.88Z" fill="#3A363E"/>
<path d="M384.779 157.365H383.609V148.731H384.779V152.445H389.055V148.731H390.225V157.365H389.055V153.532H384.779V157.365ZM397.494 157.365H392.227V148.731H397.494V149.806H392.86L393.398 149.34V152.505H397.088V153.544H393.398V156.768L392.86 156.279H397.494V157.365ZM401.34 153.054L398.39 148.731H399.787L401.137 150.654C401.328 150.932 401.495 151.195 401.638 151.442C401.789 151.689 401.929 151.932 402.056 152.171L404.337 148.731H405.687L402.797 153.042L405.722 157.365H404.337L403.011 155.467C402.844 155.228 402.681 154.977 402.522 154.714C402.363 154.451 402.211 154.197 402.068 153.95L399.751 157.365H398.378L401.34 153.054ZM413.21 148.731L411.514 157.365H410.403L412.099 148.731H413.21ZM416.16 148.731L414.464 157.365H413.353L415.037 148.731H416.16ZM410.248 151.132H416.924L416.721 152.182H410.033L410.248 151.132ZM409.89 153.914H416.482L416.279 154.965H409.675L409.89 153.914ZM420.952 157.509C420.363 157.509 419.849 157.393 419.411 157.162C418.981 156.924 418.643 156.593 418.396 156.171C418.157 155.741 418.038 155.24 418.038 154.666H419.196C419.196 155.224 419.356 155.662 419.674 155.98C419.993 156.299 420.426 156.458 420.976 156.458C421.366 156.458 421.704 156.378 421.991 156.219C422.277 156.052 422.5 155.825 422.66 155.538C422.819 155.244 422.898 154.901 422.898 154.511C422.898 154.137 422.823 153.807 422.672 153.52C422.52 153.225 422.301 152.995 422.015 152.827C421.736 152.66 421.394 152.577 420.988 152.577C420.629 152.577 420.291 152.656 419.973 152.815C419.654 152.967 419.395 153.166 419.196 153.413L418.205 153.162L419.256 148.731H423.579V149.806H419.686L420.223 149.328L419.423 152.541L419.029 152.624C419.252 152.282 419.555 152.023 419.937 151.848C420.319 151.665 420.741 151.573 421.203 151.573C421.792 151.573 422.301 151.701 422.731 151.956C423.161 152.202 423.496 152.545 423.734 152.983C423.973 153.42 424.093 153.914 424.093 154.463C424.093 155.061 423.957 155.59 423.687 156.052C423.424 156.506 423.058 156.864 422.588 157.127C422.126 157.381 421.581 157.509 420.952 157.509ZM430.723 157.353L424.895 157.365V156.47L427.677 154.069C428.028 153.775 428.318 153.508 428.549 153.269C428.78 153.03 428.963 152.811 429.099 152.612C429.234 152.405 429.329 152.202 429.385 152.003C429.441 151.804 429.469 151.589 429.469 151.358C429.469 150.817 429.322 150.395 429.027 150.093C428.74 149.782 428.334 149.627 427.809 149.627C427.275 149.627 426.845 149.81 426.519 150.176C426.201 150.534 426.037 151.02 426.029 151.633H424.859C424.875 151.02 425.006 150.483 425.253 150.021C425.5 149.559 425.842 149.205 426.28 148.958C426.726 148.703 427.24 148.576 427.821 148.576C428.402 148.576 428.904 148.687 429.326 148.91C429.747 149.133 430.074 149.448 430.305 149.854C430.544 150.252 430.663 150.729 430.663 151.287C430.663 151.589 430.623 151.88 430.544 152.159C430.464 152.429 430.337 152.7 430.161 152.971C429.994 153.233 429.775 153.508 429.505 153.795C429.234 154.073 428.908 154.38 428.525 154.714L426.268 156.673L425.874 156.267H430.723V157.353ZM435.801 157.497C434.981 157.497 434.264 157.314 433.651 156.947C433.038 156.573 432.56 156.056 432.218 155.395C431.876 154.726 431.704 153.946 431.704 153.054C431.704 152.163 431.88 151.382 432.23 150.714C432.58 150.045 433.066 149.523 433.687 149.149C434.316 148.775 435.04 148.588 435.86 148.588C436.513 148.588 437.102 148.711 437.628 148.958C438.153 149.197 438.591 149.535 438.941 149.973C439.292 150.411 439.519 150.925 439.622 151.514H438.368C438.209 150.948 437.902 150.507 437.449 150.188C436.995 149.87 436.453 149.71 435.824 149.71C435.243 149.71 434.734 149.85 434.296 150.128C433.866 150.399 433.532 150.785 433.293 151.287C433.054 151.78 432.934 152.366 432.934 153.042C432.934 153.711 433.054 154.296 433.293 154.798C433.532 155.299 433.87 155.69 434.308 155.968C434.746 156.239 435.251 156.374 435.824 156.374C436.461 156.374 437.011 156.219 437.473 155.908C437.942 155.59 438.257 155.164 438.416 154.631H439.658C439.539 155.204 439.296 155.705 438.929 156.135C438.571 156.565 438.121 156.9 437.58 157.139C437.047 157.377 436.453 157.497 435.801 157.497ZM445.703 154.631L443.684 157.365H442.323L444.795 154.081L445.058 154.165C444.827 154.332 444.584 154.459 444.329 154.547C444.083 154.635 443.832 154.678 443.577 154.678C442.98 154.678 442.454 154.547 442.001 154.284C441.555 154.022 441.204 153.663 440.95 153.209C440.703 152.756 440.579 152.242 440.579 151.669C440.579 151.072 440.715 150.542 440.986 150.081C441.264 149.611 441.638 149.245 442.108 148.982C442.586 148.711 443.123 148.576 443.72 148.576C444.317 148.576 444.855 148.715 445.333 148.994C445.818 149.265 446.2 149.635 446.479 150.104C446.758 150.566 446.897 151.092 446.897 151.681C446.897 152.015 446.857 152.334 446.778 152.636C446.706 152.931 446.582 153.237 446.407 153.556C446.232 153.866 445.997 154.225 445.703 154.631ZM445.703 151.669C445.703 151.271 445.619 150.921 445.452 150.618C445.285 150.308 445.05 150.065 444.747 149.89C444.453 149.714 444.11 149.627 443.72 149.627C443.338 149.627 443 149.714 442.705 149.89C442.411 150.065 442.18 150.308 442.013 150.618C441.845 150.921 441.762 151.271 441.762 151.669C441.762 152.059 441.845 152.409 442.013 152.72C442.18 153.022 442.411 153.261 442.705 153.436C443 153.604 443.338 153.687 443.72 153.687C444.11 153.687 444.453 153.604 444.747 153.436C445.05 153.261 445.285 153.022 445.452 152.72C445.619 152.409 445.703 152.059 445.703 151.669ZM453.66 157.365H448.394V148.731H453.66V149.806H449.027L449.564 149.34V152.505H453.254V153.544H449.564V156.768L449.027 156.279H453.66V157.365ZM456.526 148.731V157.365H455.356V148.731H456.526ZM460.563 149.806H455.44V148.731H460.563V149.806ZM459.918 153.699H455.416V152.636H459.918V153.699ZM384.779 172.365H383.609V163.731H386.869C387.793 163.731 388.513 163.962 389.031 164.424C389.556 164.878 389.819 165.511 389.819 166.323C389.819 166.92 389.672 167.425 389.377 167.839C389.09 168.253 388.68 168.548 388.147 168.723L389.903 172.365H388.601L386.989 168.95H384.779V172.365ZM384.779 164.782V167.911H386.881C387.423 167.911 387.841 167.772 388.135 167.493C388.438 167.214 388.589 166.828 388.589 166.335C388.589 165.833 388.434 165.451 388.123 165.188C387.821 164.917 387.403 164.782 386.869 164.782H384.779ZM395.09 164.687C394.469 164.687 393.935 164.83 393.49 165.116C393.044 165.403 392.701 165.801 392.463 166.311C392.224 166.82 392.104 167.417 392.104 168.102C392.104 168.795 392.228 169.388 392.475 169.881C392.729 170.375 393.084 170.753 393.537 171.016C393.991 171.271 394.513 171.398 395.102 171.398C395.476 171.398 395.822 171.35 396.141 171.255C396.459 171.159 396.738 171.012 396.977 170.813C397.216 170.606 397.403 170.343 397.538 170.025C397.681 169.706 397.753 169.332 397.753 168.902V168.09L398.302 168.651H394.863V167.612H398.852V172.377H397.872L397.753 170.777L397.908 170.968C397.781 171.255 397.578 171.514 397.299 171.744C397.021 171.975 396.686 172.162 396.296 172.306C395.906 172.441 395.476 172.509 395.006 172.509C394.194 172.509 393.478 172.326 392.857 171.959C392.236 171.585 391.75 171.068 391.4 170.407C391.049 169.746 390.874 168.97 390.874 168.078C390.874 167.202 391.049 166.426 391.4 165.749C391.758 165.073 392.256 164.543 392.893 164.161C393.529 163.779 394.27 163.588 395.114 163.588C395.743 163.588 396.316 163.703 396.833 163.934C397.351 164.157 397.777 164.476 398.111 164.89C398.454 165.296 398.669 165.777 398.756 166.335H397.514C397.355 165.785 397.052 165.375 396.607 165.104C396.169 164.826 395.663 164.687 395.09 164.687ZM401.69 163.731V172.365H400.519V163.731H401.69ZM403.911 168.556H401.367V167.541H403.816C404.301 167.541 404.675 167.417 404.938 167.171C405.201 166.924 405.332 166.573 405.332 166.12C405.332 165.69 405.193 165.359 404.914 165.128C404.644 164.89 404.253 164.77 403.744 164.77H401.164V163.731H403.816C404.659 163.731 405.32 163.934 405.798 164.34C406.284 164.746 406.526 165.304 406.526 166.012C406.526 166.546 406.395 166.991 406.132 167.35C405.878 167.7 405.499 167.955 404.998 168.114V167.959C405.555 168.094 405.973 168.341 406.252 168.699C406.538 169.049 406.682 169.503 406.682 170.061C406.682 170.538 406.57 170.952 406.347 171.303C406.132 171.645 405.818 171.908 405.404 172.091C404.99 172.274 404.5 172.365 403.935 172.365H401.164V171.326H403.911C404.413 171.326 404.799 171.203 405.069 170.956C405.34 170.709 405.476 170.363 405.476 169.917C405.476 169.487 405.336 169.153 405.058 168.914C404.787 168.675 404.405 168.556 403.911 168.556ZM410.97 169.965C410.97 169.376 411.149 168.87 411.508 168.448C411.866 168.018 412.344 167.748 412.941 167.636L412.953 167.887C412.419 167.744 412.005 167.497 411.711 167.147C411.424 166.788 411.281 166.354 411.281 165.845C411.281 165.391 411.4 164.997 411.639 164.663C411.878 164.32 412.212 164.054 412.642 163.862C413.08 163.671 413.586 163.576 414.159 163.576C414.724 163.576 415.218 163.671 415.64 163.862C416.07 164.054 416.404 164.32 416.643 164.663C416.882 165.005 417.001 165.403 417.001 165.857C417.001 166.366 416.854 166.8 416.559 167.159C416.273 167.509 415.863 167.748 415.329 167.875L415.317 167.648C415.715 167.704 416.066 167.843 416.368 168.066C416.671 168.281 416.906 168.552 417.073 168.878C417.24 169.205 417.324 169.571 417.324 169.977C417.324 170.479 417.188 170.92 416.918 171.303C416.655 171.685 416.285 171.983 415.807 172.198C415.337 172.405 414.784 172.509 414.147 172.509C413.51 172.509 412.953 172.405 412.475 172.198C411.997 171.983 411.627 171.685 411.364 171.303C411.102 170.92 410.97 170.475 410.97 169.965ZM412.117 169.881C412.117 170.2 412.2 170.479 412.368 170.717C412.535 170.956 412.77 171.143 413.072 171.279C413.383 171.406 413.741 171.47 414.147 171.47C414.553 171.47 414.907 171.406 415.21 171.279C415.512 171.143 415.747 170.956 415.914 170.717C416.082 170.479 416.165 170.2 416.165 169.881C416.165 169.404 415.982 169.026 415.616 168.747C415.25 168.46 414.756 168.317 414.135 168.317C413.522 168.317 413.032 168.46 412.666 168.747C412.3 169.026 412.117 169.404 412.117 169.881ZM412.356 165.917C412.356 166.339 412.515 166.677 412.833 166.932C413.16 167.186 413.594 167.314 414.135 167.314C414.676 167.314 415.106 167.19 415.425 166.944C415.743 166.689 415.902 166.354 415.902 165.94C415.902 165.526 415.743 165.2 415.425 164.961C415.106 164.714 414.676 164.591 414.135 164.591C413.594 164.591 413.16 164.714 412.833 164.961C412.515 165.2 412.356 165.518 412.356 165.917ZM424.087 172.353L418.259 172.365V171.47L421.042 169.069C421.392 168.775 421.682 168.508 421.913 168.269C422.144 168.03 422.327 167.811 422.463 167.612C422.598 167.405 422.694 167.202 422.749 167.003C422.805 166.804 422.833 166.589 422.833 166.358C422.833 165.817 422.686 165.395 422.391 165.093C422.104 164.782 421.698 164.627 421.173 164.627C420.64 164.627 420.21 164.81 419.883 165.176C419.565 165.534 419.401 166.02 419.394 166.633H418.223C418.239 166.02 418.37 165.483 418.617 165.021C418.864 164.559 419.206 164.205 419.644 163.958C420.09 163.703 420.604 163.576 421.185 163.576C421.766 163.576 422.268 163.687 422.69 163.91C423.112 164.133 423.438 164.448 423.669 164.854C423.908 165.252 424.027 165.729 424.027 166.287C424.027 166.589 423.987 166.88 423.908 167.159C423.828 167.429 423.701 167.7 423.526 167.971C423.358 168.233 423.139 168.508 422.869 168.795C422.598 169.073 422.272 169.38 421.889 169.714L419.632 171.673L419.238 171.267H424.087V172.353ZM426.523 172.258L426.618 172.234C426.571 172.282 426.511 172.318 426.439 172.342C426.376 172.365 426.296 172.377 426.2 172.377C426.009 172.377 425.838 172.314 425.687 172.186C425.544 172.051 425.472 171.872 425.472 171.649C425.472 171.41 425.544 171.215 425.687 171.064C425.838 170.904 426.033 170.825 426.272 170.825C426.527 170.825 426.742 170.92 426.917 171.111C427.092 171.303 427.18 171.565 427.18 171.9C427.18 172.186 427.112 172.449 426.977 172.688C426.849 172.935 426.674 173.134 426.451 173.285C426.228 173.444 425.974 173.544 425.687 173.584V173.082C425.926 173.034 426.125 172.935 426.284 172.783C426.443 172.64 426.523 172.465 426.523 172.258ZM437.627 172.353L431.799 172.365V171.47L434.582 169.069C434.932 168.775 435.223 168.508 435.453 168.269C435.684 168.03 435.867 167.811 436.003 167.612C436.138 167.405 436.234 167.202 436.289 167.003C436.345 166.804 436.373 166.589 436.373 166.358C436.373 165.817 436.226 165.395 435.931 165.093C435.644 164.782 435.238 164.627 434.713 164.627C434.18 164.627 433.75 164.81 433.423 165.176C433.105 165.534 432.942 166.02 432.934 166.633H431.763C431.779 166.02 431.911 165.483 432.157 165.021C432.404 164.559 432.746 164.205 433.184 163.958C433.63 163.703 434.144 163.576 434.725 163.576C435.306 163.576 435.808 163.687 436.23 163.91C436.652 164.133 436.978 164.448 437.209 164.854C437.448 165.252 437.567 165.729 437.567 166.287C437.567 166.589 437.527 166.88 437.448 167.159C437.368 167.429 437.241 167.7 437.066 167.971C436.898 168.233 436.679 168.508 436.409 168.795C436.138 169.073 435.812 169.38 435.43 169.714L433.172 171.673L432.778 171.267H437.627V172.353ZM438.704 168.054C438.704 167.163 438.847 166.382 439.134 165.714C439.429 165.037 439.843 164.511 440.376 164.137C440.909 163.755 441.538 163.564 442.263 163.564C442.987 163.564 443.612 163.755 444.138 164.137C444.671 164.511 445.081 165.037 445.368 165.714C445.662 166.382 445.81 167.163 445.81 168.054C445.81 168.954 445.666 169.738 445.38 170.407C445.101 171.076 444.695 171.597 444.162 171.971C443.636 172.338 443.003 172.521 442.263 172.521C441.522 172.521 440.886 172.338 440.352 171.971C439.819 171.597 439.409 171.076 439.122 170.407C438.843 169.738 438.704 168.954 438.704 168.054ZM439.862 168.054C439.862 168.763 439.958 169.376 440.149 169.893C440.34 170.403 440.611 170.793 440.961 171.064C441.319 171.334 441.753 171.47 442.263 171.47C442.764 171.47 443.194 171.334 443.553 171.064C443.911 170.793 444.182 170.403 444.365 169.893C444.556 169.376 444.651 168.763 444.651 168.054C444.651 167.338 444.556 166.725 444.365 166.215C444.182 165.698 443.911 165.304 443.553 165.033C443.194 164.754 442.764 164.615 442.263 164.615C441.753 164.615 441.319 164.754 440.961 165.033C440.611 165.304 440.34 165.698 440.149 166.215C439.958 166.725 439.862 167.338 439.862 168.054ZM448.632 164.782H446.817V163.731H449.755V172.365H448.632V164.782ZM452.588 172.258L452.684 172.234C452.636 172.282 452.576 172.318 452.505 172.342C452.441 172.365 452.361 172.377 452.266 172.377C452.075 172.377 451.904 172.314 451.752 172.186C451.609 172.051 451.537 171.872 451.537 171.649C451.537 171.41 451.609 171.215 451.752 171.064C451.904 170.904 452.099 170.825 452.338 170.825C452.592 170.825 452.807 170.92 452.982 171.111C453.158 171.303 453.245 171.565 453.245 171.9C453.245 172.186 453.178 172.449 453.042 172.688C452.915 172.935 452.74 173.134 452.517 173.285C452.294 173.444 452.039 173.544 451.752 173.584V173.082C451.991 173.034 452.19 172.935 452.35 172.783C452.509 172.64 452.588 172.465 452.588 172.258ZM463.692 172.353L457.865 172.365V171.47L460.647 169.069C460.997 168.775 461.288 168.508 461.519 168.269C461.75 168.03 461.933 167.811 462.068 167.612C462.204 167.405 462.299 167.202 462.355 167.003C462.411 166.804 462.438 166.589 462.438 166.358C462.438 165.817 462.291 165.395 461.997 165.093C461.71 164.782 461.304 164.627 460.778 164.627C460.245 164.627 459.815 164.81 459.489 165.176C459.17 165.534 459.007 166.02 458.999 166.633H457.829C457.845 166.02 457.976 165.483 458.223 165.021C458.47 164.559 458.812 164.205 459.25 163.958C459.696 163.703 460.209 163.576 460.79 163.576C461.372 163.576 461.873 163.687 462.295 163.91C462.717 164.133 463.044 164.448 463.274 164.854C463.513 165.252 463.633 165.729 463.633 166.287C463.633 166.589 463.593 166.88 463.513 167.159C463.434 167.429 463.306 167.7 463.131 167.971C462.964 168.233 462.745 168.508 462.474 168.795C462.204 169.073 461.877 169.38 461.495 169.714L459.238 171.673L458.844 171.267H463.692V172.353ZM470.357 164.675L467.193 167.696L466.428 167.123L469.486 164.185L469.426 164.77H464.995V163.731H470.357V164.675ZM467.288 167.899H466.428V167.123C466.564 167.035 466.731 166.979 466.93 166.956C467.137 166.924 467.336 166.908 467.527 166.908C467.949 166.908 468.343 166.971 468.709 167.099C469.076 167.218 469.398 167.397 469.677 167.636C469.963 167.875 470.182 168.166 470.334 168.508C470.493 168.842 470.572 169.225 470.572 169.655C470.572 170.236 470.437 170.741 470.166 171.171C469.904 171.601 469.537 171.932 469.068 172.162C468.606 172.393 468.084 172.509 467.503 172.509C466.938 172.509 466.436 172.397 465.998 172.174C465.561 171.951 465.214 171.629 464.959 171.207C464.713 170.777 464.589 170.268 464.589 169.678H465.748C465.748 170.236 465.907 170.674 466.225 170.992C466.552 171.303 466.986 171.458 467.527 171.458C468.084 171.458 468.53 171.291 468.865 170.956C469.207 170.622 469.378 170.18 469.378 169.631C469.378 169.113 469.203 168.695 468.853 168.377C468.502 168.058 467.981 167.899 467.288 167.899ZM476.631 169.631L474.613 172.365H473.252L475.724 169.081L475.987 169.165C475.756 169.332 475.513 169.459 475.258 169.547C475.011 169.635 474.76 169.678 474.506 169.678C473.909 169.678 473.383 169.547 472.929 169.284C472.483 169.022 472.133 168.663 471.878 168.209C471.632 167.756 471.508 167.242 471.508 166.669C471.508 166.072 471.644 165.542 471.914 165.081C472.193 164.611 472.567 164.245 473.037 163.982C473.514 163.711 474.052 163.576 474.649 163.576C475.246 163.576 475.784 163.715 476.261 163.994C476.747 164.265 477.129 164.635 477.408 165.104C477.686 165.566 477.826 166.092 477.826 166.681C477.826 167.015 477.786 167.334 477.706 167.636C477.635 167.931 477.511 168.237 477.336 168.556C477.161 168.866 476.926 169.225 476.631 169.631ZM476.631 166.669C476.631 166.271 476.548 165.921 476.381 165.618C476.213 165.308 475.979 165.065 475.676 164.89C475.381 164.714 475.039 164.627 474.649 164.627C474.267 164.627 473.928 164.714 473.634 164.89C473.339 165.065 473.108 165.308 472.941 165.618C472.774 165.921 472.69 166.271 472.69 166.669C472.69 167.059 472.774 167.409 472.941 167.72C473.108 168.022 473.339 168.261 473.634 168.436C473.928 168.604 474.267 168.687 474.649 168.687C475.039 168.687 475.381 168.604 475.676 168.436C475.979 168.261 476.213 168.022 476.381 167.72C476.548 167.409 476.631 167.059 476.631 166.669Z" fill="#3A363E"/>
<path d="M384.779 201.154H383.609V192.52H384.779V196.234H389.055V192.52H390.225V201.154H389.055V197.32H384.779V201.154ZM397.494 201.154H392.227V192.52H397.494V193.594H392.86L393.398 193.129V196.293H397.088V197.332H393.398V200.557L392.86 200.067H397.494V201.154ZM401.34 196.843L398.39 192.52H399.787L401.137 194.442C401.328 194.721 401.495 194.984 401.638 195.23C401.789 195.477 401.929 195.72 402.056 195.959L404.337 192.52H405.687L402.797 196.831L405.722 201.154H404.337L403.011 199.255C402.844 199.016 402.681 198.765 402.522 198.503C402.363 198.24 402.211 197.985 402.068 197.738L399.751 201.154H398.378L401.34 196.843ZM413.21 192.52L411.514 201.154H410.403L412.099 192.52H413.21ZM416.16 192.52L414.464 201.154H413.353L415.037 192.52H416.16ZM410.248 194.92H416.924L416.721 195.971H410.033L410.248 194.92ZM409.89 197.702H416.482L416.279 198.753H409.675L409.89 197.702ZM423.591 193.463L420.426 196.484L419.662 195.911L422.719 192.973L422.66 193.558H418.229V192.52H423.591V193.463ZM420.522 196.687H419.662V195.911C419.797 195.824 419.965 195.768 420.164 195.744C420.371 195.712 420.57 195.696 420.761 195.696C421.183 195.696 421.577 195.76 421.943 195.887C422.309 196.007 422.632 196.186 422.91 196.425C423.197 196.663 423.416 196.954 423.567 197.296C423.727 197.631 423.806 198.013 423.806 198.443C423.806 199.024 423.671 199.53 423.4 199.96C423.137 200.39 422.771 200.72 422.301 200.951C421.84 201.182 421.318 201.297 420.737 201.297C420.172 201.297 419.67 201.186 419.232 200.963C418.794 200.74 418.448 200.417 418.193 199.995C417.946 199.565 417.823 199.056 417.823 198.467H418.981C418.981 199.024 419.141 199.462 419.459 199.78C419.786 200.091 420.219 200.246 420.761 200.246C421.318 200.246 421.764 200.079 422.098 199.745C422.441 199.41 422.612 198.968 422.612 198.419C422.612 197.902 422.437 197.484 422.086 197.165C421.736 196.847 421.215 196.687 420.522 196.687ZM425.614 201.154H424.396L427.548 192.52H428.85L432.015 201.154H430.785L430.008 199.004H426.378L425.614 201.154ZM428.05 194.383L426.736 197.989H429.662L428.337 194.383C428.313 194.295 428.285 194.207 428.253 194.12C428.221 194.024 428.201 193.945 428.193 193.881C428.177 193.945 428.157 194.024 428.134 194.12C428.11 194.207 428.082 194.295 428.05 194.383ZM438.286 193.463L435.121 196.484L434.357 195.911L437.414 192.973L437.354 193.558H432.924V192.52H438.286V193.463ZM435.217 196.687H434.357V195.911C434.492 195.824 434.659 195.768 434.858 195.744C435.065 195.712 435.264 195.696 435.455 195.696C435.877 195.696 436.272 195.76 436.638 195.887C437.004 196.007 437.326 196.186 437.605 196.425C437.892 196.663 438.111 196.954 438.262 197.296C438.421 197.631 438.501 198.013 438.501 198.443C438.501 199.024 438.365 199.53 438.095 199.96C437.832 200.39 437.466 200.72 436.996 200.951C436.534 201.182 436.013 201.297 435.432 201.297C434.866 201.297 434.365 201.186 433.927 200.963C433.489 200.74 433.143 200.417 432.888 199.995C432.641 199.565 432.518 199.056 432.518 198.467H433.676C433.676 199.024 433.835 199.462 434.154 199.78C434.48 200.091 434.914 200.246 435.455 200.246C436.013 200.246 436.459 200.079 436.793 199.745C437.135 199.41 437.307 198.968 437.307 198.419C437.307 197.902 437.131 197.484 436.781 197.165C436.431 196.847 435.909 196.687 435.217 196.687ZM440.631 195.254L442.649 192.52H444.01L441.538 195.804L441.276 195.72C441.507 195.545 441.745 195.418 441.992 195.338C442.247 195.25 442.502 195.207 442.757 195.207C443.354 195.207 443.875 195.338 444.321 195.601C444.775 195.855 445.125 196.21 445.372 196.663C445.627 197.117 445.754 197.631 445.754 198.204C445.754 198.809 445.615 199.347 445.336 199.816C445.065 200.278 444.691 200.64 444.213 200.903C443.744 201.166 443.21 201.297 442.613 201.297C442.016 201.297 441.475 201.162 440.989 200.891C440.511 200.62 440.133 200.25 439.855 199.78C439.576 199.311 439.437 198.785 439.437 198.204C439.437 197.862 439.472 197.543 439.544 197.249C439.624 196.954 439.751 196.648 439.926 196.329C440.101 196.011 440.336 195.652 440.631 195.254ZM440.631 198.216C440.631 198.614 440.714 198.968 440.882 199.279C441.049 199.581 441.28 199.82 441.574 199.995C441.877 200.163 442.223 200.246 442.613 200.246C442.995 200.246 443.334 200.163 443.628 199.995C443.923 199.82 444.154 199.581 444.321 199.279C444.488 198.968 444.572 198.614 444.572 198.216C444.572 197.818 444.488 197.468 444.321 197.165C444.154 196.863 443.923 196.628 443.628 196.46C443.334 196.285 442.995 196.198 442.613 196.198C442.223 196.198 441.877 196.285 441.574 196.46C441.28 196.628 441.049 196.863 440.882 197.165C440.714 197.468 440.631 197.818 440.631 198.216ZM452.421 193.463L449.256 196.484L448.492 195.911L451.549 192.973L451.489 193.558H447.059V192.52H452.421V193.463ZM449.351 196.687H448.492V195.911C448.627 195.824 448.794 195.768 448.993 195.744C449.2 195.712 449.399 195.696 449.59 195.696C450.012 195.696 450.406 195.76 450.773 195.887C451.139 196.007 451.461 196.186 451.74 196.425C452.027 196.663 452.245 196.954 452.397 197.296C452.556 197.631 452.636 198.013 452.636 198.443C452.636 199.024 452.5 199.53 452.23 199.96C451.967 200.39 451.601 200.72 451.131 200.951C450.669 201.182 450.148 201.297 449.566 201.297C449.001 201.297 448.5 201.186 448.062 200.963C447.624 200.74 447.277 200.417 447.023 199.995C446.776 199.565 446.653 199.056 446.653 198.467H447.811C447.811 199.024 447.97 199.462 448.289 199.78C448.615 200.091 449.049 200.246 449.59 200.246C450.148 200.246 450.593 200.079 450.928 199.745C451.27 199.41 451.441 198.968 451.441 198.419C451.441 197.902 451.266 197.484 450.916 197.165C450.566 196.847 450.044 196.687 449.351 196.687ZM459.351 201.154H454.085V192.52H459.351V193.594H454.718L455.255 193.129V196.293H458.945V197.332H455.255V200.557L454.718 200.067H459.351V201.154ZM384.779 216.154H383.609V207.52H386.869C387.793 207.52 388.513 207.75 389.031 208.212C389.556 208.666 389.819 209.299 389.819 210.111C389.819 210.708 389.672 211.214 389.377 211.628C389.09 212.042 388.68 212.336 388.147 212.511L389.903 216.154H388.601L386.989 212.738H384.779V216.154ZM384.779 208.57V211.699H386.881C387.423 211.699 387.841 211.56 388.135 211.281C388.438 211.003 388.589 210.617 388.589 210.123C388.589 209.621 388.434 209.239 388.123 208.976C387.821 208.706 387.403 208.57 386.869 208.57H384.779ZM395.09 208.475C394.469 208.475 393.935 208.618 393.49 208.905C393.044 209.191 392.701 209.59 392.463 210.099C392.224 210.609 392.104 211.206 392.104 211.89C392.104 212.583 392.228 213.176 392.475 213.67C392.729 214.163 393.084 214.542 393.537 214.804C393.991 215.059 394.513 215.186 395.102 215.186C395.476 215.186 395.822 215.139 396.141 215.043C396.459 214.948 396.738 214.8 396.977 214.601C397.216 214.394 397.403 214.132 397.538 213.813C397.681 213.495 397.753 213.12 397.753 212.691V211.878L398.302 212.44H394.863V211.401H398.852V216.166H397.872L397.753 214.565L397.908 214.757C397.781 215.043 397.578 215.302 397.299 215.533C397.021 215.764 396.686 215.951 396.296 216.094C395.906 216.229 395.476 216.297 395.006 216.297C394.194 216.297 393.478 216.114 392.857 215.748C392.236 215.374 391.75 214.856 391.4 214.195C391.049 213.534 390.874 212.758 390.874 211.867C390.874 210.991 391.049 210.214 391.4 209.538C391.758 208.861 392.256 208.332 392.893 207.949C393.529 207.567 394.27 207.376 395.114 207.376C395.743 207.376 396.316 207.492 396.833 207.723C397.351 207.945 397.777 208.264 398.111 208.678C398.454 209.084 398.669 209.566 398.756 210.123H397.514C397.355 209.574 397.052 209.164 396.607 208.893C396.169 208.614 395.663 208.475 395.09 208.475ZM401.69 207.52V216.154H400.519V207.52H401.69ZM403.911 212.344H401.367V211.329H403.816C404.301 211.329 404.675 211.206 404.938 210.959C405.201 210.712 405.332 210.362 405.332 209.908C405.332 209.478 405.193 209.148 404.914 208.917C404.644 208.678 404.253 208.558 403.744 208.558H401.164V207.52H403.816C404.659 207.52 405.32 207.723 405.798 208.129C406.284 208.535 406.526 209.092 406.526 209.8C406.526 210.334 406.395 210.78 406.132 211.138C405.878 211.488 405.499 211.743 404.998 211.902V211.747C405.555 211.882 405.973 212.129 406.252 212.488C406.538 212.838 406.682 213.292 406.682 213.849C406.682 214.327 406.57 214.741 406.347 215.091C406.132 215.433 405.818 215.696 405.404 215.879C404.99 216.062 404.5 216.154 403.935 216.154H401.164V215.115H403.911C404.413 215.115 404.799 214.991 405.069 214.745C405.34 214.498 405.476 214.151 405.476 213.706C405.476 213.276 405.336 212.941 405.058 212.702C404.787 212.464 404.405 212.344 403.911 212.344ZM413.896 216.297C413.307 216.297 412.793 216.182 412.356 215.951C411.926 215.712 411.587 215.382 411.34 214.96C411.102 214.53 410.982 214.028 410.982 213.455H412.141C412.141 214.012 412.3 214.45 412.618 214.769C412.937 215.087 413.371 215.246 413.92 215.246C414.31 215.246 414.649 215.167 414.935 215.007C415.222 214.84 415.445 214.613 415.604 214.327C415.763 214.032 415.843 213.69 415.843 213.3C415.843 212.925 415.767 212.595 415.616 212.308C415.465 212.014 415.246 211.783 414.959 211.616C414.68 211.449 414.338 211.365 413.932 211.365C413.574 211.365 413.235 211.445 412.917 211.604C412.598 211.755 412.34 211.954 412.141 212.201L411.149 211.95L412.2 207.52H416.523V208.594H412.63L413.168 208.117L412.368 211.329L411.973 211.413C412.196 211.07 412.499 210.812 412.881 210.636C413.263 210.453 413.685 210.362 414.147 210.362C414.736 210.362 415.246 210.489 415.676 210.744C416.105 210.991 416.44 211.333 416.679 211.771C416.918 212.209 417.037 212.702 417.037 213.252C417.037 213.849 416.902 214.378 416.631 214.84C416.368 215.294 416.002 215.652 415.532 215.915C415.07 216.17 414.525 216.297 413.896 216.297ZM418.026 213.753C418.026 213.164 418.205 212.659 418.563 212.237C418.922 211.807 419.399 211.536 419.997 211.425L420.008 211.675C419.475 211.532 419.061 211.285 418.766 210.935C418.48 210.577 418.337 210.143 418.337 209.633C418.337 209.179 418.456 208.785 418.695 208.451C418.934 208.109 419.268 207.842 419.698 207.651C420.136 207.46 420.641 207.364 421.215 207.364C421.78 207.364 422.274 207.46 422.695 207.651C423.125 207.842 423.46 208.109 423.699 208.451C423.937 208.793 424.057 209.191 424.057 209.645C424.057 210.155 423.91 210.589 423.615 210.947C423.328 211.297 422.918 211.536 422.385 211.663L422.373 211.437C422.771 211.492 423.121 211.632 423.424 211.855C423.726 212.07 423.961 212.34 424.129 212.667C424.296 212.993 424.379 213.359 424.379 213.765C424.379 214.267 424.244 214.709 423.973 215.091C423.711 215.473 423.34 215.772 422.863 215.987C422.393 216.194 421.84 216.297 421.203 216.297C420.566 216.297 420.008 216.194 419.531 215.987C419.053 215.772 418.683 215.473 418.42 215.091C418.157 214.709 418.026 214.263 418.026 213.753ZM419.172 213.67C419.172 213.988 419.256 214.267 419.423 214.506C419.59 214.745 419.825 214.932 420.128 215.067C420.438 215.194 420.797 215.258 421.203 215.258C421.609 215.258 421.963 215.194 422.266 215.067C422.568 214.932 422.803 214.745 422.97 214.506C423.137 214.267 423.221 213.988 423.221 213.67C423.221 213.192 423.038 212.814 422.672 212.535C422.305 212.249 421.812 212.105 421.191 212.105C420.578 212.105 420.088 212.249 419.722 212.535C419.356 212.814 419.172 213.192 419.172 213.67ZM419.411 209.705C419.411 210.127 419.571 210.465 419.889 210.72C420.215 210.975 420.649 211.102 421.191 211.102C421.732 211.102 422.162 210.979 422.481 210.732C422.799 210.477 422.958 210.143 422.958 209.729C422.958 209.315 422.799 208.988 422.481 208.75C422.162 208.503 421.732 208.379 421.191 208.379C420.649 208.379 420.215 208.503 419.889 208.75C419.571 208.988 419.411 209.307 419.411 209.705ZM426.64 216.046L426.735 216.022C426.687 216.07 426.628 216.106 426.556 216.13C426.492 216.154 426.413 216.166 426.317 216.166C426.126 216.166 425.955 216.102 425.804 215.975C425.66 215.839 425.589 215.66 425.589 215.437C425.589 215.198 425.66 215.003 425.804 214.852C425.955 214.693 426.15 214.613 426.389 214.613C426.644 214.613 426.858 214.709 427.034 214.9C427.209 215.091 427.296 215.354 427.296 215.688C427.296 215.975 427.229 216.237 427.093 216.476C426.966 216.723 426.791 216.922 426.568 217.073C426.345 217.233 426.09 217.332 425.804 217.372V216.87C426.042 216.823 426.241 216.723 426.401 216.572C426.56 216.428 426.64 216.253 426.64 216.046ZM434.853 216.297C434.264 216.297 433.751 216.182 433.313 215.951C432.883 215.712 432.545 215.382 432.298 214.96C432.059 214.53 431.94 214.028 431.94 213.455H433.098C433.098 214.012 433.257 214.45 433.576 214.769C433.894 215.087 434.328 215.246 434.877 215.246C435.267 215.246 435.606 215.167 435.892 215.007C436.179 214.84 436.402 214.613 436.561 214.327C436.72 214.032 436.8 213.69 436.8 213.3C436.8 212.925 436.724 212.595 436.573 212.308C436.422 212.014 436.203 211.783 435.916 211.616C435.638 211.449 435.295 211.365 434.889 211.365C434.531 211.365 434.193 211.445 433.874 211.604C433.556 211.755 433.297 211.954 433.098 212.201L432.107 211.95L433.158 207.52H437.481V208.594H433.588L434.125 208.117L433.325 211.329L432.931 211.413C433.154 211.07 433.456 210.812 433.838 210.636C434.221 210.453 434.643 210.362 435.104 210.362C435.693 210.362 436.203 210.489 436.633 210.744C437.063 210.991 437.397 211.333 437.636 211.771C437.875 212.209 437.994 212.702 437.994 213.252C437.994 213.849 437.859 214.378 437.588 214.84C437.326 215.294 436.959 215.652 436.49 215.915C436.028 216.17 435.482 216.297 434.853 216.297ZM444.417 207.52V216.154H443.295V207.52H444.417ZM438.828 213.371L442.9 207.52H444.154L440.046 213.443L438.828 213.371ZM445.444 214.41H438.828V213.371H445.444V214.41ZM447.609 216.046L447.704 216.022C447.656 216.07 447.597 216.106 447.525 216.13C447.461 216.154 447.382 216.166 447.286 216.166C447.095 216.166 446.924 216.102 446.773 215.975C446.629 215.839 446.558 215.66 446.558 215.437C446.558 215.198 446.629 215.003 446.773 214.852C446.924 214.693 447.119 214.613 447.358 214.613C447.613 214.613 447.827 214.709 448.003 214.9C448.178 215.091 448.265 215.354 448.265 215.688C448.265 215.975 448.198 216.237 448.062 216.476C447.935 216.723 447.76 216.922 447.537 217.073C447.314 217.233 447.059 217.332 446.773 217.372V216.87C447.011 216.823 447.21 216.723 447.37 216.572C447.529 216.428 447.609 216.253 447.609 216.046ZM454.019 210.254L456.037 207.52H457.399L454.927 210.804L454.664 210.72C454.895 210.545 455.134 210.418 455.381 210.338C455.635 210.25 455.89 210.207 456.145 210.207C456.742 210.207 457.264 210.338 457.709 210.601C458.163 210.855 458.514 211.21 458.76 211.663C459.015 212.117 459.142 212.631 459.142 213.204C459.142 213.809 459.003 214.347 458.724 214.816C458.454 215.278 458.08 215.64 457.602 215.903C457.132 216.166 456.599 216.297 456.002 216.297C455.405 216.297 454.863 216.162 454.377 215.891C453.9 215.62 453.522 215.25 453.243 214.78C452.964 214.311 452.825 213.785 452.825 213.204C452.825 212.862 452.861 212.543 452.932 212.249C453.012 211.954 453.139 211.648 453.315 211.329C453.49 211.011 453.725 210.652 454.019 210.254ZM454.019 213.216C454.019 213.614 454.103 213.968 454.27 214.279C454.437 214.581 454.668 214.82 454.963 214.995C455.265 215.163 455.612 215.246 456.002 215.246C456.384 215.246 456.722 215.163 457.017 214.995C457.311 214.82 457.542 214.581 457.709 214.279C457.877 213.968 457.96 213.614 457.96 213.216C457.96 212.818 457.877 212.468 457.709 212.165C457.542 211.863 457.311 211.628 457.017 211.46C456.722 211.285 456.384 211.198 456.002 211.198C455.612 211.198 455.265 211.285 454.963 211.46C454.668 211.628 454.437 211.863 454.27 212.165C454.103 212.468 454.019 212.818 454.019 213.216ZM465.85 216.142L460.022 216.154V215.258L462.805 212.858C463.155 212.563 463.446 212.296 463.676 212.058C463.907 211.819 464.09 211.6 464.226 211.401C464.361 211.194 464.457 210.991 464.512 210.792C464.568 210.593 464.596 210.378 464.596 210.147C464.596 209.605 464.449 209.183 464.154 208.881C463.868 208.57 463.461 208.415 462.936 208.415C462.403 208.415 461.973 208.598 461.646 208.965C461.328 209.323 461.165 209.808 461.157 210.421H459.986C460.002 209.808 460.134 209.271 460.38 208.809C460.627 208.348 460.97 207.993 461.407 207.746C461.853 207.492 462.367 207.364 462.948 207.364C463.529 207.364 464.031 207.476 464.453 207.699C464.875 207.922 465.201 208.236 465.432 208.642C465.671 209.04 465.79 209.518 465.79 210.075C465.79 210.378 465.75 210.668 465.671 210.947C465.591 211.218 465.464 211.488 465.289 211.759C465.121 212.022 464.903 212.296 464.632 212.583C464.361 212.862 464.035 213.168 463.653 213.503L461.395 215.461L461.001 215.055H465.85V216.142Z" fill="#3A363E"/>
<rect x="62.5" y="38.5" width="157" height="50" rx="25" stroke="black"/>
</svg>
