<svg width="378" height="125" viewBox="0 0 378 125" fill="none" xmlns="http://www.w3.org/2000/svg">
<rect width="378" height="125" fill="white"/>
<path fill-rule="evenodd" clip-rule="evenodd" d="M81.8561 31.6355C81.9541 31.7324 82.1121 31.7317 82.2092 31.6339L88.891 24.9045C94.7346 19.24 87.2195 12.9647 82.2161 17.6343C82.1152 17.7285 81.9517 17.7285 81.8508 17.6343C76.8477 12.9641 69.3458 19.2189 75.0451 24.9045L81.8561 31.6355ZM81.8567 29.6341L76.0335 23.8108C71.5973 19.3746 77.3654 14.4525 81.8412 19.1042C81.9441 19.2111 82.123 19.2109 82.2261 19.1041C86.7018 14.4668 92.4695 19.8676 88.0334 23.8108L82.2102 29.6341C82.1126 29.7317 81.9543 29.7317 81.8567 29.6341Z" fill="#444444"/>
<path d="M111.429 23.3438L104.812 15.7337C104.472 15.3429 103.868 15.3355 103.518 15.718C103.223 16.0419 103.216 16.5357 103.502 16.8679L109.652 24L103.502 31.1321C103.216 31.4643 103.223 31.9581 103.518 32.282C103.868 32.6645 104.472 32.6571 104.812 32.2663L111.429 24.6562C111.757 24.2799 111.757 23.7201 111.429 23.3438Z" fill="#444444"/>
<path d="M124.571 24.6562L131.188 32.2663C131.528 32.6571 132.132 32.6645 132.482 32.282C132.777 31.9581 132.784 31.4643 132.498 31.1321L126.348 24L132.498 16.8679C132.784 16.5357 132.777 16.0419 132.482 15.718C132.132 15.3355 131.528 15.3429 131.188 15.7337L124.571 23.3438C124.243 23.7201 124.243 24.2799 124.571 24.6562Z" fill="#444444"/>
<path d="M146.5 29.5L151.293 24.7071C151.683 24.3166 151.683 23.6834 151.293 23.2929L146.5 18.5C146.224 18.2239 145.776 18.2239 145.5 18.5C145.224 18.7761 145.224 19.2239 145.5 19.5L150 24L145.5 28.5C145.224 28.7761 145.224 29.2239 145.5 29.5C145.776 29.7761 146.224 29.7761 146.5 29.5Z" fill="#444444"/>
<path d="M160.5 64.5L165.293 59.7071C165.683 59.3166 165.683 58.6834 165.293 58.2929L160.5 53.5C160.224 53.2239 159.776 53.2239 159.5 53.5C159.224 53.7761 159.224 54.2239 159.5 54.5L164 59L159.5 63.5C159.224 63.7761 159.224 64.2239 159.5 64.5C159.776 64.7761 160.224 64.7761 160.5 64.5Z" fill="#444444"/>
<path d="M163.35 58.3364C163.709 58.3364 164 58.6274 164 58.9864V58.9864C164 59.3454 163.709 59.6364 163.35 59.6364L150.65 59.6364C150.291 59.6364 150 59.3454 150 58.9864V58.9864C150 58.6274 150.291 58.3364 150.65 58.3364L163.35 58.3364Z" fill="#444444"/>
<path d="M182.5 53.5L177.707 58.2929C177.317 58.6834 177.317 59.3166 177.707 59.7071L182.5 64.5C182.776 64.7761 183.224 64.7761 183.5 64.5C183.776 64.2239 183.776 63.7761 183.5 63.5L179 59L183.5 54.5C183.776 54.2239 183.776 53.7761 183.5 53.5C183.224 53.2239 182.776 53.2239 182.5 53.5Z" fill="#444444"/>
<path d="M179.65 59.6636C179.291 59.6636 179 59.3726 179 59.0136V59.0136C179 58.6546 179.291 58.3636 179.65 58.3636L192.35 58.3636C192.709 58.3636 193 58.6546 193 59.0136V59.0136C193 59.3726 192.709 59.6636 192.35 59.6636L179.65 59.6636Z" fill="#444444"/>
<path d="M183.5 21.5L188.293 26.2929C188.683 26.6834 189.317 26.6834 189.707 26.2929L194.5 21.5C194.776 21.2239 194.776 20.7761 194.5 20.5C194.224 20.2239 193.776 20.2239 193.5 20.5L189 25L184.5 20.5C184.224 20.2239 183.776 20.2239 183.5 20.5C183.224 20.7761 183.224 21.2239 183.5 21.5Z" fill="#444444"/>
<path d="M169.5 18.5L164.707 23.2929C164.317 23.6834 164.317 24.3166 164.707 24.7071L169.5 29.5C169.776 29.7761 170.224 29.7761 170.5 29.5C170.776 29.2239 170.776 28.7761 170.5 28.5L166 24L170.5 19.5C170.776 19.2239 170.776 18.7761 170.5 18.5C170.224 18.2239 169.776 18.2239 169.5 18.5Z" fill="#444444"/>
<path d="M218.5 25.5L213.707 20.7071C213.317 20.3166 212.683 20.3166 212.293 20.7071L207.5 25.5C207.224 25.7761 207.224 26.2239 207.5 26.5C207.776 26.7761 208.224 26.7761 208.5 26.5L213 22L217.5 26.5C217.776 26.7761 218.224 26.7761 218.5 26.5C218.776 26.2239 218.776 25.7761 218.5 25.5Z" fill="#444444"/>
<path fill-rule="evenodd" clip-rule="evenodd" d="M231.138 21.1434L232.72 18.4543C232.911 18.1296 233.268 17.9398 233.644 17.9633L235.828 18.0998C236.297 18.1291 236.723 17.8282 236.852 17.3765L237.324 15.7253C237.447 15.296 237.839 15 238.286 15H241.277C241.723 15 242.116 15.296 242.238 15.7253L242.709 17.3732C242.839 17.8264 243.267 18.1276 243.737 18.0963L245.691 17.966C246.068 17.9409 246.427 18.1308 246.619 18.4568L248.199 21.1434C248.413 21.5073 248.376 21.9663 248.106 22.2906L246.864 23.7813C246.544 24.1646 246.556 24.7249 246.892 25.0941L248.061 26.3801C248.355 26.7042 248.405 27.1823 248.183 27.5598L246.677 30.1201C246.456 30.4953 246.018 30.6846 245.594 30.5883L243.892 30.2023C243.387 30.0878 242.878 30.3776 242.719 30.8702L242.255 32.3073C242.122 32.7202 241.737 33 241.303 33H238.252C237.822 33 237.439 32.7246 237.303 32.3162L236.891 31.0777C236.74 30.6255 236.291 30.3426 235.818 30.4017L233.684 30.6684C233.288 30.7179 232.9 30.5272 232.698 30.1832L231.155 27.5598C230.933 27.1823 230.982 26.7042 231.277 26.3801L232.446 25.0941C232.781 24.7249 232.793 24.1646 232.474 23.7813L231.232 22.2906C230.962 21.9663 230.924 21.5073 231.138 21.1434ZM231.906 21.75L233.5 19.05H235.798C236.691 19.05 237.475 18.458 237.721 17.5994L238.206 15.9H241.356L241.814 17.503C242.072 18.4063 242.924 19.0082 243.862 18.9496L245.856 18.825L247.431 21.75L246.296 23.1125C245.657 23.8793 245.681 24.9997 246.352 25.7382L247.431 26.925L245.856 29.85L244.106 29.4369C243.07 29.1921 242.023 29.8028 241.726 30.8257L241.356 32.1H238.206L237.821 30.944C237.521 30.0447 236.631 29.4794 235.69 29.5902L233.481 29.85L231.906 26.925L232.985 25.7382C233.657 24.9997 233.681 23.8793 233.042 23.1125L231.906 21.75Z" fill="#444444"/>
<path fill-rule="evenodd" clip-rule="evenodd" d="M239.88 27.1501C241.619 27.1501 243.03 25.7398 243.03 24.0001C243.03 22.2604 241.619 20.8501 239.88 20.8501C238.14 20.8501 236.73 22.2604 236.73 24.0001C236.73 25.7398 238.14 27.1501 239.88 27.1501ZM239.88 26.2501C241.122 26.2501 242.13 25.2427 242.13 24.0001C242.13 22.7575 241.122 21.7501 239.88 21.7501C238.637 21.7501 237.63 22.7575 237.63 24.0001C237.63 25.2427 238.637 26.2501 239.88 26.2501Z" fill="#444444"/>
<rect x="260" y="18" width="18" height="2" rx="1" fill="#444444"/>
<rect x="260" y="23" width="18" height="2" rx="1" fill="#444444"/>
<rect x="260" y="28" width="18" height="2" rx="1" fill="#444444"/>
<path fill-rule="evenodd" clip-rule="evenodd" d="M267.732 55C267.387 55.5978 266.74 56 266 56C265.26 56 264.613 55.5978 264.268 55H263C262.448 55 262 54.5523 262 54C262 53.4477 262.448 53 263 53H264.268C264.613 52.4022 265.26 52 266 52C266.74 52 267.387 52.4022 267.732 53H279C279.552 53 280 53.4477 280 54C280 54.5523 279.552 55 279 55H267.732ZM267 54C267 54.5523 266.552 55 266 55C265.448 55 265 54.5523 265 54C265 53.4477 265.448 53 266 53C266.552 53 267 53.4477 267 54Z" fill="#444444"/>
<path fill-rule="evenodd" clip-rule="evenodd" d="M267.732 65C267.387 65.5978 266.74 66 266 66C265.26 66 264.613 65.5978 264.268 65H263C262.448 65 262 64.5523 262 64C262 63.4477 262.448 63 263 63H264.268C264.613 62.4022 265.26 62 266 62C266.74 62 267.387 62.4022 267.732 63H279C279.552 63 280 63.4477 280 64C280 64.5523 279.552 65 279 65H267.732ZM267 64C267 64.5523 266.552 65 266 65C265.448 65 265 64.5523 265 64C265 63.4477 265.448 63 266 63C266.552 63 267 63.4477 267 64Z" fill="#444444"/>
<path fill-rule="evenodd" clip-rule="evenodd" d="M277.732 60C277.387 60.5978 276.74 61 276 61C275.26 61 274.613 60.5978 274.268 60H263C262.448 60 262 59.5523 262 59C262 58.4477 262.448 58 263 58H274.268C274.613 57.4022 275.26 57 276 57C276.74 57 277.387 57.4022 277.732 58H279C279.552 58 280 58.4477 280 59C280 59.5523 279.552 60 279 60H277.732ZM277 59C277 59.5523 276.552 60 276 60C275.448 60 275 59.5523 275 59C275 58.4477 275.448 58 276 58C276.552 58 277 58.4477 277 59Z" fill="#444444"/>
<path d="M291.909 51.5145C291.509 50.848 291.989 50 292.766 50H305.234C306.011 50 306.491 50.848 306.091 51.5145L301 60H297L291.909 51.5145Z" fill="#444444"/>
<path d="M297 60H301V65.9459C301 66.3763 300.725 66.7585 300.316 66.8946L298.316 67.5613C297.669 67.7771 297 67.2951 297 66.6126V60Z" fill="#444444"/>
<rect x="204" y="53" width="18" height="2" rx="1" fill="#444444"/>
<rect x="206.25" y="58" width="13.5" height="2" rx="1" fill="#444444"/>
<rect x="208.5" y="63" width="9" height="2" rx="1" fill="#444444"/>
<path fill-rule="evenodd" clip-rule="evenodd" d="M233 53C233 52.4477 233.448 52 234 52H250C250.552 52 251 52.4477 251 53V54.8V56.5V65C251 65.5523 250.552 66 250 66H234C233.448 66 233 65.5523 233 65V56.5V54.8V53ZM234.5 57V64.1C234.5 64.3761 234.724 64.6 235 64.6H249C249.276 64.6 249.5 64.3761 249.5 64.1V57L242 59.5L234.5 57ZM249.5 55.3333L242 58L234.5 55.3333V53.9C234.5 53.6239 234.724 53.4 235 53.4H249C249.276 53.4 249.5 53.6239 249.5 53.9V55.3333Z" fill="#444444"/>
<path fill-rule="evenodd" clip-rule="evenodd" d="M102 89C101.448 89 101 89.4477 101 90V105.998C101 106.823 101.943 107.293 102.602 106.796L108 102.726L113.398 106.796C114.057 107.293 115 106.823 115 105.998V90C115 89.4477 114.552 89 114 89H102ZM113.5 90.5837H102.5V104.837L108 100.614L113.5 104.837V90.5837Z" fill="#444444"/>
<path fill-rule="evenodd" clip-rule="evenodd" d="M133 89C136 89 140 91 140 95.4253C140 99.5297 136.559 103.917 133.666 106.728C133.294 107.09 132.706 107.09 132.334 106.728C129.441 103.917 126 99.5297 126 95.4253C126 91 130 89 133 89ZM133 90.5297C136.5 90.5595 138.5 92.4999 138.5 95.9999C138.5 99.4999 135.5 103 133 105C130.5 103 127.5 99.4999 127.5 95.9999C127.5 92.4999 129.5 90.4999 133 90.5297Z" fill="#444444"/>
<path fill-rule="evenodd" clip-rule="evenodd" d="M151.682 92.7317C151.274 92.8685 151 93.2501 151 93.6796V104.359C151 104.7 151.335 104.941 151.659 104.833L156.682 103.146C156.888 103.076 157.112 103.076 157.318 103.146L162.682 104.947C162.888 105.017 163.112 105.017 163.318 104.947L168.318 103.267C168.726 103.131 169 102.749 169 102.32V91.6405C169 91.2987 168.665 91.0577 168.341 91.1665L163.318 92.8537C163.112 92.9231 162.888 92.9231 162.682 92.8537L157.318 91.0521C157.112 90.9826 156.888 90.9826 156.682 91.0521L151.682 92.7317ZM156.239 92.7124L152.5 93.9684V103.039L156.239 101.783V92.7124ZM157.739 101.775L162.311 103.311V94.241L157.739 92.705V101.775ZM163.811 94.1998V103.27L167.5 102.031V92.9607L163.811 94.1998Z" fill="#444444"/>
<path fill-rule="evenodd" clip-rule="evenodd" d="M189.44 89.2616C189.251 88.9128 188.75 88.9128 188.561 89.2616L185.914 94.1425L180.413 95.1223C180.018 95.1926 179.863 95.6749 180.141 95.9626L184.006 99.9494L183.248 105.428C183.193 105.822 183.6 106.119 183.959 105.948L189 103.538L194.042 105.948C194.401 106.119 194.807 105.822 194.753 105.428L193.995 99.9494L197.859 95.9626C198.138 95.6749 197.982 95.1926 197.588 95.1223L192.087 94.1425L189.44 89.2616ZM190.879 94.9652L189 91.5L187.121 94.9652C186.975 95.2327 186.716 95.4195 186.417 95.4729L182.5 96.1706L185.248 99.0059C185.462 99.2269 185.563 99.5341 185.521 99.8389L184.983 103.728L188.569 102.014C188.842 101.884 189.158 101.884 189.431 102.014L193.017 103.728L192.479 99.8389C192.437 99.5341 192.538 99.2269 192.752 99.0059L195.5 96.1706L191.583 95.4729C191.284 95.4195 191.025 95.2327 190.879 94.9652Z" fill="#444444"/>
<path fill-rule="evenodd" clip-rule="evenodd" d="M227 104C227 104.552 226.552 105 226 105H210C209.448 105 209 104.552 209 104L209 101.5C209 101.224 209.225 101.004 209.498 100.958C209.72 100.921 209.939 100.858 210.148 100.772C210.269 100.721 210.387 100.663 210.5 100.598C210.727 100.467 210.936 100.307 211.121 100.121C211.4 99.8427 211.621 99.512 211.772 99.1481C211.922 98.7841 212 98.394 212 98C212 97.606 211.922 97.2159 211.772 96.8519C211.621 96.488 211.4 96.1573 211.121 95.8787C210.936 95.6929 210.727 95.5327 210.5 95.4019C210.387 95.3366 210.269 95.2786 210.148 95.2284C209.939 95.1416 209.72 95.079 209.498 95.0416C209.225 94.9958 209 94.7761 209 94.5L209 92C209 91.4477 209.448 91 210 91H226C226.552 91 227 91.4477 227 92L227 94.5C227 94.7761 226.775 94.9958 226.502 95.0416C226.28 95.079 226.061 95.1416 225.852 95.2284C225.731 95.2786 225.613 95.3366 225.5 95.4019C225.273 95.5327 225.064 95.6929 224.879 95.8787C224.6 96.1573 224.379 96.488 224.228 96.8519C224.078 97.2159 224 97.606 224 98C224 98.394 224.078 98.7841 224.228 99.1481C224.379 99.512 224.6 99.8427 224.879 100.121C225.064 100.307 225.273 100.467 225.5 100.598C225.613 100.663 225.731 100.721 225.852 100.772C226.061 100.858 226.28 100.921 226.502 100.958C226.775 101.004 227 101.224 227 101.5V104ZM225.5 102.243C225.425 102.216 225.351 102.188 225.278 102.157C224.732 101.931 224.236 101.6 223.818 101.182C223.4 100.764 223.069 100.268 222.843 99.7221C222.616 99.1761 222.5 98.5909 222.5 98C222.5 97.4091 222.616 96.8239 222.843 96.2779C223.069 95.732 223.4 95.2359 223.818 94.818C224.236 94.4002 224.732 94.0687 225.278 93.8425C225.351 93.8122 225.425 93.7838 225.5 93.7574V92.5H210.5V93.7574C210.575 93.7838 210.649 93.8122 210.722 93.8425C211.268 94.0687 211.764 94.4002 212.182 94.818C212.6 95.2359 212.931 95.732 213.157 96.2779C213.384 96.8239 213.5 97.4091 213.5 98C213.5 98.5909 213.384 99.1761 213.157 99.7221C212.931 100.268 212.6 100.764 212.182 101.182C211.764 101.6 211.268 101.931 210.722 102.157C210.649 102.188 210.575 102.216 210.5 102.243V103.5H225.5V102.243Z" fill="#444444"/>
<path fill-rule="evenodd" clip-rule="evenodd" d="M239 95C238.448 95 238 95.4477 238 96V106C238 106.552 238.448 107 239 107H251C251.552 107 252 106.552 252 106V96C252 95.4477 251.552 95 251 95H239ZM250.5 96.5H239.5V105.5H250.5V96.5Z" fill="#444444"/>
<path fill-rule="evenodd" clip-rule="evenodd" d="M247.828 90.1716C248.579 90.9217 249 91.9391 249 93H247.5C247.5 92.337 247.237 91.7011 246.768 91.2322C246.299 90.7634 245.663 90.5 245 90.5C244.337 90.5 243.701 90.7634 243.232 91.2322C242.763 91.7011 242.5 92.337 242.5 93L241 93C241 91.9391 241.421 90.9217 242.172 90.1716C242.922 89.4214 243.939 89 245 89C246.061 89 247.078 89.4214 247.828 90.1716Z" fill="#444444"/>
<path d="M241 93H242.5V95H241V93Z" fill="#444444"/>
<path d="M247.5 93H249V95H247.5V93Z" fill="#444444"/>
<path fill-rule="evenodd" clip-rule="evenodd" d="M244 98C243.448 98 243 98.4477 243 99V100C243 100.552 243.448 101 244 101V103C244 103.552 244.448 104 245 104C245.552 104 246 103.552 246 103V101C246.552 101 247 100.552 247 100V99C247 98.4477 246.552 98 246 98H244Z" fill="#444444"/>
<path fill-rule="evenodd" clip-rule="evenodd" d="M301.374 27.3752C300.173 28.3599 298.638 28.9507 296.965 28.9507C293.118 28.9507 290 25.8277 290 21.9754C290 18.123 293.118 15 296.965 15C300.812 15 303.93 18.123 303.93 21.9754C303.93 23.6499 303.341 25.1866 302.359 26.3889C302.373 26.4008 302.386 26.4134 302.399 26.4266L307.801 31.836C308.066 32.1022 308.066 32.534 307.801 32.8003C307.536 33.0657 307.106 33.0667 306.84 32.8025L301.414 27.418C301.4 27.4041 301.387 27.3898 301.374 27.3752ZM302.489 21.9754C302.489 25.0155 300.087 27.5075 296.965 27.5075C293.843 27.5075 291.441 25.1022 291.441 21.9754C291.441 18.8485 293.843 16.4432 296.965 16.4432C300.087 16.4432 302.489 18.9352 302.489 21.9754Z" fill="#444444"/>
<path fill-rule="evenodd" clip-rule="evenodd" d="M338 16C338 15.4477 337.552 15 337 15H321C320.448 15 320 15.4477 320 16V30V32C320 32.5523 320.448 33 321 33H337C337.552 33 338 32.5523 338 32V16ZM321.5 31V30.8L330 24L336.5 29.5714V31C336.5 31.2761 336.276 31.5 336 31.5H322C321.724 31.5 321.5 31.2761 321.5 31ZM330.629 22.539L336.5 27.5714V17C336.5 16.7239 336.276 16.5 336 16.5H322C321.724 16.5 321.5 16.7239 321.5 17V28.8L329.353 22.5174C329.728 22.2172 330.264 22.2263 330.629 22.539ZM326 22C327.105 22 328 21.1046 328 20C328 18.8954 327.105 18 326 18C324.895 18 324 18.8954 324 20C324 21.1046 324.895 22 326 22Z" fill="#444444"/>
<path fill-rule="evenodd" clip-rule="evenodd" d="M23 68C18.0294 68 14 63.9706 14 59C14 54.0294 18.0294 50 23 50C27.9706 50 32 54.0294 32 59C32 60.4817 31.6419 61.8798 31.0076 63.1125C30.9426 63.2388 30.9302 63.3861 30.9767 63.5203C31.5406 65.1463 32 66.8064 32 67C32 67.2626 31.8621 67.5252 31.6586 67.7154C31.4748 67.8873 31.2374 68 31 68C30.8553 68 29.1464 67.5395 27.4958 66.9851C27.3633 66.9406 27.2185 66.9534 27.094 67.017C25.8659 67.6455 24.4743 68 23 68ZM23 66.5C18.8579 66.5 15.5 63.1421 15.5 59C15.5 54.8579 18.8579 51.5 23 51.5C27.1421 51.5 30.5 54.8579 30.5 59C30.5 60.3882 30.1228 61.6883 29.4654 62.8034C29.3912 62.9293 29.3701 63.0795 29.415 63.2186C29.6894 64.0682 30.5 66.5 30.5 66.5C30.5 66.5 28.1529 65.7176 27.3041 65.4048C27.1479 65.3473 26.9735 65.3643 26.8304 65.4494C25.7093 66.1167 24.3994 66.5 23 66.5Z" fill="#444444"/>
<rect x="19" y="58" width="1.5" height="8" rx="0.75" transform="rotate(-90 19 58)" fill="#444444"/>
<rect x="27" y="60" width="1.5" height="8" rx="0.75" transform="rotate(90 27 60)" fill="#444444"/>
<path fill-rule="evenodd" clip-rule="evenodd" d="M327 68C322.029 68 318 63.9706 318 59C318 54.0294 322.029 50 327 50C331.971 50 336 54.0294 336 59C336 60.4817 335.642 61.8798 335.008 63.1125C334.943 63.2388 334.93 63.3861 334.977 63.5203C335.541 65.1463 336 66.8064 336 67C336 67.2626 335.862 67.5252 335.659 67.7154C335.475 67.8873 335.237 68 335 68C334.855 68 333.146 67.5395 331.496 66.9851C331.363 66.9406 331.218 66.9534 331.094 67.017C329.866 67.6455 328.474 68 327 68ZM327 66.5C322.858 66.5 319.5 63.1421 319.5 59C319.5 54.8579 322.858 51.5 327 51.5C331.142 51.5 334.5 54.8579 334.5 59C334.5 60.3882 334.123 61.6883 333.465 62.8034C333.391 62.9293 333.37 63.0795 333.415 63.2186C333.689 64.0682 334.5 66.5 334.5 66.5C334.5 66.5 332.153 65.7176 331.304 65.4048C331.148 65.3473 330.974 65.3643 330.83 65.4494C329.709 66.1167 328.399 66.5 327 66.5Z" fill="#444444"/>
<path d="M327 54.5C326.586 54.5 326.25 54.8358 326.25 55.25V58.25H323.25C322.836 58.25 322.5 58.5858 322.5 59C322.5 59.4142 322.836 59.75 323.25 59.75H326.25V62.75C326.25 63.1642 326.586 63.5 327 63.5C327.414 63.5 327.75 63.1642 327.75 62.75V59.75H330.75C331.164 59.75 331.5 59.4142 331.5 59C331.5 58.5858 331.164 58.25 330.75 58.25H327.75V55.25C327.75 54.8358 327.414 54.5 327 54.5Z" fill="#444444"/>
<path fill-rule="evenodd" clip-rule="evenodd" d="M58.4957 59.8691C59.1675 59.4852 59.1675 58.5165 58.4957 58.1326L44.4961 50.1332C43.8295 49.7523 43 50.2337 43 51.0015V67.0002C43 67.768 43.8295 68.2493 44.4961 67.8684L58.4957 59.8691ZM44.5013 66.2927L57.0125 59.0008L44.5013 51.709V66.2927Z" fill="#444444"/>
<path fill-rule="evenodd" clip-rule="evenodd" d="M363.496 98.8691C364.168 98.4852 364.168 97.5165 363.496 97.1326L349.496 89.1332C348.829 88.7523 348 89.2337 348 90.0015V96L359.5 98.0008L348 100V106C348 106.768 348.829 107.249 349.496 106.868L363.496 98.8691Z" fill="#444444"/>
<path fill-rule="evenodd" clip-rule="evenodd" d="M24 107C28.9706 107 33 102.971 33 98C33 93.0294 28.9706 89 24 89C19.0294 89 15 93.0294 15 98C15 102.971 19.0294 107 24 107ZM24 105.5C28.1421 105.5 31.5 102.142 31.5 98C31.5 93.8579 28.1421 90.5 24 90.5C19.8579 90.5 16.5 93.8579 16.5 98C16.5 102.142 19.8579 105.5 24 105.5Z" fill="#444444"/>
<path d="M24 93.5C23.5858 93.5 23.25 93.8358 23.25 94.25V97.25H20.25C19.8358 97.25 19.5 97.5858 19.5 98C19.5 98.4142 19.8358 98.75 20.25 98.75H23.25V101.75C23.25 102.164 23.5858 102.5 24 102.5C24.4142 102.5 24.75 102.164 24.75 101.75V98.75H27.75C28.1642 98.75 28.5 98.4142 28.5 98C28.5 97.5858 28.1642 97.25 27.75 97.25H24.75V94.25C24.75 93.8358 24.4142 93.5 24 93.5Z" fill="#444444"/>
<path fill-rule="evenodd" clip-rule="evenodd" d="M328 107C332.971 107 337 102.971 337 98C337 93.0294 332.971 89 328 89C323.029 89 319 93.0294 319 98C319 102.971 323.029 107 328 107ZM328 105.5C332.142 105.5 335.5 102.142 335.5 98C335.5 93.8579 332.142 90.5 328 90.5C323.858 90.5 320.5 93.8579 320.5 98C320.5 102.142 323.858 105.5 328 105.5Z" fill="#444444"/>
<path d="M327.238 96.25C327.238 95.8358 327.573 95.5 327.988 95.5V95.5C328.402 95.5 328.738 95.8358 328.738 96.25V102.25C328.738 102.664 328.402 103 327.988 103V103C327.573 103 327.238 102.664 327.238 102.25L327.238 96.25Z" fill="#3A363E"/>
<path d="M327.235 93.75C327.235 93.3358 327.571 93 327.985 93V93C328.399 93 328.735 93.3358 328.735 93.75V93.75C328.735 94.1642 328.399 94.5 327.985 94.5V94.5C327.571 94.5 327.235 94.1642 327.235 93.75V93.75Z" fill="#3A363E"/>
<path d="M85.5 93C85.0858 93 84.75 93.3358 84.75 93.75V96.75H81.75C81.3358 96.75 81 97.0858 81 97.5C81 97.9142 81.3358 98.25 81.75 98.25H84.75V101.25C84.75 101.664 85.0858 102 85.5 102C85.9142 102 86.25 101.664 86.25 101.25V98.25H89.25C89.6642 98.25 90 97.9142 90 97.5C90 97.0858 89.6642 96.75 89.25 96.75H86.25V93.75C86.25 93.3358 85.9142 93 85.5 93Z" fill="#444444"/>
<path fill-rule="evenodd" clip-rule="evenodd" d="M77.2 58.3077C79.5196 58.3077 81.4 56.448 81.4 54.1538C81.4 51.8597 79.5196 50 77.2 50C74.8804 50 73 51.8597 73 54.1538C73 56.448 74.8804 58.3077 77.2 58.3077ZM77.2 56.9231C78.7464 56.9231 80 55.6833 80 54.1538C80 52.6244 78.7464 51.3846 77.2 51.3846C75.6536 51.3846 74.4 52.6244 74.4 54.1538C74.4 55.6833 75.6536 56.9231 77.2 56.9231Z" fill="#444444"/>
<path fill-rule="evenodd" clip-rule="evenodd" d="M81.9497 60.909C83.2625 61.688 84 62.7446 84 63.8462L84 67.0001C84 67.5524 83.5523 68.0001 83 68.0001H71C70.4477 68.0001 70 67.5524 70 67.0001V63.8462C70 62.7446 70.7375 61.688 72.0503 60.909C73.363 60.13 75.1435 59.6924 77 59.6924C78.8565 59.6924 80.637 60.13 81.9497 60.909ZM71.4 63.8462C71.4 63.1118 71.99 62.4074 73.0402 61.8881C74.0904 61.3688 75.5148 61.077 77 61.077C78.4852 61.077 79.9096 61.3688 80.9598 61.8881C82.01 62.4074 82.6 63.1118 82.6 63.8462V66.6155H71.4V63.8462Z" fill="#444444"/>
<path d="M110 55.5C110 56.8807 108.881 58 107.5 58C106.119 58 105 56.8807 105 55.5C105 54.1193 106.119 53 107.5 53C108.881 53 110 54.1193 110 55.5Z" fill="#444444"/>
<path fill-rule="evenodd" clip-rule="evenodd" d="M103.51 51.5C103.51 51.5641 103.506 51.6272 103.498 51.6892C104.228 51.8775 104.903 52.2002 105.497 52.6293C105.08 52.9209 104.729 53.3012 104.472 53.7427C103.764 53.2734 102.914 53 102 53C99.5248 53 97.5179 55.0068 97.5179 57.4824V62H97.5181L96.8548 65H107.145L106.483 62H106.483V58.8499C106.805 58.9475 107.146 59 107.5 59C107.662 59 107.821 58.989 107.977 58.9678V62H107.977L108.956 65.2081C109.152 65.8507 108.672 66.5 108 66.5H104.134C104.023 66.8134 103.842 67.1014 103.601 67.341C103.177 67.7629 102.602 68 102.002 68C101.402 68 100.827 67.7629 100.403 67.341C100.162 67.1014 99.9814 66.8134 99.8701 66.5H96.0007C95.3288 66.5 94.848 65.8506 95.0443 65.2079L96.0239 62H96.0238V57.4766C96.0238 54.6917 97.9285 52.3517 100.506 51.6882C100.499 51.6266 100.495 51.5638 100.495 51.5C100.495 50.6716 101.17 50 102.002 50C102.835 50 103.51 50.6716 103.51 51.5Z" fill="#444444"/>
<path fill-rule="evenodd" clip-rule="evenodd" d="M121 51C121 50.4477 121.448 50 122 50H138C138.552 50 139 50.4477 139 51V53.5V55V67C139 67.5523 138.552 68 138 68H122C121.448 68 121 67.5523 121 67V55V53.5V51ZM122.5 55V66C122.5 66.2761 122.724 66.5 123 66.5H137C137.276 66.5 137.5 66.2761 137.5 66V55H122.5ZM137.5 53.5H122.5V52C122.5 51.7239 122.724 51.5 123 51.5H137C137.276 51.5 137.5 51.7239 137.5 52V53.5Z" fill="#444444"/>
<rect x="128.5" y="57" width="3" height="3" rx="1" fill="#444444"/>
<rect x="128.5" y="61.5" width="3" height="3" rx="1" fill="#444444"/>
<rect x="124" y="61.5" width="3" height="3" rx="1" fill="#444444"/>
<rect x="133" y="57" width="3" height="3" rx="1" fill="#444444"/>
<path fill-rule="evenodd" clip-rule="evenodd" d="M63.364 91.364C62.9734 90.9734 62.3403 90.9734 61.9497 91.364L57 96.3137L52.0503 91.364C51.6597 90.9734 51.0266 90.9734 50.636 91.364C50.2455 91.7545 50.2455 92.3876 50.636 92.7782L55.5858 97.7279L50.636 102.678C50.2455 103.068 50.2455 103.701 50.636 104.092C51.0266 104.482 51.6597 104.482 52.0503 104.092L57 99.1421L61.9497 104.092C62.3403 104.482 62.9734 104.482 63.364 104.092C63.7545 103.701 63.7545 103.068 63.364 102.678L58.4142 97.7279L63.364 92.7782C63.7545 92.3877 63.7545 91.7545 63.364 91.364Z" fill="#444444"/>
<path fill-rule="evenodd" clip-rule="evenodd" d="M300 102C302.209 102 304 100.209 304 98C304 95.7909 302.209 94 300 94C297.791 94 296 95.7909 296 98C296 100.209 297.791 102 300 102ZM300 100.5C301.381 100.5 302.5 99.3807 302.5 98C302.5 96.6193 301.381 95.5 300 95.5C298.619 95.5 297.5 96.6193 297.5 98C297.5 99.3807 298.619 100.5 300 100.5Z" fill="#3A363E"/>
<path d="M307.22 98C307.651 98 308.005 97.6492 307.95 97.2216C307.867 96.5696 307.679 95.9298 307.391 95.3212C306.989 94.4719 306.4 93.7003 305.657 93.0503C304.914 92.4002 304.032 91.8846 303.061 91.5328C302.091 91.1811 301.051 91 300 91C298.949 91 297.909 91.1811 296.939 91.5328C295.968 91.8846 295.086 92.4002 294.343 93.0503C293.6 93.7003 293.011 94.4719 292.609 95.3212C292.321 95.9298 292.133 96.5696 292.05 97.2216C291.995 97.6492 292.349 98 292.78 98V98C293.212 98 293.555 97.6485 293.622 97.2228C293.698 96.7501 293.841 96.2867 294.051 95.8439C294.375 95.1603 294.849 94.5392 295.447 94.016C296.045 93.4929 296.755 93.0778 297.536 92.7947C298.317 92.5116 299.154 92.3658 300 92.3658C300.846 92.3658 301.683 92.5116 302.464 92.7947C303.245 93.0778 303.955 93.4929 304.553 94.016C305.151 94.5392 305.625 95.1603 305.949 95.8439C306.159 96.2867 306.302 96.7501 306.378 97.2228C306.445 97.6485 306.788 98 307.22 98V98Z" fill="#3A363E"/>
<path d="M43.3536 24.1464C43.1583 24.3417 43.1583 24.6583 43.3536 24.8536L48.6464 30.1464C48.8417 30.3417 49.1583 30.3417 49.3536 30.1464L60.6464 18.8536C60.8417 18.6583 60.8417 18.3417 60.6464 18.1464L59.8536 17.3536C59.6583 17.1583 59.3417 17.1583 59.1464 17.3536L49 27.5L44.8536 23.3536C44.6583 23.1583 44.3417 23.1583 44.1464 23.3536L43.3536 24.1464Z" fill="#444444"/>
<path d="M15 18V17.5C15 16.9477 15.4477 16.5 16 16.5H20C20 15.6716 20.6716 15 21.5 15H24.5C25.3284 15 26 15.6716 26 16.5H30C30.5523 16.5 31 16.9477 31 17.5V18C31 18 26.1303 18 23 18C19.8697 18 15 18 15 18Z" fill="#444444"/>
<path fill-rule="evenodd" clip-rule="evenodd" d="M17 31C17 32.1046 17.8954 33 19 33H27C28.1046 33 29 32.1046 29 31V19C29 19 25.3513 19 23 19C20.6487 19 17 19 17 19V31ZM19.5 31.5C18.9477 31.5 18.5 31.0523 18.5 30.5V20.5C18.5 20.5 21.0376 20.5 23 20.5C24.9624 20.5 27.5 20.5 27.5 20.5V30.5C27.5 31.0523 27.0523 31.5 26.5 31.5H19.5Z" fill="#444444"/>
<path d="M22 29.25C22 29.6642 21.6642 30 21.25 30C20.8358 30 20.5 29.6642 20.5 29.25L20.5 22.75C20.5 22.3358 20.8358 22 21.25 22C21.6642 22 22 22.3358 22 22.75L22 29.25Z" fill="#444444"/>
<path d="M24 22.75C24 22.3358 24.3358 22 24.75 22C25.1642 22 25.5 22.3358 25.5 22.75V29.25C25.5 29.6642 25.1642 30 24.75 30C24.3358 30 24 29.6642 24 29.25V22.75Z" fill="#444444"/>
<path fill-rule="evenodd" clip-rule="evenodd" d="M270.2 97.3077C272.52 97.3077 274.4 95.448 274.4 93.1538C274.4 90.8597 272.52 89 270.2 89C267.88 89 266 90.8597 266 93.1538C266 95.448 267.88 97.3077 270.2 97.3077ZM270.2 95.9231C271.746 95.9231 273 94.6833 273 93.1538C273 91.6244 271.746 90.3846 270.2 90.3846C268.654 90.3846 267.4 91.6244 267.4 93.1538C267.4 94.6833 268.654 95.9231 270.2 95.9231Z" fill="#444444"/>
<path d="M277 105.617V106C277 106.552 276.552 107 276 107H264C263.448 107 263 106.552 263 106V102.846C263 101.744 263.737 100.688 265.05 99.9089C266.363 99.1299 268.143 98.6923 270 98.6923L270 100.077C268.515 100.077 267.09 100.369 266.04 100.888C264.99 101.407 264.4 102.112 264.4 102.846V105.615H270V105.617H277Z" fill="#444444"/>
<path d="M273.007 96.9932C272.729 97.2709 272.735 97.7229 273.02 97.9929L275.308 100.16C275.507 100.348 275.82 100.342 276.011 100.145L280.521 95.4943C280.787 95.2201 280.783 94.7832 280.513 94.5131V94.5131C280.233 94.2328 279.776 94.2413 279.506 94.5317L275.667 98.6667L273.993 96.9932C273.721 96.7208 273.279 96.7208 273.007 96.9932V96.9932Z" fill="#444444"/>
<path d="M271 101.75C271 101.336 271.336 101 271.75 101H279.25C279.664 101 280 101.336 280 101.75V101.75C280 102.164 279.664 102.5 279.25 102.5H271.75C271.336 102.5 271 102.164 271 101.75V101.75Z" fill="#444444"/>
<path d="M271 104.065C271 103.65 271.336 103.315 271.75 103.315H279.25C279.664 103.315 280 103.65 280 104.065V104.065C280 104.479 279.664 104.815 279.25 104.815H271.75C271.336 104.815 271 104.479 271 104.065V104.065Z" fill="#444444"/>
</svg>
