<svg width="562" height="336" viewBox="0 0 562 336" fill="none" xmlns="http://www.w3.org/2000/svg">
<rect width="562" height="336" fill="white"/>
<g filter="url(#filter0_d_5_9142)">
<path d="M468.925 50.8106C468.966 50.8833 469.008 50.9561 469.049 51.0288C469.611 52.0111 470.12 53.009 470.583 54.012C471.056 55.0515 471.476 56.1013 471.84 57.1563C472.22 58.2581 472.542 59.3651 472.802 60.4721C472.994 61.2881 473.155 62.104 473.28 62.9148C473.337 63.2682 473.389 63.6268 473.431 63.9802C473.587 65.2431 473.659 66.4905 473.659 67.7222C473.659 68.5122 473.623 69.2918 473.555 70.0609C473.509 70.6378 473.436 71.2095 473.353 71.776C473.181 72.9194 472.932 74.0316 472.609 75.1022C472.49 75.5076 472.355 75.9078 472.214 76.3028C471.871 77.2486 471.476 78.1582 471.014 79.0209C470.453 80.0811 469.803 81.079 469.065 81.9989C469.029 82.0457 468.987 82.0924 468.951 82.1392C468.218 83.0383 467.402 83.8647 466.508 84.6027C465.791 85.19 465.032 85.7201 464.216 86.193C464.055 86.2866 463.889 86.3801 463.722 86.4685C462.719 87.009 461.675 87.4403 460.604 87.7678C459.804 88.012 458.993 88.1991 458.166 88.3291C457.823 88.381 457.48 88.4278 457.137 88.459C455.864 88.5837 454.565 88.5785 453.26 88.4538C452.725 88.4018 452.195 88.3291 451.66 88.2355C450.729 88.0744 449.799 87.8509 448.874 87.5651C448.302 87.3936 447.731 87.1961 447.164 86.9778C446.005 86.5308 444.856 85.9903 443.729 85.3667C443.651 85.3251 443.573 85.2835 443.5 85.2367C442.435 84.6287 441.385 83.9478 440.366 83.1838C439.425 82.4874 438.516 81.7234 437.632 80.9023C437.352 80.6424 437.076 80.3774 436.806 80.1071C436.266 79.5718 435.741 79.0105 435.231 78.4232C434.498 77.5865 433.797 76.7029 433.126 75.7727C432.482 74.8735 431.869 73.938 431.297 72.9662C431.255 72.8934 431.214 72.8206 431.167 72.7479C430.642 71.8436 430.159 70.9289 429.727 70.0038C429.239 68.9747 428.808 67.9301 428.428 66.8855C428.106 65.9915 427.82 65.0924 427.581 64.1985C427.524 64.001 427.472 63.7983 427.425 63.6008C427.134 62.4367 426.905 61.2777 426.744 60.1239C426.568 58.8766 426.474 57.6397 426.453 56.4235C426.448 56.1377 426.448 55.857 426.453 55.5764C426.464 54.5058 426.536 53.4559 426.672 52.4269C426.775 51.6057 426.916 50.8002 427.098 50.0154C427.254 49.3242 427.436 48.6485 427.654 47.9885C427.898 47.2245 428.184 46.4813 428.506 45.7641C429.01 44.6415 429.603 43.5761 430.289 42.5886C430.33 42.521 430.377 42.4587 430.424 42.3963C431.11 41.4296 431.884 40.5357 432.747 39.725C433.563 38.9558 434.452 38.2645 435.418 37.6617C435.579 37.5629 435.741 37.4642 435.902 37.3706C436.718 36.8977 437.56 36.4975 438.422 36.1701C439.509 35.7595 440.631 35.4581 441.769 35.271C442.247 35.193 442.731 35.1306 443.214 35.0891C443.968 35.0215 444.732 35.0007 445.501 35.0267C446.727 35.0683 447.97 35.219 449.212 35.4789C449.373 35.51 449.534 35.5464 449.7 35.588C450.989 35.8894 452.278 36.3052 453.551 36.8353C453.884 36.9704 454.211 37.116 454.544 37.2667C455.417 37.6721 456.28 38.1242 457.127 38.6283C458.172 39.252 459.201 39.9484 460.193 40.7176C460.334 40.8216 460.469 40.9307 460.609 41.0398C461.384 41.6583 462.142 42.3235 462.875 43.0304C463.691 43.8151 464.476 44.6467 465.229 45.5354C465.947 46.3826 466.638 47.2765 467.293 48.212C467.88 49.0487 468.436 49.9218 468.961 50.8261L468.925 50.8106Z" stroke="#231815" stroke-width="2" stroke-miterlimit="10"/>
<path d="M430.393 42.3857L430.444 42.4689L430.257 42.578C430.299 42.5105 430.346 42.4481 430.393 42.3857Z" stroke="#231815" stroke-width="0.19" stroke-miterlimit="10"/>
<path d="M435.387 37.6509L436.234 39.1113L433.339 40.79L432.715 39.7142C433.531 38.945 434.42 38.2538 435.387 37.6509Z" stroke="#231815" stroke-width="0.19" stroke-miterlimit="10"/>
<path d="M438.391 36.1543L439.129 37.4276L436.234 39.1063L435.387 37.6459C435.548 37.5471 435.709 37.4484 435.87 37.3548C436.686 36.8819 437.528 36.4817 438.391 36.1543Z" stroke="#231815" stroke-width="0.19" stroke-miterlimit="10"/>
<path d="M441.738 35.2554L442.024 35.7491L439.129 37.4278L438.391 36.1545C439.477 35.7439 440.599 35.4425 441.738 35.2554Z" stroke="#231815" stroke-width="0.19" stroke-miterlimit="10"/>
<path d="M443.183 35.0733L442.024 35.7438L441.738 35.25C442.216 35.1721 442.699 35.1097 443.183 35.0681V35.0733Z" stroke="#231815" stroke-width="0.19" stroke-miterlimit="10"/>
<path d="M428.475 45.7534L429.223 47.0475L427.622 47.9778C427.867 47.2138 428.152 46.4706 428.475 45.7534Z" stroke="#231815" stroke-width="0.19" stroke-miterlimit="10"/>
<path d="M430.439 42.4688L432.118 45.3637L429.223 47.0423L428.474 45.7482C428.979 44.6257 429.571 43.5602 430.257 42.5728L430.444 42.4636L430.439 42.4688Z" stroke="#231815" stroke-width="0.19" stroke-miterlimit="10"/>
<path d="M433.337 40.7899L430.442 42.47L432.122 45.3647L435.017 43.6847L433.337 40.7899Z" stroke="#231815" stroke-width="0.19" stroke-miterlimit="10"/>
<path d="M436.234 39.1117L433.34 40.7917L435.02 43.6865L437.915 42.0065L436.234 39.1117Z" stroke="#231815" stroke-width="0.19" stroke-miterlimit="10"/>
<path d="M439.125 37.4286L436.23 39.1086L437.91 42.0034L440.805 40.3233L439.125 37.4286Z" stroke="#231815" stroke-width="0.19" stroke-miterlimit="10"/>
<path d="M442.023 35.7501L439.128 37.4302L440.808 40.3249L443.703 38.6449L442.023 35.7501Z" stroke="#231815" stroke-width="0.19" stroke-miterlimit="10"/>
<path d="M445.469 35.0108L446.602 36.9598L443.707 38.6385L442.029 35.7436L443.188 35.0732C443.941 35.0056 444.705 34.9848 445.474 35.0108H445.469Z" stroke="#231815" stroke-width="0.19" stroke-miterlimit="10"/>
<path d="M449.18 35.4685L446.602 36.9653L445.469 35.0164C446.696 35.0579 447.938 35.2087 449.18 35.4685Z" stroke="#231815" stroke-width="0.19" stroke-miterlimit="10"/>
<path d="M427.071 50.0049L428.012 51.6264L426.645 52.4164C426.749 51.5952 426.89 50.7897 427.071 50.0049Z" stroke="#231815" stroke-width="0.19" stroke-miterlimit="10"/>
<path d="M432.125 45.3658L429.23 47.0459L430.91 49.9407L433.805 48.2606L432.125 45.3658Z" stroke="#231815" stroke-width="0.19" stroke-miterlimit="10"/>
<path d="M435.015 43.683L432.121 45.363L433.801 48.2578L436.695 46.5777L435.015 43.683Z" stroke="#231815" stroke-width="0.19" stroke-miterlimit="10"/>
<path d="M437.913 42.0045L435.019 43.6846L436.699 46.5793L439.593 44.8993L437.913 42.0045Z" stroke="#231815" stroke-width="0.19" stroke-miterlimit="10"/>
<path d="M440.803 40.3214L437.909 42.0015L439.589 44.8962L442.483 43.2162L440.803 40.3214Z" stroke="#231815" stroke-width="0.19" stroke-miterlimit="10"/>
<path d="M443.706 38.6405L440.811 40.3206L442.491 43.2153L445.386 41.5353L443.706 38.6405Z" stroke="#231815" stroke-width="0.19" stroke-miterlimit="10"/>
<path d="M446.604 36.962L443.709 38.6421L445.389 41.5369L448.284 39.8568L446.604 36.962Z" stroke="#231815" stroke-width="0.19" stroke-miterlimit="10"/>
<path d="M449.664 35.572L451.176 38.1758L448.281 39.8545L446.603 36.9597L449.18 35.4629C449.342 35.4941 449.503 35.5305 449.669 35.572H449.664Z" stroke="#231815" stroke-width="0.19" stroke-miterlimit="10"/>
<path d="M453.52 36.8193L451.176 38.1758L449.664 35.572C450.953 35.8735 452.241 36.2892 453.515 36.8193H453.52Z" stroke="#231815" stroke-width="0.19" stroke-miterlimit="10"/>
<path d="M426.427 55.5657L426.796 56.1997L426.432 56.4128C426.427 56.127 426.427 55.8463 426.432 55.5657H426.427Z" stroke="#231815" stroke-width="0.19" stroke-miterlimit="10"/>
<path d="M428.012 51.6265L429.691 54.5213L426.796 56.2L426.427 55.5659C426.437 54.4953 426.51 53.4455 426.645 52.4164L428.012 51.6265Z" stroke="#231815" stroke-width="0.19" stroke-miterlimit="10"/>
<path d="M430.905 49.9425L428.01 51.6226L429.691 54.5173L432.585 52.8373L430.905 49.9425Z" stroke="#231815" stroke-width="0.19" stroke-miterlimit="10"/>
<path d="M433.803 48.2638L430.909 49.9438L432.589 52.8386L435.483 51.1586L433.803 48.2638Z" stroke="#231815" stroke-width="0.19" stroke-miterlimit="10"/>
<path d="M436.694 46.5809L433.799 48.261L435.479 51.1558L438.374 49.4757L436.694 46.5809Z" stroke="#231815" stroke-width="0.19" stroke-miterlimit="10"/>
<path d="M439.596 44.9L436.702 46.5801L438.382 49.4749L441.276 47.7948L439.596 44.9Z" stroke="#231815" stroke-width="0.19" stroke-miterlimit="10"/>
<path d="M442.489 43.2215L439.594 44.9016L441.274 47.7964L444.169 46.1163L442.489 43.2215Z" stroke="#231815" stroke-width="0.19" stroke-miterlimit="10"/>
<path d="M445.384 41.5384L442.49 43.2185L444.17 46.1133L447.064 44.4332L445.384 41.5384Z" stroke="#231815" stroke-width="0.19" stroke-miterlimit="10"/>
<path d="M448.282 39.8602L445.388 41.5403L447.068 44.4351L449.962 42.755L448.282 39.8602Z" stroke="#231815" stroke-width="0.19" stroke-miterlimit="10"/>
<path d="M451.175 38.1817L448.281 39.8618L449.961 42.7566L452.855 41.0765L451.175 38.1817Z" stroke="#231815" stroke-width="0.19" stroke-miterlimit="10"/>
<path d="M454.513 37.2509L455.755 39.3922L452.86 41.0709L451.181 38.176L453.525 36.8196C453.858 36.9547 454.185 37.1002 454.518 37.2509H454.513Z" stroke="#231815" stroke-width="0.19" stroke-miterlimit="10"/>
<path d="M457.096 38.6178L455.755 39.3973L454.513 37.2561C455.386 37.6615 456.248 38.1136 457.096 38.6178Z" stroke="#231815" stroke-width="0.19" stroke-miterlimit="10"/>
<path d="M426.796 56.2L428.475 59.0948L426.723 60.1134C426.546 58.8661 426.453 57.6292 426.432 56.413L426.796 56.2Z" stroke="#231815" stroke-width="0.19" stroke-miterlimit="10"/>
<path d="M429.688 54.5233L426.793 56.2034L428.474 59.0981L431.368 57.4181L429.688 54.5233Z" stroke="#231815" stroke-width="0.19" stroke-miterlimit="10"/>
<path d="M432.584 52.8404L429.689 54.5205L431.369 57.4153L434.264 55.7352L432.584 52.8404Z" stroke="#231815" stroke-width="0.19" stroke-miterlimit="10"/>
<path d="M435.486 51.159L432.592 52.8391L434.272 55.7339L437.166 54.0538L435.486 51.159Z" stroke="#231815" stroke-width="0.19" stroke-miterlimit="10"/>
<path d="M438.379 49.4808L435.485 51.1609L437.165 54.0557L440.059 52.3756L438.379 49.4808Z" stroke="#231815" stroke-width="0.19" stroke-miterlimit="10"/>
<path d="M441.274 47.7977L438.38 49.4778L440.06 52.3726L442.954 50.6925L441.274 47.7977Z" stroke="#231815" stroke-width="0.19" stroke-miterlimit="10"/>
<path d="M444.167 46.1193L441.273 47.7993L442.953 50.6941L445.847 49.014L444.167 46.1193Z" stroke="#231815" stroke-width="0.19" stroke-miterlimit="10"/>
<path d="M447.063 44.4366L444.168 46.1167L445.848 49.0115L448.743 47.3314L447.063 44.4366Z" stroke="#231815" stroke-width="0.19" stroke-miterlimit="10"/>
<path d="M449.965 42.7555L447.071 44.4355L448.751 47.3303L451.645 45.6503L449.965 42.7555Z" stroke="#231815" stroke-width="0.19" stroke-miterlimit="10"/>
<path d="M452.858 41.077L449.964 42.7571L451.644 45.6519L454.538 43.9718L452.858 41.077Z" stroke="#231815" stroke-width="0.19" stroke-miterlimit="10"/>
<path d="M455.753 39.3939L452.859 41.074L454.539 43.9687L457.433 42.2887L455.753 39.3939Z" stroke="#231815" stroke-width="0.19" stroke-miterlimit="10"/>
<path d="M460.162 40.7069L457.433 42.2921L455.755 39.3973L457.095 38.6177C458.14 39.2413 459.169 39.9378 460.162 40.7069Z" stroke="#231815" stroke-width="0.19" stroke-miterlimit="10"/>
<path d="M428.48 59.0945L430.159 61.9893L427.404 63.5901C427.113 62.4259 426.885 61.2669 426.723 60.1131L428.475 59.0945H428.48Z" stroke="#231815" stroke-width="0.19" stroke-miterlimit="10"/>
<path d="M431.371 57.4132L428.476 59.0933L430.157 61.988L433.051 60.308L431.371 57.4132Z" stroke="#231815" stroke-width="0.19" stroke-miterlimit="10"/>
<path d="M434.269 55.735L431.375 57.415L433.055 60.3098L435.949 58.6297L434.269 55.735Z" stroke="#231815" stroke-width="0.19" stroke-miterlimit="10"/>
<path d="M437.165 54.0519L434.27 55.7319L435.95 58.6267L438.845 56.9466L437.165 54.0519Z" stroke="#231815" stroke-width="0.19" stroke-miterlimit="10"/>
<path d="M440.058 52.3734L437.163 54.0535L438.843 56.9482L441.738 55.2682L440.058 52.3734Z" stroke="#231815" stroke-width="0.19" stroke-miterlimit="10"/>
<path d="M442.953 50.6905L440.058 52.3706L441.739 55.2654L444.633 53.5853L442.953 50.6905Z" stroke="#231815" stroke-width="0.19" stroke-miterlimit="10"/>
<path d="M445.85 49.0096L442.955 50.6897L444.636 53.5845L447.53 51.9044L445.85 49.0096Z" stroke="#231815" stroke-width="0.19" stroke-miterlimit="10"/>
<path d="M448.748 47.3309L445.854 49.011L447.534 51.9058L450.428 50.2257L448.748 47.3309Z" stroke="#231815" stroke-width="0.19" stroke-miterlimit="10"/>
<path d="M451.644 45.6481L448.749 47.3281L450.429 50.2229L453.324 48.5428L451.644 45.6481Z" stroke="#231815" stroke-width="0.19" stroke-miterlimit="10"/>
<path d="M454.536 43.9696L451.641 45.6497L453.322 48.5444L456.216 46.8644L454.536 43.9696Z" stroke="#231815" stroke-width="0.19" stroke-miterlimit="10"/>
<path d="M457.434 42.2911L454.54 43.9712L456.22 46.866L459.114 45.1859L457.434 42.2911Z" stroke="#231815" stroke-width="0.19" stroke-miterlimit="10"/>
<path d="M460.578 41.0291L462.012 43.5029L459.117 45.1816L457.439 42.2868L460.167 40.7017C460.307 40.8056 460.443 40.9147 460.583 41.0239L460.578 41.0291Z" stroke="#231815" stroke-width="0.19" stroke-miterlimit="10"/>
<path d="M462.844 43.0196L462.012 43.5029L460.578 41.0291C461.352 41.6475 462.111 42.3128 462.844 43.0196Z" stroke="#231815" stroke-width="0.19" stroke-miterlimit="10"/>
<path d="M430.159 61.9896L431.837 64.8844L428.942 66.5631L427.56 64.1828C427.503 63.9853 427.451 63.7826 427.404 63.5851L430.159 61.9844V61.9896Z" stroke="#231815" stroke-width="0.19" stroke-miterlimit="10"/>
<path d="M433.05 60.3114L430.155 61.9915L431.835 64.8862L434.73 63.2062L433.05 60.3114Z" stroke="#231815" stroke-width="0.19" stroke-miterlimit="10"/>
<path d="M435.948 58.6329L433.053 60.313L434.733 63.2078L437.628 61.5277L435.948 58.6329Z" stroke="#231815" stroke-width="0.19" stroke-miterlimit="10"/>
<path d="M438.843 56.9501L435.948 58.6301L437.628 61.5249L440.523 59.8448L438.843 56.9501Z" stroke="#231815" stroke-width="0.19" stroke-miterlimit="10"/>
<path d="M441.741 55.2689L438.846 56.949L440.526 59.8437L443.421 58.1637L441.741 55.2689Z" stroke="#231815" stroke-width="0.19" stroke-miterlimit="10"/>
<path d="M444.639 53.5907L441.744 55.2708L443.424 58.1655L446.319 56.4855L444.639 53.5907Z" stroke="#231815" stroke-width="0.19" stroke-miterlimit="10"/>
<path d="M447.529 51.9076L444.634 53.5876L446.314 56.4824L449.209 54.8024L447.529 51.9076Z" stroke="#231815" stroke-width="0.19" stroke-miterlimit="10"/>
<path d="M450.427 50.2291L447.532 51.9092L449.212 54.804L452.107 53.1239L450.427 50.2291Z" stroke="#231815" stroke-width="0.19" stroke-miterlimit="10"/>
<path d="M453.322 48.546L450.427 50.2261L452.107 53.1208L455.002 51.4408L453.322 48.546Z" stroke="#231815" stroke-width="0.19" stroke-miterlimit="10"/>
<path d="M456.219 46.8651L453.325 48.5452L455.005 51.4399L457.899 49.7599L456.219 46.8651Z" stroke="#231815" stroke-width="0.19" stroke-miterlimit="10"/>
<path d="M459.117 45.1866L456.223 46.8667L457.903 49.7615L460.797 48.0814L459.117 45.1866Z" stroke="#231815" stroke-width="0.19" stroke-miterlimit="10"/>
<path d="M462.013 43.5038L459.118 45.1838L460.798 48.0786L463.693 46.3985L462.013 43.5038Z" stroke="#231815" stroke-width="0.19" stroke-miterlimit="10"/>
<path d="M465.198 45.5248L463.691 46.3979L462.012 43.5031L462.844 43.0198C463.66 43.8046 464.444 44.6361 465.198 45.5248Z" stroke="#231815" stroke-width="0.19" stroke-miterlimit="10"/>
<path d="M431.838 64.8924L428.943 66.5725L430.623 69.4673L433.518 67.7872L431.838 64.8924Z" stroke="#231815" stroke-width="0.19" stroke-miterlimit="10"/>
<path d="M434.728 63.2093L431.833 64.8894L433.513 67.7842L436.408 66.1041L434.728 63.2093Z" stroke="#231815" stroke-width="0.19" stroke-miterlimit="10"/>
<path d="M437.631 61.5284L434.736 63.2085L436.416 66.1033L439.311 64.4232L437.631 61.5284Z" stroke="#231815" stroke-width="0.19" stroke-miterlimit="10"/>
<path d="M440.529 59.85L437.634 61.53L439.314 64.4248L442.209 62.7447L440.529 59.85Z" stroke="#231815" stroke-width="0.19" stroke-miterlimit="10"/>
<path d="M443.419 58.1671L440.524 59.8472L442.204 62.7419L445.099 61.0619L443.419 58.1671Z" stroke="#231815" stroke-width="0.19" stroke-miterlimit="10"/>
<path d="M446.317 56.4886L443.422 58.1687L445.102 61.0635L447.997 59.3834L446.317 56.4886Z" stroke="#231815" stroke-width="0.19" stroke-miterlimit="10"/>
<path d="M449.207 54.8058L446.312 56.4858L447.992 59.3806L450.887 57.7005L449.207 54.8058Z" stroke="#231815" stroke-width="0.19" stroke-miterlimit="10"/>
<path d="M452.11 53.1246L449.215 54.8047L450.895 57.6995L453.79 56.0194L452.11 53.1246Z" stroke="#231815" stroke-width="0.19" stroke-miterlimit="10"/>
<path d="M455.008 51.4462L452.113 53.1262L453.793 56.021L456.688 54.3409L455.008 51.4462Z" stroke="#231815" stroke-width="0.19" stroke-miterlimit="10"/>
<path d="M457.898 49.763L455.003 51.4431L456.683 54.3379L459.578 52.6578L457.898 49.763Z" stroke="#231815" stroke-width="0.19" stroke-miterlimit="10"/>
<path d="M460.796 48.0848L457.901 49.7649L459.581 52.6597L462.476 50.9796L460.796 48.0848Z" stroke="#231815" stroke-width="0.19" stroke-miterlimit="10"/>
<path d="M463.694 46.4064L460.799 48.0864L462.479 50.9812L465.374 49.3011L463.694 46.4064Z" stroke="#231815" stroke-width="0.19" stroke-miterlimit="10"/>
<path d="M467.261 48.2014L465.375 49.298L463.696 46.4032L465.203 45.53C465.92 46.3772 466.612 47.2711 467.267 48.2066L467.261 48.2014Z" stroke="#231815" stroke-width="0.19" stroke-miterlimit="10"/>
<path d="M433.521 67.7823L430.626 69.4624L432.306 72.3572L435.201 70.6771L433.521 67.7823Z" stroke="#231815" stroke-width="0.19" stroke-miterlimit="10"/>
<path d="M436.414 66.1039L433.519 67.7839L435.199 70.6787L438.094 68.9986L436.414 66.1039Z" stroke="#231815" stroke-width="0.19" stroke-miterlimit="10"/>
<path d="M439.309 64.4213L436.414 66.1013L438.094 68.9961L440.989 67.316L439.309 64.4213Z" stroke="#231815" stroke-width="0.19" stroke-miterlimit="10"/>
<path d="M442.207 62.7428L439.312 64.4229L440.992 67.3176L443.887 65.6376L442.207 62.7428Z" stroke="#231815" stroke-width="0.19" stroke-miterlimit="10"/>
<path d="M445.098 61.0597L442.203 62.7397L443.883 65.6345L446.778 63.9545L445.098 61.0597Z" stroke="#231815" stroke-width="0.19" stroke-miterlimit="10"/>
<path d="M448 59.3785L445.105 61.0586L446.785 63.9534L449.68 62.2733L448 59.3785Z" stroke="#231815" stroke-width="0.19" stroke-miterlimit="10"/>
<path d="M450.893 57.7003L447.998 59.3804L449.678 62.2751L452.573 60.5951L450.893 57.7003Z" stroke="#231815" stroke-width="0.19" stroke-miterlimit="10"/>
<path d="M453.788 56.0172L450.893 57.6973L452.573 60.592L455.468 58.912L453.788 56.0172Z" stroke="#231815" stroke-width="0.19" stroke-miterlimit="10"/>
<path d="M456.686 54.3385L453.791 56.0186L455.472 58.9133L458.366 57.2333L456.686 54.3385Z" stroke="#231815" stroke-width="0.19" stroke-miterlimit="10"/>
<path d="M459.576 52.6559L456.681 54.3359L458.361 57.2307L461.256 55.5506L459.576 52.6559Z" stroke="#231815" stroke-width="0.19" stroke-miterlimit="10"/>
<path d="M462.479 50.9747L459.584 52.6548L461.264 55.5496L464.159 53.8695L462.479 50.9747Z" stroke="#231815" stroke-width="0.19" stroke-miterlimit="10"/>
<path d="M465.377 49.2963L462.482 50.9763L464.162 53.8711L467.057 52.191L465.377 49.2963Z" stroke="#231815" stroke-width="0.19" stroke-miterlimit="10"/>
<path d="M468.924 50.8102C468.966 50.883 469.007 50.9558 469.049 51.0285L467.053 52.1875L465.374 49.2927L467.261 48.196C467.848 49.0328 468.404 49.9059 468.929 50.8102H468.924Z" stroke="#231815" stroke-width="0.19" stroke-miterlimit="10"/>
<path d="M435.2 70.6803L432.305 72.3604L433.985 75.2551L436.88 73.5751L435.2 70.6803Z" stroke="#231815" stroke-width="0.19" stroke-miterlimit="10"/>
<path d="M438.092 69.0018L435.197 70.6819L436.877 73.5767L439.772 71.8966L438.092 69.0018Z" stroke="#231815" stroke-width="0.19" stroke-miterlimit="10"/>
<path d="M440.988 67.319L438.093 68.999L439.773 71.8938L442.668 70.2137L440.988 67.319Z" stroke="#231815" stroke-width="0.19" stroke-miterlimit="10"/>
<path d="M443.89 65.6378L440.995 67.3179L442.675 70.2126L445.57 68.5326L443.89 65.6378Z" stroke="#231815" stroke-width="0.19" stroke-miterlimit="10"/>
<path d="M446.783 63.9596L443.888 65.6396L445.568 68.5344L448.463 66.8544L446.783 63.9596Z" stroke="#231815" stroke-width="0.19" stroke-miterlimit="10"/>
<path d="M449.678 62.2765L446.783 63.9565L448.463 66.8513L451.358 65.1712L449.678 62.2765Z" stroke="#231815" stroke-width="0.19" stroke-miterlimit="10"/>
<path d="M452.571 60.5983L449.676 62.2783L451.356 65.1731L454.251 63.493L452.571 60.5983Z" stroke="#231815" stroke-width="0.19" stroke-miterlimit="10"/>
<path d="M455.467 58.9151L452.572 60.5952L454.252 63.49L457.147 61.8099L455.467 58.9151Z" stroke="#231815" stroke-width="0.19" stroke-miterlimit="10"/>
<path d="M458.369 57.2342L455.474 58.9143L457.154 61.8091L460.049 60.129L458.369 57.2342Z" stroke="#231815" stroke-width="0.19" stroke-miterlimit="10"/>
<path d="M461.262 55.5558L458.367 57.2358L460.047 60.1306L462.942 58.4505L461.262 55.5558Z" stroke="#231815" stroke-width="0.19" stroke-miterlimit="10"/>
<path d="M464.157 53.8727L461.262 55.5527L462.942 58.4475L465.837 56.7674L464.157 53.8727Z" stroke="#231815" stroke-width="0.19" stroke-miterlimit="10"/>
<path d="M467.055 52.1942L464.16 53.8743L465.84 56.769L468.735 55.089L467.055 52.1942Z" stroke="#231815" stroke-width="0.19" stroke-miterlimit="10"/>
<path d="M469.049 51.0337C469.61 52.016 470.12 53.0138 470.582 54.0169L468.732 55.0875L467.053 52.1927L469.049 51.0337Z" stroke="#231815" stroke-width="0.19" stroke-miterlimit="10"/>
<path d="M436.878 73.5734L433.983 75.2534L435.663 78.1482L438.558 76.4681L436.878 73.5734Z" stroke="#231815" stroke-width="0.19" stroke-miterlimit="10"/>
<path d="M439.775 71.8924L436.88 73.5725L438.56 76.4673L441.455 74.7872L439.775 71.8924Z" stroke="#231815" stroke-width="0.19" stroke-miterlimit="10"/>
<path d="M442.673 70.214L439.778 71.894L441.458 74.7888L444.353 73.1087L442.673 70.214Z" stroke="#231815" stroke-width="0.19" stroke-miterlimit="10"/>
<path d="M445.569 68.5311L442.674 70.2112L444.354 73.106L447.249 71.4259L445.569 68.5311Z" stroke="#231815" stroke-width="0.19" stroke-miterlimit="10"/>
<path d="M448.462 66.8524L445.567 68.5325L447.247 71.4272L450.142 69.7472L448.462 66.8524Z" stroke="#231815" stroke-width="0.19" stroke-miterlimit="10"/>
<path d="M451.357 65.1695L448.462 66.8496L450.142 69.7444L453.037 68.0643L451.357 65.1695Z" stroke="#231815" stroke-width="0.19" stroke-miterlimit="10"/>
<path d="M454.254 63.4886L451.359 65.1687L453.039 68.0635L455.934 66.3834L454.254 63.4886Z" stroke="#231815" stroke-width="0.19" stroke-miterlimit="10"/>
<path d="M457.152 61.8102L454.257 63.4902L455.937 66.385L458.832 64.7049L457.152 61.8102Z" stroke="#231815" stroke-width="0.19" stroke-miterlimit="10"/>
<path d="M460.048 60.1271L457.153 61.8071L458.833 64.7019L461.728 63.0218L460.048 60.1271Z" stroke="#231815" stroke-width="0.19" stroke-miterlimit="10"/>
<path d="M462.94 58.4488L460.045 60.1289L461.725 63.0237L464.62 61.3436L462.94 58.4488Z" stroke="#231815" stroke-width="0.19" stroke-miterlimit="10"/>
<path d="M465.836 56.7657L462.941 58.4458L464.621 61.3406L467.516 59.6605L465.836 56.7657Z" stroke="#231815" stroke-width="0.19" stroke-miterlimit="10"/>
<path d="M468.738 55.0848L465.843 56.7649L467.524 59.6597L470.418 57.9796L468.738 55.0848Z" stroke="#231815" stroke-width="0.19" stroke-miterlimit="10"/>
<path d="M470.582 54.0168C471.055 55.0563 471.476 56.1061 471.84 57.1611L470.416 57.9875L468.737 55.0927L470.588 54.022L470.582 54.0168Z" stroke="#231815" stroke-width="0.19" stroke-miterlimit="10"/>
<path d="M438.562 76.469L440.241 79.3638L437.616 80.8866C437.336 80.6267 437.06 80.3617 436.79 80.0914L435.662 78.1477L438.557 76.469H438.562Z" stroke="#231815" stroke-width="0.19" stroke-miterlimit="10"/>
<path d="M441.454 74.7904L438.559 76.4705L440.239 79.3652L443.134 77.6852L441.454 74.7904Z" stroke="#231815" stroke-width="0.19" stroke-miterlimit="10"/>
<path d="M444.352 73.1119L441.457 74.792L443.137 77.6868L446.032 76.0067L444.352 73.1119Z" stroke="#231815" stroke-width="0.19" stroke-miterlimit="10"/>
<path d="M447.247 71.4291L444.352 73.1091L446.032 76.0039L448.927 74.3238L447.247 71.4291Z" stroke="#231815" stroke-width="0.19" stroke-miterlimit="10"/>
<path d="M450.145 69.7477L447.25 71.4277L448.93 74.3225L451.825 72.6424L450.145 69.7477Z" stroke="#231815" stroke-width="0.19" stroke-miterlimit="10"/>
<path d="M453.043 68.0694L450.148 69.7495L451.828 72.6443L454.723 70.9642L453.043 68.0694Z" stroke="#231815" stroke-width="0.19" stroke-miterlimit="10"/>
<path d="M455.932 66.3866L453.038 68.0667L454.718 70.9614L457.613 69.2814L455.932 66.3866Z" stroke="#231815" stroke-width="0.19" stroke-miterlimit="10"/>
<path d="M458.831 64.7079L455.936 66.3879L457.616 69.2827L460.511 67.6026L458.831 64.7079Z" stroke="#231815" stroke-width="0.19" stroke-miterlimit="10"/>
<path d="M461.726 63.0253L458.831 64.7053L460.511 67.6001L463.406 65.92L461.726 63.0253Z" stroke="#231815" stroke-width="0.19" stroke-miterlimit="10"/>
<path d="M464.623 61.3441L461.728 63.0242L463.408 65.9189L466.303 64.2389L464.623 61.3441Z" stroke="#231815" stroke-width="0.19" stroke-miterlimit="10"/>
<path d="M467.521 59.6654L464.626 61.3455L466.306 64.2402L469.201 62.5602L467.521 59.6654Z" stroke="#231815" stroke-width="0.19" stroke-miterlimit="10"/>
<path d="M470.417 57.9825L467.522 59.6626L469.202 62.5574L472.097 60.8773L470.417 57.9825Z" stroke="#231815" stroke-width="0.19" stroke-miterlimit="10"/>
<path d="M471.84 57.1562C472.22 58.2581 472.542 59.3651 472.802 60.4721L472.1 60.8774L470.421 57.9826L471.845 57.1562H471.84Z" stroke="#231815" stroke-width="0.19" stroke-miterlimit="10"/>
<path d="M440.241 79.3638L441.92 82.2586L440.35 83.1681C439.41 82.4717 438.5 81.7077 437.617 80.8865L440.241 79.3638Z" stroke="#231815" stroke-width="0.19" stroke-miterlimit="10"/>
<path d="M443.132 77.6881L440.237 79.3682L441.917 82.2629L444.812 80.5829L443.132 77.6881Z" stroke="#231815" stroke-width="0.19" stroke-miterlimit="10"/>
<path d="M446.034 76.0072L443.14 77.6873L444.82 80.582L447.715 78.902L446.034 76.0072Z" stroke="#231815" stroke-width="0.19" stroke-miterlimit="10"/>
<path d="M448.933 74.3287L446.038 76.0088L447.718 78.9036L450.613 77.2235L448.933 74.3287Z" stroke="#231815" stroke-width="0.19" stroke-miterlimit="10"/>
<path d="M451.823 72.6459L448.928 74.3259L450.608 77.2207L453.503 75.5406L451.823 72.6459Z" stroke="#231815" stroke-width="0.19" stroke-miterlimit="10"/>
<path d="M454.721 70.9674L451.826 72.6475L453.506 75.5422L456.401 73.8622L454.721 70.9674Z" stroke="#231815" stroke-width="0.19" stroke-miterlimit="10"/>
<path d="M457.611 69.2845L454.716 70.9646L456.396 73.8594L459.291 72.1793L457.611 69.2845Z" stroke="#231815" stroke-width="0.19" stroke-miterlimit="10"/>
<path d="M460.514 67.6034L457.619 69.2834L459.299 72.1782L462.194 70.4982L460.514 67.6034Z" stroke="#231815" stroke-width="0.19" stroke-miterlimit="10"/>
<path d="M463.412 65.9249L460.517 67.605L462.197 70.4998L465.092 68.8197L463.412 65.9249Z" stroke="#231815" stroke-width="0.19" stroke-miterlimit="10"/>
<path d="M466.302 64.2421L463.407 65.9221L465.087 68.8169L467.982 67.1368L466.302 64.2421Z" stroke="#231815" stroke-width="0.19" stroke-miterlimit="10"/>
<path d="M469.2 62.5636L466.305 64.2437L467.985 67.1384L470.88 65.4584L469.2 62.5636Z" stroke="#231815" stroke-width="0.19" stroke-miterlimit="10"/>
<path d="M472.095 60.8774L473.274 62.9147C473.332 63.2681 473.384 63.6268 473.425 63.9802L470.878 65.4562L469.2 62.5613L472.095 60.8826V60.8774Z" stroke="#231815" stroke-width="0.19" stroke-miterlimit="10"/>
<path d="M472.796 60.4719C472.989 61.2879 473.15 62.1038 473.275 62.9146L472.095 60.8773L472.796 60.4719Z" stroke="#231815" stroke-width="0.19" stroke-miterlimit="10"/>
<path d="M441.925 82.2639L443.604 85.1588L443.489 85.2263C442.424 84.6182 441.374 83.9374 440.355 83.1734L441.925 82.2639Z" stroke="#231815" stroke-width="0.19" stroke-miterlimit="10"/>
<path d="M444.818 80.5829L441.923 82.2629L443.603 85.1577L446.498 83.4776L444.818 80.5829Z" stroke="#231815" stroke-width="0.19" stroke-miterlimit="10"/>
<path d="M447.713 78.9L444.818 80.5801L446.498 83.4749L449.393 81.7948L447.713 78.9Z" stroke="#231815" stroke-width="0.19" stroke-miterlimit="10"/>
<path d="M450.611 77.2215L447.716 78.9016L449.396 81.7964L452.291 80.1163L450.611 77.2215Z" stroke="#231815" stroke-width="0.19" stroke-miterlimit="10"/>
<path d="M453.501 75.5387L450.607 77.2188L452.287 80.1135L455.181 78.4335L453.501 75.5387Z" stroke="#231815" stroke-width="0.19" stroke-miterlimit="10"/>
<path d="M456.404 73.8575L453.509 75.5376L455.189 78.4324L458.084 76.7523L456.404 73.8575Z" stroke="#231815" stroke-width="0.19" stroke-miterlimit="10"/>
<path d="M459.296 72.1791L456.402 73.8591L458.082 76.7539L460.977 75.0738L459.296 72.1791Z" stroke="#231815" stroke-width="0.19" stroke-miterlimit="10"/>
<path d="M462.192 70.4962L459.297 72.1763L460.977 75.071L463.872 73.391L462.192 70.4962Z" stroke="#231815" stroke-width="0.19" stroke-miterlimit="10"/>
<path d="M465.09 68.8177L462.195 70.4978L463.875 73.3926L466.77 71.7125L465.09 68.8177Z" stroke="#231815" stroke-width="0.19" stroke-miterlimit="10"/>
<path d="M467.98 67.1346L465.085 68.8147L466.765 71.7095L469.66 70.0294L467.98 67.1346Z" stroke="#231815" stroke-width="0.19" stroke-miterlimit="10"/>
<path d="M470.878 65.4564L467.983 67.1365L469.663 70.0312L472.558 68.3512L470.878 65.4564Z" stroke="#231815" stroke-width="0.19" stroke-miterlimit="10"/>
<path d="M473.425 63.98C473.581 65.2429 473.654 66.4902 473.654 67.722L472.562 68.356L470.884 65.4612L473.43 63.9852L473.425 63.98Z" stroke="#231815" stroke-width="0.19" stroke-miterlimit="10"/>
<path d="M443.604 85.1584L443.718 85.3559C443.64 85.3144 443.562 85.2728 443.489 85.226L443.604 85.1584Z" stroke="#231815" stroke-width="0.19" stroke-miterlimit="10"/>
<path d="M446.498 83.48L448.177 86.3748L447.153 86.9673C445.994 86.5203 444.846 85.9798 443.718 85.3562L443.604 85.1587L446.498 83.48Z" stroke="#231815" stroke-width="0.19" stroke-miterlimit="10"/>
<path d="M449.392 81.798L446.497 83.478L448.177 86.3728L451.072 84.6927L449.392 81.798Z" stroke="#231815" stroke-width="0.19" stroke-miterlimit="10"/>
<path d="M452.294 80.1171L449.399 81.7971L451.079 84.6919L453.974 83.0118L452.294 80.1171Z" stroke="#231815" stroke-width="0.19" stroke-miterlimit="10"/>
<path d="M455.187 78.4386L452.292 80.1187L453.972 83.0134L456.867 81.3334L455.187 78.4386Z" stroke="#231815" stroke-width="0.19" stroke-miterlimit="10"/>
<path d="M458.082 76.7557L455.187 78.4358L456.867 81.3306L459.762 79.6505L458.082 76.7557Z" stroke="#231815" stroke-width="0.19" stroke-miterlimit="10"/>
<path d="M460.975 75.077L458.08 76.7571L459.76 79.6519L462.655 77.9718L460.975 75.077Z" stroke="#231815" stroke-width="0.19" stroke-miterlimit="10"/>
<path d="M463.87 73.3942L460.976 75.0742L462.656 77.969L465.55 76.2889L463.87 73.3942Z" stroke="#231815" stroke-width="0.19" stroke-miterlimit="10"/>
<path d="M466.768 71.7157L463.874 73.3958L465.554 76.2905L468.448 74.6105L466.768 71.7157Z" stroke="#231815" stroke-width="0.19" stroke-miterlimit="10"/>
<path d="M469.666 70.0348L466.771 71.7148L468.451 74.6096L471.346 72.9296L469.666 70.0348Z" stroke="#231815" stroke-width="0.19" stroke-miterlimit="10"/>
<path d="M472.563 68.3508L473.55 70.0555C473.503 70.6324 473.43 71.2041 473.347 71.7706L471.346 72.9296L469.668 70.0347L472.563 68.356V68.3508Z" stroke="#231815" stroke-width="0.19" stroke-miterlimit="10"/>
<path d="M473.654 67.717C473.654 68.507 473.617 69.2866 473.55 70.0558L472.562 68.3511L473.654 67.717Z" stroke="#231815" stroke-width="0.19" stroke-miterlimit="10"/>
<path d="M448.182 86.3745L448.868 87.5595C448.297 87.388 447.725 87.1905 447.158 86.9722L448.182 86.3797V86.3745Z" stroke="#231815" stroke-width="0.19" stroke-miterlimit="10"/>
<path d="M451.077 84.6963L452.756 87.5911L451.654 88.2304C450.724 88.0693 449.794 87.8458 448.869 87.5599L448.183 86.375L451.077 84.6963Z" stroke="#231815" stroke-width="0.19" stroke-miterlimit="10"/>
<path d="M453.972 83.0099L451.078 84.6899L452.758 87.5847L455.652 85.9046L453.972 83.0099Z" stroke="#231815" stroke-width="0.19" stroke-miterlimit="10"/>
<path d="M456.865 81.3312L453.971 83.0112L455.651 85.906L458.545 84.2259L456.865 81.3312Z" stroke="#231815" stroke-width="0.19" stroke-miterlimit="10"/>
<path d="M459.761 79.6483L456.866 81.3284L458.546 84.2231L461.441 82.5431L459.761 79.6483Z" stroke="#231815" stroke-width="0.19" stroke-miterlimit="10"/>
<path d="M462.653 77.9698L459.759 79.6499L461.439 82.5447L464.333 80.8646L462.653 77.9698Z" stroke="#231815" stroke-width="0.19" stroke-miterlimit="10"/>
<path d="M465.556 76.2887L462.661 77.9688L464.341 80.8635L467.236 79.1835L465.556 76.2887Z" stroke="#231815" stroke-width="0.19" stroke-miterlimit="10"/>
<path d="M468.451 74.6058L465.557 76.2859L467.237 79.1807L470.131 77.5006L468.451 74.6058Z" stroke="#231815" stroke-width="0.19" stroke-miterlimit="10"/>
<path d="M471.346 72.9297L472.604 75.0969C472.485 75.5023 472.35 75.9025 472.209 76.2975L470.13 77.5032L468.452 74.6084L471.346 72.9297Z" stroke="#231815" stroke-width="0.19" stroke-miterlimit="10"/>
<path d="M473.347 71.7705C473.176 72.9139 472.926 74.0261 472.604 75.0967L471.346 72.9295L473.347 71.7705Z" stroke="#231815" stroke-width="0.19" stroke-miterlimit="10"/>
<path d="M452.756 87.5854L453.255 88.443C452.72 88.391 452.189 88.3183 451.654 88.2247L452.756 87.5854Z" stroke="#231815" stroke-width="0.19" stroke-miterlimit="10"/>
<path d="M455.651 85.9072L457.127 88.4539C455.854 88.5786 454.554 88.5734 453.25 88.4487L452.751 87.5911L455.646 85.9124L455.651 85.9072Z" stroke="#231815" stroke-width="0.19" stroke-miterlimit="10"/>
<path d="M461.446 82.5482L458.552 84.2283L460.232 87.123L463.126 85.443L461.446 82.5482Z" stroke="#231815" stroke-width="0.19" stroke-miterlimit="10"/>
<path d="M464.336 80.8651L461.442 82.5452L463.122 85.4399L466.016 83.7599L464.336 80.8651Z" stroke="#231815" stroke-width="0.19" stroke-miterlimit="10"/>
<path d="M467.234 79.1866L464.34 80.8667L466.02 83.7615L468.914 82.0814L467.234 79.1866Z" stroke="#231815" stroke-width="0.19" stroke-miterlimit="10"/>
<path d="M470.13 77.5034L471.008 79.0158C470.447 80.076 469.797 81.0739 469.059 81.9938L468.914 82.0769L467.235 79.1821L470.13 77.5034Z" stroke="#231815" stroke-width="0.19" stroke-miterlimit="10"/>
<path d="M472.209 76.2974C471.866 77.2433 471.471 78.1528 471.008 79.0155L470.13 77.5031L472.209 76.2974Z" stroke="#231815" stroke-width="0.19" stroke-miterlimit="10"/>
<path d="M469.065 81.9934C469.029 82.0403 468.987 82.0872 468.95 82.134L468.919 82.0767L469.065 81.9934Z" stroke="#231815" stroke-width="0.39" stroke-miterlimit="10"/>
<path d="M466.53 84.8427L462.188 87.3628L488.78 133.18L493.122 130.66L466.53 84.8427Z" fill="#D9D9D9"/>
<path d="M493.803 130.262L488.099 133.573L507.216 166.512L512.92 163.202L493.803 130.262Z" fill="#06655B"/>
<path d="M430.621 69.4631L429.712 69.9932" stroke="#231815" stroke-width="0.19" stroke-miterlimit="10"/>
<path d="M428.943 66.5684L428.412 66.875" stroke="#231815" stroke-width="0.19" stroke-miterlimit="10"/>
<path d="M432.305 72.3579L431.281 72.9504" stroke="#231815" stroke-width="0.19" stroke-miterlimit="10"/>
<path d="M434.103 75.1853L433.111 75.7622" stroke="#231815" stroke-width="0.19" stroke-miterlimit="10"/>
<path d="M435.668 78.1531L435.221 78.4129" stroke="#231815" stroke-width="0.19" stroke-miterlimit="10"/>
<path d="M466.019 83.7605L466.508 84.5972" stroke="#231815" stroke-width="0.19" stroke-miterlimit="10"/>
<path d="M463.125 85.4446L463.717 86.4632" stroke="#231815" stroke-width="0.19" stroke-miterlimit="10"/>
<path d="M460.229 87.1233L460.598 87.7625" stroke="#231815" stroke-width="0.19" stroke-miterlimit="10"/>
<path d="M460.594 86.9099L458.161 88.3235" stroke="#231815" stroke-width="0.19" stroke-miterlimit="10"/>
</g>
<g filter="url(#filter1_d_5_9142)">
<path d="M297.2 290.515C298.534 296.19 295.677 302.643 288.715 305.612C281.754 308.585 274.264 306.645 271.99 301.276C269.712 295.908 273.509 289.15 280.471 286.181C281.785 285.621 283.117 285.233 284.433 285.013L277.688 259.97L251.769 266.95L259.212 292.256C259.212 292.256 260.78 297.83 261.332 300.18C262.666 305.859 259.809 312.307 252.846 315.276C245.885 318.249 238.395 316.309 236.122 310.94C233.844 305.573 237.641 298.814 244.603 295.845C245.917 295.285 247.249 294.898 248.564 294.678L241.819 269.63L241.743 269.651L238.952 259.284L284.821 246.932L287.295 256.117L295.075 282.589C295.075 282.589 296.648 288.165 297.2 290.515Z" fill="#F9C927"/>
<path d="M341.944 240.168C341.415 244.15 337.998 247.609 332.786 247.819C327.575 248.033 323.224 244.952 323.071 240.938C322.916 236.923 327.014 233.496 332.226 233.286C333.209 233.246 334.162 233.322 335.063 233.502L336.84 215.719L318.435 213.88L317.044 232.003C317.044 232.003 316.691 235.977 316.473 237.626C315.944 241.611 312.527 245.067 307.315 245.277C302.104 245.491 297.753 242.41 297.6 238.396C297.445 234.381 301.543 230.954 306.754 230.744C307.738 230.704 308.691 230.78 309.592 230.96L311.369 213.174L311.316 213.169L312.051 205.808L344.622 209.062L343.971 215.585L342.512 234.541C342.512 234.541 342.162 238.519 341.944 240.168Z" fill="#F9C927"/>
</g>
<g filter="url(#filter2_d_5_9142)">
<path d="M242.589 50.9954L212.242 129.621C211.354 118.918 200.116 114.239 190.62 120.724L234.154 46.9149C235.403 44.7989 238.068 44.0045 240.271 45.0806C242.459 46.1494 243.463 48.7205 242.589 50.9954Z" fill="#444444"/>
<path d="M201.546 149.439C191.652 157.672 181.231 157.722 177.388 155.332C180.458 155.585 189.969 146.81 186.582 136.28C183.946 128.105 187.962 120.861 193.053 116.976C201.575 110.476 214.033 117.554 213.52 127C212.942 137.638 205.576 146.081 201.546 149.432V149.439Z" fill="white"/>
<path d="M179.894 156.39C183.338 157.016 185.497 157.334 190.924 155.451C194.773 154.116 197.702 152.559 200.873 150.127C204.318 147.486 205.883 145.43 205.883 145.43C204.134 143.785 201.545 148.819 197.987 147.189C194.614 145.645 200.525 141.755 196.14 139.728C192.195 137.902 193.304 141.979 190.691 140.955C189.075 140.32 190.281 137.448 186.961 137.289C186.961 137.289 187.051 139.197 187.096 140.734C187.177 143.742 186.28 146.791 183.964 149.814C181.172 153.458 177.388 155.451 177.388 155.451L179.894 156.39Z" fill="#FE346E"/>
</g>
<g filter="url(#filter3_d_5_9142)">
<path d="M334.643 132.457C352.172 132.457 366.383 118.247 366.383 100.717C366.383 83.1881 352.172 68.9778 334.643 68.9778C317.114 68.9778 302.903 83.1881 302.903 100.717C302.903 118.247 317.114 132.457 334.643 132.457Z" fill="white"/>
<path d="M351.352 97.2481L341.88 108.105L328.629 102.453L329.91 88.1048L343.955 84.8873L351.352 97.2481Z" fill="#231815" stroke="#231815"/>
<path d="M336.447 131.825C336.172 131.862 335.948 131.891 335.789 131.911L332.993 128.349L343.661 122.182L352.769 123.132L350.812 127.457C350.805 127.461 350.799 127.465 350.792 127.47C350.7 127.528 350.564 127.614 350.39 127.72C350.042 127.931 349.542 128.223 348.938 128.543C347.728 129.186 346.119 129.931 344.494 130.371C342.846 130.817 340.606 131.211 338.764 131.494C337.846 131.635 337.031 131.748 336.447 131.825ZM350.93 127.381C350.93 127.381 350.93 127.381 350.93 127.381L350.93 127.381Z" fill="#231815" stroke="#231815"/>
<path d="M307.54 103.158L316.075 109.76L318.305 121.217L311.621 121.792C311.515 121.652 311.363 121.45 311.177 121.202C310.804 120.703 310.295 120.019 309.751 119.273C308.657 117.771 307.445 116.053 306.907 115.101C306.372 114.156 305.823 112.804 305.403 111.668C305.194 111.105 305.02 110.601 304.898 110.239C304.84 110.07 304.795 109.931 304.762 109.832L307.54 103.158Z" fill="#231815" stroke="#231815"/>
<path d="M320.244 72.9975C321.092 72.5686 321.86 72.2188 322.45 71.9631L318.51 80.2503L308.713 86.7921L307.716 84.926C307.822 84.7817 307.971 84.5802 308.156 84.3328C308.553 83.8025 309.116 83.0618 309.781 82.2209C311.114 80.5355 312.846 78.4614 314.466 76.8706C316.051 75.3127 318.331 73.9641 320.244 72.9975Z" fill="#231815" stroke="#231815"/>
<path d="M349.123 73.0296L349.124 73.0298C350.878 73.8092 352.639 75.0667 353.973 76.144C354.163 76.2971 354.343 76.4462 354.513 76.5893L347.805 74.5361L340.662 70.0875C341.018 70.1529 341.41 70.227 341.837 70.3106C343.963 70.7268 345.283 71.3158 348.378 72.6974C348.616 72.8034 348.864 72.914 349.123 73.0296Z" fill="#231815" stroke="#231815"/>
<path d="M362.982 110.936L362.415 99.8189L364.687 92.0405C364.839 92.543 365.009 93.1509 365.173 93.8317C365.646 95.7897 366.065 98.3189 365.884 100.675C365.7 103.081 365.296 105.578 364.936 107.477C364.757 108.426 364.589 109.224 364.466 109.783C364.408 110.049 364.36 110.26 364.326 110.41L362.982 110.936Z" fill="#231815" stroke="#231815"/>
<path d="M331.444 89.0443L316.937 79.259" stroke="#231815" stroke-width="3" stroke-miterlimit="10"/>
<path d="M343.898 85.134L347.893 74.1914" stroke="#231815" stroke-width="3" stroke-miterlimit="10"/>
<path d="M349.957 96.8071L363.272 100.098" stroke="#231815" stroke-width="3" stroke-miterlimit="10"/>
<path d="M341.714 106.127L343.728 123.172" stroke="#231815" stroke-width="3" stroke-miterlimit="10"/>
<path d="M334.666 129.393L316.557 120.519" stroke="#231815" stroke-width="3" stroke-miterlimit="10"/>
<path d="M314.869 110.449L331.363 100.875" stroke="#231815" stroke-width="3" stroke-miterlimit="10"/>
<path d="M308.725 85.1572L307.164 104.405" stroke="#231815" stroke-width="3" stroke-miterlimit="10"/>
<path d="M352.53 123.91L363.845 110.03" stroke="#231815" stroke-width="3" stroke-miterlimit="10"/>
</g>
<g filter="url(#filter4_d_5_9142)">
<path d="M62.575 138.558C83.8623 143.059 104.754 129.518 109.238 108.313C113.722 87.1077 100.1 66.2686 78.8125 61.7674C57.5252 57.2661 36.6336 70.8074 32.1497 92.0125C27.6659 113.218 41.2877 134.057 62.575 138.558Z" fill="#FE7A00"/>
<path d="M33.027 97.9566C42.764 95.2231 53.0583 94.5107 63.1009 95.7262C73.1771 96.944 83.0051 100.027 91.9447 104.845C96.9762 107.56 101.689 110.815 105.988 114.574C107.144 115.585 108.744 113.826 107.588 112.815C99.6679 105.896 90.3911 100.666 80.4411 97.2612C70.5685 93.8821 60.0276 92.3718 49.5998 92.886C43.7436 93.1723 37.918 94.1207 32.2748 95.7048C30.7976 96.1208 31.5498 98.3726 33.026 97.9613L33.027 97.9566Z" fill="#231815"/>
<path d="M52.2272 66.2455C54.6463 73.6617 55.2582 81.5795 54.1599 89.2861C53.0624 97.0124 50.3593 104.448 46.3909 111.159C44.145 114.957 41.4865 118.493 38.487 121.729C37.4449 122.853 39.2129 124.451 40.2549 123.326C45.7537 117.4 50.1485 110.424 53.0443 102.884C55.9402 95.3436 57.4164 87.1633 57.0003 79.0345C56.7631 74.4395 55.9195 69.8765 54.4905 65.5005C54.0181 64.0459 51.7502 64.79 52.2272 66.2455Z" fill="#231815"/>
<path d="M99.2649 74.9778C93.99 81.2284 90.107 88.5502 87.7656 96.3727C85.4427 104.131 84.6641 112.401 85.6328 120.452C86.1843 125.036 87.2902 129.557 88.9677 133.864C89.5208 135.283 91.7868 134.548 91.231 133.119C88.3689 125.77 87.2369 117.868 87.7185 110.012C88.1928 102.236 90.3028 94.5397 93.7922 87.5814C95.7655 83.6432 98.1853 79.945 101.027 76.5789C102.015 75.4089 100.249 73.8068 99.2592 74.9815L99.2649 74.9778Z" fill="#231815"/>
<path d="M76.9879 62.4009C74.831 72.1173 72.9204 81.8907 71.0677 91.6665C69.2141 101.447 67.4128 111.234 65.4788 121.002C64.3921 126.487 63.2577 131.967 62.0497 137.427C61.7192 138.921 64.0521 139.414 64.3826 137.92C66.5318 128.217 68.4338 118.461 70.2845 108.695C72.1381 98.9141 73.9395 89.1273 75.8781 79.3599C76.9734 73.8571 78.1097 68.3678 79.3217 62.8896C79.6522 61.396 77.3193 60.9027 76.9888 62.3963L76.9879 62.4009Z" fill="#231815"/>
</g>
<g filter="url(#filter5_d_5_9142)">
<path d="M172.822 241.338L55.3506 227.023L49 279.138L166.471 293.453L172.822 241.338Z" fill="white"/>
<path d="M86.204 230.783L73.5651 229.243L69.7063 260.91L82.3451 262.45L86.204 230.783Z" fill="black" stroke="#231815" stroke-width="2" stroke-miterlimit="10"/>
<path d="M120.408 234.951L107.769 233.411L103.91 265.078L116.549 266.618L120.408 234.951Z" fill="black" stroke="#231815" stroke-width="2" stroke-miterlimit="10"/>
<path d="M151.767 238.772L139.128 237.232L135.269 268.899L147.908 270.439L151.767 238.772Z" fill="black" stroke="#231815" stroke-width="2" stroke-miterlimit="10"/>
<path d="M76.0272 261.684L73.536 282.128" stroke="#231815" stroke-width="2" stroke-miterlimit="10"/>
<path d="M66.077 228.78L59.7803 280.452" stroke="#231815" stroke-width="2" stroke-miterlimit="10"/>
<path d="M110.254 265.628L107.762 286.076" stroke="#231815" stroke-width="2" stroke-miterlimit="10"/>
<path d="M96.9612 232.321L90.6645 283.993" stroke="#231815" stroke-width="2" stroke-miterlimit="10"/>
<path d="M162.014 240.248L155.717 291.92" stroke="#231815" stroke-width="2" stroke-miterlimit="10"/>
<path d="M141.59 269.673L139.099 290.117" stroke="#231815" stroke-width="2" stroke-miterlimit="10"/>
<path d="M129.714 236.534L123.417 288.206" stroke="#231815" stroke-width="2" stroke-miterlimit="10"/>
</g>
<g filter="url(#filter6_d_5_9142)">
<path d="M444.245 215.944C449.108 215.944 453.784 216.736 458.152 218.189C475.609 224.009 488.197 240.481 488.197 259.896C488.197 284.167 468.517 303.848 444.245 303.848C419.973 303.848 400.298 284.167 400.298 259.896C400.298 237.763 416.658 219.45 437.945 216.396C440.004 216.098 442.106 215.944 444.245 215.944Z" fill="white"/>
<path d="M436.275 235.725C435.381 244.493 434.993 253.314 435.163 262.13C435.333 271.015 436.073 279.89 437.387 288.679C438.137 293.675 439.074 298.644 440.202 303.571C440.393 304.406 441.675 304.05 441.484 303.22C439.499 294.542 438.1 285.732 437.297 276.868C436.493 268.004 436.275 259.289 436.584 250.494C436.754 245.562 437.1 240.641 437.6 235.73C437.685 234.879 436.355 234.884 436.27 235.73L436.275 235.725Z" fill="#444444"/>
<path d="M436.652 252.895C448.911 252.539 460.669 248.65 471.389 242.845C474.56 241.132 477.636 239.254 480.647 237.274C481.36 236.806 480.695 235.652 479.977 236.125C469.884 242.77 458.849 248.224 446.894 250.469C443.516 251.102 440.089 251.469 436.652 251.565C435.796 251.592 435.796 252.922 436.652 252.895Z" fill="#444444"/>
<path d="M419.499 296.027C418.84 295.622 418.153 295.191 417.451 294.734C412.381 291.414 411.189 288.503 411.189 288.503C410.199 284.056 409.502 279.539 409.077 275C408.475 268.61 408.401 262.114 408.906 255.666C409.683 245.78 411.833 236.001 415.589 226.856C415.589 226.856 424.235 220.54 431.002 218.205C421.585 237.576 418.648 274.112 426.783 299.942C426.783 299.942 423.623 298.543 419.505 296.032L419.499 296.027Z" fill="#F9C927"/>
<path d="M457.392 218.204C457.392 218.204 452.433 216.364 447.038 216.087C444.149 215.938 440.67 216.177 440.67 216.177C444.245 219.662 450.347 225.036 452.609 227.983C458.839 236.102 462.036 245.669 462.036 245.669C462.036 245.669 465.479 244.562 468.985 242.843C469.693 242.498 472.959 240.518 472.959 240.518C471.895 237.385 471.603 234.458 466.447 227.717C464.393 225.031 457.397 218.204 457.397 218.204H457.392Z" fill="#F9C927"/>
<path d="M427.704 229.037C430.821 230.766 433.561 233.198 436.078 235.704C438.908 238.529 441.537 241.62 443.638 245.03C444.612 246.605 445.484 248.265 446.011 250.053C446.251 250.872 447.538 250.521 447.293 249.702C446.256 246.185 444.075 243.035 441.84 240.183C439.27 236.906 436.344 233.868 433.125 231.218C431.635 229.989 430.071 228.83 428.379 227.893C427.629 227.478 426.959 228.627 427.709 229.042L427.704 229.037Z" fill="#444444"/>
<path d="M436.764 269.111C449.858 269.557 458.089 267.312 465.457 264.429C477.402 259.757 486.851 251.415 486.851 251.415C486.851 251.415 487.633 255.746 487.723 257.773C487.872 261.141 487.5 264.046 487.5 264.046C487.5 264.046 479.769 272.766 467.825 278.565C455.881 284.364 445.49 285.396 438.323 285.396C438.323 285.396 437.493 279.501 437.371 277.921C437.078 274.271 436.77 269.116 436.77 269.116L436.764 269.111Z" fill="#F9C927"/>
</g>
<defs>
<filter id="filter0_d_5_9142" x="422.449" y="31.0159" width="93.4711" height="138.496" filterUnits="userSpaceOnUse" color-interpolation-filters="sRGB">
<feFlood flood-opacity="0" result="BackgroundImageFix"/>
<feColorMatrix in="SourceAlpha" type="matrix" values="0 0 0 0 0 0 0 0 0 0 0 0 0 0 0 0 0 0 127 0" result="hardAlpha"/>
<feOffset/>
<feGaussianBlur stdDeviation="1.5"/>
<feComposite in2="hardAlpha" operator="out"/>
<feColorMatrix type="matrix" values="0 0 0 0 0 0 0 0 0 0 0 0 0 0 0 0 0 0 0.25 0"/>
<feBlend mode="normal" in2="BackgroundImageFix" result="effect1_dropShadow_5_9142"/>
<feBlend mode="normal" in="SourceGraphic" in2="effect1_dropShadow_5_9142" result="shape"/>
</filter>
<filter id="filter1_d_5_9142" x="232.461" y="202.808" width="115.162" height="116.862" filterUnits="userSpaceOnUse" color-interpolation-filters="sRGB">
<feFlood flood-opacity="0" result="BackgroundImageFix"/>
<feColorMatrix in="SourceAlpha" type="matrix" values="0 0 0 0 0 0 0 0 0 0 0 0 0 0 0 0 0 0 127 0" result="hardAlpha"/>
<feOffset/>
<feGaussianBlur stdDeviation="1.5"/>
<feComposite in2="hardAlpha" operator="out"/>
<feColorMatrix type="matrix" values="0 0 0 0 0 0 0 0 0 0 0 0 0 0 0 0 0 0 0.25 0"/>
<feBlend mode="normal" in2="BackgroundImageFix" result="effect1_dropShadow_5_9142"/>
<feBlend mode="normal" in="SourceGraphic" in2="effect1_dropShadow_5_9142" result="shape"/>
</filter>
<filter id="filter2_d_5_9142" x="174.388" y="41.6023" width="71.515" height="118.274" filterUnits="userSpaceOnUse" color-interpolation-filters="sRGB">
<feFlood flood-opacity="0" result="BackgroundImageFix"/>
<feColorMatrix in="SourceAlpha" type="matrix" values="0 0 0 0 0 0 0 0 0 0 0 0 0 0 0 0 0 0 127 0" result="hardAlpha"/>
<feOffset/>
<feGaussianBlur stdDeviation="1.5"/>
<feComposite in2="hardAlpha" operator="out"/>
<feColorMatrix type="matrix" values="0 0 0 0 0 0 0 0 0 0 0 0 0 0 0 0 0 0 0.25 0"/>
<feBlend mode="normal" in2="BackgroundImageFix" result="effect1_dropShadow_5_9142"/>
<feBlend mode="normal" in="SourceGraphic" in2="effect1_dropShadow_5_9142" result="shape"/>
</filter>
<filter id="filter3_d_5_9142" x="299.903" y="65.9778" width="69.5236" height="69.4792" filterUnits="userSpaceOnUse" color-interpolation-filters="sRGB">
<feFlood flood-opacity="0" result="BackgroundImageFix"/>
<feColorMatrix in="SourceAlpha" type="matrix" values="0 0 0 0 0 0 0 0 0 0 0 0 0 0 0 0 0 0 127 0" result="hardAlpha"/>
<feOffset/>
<feGaussianBlur stdDeviation="1.5"/>
<feComposite in2="hardAlpha" operator="out"/>
<feColorMatrix type="matrix" values="0 0 0 0 0 0 0 0 0 0 0 0 0 0 0 0 0 0 0.25 0"/>
<feBlend mode="normal" in2="BackgroundImageFix" result="effect1_dropShadow_5_9142"/>
<feBlend mode="normal" in="SourceGraphic" in2="effect1_dropShadow_5_9142" result="shape"/>
</filter>
<filter id="filter4_d_5_9142" x="28.2959" y="57.9038" width="84.7957" height="84.5178" filterUnits="userSpaceOnUse" color-interpolation-filters="sRGB">
<feFlood flood-opacity="0" result="BackgroundImageFix"/>
<feColorMatrix in="SourceAlpha" type="matrix" values="0 0 0 0 0 0 0 0 0 0 0 0 0 0 0 0 0 0 127 0" result="hardAlpha"/>
<feOffset/>
<feGaussianBlur stdDeviation="1.5"/>
<feComposite in2="hardAlpha" operator="out"/>
<feColorMatrix type="matrix" values="0 0 0 0 0 0 0 0 0 0 0 0 0 0 0 0 0 0 0.25 0"/>
<feBlend mode="normal" in2="BackgroundImageFix" result="effect1_dropShadow_5_9142"/>
<feBlend mode="normal" in="SourceGraphic" in2="effect1_dropShadow_5_9142" result="shape"/>
</filter>
<filter id="filter5_d_5_9142" x="46" y="224.023" width="129.822" height="72.4294" filterUnits="userSpaceOnUse" color-interpolation-filters="sRGB">
<feFlood flood-opacity="0" result="BackgroundImageFix"/>
<feColorMatrix in="SourceAlpha" type="matrix" values="0 0 0 0 0 0 0 0 0 0 0 0 0 0 0 0 0 0 127 0" result="hardAlpha"/>
<feOffset/>
<feGaussianBlur stdDeviation="1.5"/>
<feComposite in2="hardAlpha" operator="out"/>
<feColorMatrix type="matrix" values="0 0 0 0 0 0 0 0 0 0 0 0 0 0 0 0 0 0 0.25 0"/>
<feBlend mode="normal" in2="BackgroundImageFix" result="effect1_dropShadow_5_9142"/>
<feBlend mode="normal" in="SourceGraphic" in2="effect1_dropShadow_5_9142" result="shape"/>
</filter>
<filter id="filter6_d_5_9142" x="397.298" y="212.944" width="93.8989" height="94.1038" filterUnits="userSpaceOnUse" color-interpolation-filters="sRGB">
<feFlood flood-opacity="0" result="BackgroundImageFix"/>
<feColorMatrix in="SourceAlpha" type="matrix" values="0 0 0 0 0 0 0 0 0 0 0 0 0 0 0 0 0 0 127 0" result="hardAlpha"/>
<feOffset/>
<feGaussianBlur stdDeviation="1.5"/>
<feComposite in2="hardAlpha" operator="out"/>
<feColorMatrix type="matrix" values="0 0 0 0 0 0 0 0 0 0 0 0 0 0 0 0 0 0 0.25 0"/>
<feBlend mode="normal" in2="BackgroundImageFix" result="effect1_dropShadow_5_9142"/>
<feBlend mode="normal" in="SourceGraphic" in2="effect1_dropShadow_5_9142" result="shape"/>
</filter>
</defs>
</svg>
