<svg width="594" height="248" viewBox="0 0 594 248" fill="none" xmlns="http://www.w3.org/2000/svg">
<rect width="594" height="248" fill="white"/>
<path d="M514.098 117.138V120.272C514.098 137.583 500.065 151.616 482.755 151.616H479.62V148.482C479.62 131.171 493.653 117.138 510.964 117.138H514.098Z" fill="#FE346E"/>
<path d="M527.681 30.4204V54.4506C527.681 80.9936 506.163 102.511 479.62 102.511V78.4808C479.62 51.9378 501.138 30.4204 527.681 30.4204Z" fill="#52C9EF"/>
<path fill-rule="evenodd" clip-rule="evenodd" d="M413.045 30H403.351V89.682C403.351 123.887 431.079 151.616 465.285 151.616V82.2396C465.285 53.3885 441.896 30 413.045 30ZM426.435 55.3367C430.788 55.3367 434.318 51.8076 434.318 47.4542C434.318 43.1008 430.788 39.5716 426.435 39.5716C422.082 39.5716 418.553 43.1008 418.553 47.4542C418.553 51.8076 422.082 55.3367 426.435 55.3367Z" fill="#F9C927"/>
<path d="M382.48 215.725V213.311C379.859 217.38 375.515 219.31 371.654 219.31C364.965 219.31 360 214.966 360 204.968V186.763C360 184.901 360.896 184.005 362.758 184.005H366.896C368.757 184.005 369.654 184.901 369.654 186.763V201.864C369.654 206.898 371.654 209.312 374.964 209.312C379.515 209.312 382.48 206.485 382.48 200.141V184.005C382.48 182.143 383.376 181.247 385.238 181.247H389.375C391.237 181.247 392.134 182.143 392.134 184.005V215.725C392.134 217.587 391.237 218.483 389.375 218.483H385.238C383.376 218.483 382.48 217.587 382.48 215.725Z" fill="#9B77C2"/>
<path d="M407.223 217.104C407.223 218.966 406.327 219.862 404.465 219.862H400.328C398.466 219.862 397.569 218.966 397.569 217.104V184.005C397.569 182.143 398.466 181.247 400.328 181.247H404.465C406.327 181.247 407.223 182.143 407.223 184.005V189.177C409.844 185.108 414.188 183.177 418.049 183.177C424.738 183.177 429.703 187.522 429.703 197.52V215.725C429.703 217.587 428.807 218.483 426.945 218.483H422.807C420.946 218.483 420.049 217.587 420.049 215.725V200.623C420.049 195.589 418.049 193.176 414.739 193.176C410.188 193.176 407.223 196.003 407.223 202.347V217.104Z" fill="#9B77C2"/>
<path d="M439.483 180.626C436.311 180.626 433.622 177.937 433.622 174.696C433.622 171.524 436.311 168.834 439.483 168.834C442.655 168.834 445.344 171.524 445.344 174.696C445.344 177.937 442.655 180.626 439.483 180.626ZM444.31 215.725C444.31 217.587 443.413 218.483 441.552 218.483H437.414C435.552 218.483 434.656 217.587 434.656 215.725V188.142C434.656 186.28 435.552 185.384 437.414 185.384H441.552C443.413 185.384 444.31 186.28 444.31 188.142V215.725Z" fill="#9B77C2"/>
<path d="M477.096 216.276C473.924 218.69 469.373 220 465.236 220C457.72 220 453.375 215.311 453.375 206.002V197.038L449.376 196.831C447.859 196.762 447.445 196.003 447.445 194.693V189.177C447.445 187.866 448.411 186.763 449.79 186.832L453.375 187.039V179.178C453.375 177.799 454.065 177.109 455.444 177.109H460.961C462.34 177.109 463.029 177.799 463.029 179.178V187.591L472.959 188.211C474.476 188.28 474.89 189.039 474.89 190.349V195.865C474.89 197.175 473.924 198.279 472.545 198.21L463.029 197.658V204.278C463.029 208.691 464.822 210.139 467.718 210.139C469.511 210.139 471.511 209.105 473.028 208.14C474.062 207.519 475.028 208.071 475.579 209.381L477.372 213.38C477.924 214.552 478.269 215.449 477.096 216.276Z" fill="#9B77C2"/>
<path d="M497.295 219.31C486.331 219.31 479.228 211.932 479.228 201.244C479.228 191.383 485.089 183.177 496.536 183.177C505.432 183.177 511.431 189.177 511.431 198.761C511.431 201.52 511.155 202.692 508.741 202.968L489.503 205.174C490.882 208.208 493.916 210.346 498.605 210.346C501.225 210.346 504.19 208.76 506.535 207.45C507.569 206.829 508.603 207.381 509.086 208.691L510.465 212.277C510.948 213.587 511.293 214.277 510.189 215.173C506.811 217.862 501.708 219.31 497.295 219.31ZM495.847 192.142C492.261 192.142 489.916 193.728 489.089 197.727L501.501 196.279C500.88 193.797 498.812 192.142 495.847 192.142Z" fill="#9B77C2"/>
<path d="M531.284 219.31C520.32 219.31 513.217 211.932 513.217 201.244C513.217 191.383 519.078 183.177 530.525 183.177C539.42 183.177 545.42 189.177 545.42 198.761C545.42 201.52 545.144 202.692 542.73 202.968L523.492 205.174C524.871 208.208 527.905 210.346 532.594 210.346C535.214 210.346 538.179 208.76 540.524 207.45C541.558 206.829 542.592 207.381 543.075 208.691L544.454 212.277C544.937 213.587 545.282 214.277 544.178 215.173C540.8 217.862 535.697 219.31 531.284 219.31ZM529.836 192.142C526.25 192.142 523.905 193.728 523.078 197.727L535.49 196.279C534.869 193.797 532.801 192.142 529.836 192.142Z" fill="#9B77C2"/>
<path d="M558.515 215.725C558.515 217.587 557.618 218.483 555.757 218.483H551.619C549.757 218.483 548.861 217.587 548.861 215.725V183.315C548.861 181.453 549.757 180.557 551.619 180.557H555.757C557.618 180.557 558.515 181.453 558.515 183.315V189.039C560.79 185.315 564.307 183.177 567.548 183.177C569.065 183.177 570.651 183.522 571.548 184.074C572.099 184.419 572.237 184.901 572.168 185.384L571.479 193.314C571.41 194.348 570.789 194.693 569.617 194.417C567.686 194.003 566.376 193.866 565.204 193.866C561.411 193.866 558.515 196.762 558.515 202.347V215.725Z" fill="#9B77C2"/>
<path d="M104.639 146.645C104.69 147.941 104.793 149.192 104.949 150.398L105.94 150.271C106.101 151.522 106.319 152.72 106.593 153.864L105.62 154.096C105.921 155.356 106.288 156.557 106.719 157.697L107.654 157.343C108.094 158.503 108.601 159.596 109.174 160.619L108.302 161.108C108.925 162.222 109.626 163.261 110.402 164.225L111.181 163.598C111.935 164.535 112.763 165.396 113.664 166.181L113.007 166.935C113.945 167.752 114.958 168.491 116.045 169.149L116.563 168.293C117.569 168.903 118.643 169.441 119.785 169.908L119.407 170.833C120.538 171.295 121.729 171.687 122.98 172.009L123.229 171.041C124.368 171.334 125.561 171.567 126.807 171.74L126.67 172.73C127.875 172.897 129.125 173.008 130.42 173.062L130.462 172.063C131.066 172.088 131.68 172.101 132.305 172.101C132.932 172.101 133.549 172.088 134.155 172.062L134.198 173.061C135.498 173.006 136.754 172.893 137.965 172.723L137.827 171.733C139.077 171.557 140.275 171.321 141.42 171.024L141.67 171.993C142.926 171.668 144.123 171.272 145.261 170.809L144.883 169.883C146.032 169.415 147.114 168.875 148.129 168.267L148.643 169.125C149.738 168.468 150.762 167.734 151.711 166.923L151.061 166.162C151.977 165.38 152.821 164.523 153.59 163.594L154.36 164.232C155.156 163.272 155.876 162.238 156.518 161.133L155.654 160.63C156.249 159.607 156.776 158.517 157.233 157.363L158.163 157.731C158.615 156.589 159 155.388 159.316 154.131L158.346 153.887C158.636 152.738 158.866 151.538 159.037 150.287L160.028 150.422C160.194 149.209 160.304 147.953 160.358 146.654L159.359 146.612C159.384 146.005 159.397 145.388 159.397 144.761V142.743H160.397V138.709H159.397V134.674H160.397V130.64H159.397V126.605H160.397V122.57H159.397V118.536H160.397V114.501H159.397V110.467H160.397V106.432H159.397V102.398H160.397V98.363H159.397V94.3284H160.397V90.2939H159.397V86.2593H160.397V82.2247H159.397V78.1901H160.397V74.1556H159.397V70.121H160.397V66.0864H159.397V62.0518H160.397V58.0173H159.397V56V55H160.397H162.372V56H166.322V55H170.273V56H174.223V55H178.174V56H182.124V55H186.074V56H190.025V55H192H193V56V58.0665H192V62.1995H193V66.3324H192V70.4654H193V74.5984H192V78.7314H193V82.8644H192V86.9973H193V91.1303H192V95.2633H193V99.3963H192V103.529H193V107.662H192V111.795H193V115.928H192V120.061H193V124.194H192V128.327H193V132.46H192V136.593H193V140.726H192V144.859H193V146.926C193 147.588 192.992 148.246 192.975 148.9L191.975 148.875C191.941 150.184 191.874 151.475 191.772 152.747L192.769 152.826C192.664 154.15 192.523 155.455 192.346 156.739L191.355 156.603C191.177 157.902 190.962 159.18 190.712 160.435L191.692 160.631C191.432 161.934 191.134 163.215 190.798 164.472L189.832 164.214C189.495 165.476 189.12 166.713 188.707 167.924L189.654 168.246C189.225 169.506 188.756 170.738 188.248 171.943L187.326 171.555C186.82 172.756 186.275 173.929 185.69 175.072L186.581 175.527C185.977 176.708 185.333 177.86 184.65 178.98L183.796 178.459C183.119 179.568 182.403 180.645 181.648 181.691L182.458 182.276C181.684 183.348 180.87 184.387 180.017 185.392L179.254 184.744C178.417 185.731 177.541 186.683 176.628 187.601L177.337 188.306C176.407 189.24 175.44 190.139 174.436 191.001L173.784 190.243C172.807 191.082 171.794 191.886 170.747 192.655L171.338 193.461C170.28 194.237 169.188 194.977 168.062 195.679L167.533 194.831C166.443 195.511 165.322 196.155 164.169 196.764L164.635 197.648C163.481 198.258 162.295 198.831 161.081 199.368L160.677 198.454C159.503 198.972 158.302 199.456 157.073 199.905L157.416 200.844C156.195 201.29 154.947 201.701 153.674 202.077L153.391 201.118C152.164 201.481 150.914 201.81 149.639 202.106L149.865 203.08C148.6 203.373 147.313 203.634 146.003 203.861L145.832 202.876C144.572 203.095 143.291 203.282 141.989 203.438L142.108 204.431C140.824 204.584 139.521 204.707 138.199 204.799L138.13 203.801C136.856 203.89 135.564 203.949 134.255 203.978L134.277 204.978C133.624 204.993 132.966 205 132.305 205C131.645 205 130.99 204.993 130.338 204.978L130.361 203.978C129.055 203.949 127.767 203.89 126.496 203.802L126.427 204.799C125.109 204.708 123.809 204.585 122.529 204.432L122.648 203.439C121.35 203.284 120.072 203.097 118.815 202.878L118.644 203.863C117.338 203.636 116.054 203.376 114.793 203.082L115.02 202.108C113.749 201.813 112.502 201.483 111.279 201.121L110.995 202.08C109.725 201.703 108.481 201.291 107.264 200.845L107.608 199.906C106.383 199.457 105.186 198.972 104.017 198.453L103.611 199.366C102.401 198.829 101.22 198.254 100.07 197.643L100.539 196.76C99.3912 196.15 98.2744 195.504 97.1899 194.822L96.6576 195.668C95.5375 194.964 94.4508 194.222 93.3985 193.444L93.9932 192.64C92.952 191.869 91.9455 191.063 90.9746 190.221L90.3194 190.976C89.3227 190.112 88.3626 189.21 87.4402 188.273L88.1529 187.572C87.2478 186.652 86.3798 185.697 85.5498 184.708L84.7838 185.351C83.9394 184.345 83.1337 183.304 82.3676 182.229L83.1818 181.649C82.4358 180.603 81.7281 179.523 81.0595 178.412L80.2026 178.928C79.5284 177.808 78.8934 176.656 78.2985 175.473L79.1919 175.024C78.6167 173.881 78.0795 172.708 77.5813 171.506L76.6576 171.889C76.1583 170.685 75.6975 169.453 75.2762 168.195L76.2244 167.877C75.8197 166.668 75.4517 165.433 75.1213 164.173L74.154 164.427C73.825 163.172 73.5328 161.894 73.2779 160.593L74.2593 160.401C74.0141 159.148 73.8039 157.874 73.6295 156.577L72.6384 156.711C72.4661 155.43 72.3282 154.129 72.2253 152.809L73.2223 152.731C73.1234 151.463 73.0573 150.175 73.0244 148.869L72.0247 148.895C72.0082 148.243 72 147.586 72 146.926V144.859H73V140.726H72V136.593H73V132.46H72V128.327H73V124.194H72V120.061H73V115.928H72V111.795H73V107.662H72V103.529H73V99.3963H72V95.2633H73V91.1303H72V86.9973H73V82.8644H72V78.7314H73V74.5984H72V70.4654H73V66.3324H72V62.1995H73V58.0665H72V56V55H73H74.9752V56H78.9256V55H82.876V56H86.8264V55H90.7768V56H94.7273V55H98.6777V56H102.628V55H104.603H105.603V56V58.0173H104.603V62.0519H105.603V66.0864H104.603V70.121H105.603V74.1556H104.603V78.1902H105.603V82.2247H104.603V86.2593H105.603V90.2939H104.603V94.3285H105.603V98.363H104.603V102.398H105.603V106.432H104.603V110.467H105.603V114.501H104.603V118.536H105.603V122.57H104.603V126.605H105.603V130.64H104.603V134.674H105.603V138.709H104.603V142.743H105.603V144.761C105.603 145.386 105.615 146.001 105.639 146.606L104.639 146.645Z" fill="#9B77C2" stroke="#939393" stroke-width="2" stroke-dasharray="4 4"/>
<path d="M191.147 162.292V166.478C191.147 187.536 174.534 204.15 153.475 204.15H149.287V199.964C149.287 178.906 165.903 162.292 186.961 162.292H191.147Z" fill="#B7B7B7" fill-opacity="0.76"/>
<path d="M207.893 55.5552V84.8555C207.893 117.145 181.582 143.456 149.292 143.456V114.156C149.292 81.8663 175.603 55.5552 207.893 55.5552Z" fill="#B7B7B7" fill-opacity="0.76"/>
<path fill-rule="evenodd" clip-rule="evenodd" d="M68.3012 55.5556H56.5078V128.159C56.5078 169.769 89.9939 204.15 131.852 204.15L131.851 119.105C131.851 84.0076 103.399 55.5556 68.3012 55.5556ZM84.5901 86.3776C89.886 86.3776 94.1792 82.0844 94.1792 76.7885C94.1792 71.4926 89.886 67.1995 84.5901 67.1995C79.2942 67.1995 75.001 71.4926 75.001 76.7885C75.001 82.0844 79.2942 86.3776 84.5901 86.3776Z" fill="#B7B7B7" fill-opacity="0.76"/>
<path d="M206.771 124.63C206.872 125.923 206.94 127.226 206.974 128.538L205.975 128.564C205.992 129.207 206 129.853 206 130.5C206 131.147 205.992 131.793 205.975 132.436L206.974 132.462C206.94 133.774 206.872 135.077 206.771 136.37L205.774 136.292C205.672 137.582 205.538 138.862 205.37 140.132L206.362 140.262C206.191 141.562 205.986 142.85 205.748 144.127L204.765 143.944C204.529 145.215 204.259 146.473 203.958 147.719L204.93 147.954C204.623 149.227 204.282 150.486 203.91 151.732L202.952 151.446C202.583 152.683 202.181 153.906 201.749 155.114L202.69 155.451C202.25 156.682 201.778 157.899 201.275 159.099L200.353 158.713C199.854 159.902 199.326 161.076 198.767 162.233L199.668 162.667C199.1 163.844 198.501 165.004 197.874 166.146L196.998 165.664C196.377 166.794 195.727 167.906 195.049 168.998L195.899 169.525C195.211 170.635 194.494 171.726 193.749 172.796L192.928 172.225C192.193 173.283 191.43 174.32 190.641 175.337L191.431 175.95C190.631 176.981 189.804 177.991 188.951 178.978L188.194 178.324C187.353 179.299 186.486 180.251 185.595 181.18L186.317 181.872C185.414 182.814 184.487 183.732 183.536 184.626L182.851 183.897C181.913 184.779 180.952 185.636 179.969 186.468L180.615 187.231C179.62 188.074 178.602 188.891 177.563 189.681L176.957 188.886C175.934 189.664 174.889 190.417 173.824 191.143L174.387 191.969C173.31 192.704 172.213 193.411 171.097 194.089L170.577 193.235C169.479 193.903 168.361 194.543 167.226 195.154L167.7 196.035C166.554 196.652 165.389 197.241 164.208 197.8L163.78 196.896C162.619 197.445 161.441 197.965 160.248 198.455L160.627 199.38C159.424 199.875 158.204 200.339 156.97 200.771L156.639 199.828C155.428 200.252 154.202 200.647 152.963 201.009L153.244 201.969C151.996 202.335 150.735 202.669 149.461 202.97L149.23 201.997C147.983 202.293 146.723 202.557 145.451 202.789L145.631 203.773C144.353 204.006 143.063 204.207 141.764 204.374L141.636 203.383C140.365 203.547 139.084 203.679 137.794 203.778L137.871 204.775C136.577 204.875 135.274 204.942 133.962 204.975L133.937 203.975C133.293 203.992 132.648 204 132 204C131.352 204 130.707 203.992 130.063 203.975L130.038 204.975C128.726 204.942 127.423 204.875 126.129 204.775L126.206 203.778C124.916 203.679 123.635 203.547 122.364 203.383L122.236 204.374C120.937 204.207 119.647 204.006 118.369 203.773L118.549 202.789C117.277 202.557 116.017 202.293 114.77 201.997L114.539 202.97C113.265 202.669 112.004 202.335 110.756 201.969L111.037 201.009C109.798 200.647 108.572 200.252 107.361 199.828L107.03 200.771C105.796 200.339 104.576 199.875 103.373 199.38L103.752 198.455C102.559 197.965 101.381 197.445 100.22 196.896L99.7924 197.8C98.6108 197.241 97.4462 196.652 96.2997 196.035L96.7739 195.154C95.6386 194.543 94.5212 193.903 93.4227 193.235L92.9032 194.089C91.7868 193.411 90.6896 192.704 89.6127 191.969L90.176 191.143C89.1111 190.417 88.0664 189.664 87.0426 188.886L86.4371 189.681C85.398 188.891 84.3802 188.074 83.3849 187.231L84.0309 186.468C83.0478 185.636 82.0868 184.779 81.149 183.897L80.4642 184.626C79.5132 183.732 78.5858 182.814 77.6829 181.872L78.4047 181.18C77.5137 180.251 76.647 179.299 75.8056 178.324L75.0487 178.978C74.1962 177.991 73.3693 176.981 72.569 175.95L73.3589 175.337C72.57 174.32 71.8073 173.283 71.0718 172.225L70.2508 172.796C69.5064 171.726 68.7895 170.635 68.101 169.525L68.9508 168.998C68.273 167.906 67.6232 166.794 67.0024 165.664L66.1261 166.146C65.4986 165.004 64.9003 163.844 64.3322 162.667L65.2328 162.233C64.6745 161.076 64.1457 159.902 63.6475 158.713L62.7251 159.099C62.2222 157.899 61.75 156.682 61.3096 155.451L62.2511 155.114C61.8188 153.906 61.4175 152.683 61.048 151.446L60.0899 151.732C59.7176 150.486 59.3772 149.227 59.0697 147.954L60.0417 147.719C59.7406 146.473 59.4713 145.215 59.235 143.944L58.2519 144.127C58.0142 142.85 57.8093 141.562 57.6381 140.262L58.6296 140.132C58.4622 138.862 58.3276 137.582 58.2264 136.292L57.2294 136.37C57.1279 135.077 57.0597 133.774 57.0255 132.462L58.0252 132.436C58.0084 131.793 58 131.147 58 130.5C58 129.853 58.0084 129.207 58.0252 128.564L57.0255 128.538C57.0597 127.226 57.1279 125.923 57.2294 124.63L58.2264 124.708C58.3276 123.418 58.4622 122.138 58.6296 120.868L57.6381 120.738C57.8093 119.438 58.0142 118.15 58.2519 116.873L59.235 117.056C59.4713 115.785 59.7406 114.527 60.0417 113.281L59.0697 113.046C59.3772 111.773 59.7176 110.514 60.0899 109.268L61.048 109.554C61.4175 108.317 61.8188 107.094 62.2511 105.886L61.3096 105.549C61.7501 104.318 62.2222 103.101 62.7251 101.901L63.6475 102.287C64.1457 101.098 64.6745 99.9241 65.2328 98.7672L64.3322 98.3326C64.9003 97.1556 65.4986 95.9957 66.1261 94.8539L67.0025 95.3356C67.6232 94.206 68.273 93.0943 68.9508 92.0016L68.101 91.4745C68.7895 90.3646 69.5064 89.274 70.2508 88.2037L71.0718 88.7747C71.8073 87.7172 72.57 86.6797 73.3589 85.6633L72.569 85.0502C73.3693 84.0191 74.1962 83.0094 75.0487 82.0221L75.8056 82.6757C76.6471 81.7012 77.5138 80.7488 78.4047 79.8196L77.6829 79.1275C78.5858 78.1859 79.5132 77.2677 80.4642 76.3739L81.149 77.1026C82.0868 76.2213 83.0478 75.364 84.031 74.5319L83.3849 73.7686C84.3802 72.9262 85.398 72.1092 86.4372 71.3186L87.0427 72.1145C88.0664 71.3356 89.1112 70.5827 90.176 69.8568L89.6127 69.0305C90.6896 68.2964 91.7868 67.5895 92.9032 66.9107L93.4227 67.7652C94.5212 67.0974 95.6386 66.4572 96.7739 65.8457L96.2997 64.9653C97.4462 64.3477 98.6108 63.7589 99.7924 63.2L100.22 64.1039C101.381 63.5547 102.559 63.0346 103.752 62.5446L103.373 61.6195C104.576 61.1253 105.796 60.6613 107.03 60.2285L107.361 61.1722C108.572 60.7476 109.798 60.3534 111.037 59.9905L110.756 59.0308C112.004 58.6654 113.265 58.3314 114.539 58.0296L114.77 59.0027C116.017 58.7072 117.277 58.443 118.549 58.2111L118.369 57.2274C119.647 56.9943 120.937 56.7934 122.236 56.6256L122.364 57.6173C123.635 57.4532 124.916 57.3212 126.206 57.2219L126.129 56.2249C127.423 56.1254 128.726 56.0585 130.038 56.025L130.063 57.0247C130.707 57.0083 131.352 57 132 57C132.648 57 133.293 57.0083 133.937 57.0247L133.962 56.025C135.274 56.0585 136.577 56.1254 137.871 56.2249L137.794 57.2219C139.084 57.3212 140.365 57.4532 141.636 57.6173L141.764 56.6255C143.063 56.7934 144.353 56.9943 145.631 57.2273L145.451 58.2111C146.723 58.443 147.983 58.7072 149.23 59.0027L149.461 58.0296C150.735 58.3314 151.996 58.6654 153.244 59.0308L152.963 59.9905C154.202 60.3534 155.428 60.7476 156.639 61.1722L156.97 60.2285C158.204 60.6613 159.424 61.1253 160.627 61.6195L160.248 62.5446C161.441 63.0346 162.619 63.5547 163.78 64.1039L164.208 63.2C165.389 63.7589 166.554 64.3477 167.7 64.9653L167.226 65.8457C168.361 66.4572 169.479 67.0974 170.577 67.7652L171.097 66.9107C172.213 67.5895 173.31 68.2964 174.387 69.0305L173.824 69.8568C174.889 70.5827 175.934 71.3356 176.957 72.1145L177.563 71.3186C178.602 72.1092 179.62 72.9262 180.615 73.7686L179.969 74.5319C180.952 75.3641 181.913 76.2213 182.851 77.1026L183.536 76.3739C184.487 77.2677 185.414 78.1859 186.317 79.1275L185.595 79.8196C186.486 80.7489 187.353 81.7012 188.194 82.6757L188.951 82.0222C189.804 83.0094 190.631 84.0191 191.431 85.0502L190.641 85.6634C191.43 86.6797 192.193 87.7172 192.928 88.7747L193.749 88.2037C194.494 89.274 195.211 90.3646 195.899 91.4745L195.049 92.0016C195.727 93.0943 196.377 94.206 196.998 95.3356L197.874 94.8539C198.501 95.9957 199.1 97.1556 199.668 98.3326L198.767 98.7673C199.326 99.9241 199.854 101.098 200.353 102.287L201.275 101.901C201.778 103.101 202.25 104.318 202.69 105.549L201.749 105.886C202.181 107.094 202.583 108.317 202.952 109.554L203.91 109.268C204.282 110.514 204.623 111.773 204.93 113.046L203.958 113.281C204.259 114.527 204.529 115.785 204.765 117.056L205.748 116.873C205.986 118.15 206.191 119.438 206.362 120.738L205.37 120.868C205.538 122.138 205.672 123.418 205.774 124.708L206.771 124.63Z" stroke="#939393" stroke-width="2" stroke-dasharray="4 4"/>
<circle cx="66" cy="121" r="65" stroke="#939393" stroke-width="2" stroke-dasharray="4 4"/>
<circle cx="213" cy="121" r="65" stroke="#939393" stroke-width="2" stroke-dasharray="4 4"/>
<circle cx="143" cy="79" r="65" stroke="#939393" stroke-width="2" stroke-dasharray="4 4"/>
<circle cx="186.5" cy="199.5" r="36.5" stroke="#939393" stroke-width="2" stroke-dasharray="4 4"/>
<circle cx="154" cy="167" r="36" stroke="#939393" stroke-width="2" stroke-dasharray="4 4"/>
</svg>
