<?xml version="1.0" encoding="UTF-8"?>
<svg id="_圖層_1" data-name="圖層 1" xmlns="http://www.w3.org/2000/svg" viewBox="0 0 500 500">
  <defs>
    <style>
      .cls-1 {
        fill: none;
        stroke: #f9c0c0;
        stroke-miterlimit: 10;
      }
    </style>
  </defs>
  <path class="cls-1" d="m13.25,13.25c-26.5-26.5,50-26.5,23.5,0,26.5-26.5,26.5,50,0,23.5,26.5,26.5-50,26.5-23.5,0-26.5,26.5-26.5-50,0-23.5Z"/>
  <path class="cls-1" d="m63.25,13.25c-26.5-26.5,50-26.5,23.5,0,26.5-26.5,26.5,50,0,23.5,26.5,26.5-50,26.5-23.5,0-26.5,26.5-26.5-50,0-23.5Z"/>
  <path class="cls-1" d="m113.25,13.25c-26.5-26.5,50-26.5,23.5,0,26.5-26.5,26.5,50,0,23.5,26.5,26.5-50,26.5-23.5,0-26.5,26.5-26.5-50,0-23.5Z"/>
  <path class="cls-1" d="m163.25,13.25c-26.5-26.5,50-26.5,23.5,0,26.5-26.5,26.5,50,0,23.5,26.5,26.5-50,26.5-23.5,0-26.5,26.5-26.5-50,0-23.5Z"/>
  <path class="cls-1" d="m213.25,13.25c-26.5-26.5,50-26.5,23.5,0,26.5-26.5,26.5,50,0,23.5,26.5,26.5-50,26.5-23.5,0-26.5,26.5-26.5-50,0-23.5Z"/>
  <path class="cls-1" d="m263.25,13.25c-26.5-26.5,50-26.5,23.5,0,26.5-26.5,26.5,50,0,23.5,26.5,26.5-50,26.5-23.5,0-26.5,26.5-26.5-50,0-23.5Z"/>
  <path class="cls-1" d="m313.25,13.25c-26.5-26.5,50-26.5,23.5,0,26.5-26.5,26.5,50,0,23.5,26.5,26.5-50,26.5-23.5,0-26.5,26.5-26.5-50,0-23.5Z"/>
  <path class="cls-1" d="m363.25,13.25c-26.5-26.5,50-26.5,23.5,0,26.5-26.5,26.5,50,0,23.5,26.5,26.5-50,26.5-23.5,0-26.5,26.5-26.5-50,0-23.5Z"/>
  <path class="cls-1" d="m413.25,13.25c-26.5-26.5,50-26.5,23.5,0,26.5-26.5,26.5,50,0,23.5,26.5,26.5-50,26.5-23.5,0-26.5,26.5-26.5-50,0-23.5Z"/>
  <path class="cls-1" d="m463.25,13.25c-26.5-26.5,50-26.5,23.5,0,26.5-26.5,26.5,50,0,23.5,26.5,26.5-50,26.5-23.5,0-26.5,26.5-26.5-50,0-23.5Z"/>
  <path class="cls-1" d="m13.25,63.25c-26.5-26.5,50-26.5,23.5,0,26.5-26.5,26.5,50,0,23.5,26.5,26.5-50,26.5-23.5,0-26.5,26.5-26.5-50,0-23.5Z"/>
  <path class="cls-1" d="m63.25,63.25c-26.5-26.5,50-26.5,23.5,0,26.5-26.5,26.5,50,0,23.5,26.5,26.5-50,26.5-23.5,0-26.5,26.5-26.5-50,0-23.5Z"/>
  <path class="cls-1" d="m113.25,63.25c-26.5-26.5,50-26.5,23.5,0,26.5-26.5,26.5,50,0,23.5,26.5,26.5-50,26.5-23.5,0-26.5,26.5-26.5-50,0-23.5Z"/>
  <path class="cls-1" d="m163.25,63.25c-26.5-26.5,50-26.5,23.5,0,26.5-26.5,26.5,50,0,23.5,26.5,26.5-50,26.5-23.5,0-26.5,26.5-26.5-50,0-23.5Z"/>
  <path class="cls-1" d="m213.25,63.25c-26.5-26.5,50-26.5,23.5,0,26.5-26.5,26.5,50,0,23.5,26.5,26.5-50,26.5-23.5,0-26.5,26.5-26.5-50,0-23.5Z"/>
  <path class="cls-1" d="m263.25,63.25c-26.5-26.5,50-26.5,23.5,0,26.5-26.5,26.5,50,0,23.5,26.5,26.5-50,26.5-23.5,0-26.5,26.5-26.5-50,0-23.5Z"/>
  <path class="cls-1" d="m313.25,63.25c-26.5-26.5,50-26.5,23.5,0,26.5-26.5,26.5,50,0,23.5,26.5,26.5-50,26.5-23.5,0-26.5,26.5-26.5-50,0-23.5Z"/>
  <path class="cls-1" d="m363.25,63.25c-26.5-26.5,50-26.5,23.5,0,26.5-26.5,26.5,50,0,23.5,26.5,26.5-50,26.5-23.5,0-26.5,26.5-26.5-50,0-23.5Z"/>
  <path class="cls-1" d="m413.25,63.25c-26.5-26.5,50-26.5,23.5,0,26.5-26.5,26.5,50,0,23.5,26.5,26.5-50,26.5-23.5,0-26.5,26.5-26.5-50,0-23.5Z"/>
  <path class="cls-1" d="m463.25,63.25c-26.5-26.5,50-26.5,23.5,0,26.5-26.5,26.5,50,0,23.5,26.5,26.5-50,26.5-23.5,0-26.5,26.5-26.5-50,0-23.5Z"/>
  <path class="cls-1" d="m13.25,113.25c-26.5-26.5,50-26.5,23.5,0,26.5-26.5,26.5,50,0,23.5,26.5,26.5-50,26.5-23.5,0-26.5,26.5-26.5-50,0-23.5Z"/>
  <path class="cls-1" d="m63.25,113.25c-26.5-26.5,50-26.5,23.5,0,26.5-26.5,26.5,50,0,23.5,26.5,26.5-50,26.5-23.5,0-26.5,26.5-26.5-50,0-23.5Z"/>
  <path class="cls-1" d="m113.25,113.25c-26.5-26.5,50-26.5,23.5,0,26.5-26.5,26.5,50,0,23.5,26.5,26.5-50,26.5-23.5,0-26.5,26.5-26.5-50,0-23.5Z"/>
  <path class="cls-1" d="m163.25,113.25c-26.5-26.5,50-26.5,23.5,0,26.5-26.5,26.5,50,0,23.5,26.5,26.5-50,26.5-23.5,0-26.5,26.5-26.5-50,0-23.5Z"/>
  <path class="cls-1" d="m213.25,113.25c-26.5-26.5,50-26.5,23.5,0,26.5-26.5,26.5,50,0,23.5,26.5,26.5-50,26.5-23.5,0-26.5,26.5-26.5-50,0-23.5Z"/>
  <path class="cls-1" d="m263.25,113.25c-26.5-26.5,50-26.5,23.5,0,26.5-26.5,26.5,50,0,23.5,26.5,26.5-50,26.5-23.5,0-26.5,26.5-26.5-50,0-23.5Z"/>
  <path class="cls-1" d="m313.25,113.25c-26.5-26.5,50-26.5,23.5,0,26.5-26.5,26.5,50,0,23.5,26.5,26.5-50,26.5-23.5,0-26.5,26.5-26.5-50,0-23.5Z"/>
  <path class="cls-1" d="m363.25,113.25c-26.5-26.5,50-26.5,23.5,0,26.5-26.5,26.5,50,0,23.5,26.5,26.5-50,26.5-23.5,0-26.5,26.5-26.5-50,0-23.5Z"/>
  <path class="cls-1" d="m413.25,113.25c-26.5-26.5,50-26.5,23.5,0,26.5-26.5,26.5,50,0,23.5,26.5,26.5-50,26.5-23.5,0-26.5,26.5-26.5-50,0-23.5Z"/>
  <path class="cls-1" d="m463.25,113.25c-26.5-26.5,50-26.5,23.5,0,26.5-26.5,26.5,50,0,23.5,26.5,26.5-50,26.5-23.5,0-26.5,26.5-26.5-50,0-23.5Z"/>
  <path class="cls-1" d="m13.25,163.25c-26.5-26.5,50-26.5,23.5,0,26.5-26.5,26.5,50,0,23.5,26.5,26.5-50,26.5-23.5,0-26.5,26.5-26.5-50,0-23.5Z"/>
  <path class="cls-1" d="m63.25,163.25c-26.5-26.5,50-26.5,23.5,0,26.5-26.5,26.5,50,0,23.5,26.5,26.5-50,26.5-23.5,0-26.5,26.5-26.5-50,0-23.5Z"/>
  <path class="cls-1" d="m113.25,163.25c-26.5-26.5,50-26.5,23.5,0,26.5-26.5,26.5,50,0,23.5,26.5,26.5-50,26.5-23.5,0-26.5,26.5-26.5-50,0-23.5Z"/>
  <path class="cls-1" d="m163.25,163.25c-26.5-26.5,50-26.5,23.5,0,26.5-26.5,26.5,50,0,23.5,26.5,26.5-50,26.5-23.5,0-26.5,26.5-26.5-50,0-23.5Z"/>
  <path class="cls-1" d="m213.25,163.25c-26.5-26.5,50-26.5,23.5,0,26.5-26.5,26.5,50,0,23.5,26.5,26.5-50,26.5-23.5,0-26.5,26.5-26.5-50,0-23.5Z"/>
  <path class="cls-1" d="m263.25,163.25c-26.5-26.5,50-26.5,23.5,0,26.5-26.5,26.5,50,0,23.5,26.5,26.5-50,26.5-23.5,0-26.5,26.5-26.5-50,0-23.5Z"/>
  <path class="cls-1" d="m313.25,163.25c-26.5-26.5,50-26.5,23.5,0,26.5-26.5,26.5,50,0,23.5,26.5,26.5-50,26.5-23.5,0-26.5,26.5-26.5-50,0-23.5Z"/>
  <path class="cls-1" d="m363.25,163.25c-26.5-26.5,50-26.5,23.5,0,26.5-26.5,26.5,50,0,23.5,26.5,26.5-50,26.5-23.5,0-26.5,26.5-26.5-50,0-23.5Z"/>
  <path class="cls-1" d="m413.25,163.25c-26.5-26.5,50-26.5,23.5,0,26.5-26.5,26.5,50,0,23.5,26.5,26.5-50,26.5-23.5,0-26.5,26.5-26.5-50,0-23.5Z"/>
  <path class="cls-1" d="m463.25,163.25c-26.5-26.5,50-26.5,23.5,0,26.5-26.5,26.5,50,0,23.5,26.5,26.5-50,26.5-23.5,0-26.5,26.5-26.5-50,0-23.5Z"/>
  <path class="cls-1" d="m13.25,213.25c-26.5-26.5,50-26.5,23.5,0,26.5-26.5,26.5,50,0,23.5,26.5,26.5-50,26.5-23.5,0-26.5,26.5-26.5-50,0-23.5Z"/>
  <path class="cls-1" d="m63.25,213.25c-26.5-26.5,50-26.5,23.5,0,26.5-26.5,26.5,50,0,23.5,26.5,26.5-50,26.5-23.5,0-26.5,26.5-26.5-50,0-23.5Z"/>
  <path class="cls-1" d="m113.25,213.25c-26.5-26.5,50-26.5,23.5,0,26.5-26.5,26.5,50,0,23.5,26.5,26.5-50,26.5-23.5,0-26.5,26.5-26.5-50,0-23.5Z"/>
  <path class="cls-1" d="m163.25,213.25c-26.5-26.5,50-26.5,23.5,0,26.5-26.5,26.5,50,0,23.5,26.5,26.5-50,26.5-23.5,0-26.5,26.5-26.5-50,0-23.5Z"/>
  <path class="cls-1" d="m213.25,213.25c-26.5-26.5,50-26.5,23.5,0,26.5-26.5,26.5,50,0,23.5,26.5,26.5-50,26.5-23.5,0-26.5,26.5-26.5-50,0-23.5Z"/>
  <path class="cls-1" d="m263.25,213.25c-26.5-26.5,50-26.5,23.5,0,26.5-26.5,26.5,50,0,23.5,26.5,26.5-50,26.5-23.5,0-26.5,26.5-26.5-50,0-23.5Z"/>
  <path class="cls-1" d="m313.25,213.25c-26.5-26.5,50-26.5,23.5,0,26.5-26.5,26.5,50,0,23.5,26.5,26.5-50,26.5-23.5,0-26.5,26.5-26.5-50,0-23.5Z"/>
  <path class="cls-1" d="m363.25,213.25c-26.5-26.5,50-26.5,23.5,0,26.5-26.5,26.5,50,0,23.5,26.5,26.5-50,26.5-23.5,0-26.5,26.5-26.5-50,0-23.5Z"/>
  <path class="cls-1" d="m413.25,213.25c-26.5-26.5,50-26.5,23.5,0,26.5-26.5,26.5,50,0,23.5,26.5,26.5-50,26.5-23.5,0-26.5,26.5-26.5-50,0-23.5Z"/>
  <path class="cls-1" d="m463.25,213.25c-26.5-26.5,50-26.5,23.5,0,26.5-26.5,26.5,50,0,23.5,26.5,26.5-50,26.5-23.5,0-26.5,26.5-26.5-50,0-23.5Z"/>
  <path class="cls-1" d="m13.25,263.25c-26.5-26.5,50-26.5,23.5,0,26.5-26.5,26.5,50,0,23.5,26.5,26.5-50,26.5-23.5,0-26.5,26.5-26.5-50,0-23.5Z"/>
  <path class="cls-1" d="m63.25,263.25c-26.5-26.5,50-26.5,23.5,0,26.5-26.5,26.5,50,0,23.5,26.5,26.5-50,26.5-23.5,0-26.5,26.5-26.5-50,0-23.5Z"/>
  <path class="cls-1" d="m113.25,263.25c-26.5-26.5,50-26.5,23.5,0,26.5-26.5,26.5,50,0,23.5,26.5,26.5-50,26.5-23.5,0-26.5,26.5-26.5-50,0-23.5Z"/>
  <path class="cls-1" d="m163.25,263.25c-26.5-26.5,50-26.5,23.5,0,26.5-26.5,26.5,50,0,23.5,26.5,26.5-50,26.5-23.5,0-26.5,26.5-26.5-50,0-23.5Z"/>
  <path class="cls-1" d="m213.25,263.25c-26.5-26.5,50-26.5,23.5,0,26.5-26.5,26.5,50,0,23.5,26.5,26.5-50,26.5-23.5,0-26.5,26.5-26.5-50,0-23.5Z"/>
  <path class="cls-1" d="m263.25,263.25c-26.5-26.5,50-26.5,23.5,0,26.5-26.5,26.5,50,0,23.5,26.5,26.5-50,26.5-23.5,0-26.5,26.5-26.5-50,0-23.5Z"/>
  <path class="cls-1" d="m313.25,263.25c-26.5-26.5,50-26.5,23.5,0,26.5-26.5,26.5,50,0,23.5,26.5,26.5-50,26.5-23.5,0-26.5,26.5-26.5-50,0-23.5Z"/>
  <path class="cls-1" d="m363.25,263.25c-26.5-26.5,50-26.5,23.5,0,26.5-26.5,26.5,50,0,23.5,26.5,26.5-50,26.5-23.5,0-26.5,26.5-26.5-50,0-23.5Z"/>
  <path class="cls-1" d="m413.25,263.25c-26.5-26.5,50-26.5,23.5,0,26.5-26.5,26.5,50,0,23.5,26.5,26.5-50,26.5-23.5,0-26.5,26.5-26.5-50,0-23.5Z"/>
  <path class="cls-1" d="m463.25,263.25c-26.5-26.5,50-26.5,23.5,0,26.5-26.5,26.5,50,0,23.5,26.5,26.5-50,26.5-23.5,0-26.5,26.5-26.5-50,0-23.5Z"/>
  <path class="cls-1" d="m13.25,313.25c-26.5-26.5,50-26.5,23.5,0,26.5-26.5,26.5,50,0,23.5,26.5,26.5-50,26.5-23.5,0-26.5,26.5-26.5-50,0-23.5Z"/>
  <path class="cls-1" d="m63.25,313.25c-26.5-26.5,50-26.5,23.5,0,26.5-26.5,26.5,50,0,23.5,26.5,26.5-50,26.5-23.5,0-26.5,26.5-26.5-50,0-23.5Z"/>
  <path class="cls-1" d="m113.25,313.25c-26.5-26.5,50-26.5,23.5,0,26.5-26.5,26.5,50,0,23.5,26.5,26.5-50,26.5-23.5,0-26.5,26.5-26.5-50,0-23.5Z"/>
  <path class="cls-1" d="m163.25,313.25c-26.5-26.5,50-26.5,23.5,0,26.5-26.5,26.5,50,0,23.5,26.5,26.5-50,26.5-23.5,0-26.5,26.5-26.5-50,0-23.5Z"/>
  <path class="cls-1" d="m213.25,313.25c-26.5-26.5,50-26.5,23.5,0,26.5-26.5,26.5,50,0,23.5,26.5,26.5-50,26.5-23.5,0-26.5,26.5-26.5-50,0-23.5Z"/>
  <path class="cls-1" d="m263.25,313.25c-26.5-26.5,50-26.5,23.5,0,26.5-26.5,26.5,50,0,23.5,26.5,26.5-50,26.5-23.5,0-26.5,26.5-26.5-50,0-23.5Z"/>
  <path class="cls-1" d="m313.25,313.25c-26.5-26.5,50-26.5,23.5,0,26.5-26.5,26.5,50,0,23.5,26.5,26.5-50,26.5-23.5,0-26.5,26.5-26.5-50,0-23.5Z"/>
  <path class="cls-1" d="m363.25,313.25c-26.5-26.5,50-26.5,23.5,0,26.5-26.5,26.5,50,0,23.5,26.5,26.5-50,26.5-23.5,0-26.5,26.5-26.5-50,0-23.5Z"/>
  <path class="cls-1" d="m413.25,313.25c-26.5-26.5,50-26.5,23.5,0,26.5-26.5,26.5,50,0,23.5,26.5,26.5-50,26.5-23.5,0-26.5,26.5-26.5-50,0-23.5Z"/>
  <path class="cls-1" d="m463.25,313.25c-26.5-26.5,50-26.5,23.5,0,26.5-26.5,26.5,50,0,23.5,26.5,26.5-50,26.5-23.5,0-26.5,26.5-26.5-50,0-23.5Z"/>
  <path class="cls-1" d="m13.25,363.25c-26.5-26.5,50-26.5,23.5,0,26.5-26.5,26.5,50,0,23.5,26.5,26.5-50,26.5-23.5,0-26.5,26.5-26.5-50,0-23.5Z"/>
  <path class="cls-1" d="m63.25,363.25c-26.5-26.5,50-26.5,23.5,0,26.5-26.5,26.5,50,0,23.5,26.5,26.5-50,26.5-23.5,0-26.5,26.5-26.5-50,0-23.5Z"/>
  <path class="cls-1" d="m113.25,363.25c-26.5-26.5,50-26.5,23.5,0,26.5-26.5,26.5,50,0,23.5,26.5,26.5-50,26.5-23.5,0-26.5,26.5-26.5-50,0-23.5Z"/>
  <path class="cls-1" d="m163.25,363.25c-26.5-26.5,50-26.5,23.5,0,26.5-26.5,26.5,50,0,23.5,26.5,26.5-50,26.5-23.5,0-26.5,26.5-26.5-50,0-23.5Z"/>
  <path class="cls-1" d="m213.25,363.25c-26.5-26.5,50-26.5,23.5,0,26.5-26.5,26.5,50,0,23.5,26.5,26.5-50,26.5-23.5,0-26.5,26.5-26.5-50,0-23.5Z"/>
  <path class="cls-1" d="m263.25,363.25c-26.5-26.5,50-26.5,23.5,0,26.5-26.5,26.5,50,0,23.5,26.5,26.5-50,26.5-23.5,0-26.5,26.5-26.5-50,0-23.5Z"/>
  <path class="cls-1" d="m313.25,363.25c-26.5-26.5,50-26.5,23.5,0,26.5-26.5,26.5,50,0,23.5,26.5,26.5-50,26.5-23.5,0-26.5,26.5-26.5-50,0-23.5Z"/>
  <path class="cls-1" d="m363.25,363.25c-26.5-26.5,50-26.5,23.5,0,26.5-26.5,26.5,50,0,23.5,26.5,26.5-50,26.5-23.5,0-26.5,26.5-26.5-50,0-23.5Z"/>
  <path class="cls-1" d="m413.25,363.25c-26.5-26.5,50-26.5,23.5,0,26.5-26.5,26.5,50,0,23.5,26.5,26.5-50,26.5-23.5,0-26.5,26.5-26.5-50,0-23.5Z"/>
  <path class="cls-1" d="m463.25,363.25c-26.5-26.5,50-26.5,23.5,0,26.5-26.5,26.5,50,0,23.5,26.5,26.5-50,26.5-23.5,0-26.5,26.5-26.5-50,0-23.5Z"/>
  <path class="cls-1" d="m13.25,413.25c-26.5-26.5,50-26.5,23.5,0,26.5-26.5,26.5,50,0,23.5,26.5,26.5-50,26.5-23.5,0-26.5,26.5-26.5-50,0-23.5Z"/>
  <path class="cls-1" d="m63.25,413.25c-26.5-26.5,50-26.5,23.5,0,26.5-26.5,26.5,50,0,23.5,26.5,26.5-50,26.5-23.5,0-26.5,26.5-26.5-50,0-23.5Z"/>
  <path class="cls-1" d="m113.25,413.25c-26.5-26.5,50-26.5,23.5,0,26.5-26.5,26.5,50,0,23.5,26.5,26.5-50,26.5-23.5,0-26.5,26.5-26.5-50,0-23.5Z"/>
  <path class="cls-1" d="m163.25,413.25c-26.5-26.5,50-26.5,23.5,0,26.5-26.5,26.5,50,0,23.5,26.5,26.5-50,26.5-23.5,0-26.5,26.5-26.5-50,0-23.5Z"/>
  <path class="cls-1" d="m213.25,413.25c-26.5-26.5,50-26.5,23.5,0,26.5-26.5,26.5,50,0,23.5,26.5,26.5-50,26.5-23.5,0-26.5,26.5-26.5-50,0-23.5Z"/>
  <path class="cls-1" d="m263.25,413.25c-26.5-26.5,50-26.5,23.5,0,26.5-26.5,26.5,50,0,23.5,26.5,26.5-50,26.5-23.5,0-26.5,26.5-26.5-50,0-23.5Z"/>
  <path class="cls-1" d="m313.25,413.25c-26.5-26.5,50-26.5,23.5,0,26.5-26.5,26.5,50,0,23.5,26.5,26.5-50,26.5-23.5,0-26.5,26.5-26.5-50,0-23.5Z"/>
  <path class="cls-1" d="m363.25,413.25c-26.5-26.5,50-26.5,23.5,0,26.5-26.5,26.5,50,0,23.5,26.5,26.5-50,26.5-23.5,0-26.5,26.5-26.5-50,0-23.5Z"/>
  <path class="cls-1" d="m413.25,413.25c-26.5-26.5,50-26.5,23.5,0,26.5-26.5,26.5,50,0,23.5,26.5,26.5-50,26.5-23.5,0-26.5,26.5-26.5-50,0-23.5Z"/>
  <path class="cls-1" d="m463.25,413.25c-26.5-26.5,50-26.5,23.5,0,26.5-26.5,26.5,50,0,23.5,26.5,26.5-50,26.5-23.5,0-26.5,26.5-26.5-50,0-23.5Z"/>
  <path class="cls-1" d="m13.25,463.25c-26.5-26.5,50-26.5,23.5,0,26.5-26.5,26.5,50,0,23.5,26.5,26.5-50,26.5-23.5,0-26.5,26.5-26.5-50,0-23.5Z"/>
  <path class="cls-1" d="m63.25,463.25c-26.5-26.5,50-26.5,23.5,0,26.5-26.5,26.5,50,0,23.5,26.5,26.5-50,26.5-23.5,0-26.5,26.5-26.5-50,0-23.5Z"/>
  <path class="cls-1" d="m113.25,463.25c-26.5-26.5,50-26.5,23.5,0,26.5-26.5,26.5,50,0,23.5,26.5,26.5-50,26.5-23.5,0-26.5,26.5-26.5-50,0-23.5Z"/>
  <path class="cls-1" d="m163.25,463.25c-26.5-26.5,50-26.5,23.5,0,26.5-26.5,26.5,50,0,23.5,26.5,26.5-50,26.5-23.5,0-26.5,26.5-26.5-50,0-23.5Z"/>
  <path class="cls-1" d="m213.25,463.25c-26.5-26.5,50-26.5,23.5,0,26.5-26.5,26.5,50,0,23.5,26.5,26.5-50,26.5-23.5,0-26.5,26.5-26.5-50,0-23.5Z"/>
  <path class="cls-1" d="m263.25,463.25c-26.5-26.5,50-26.5,23.5,0,26.5-26.5,26.5,50,0,23.5,26.5,26.5-50,26.5-23.5,0-26.5,26.5-26.5-50,0-23.5Z"/>
  <path class="cls-1" d="m313.25,463.25c-26.5-26.5,50-26.5,23.5,0,26.5-26.5,26.5,50,0,23.5,26.5,26.5-50,26.5-23.5,0-26.5,26.5-26.5-50,0-23.5Z"/>
  <path class="cls-1" d="m363.25,463.25c-26.5-26.5,50-26.5,23.5,0,26.5-26.5,26.5,50,0,23.5,26.5,26.5-50,26.5-23.5,0-26.5,26.5-26.5-50,0-23.5Z"/>
  <path class="cls-1" d="m413.25,463.25c-26.5-26.5,50-26.5,23.5,0,26.5-26.5,26.5,50,0,23.5,26.5,26.5-50,26.5-23.5,0-26.5,26.5-26.5-50,0-23.5Z"/>
  <path class="cls-1" d="m463.25,463.25c-26.5-26.5,50-26.5,23.5,0,26.5-26.5,26.5,50,0,23.5,26.5,26.5-50,26.5-23.5,0-26.5,26.5-26.5-50,0-23.5Z"/>
</svg>