<?xml version="1.0" encoding="UTF-8"?>
<svg id="_圖層_1" data-name="圖層 1" xmlns="http://www.w3.org/2000/svg" viewBox="0 0 841.65 841.65">
  <defs>
    <style>
      .cls-1 {
        fill: none;
        stroke: #cc2f2c;
        stroke-miterlimit: 10;
      }
    </style>
  </defs>
  <rect class="cls-1" x=".5" y="84.57" width="84.07" height="84.07"/>
  <rect class="cls-1" x="84.57" y="84.57" width="84.07" height="84.07"/>
  <rect class="cls-1" x="168.63" y="84.57" width="84.07" height="84.07"/>
  <rect class="cls-1" x="252.7" y="84.57" width="84.07" height="84.07"/>
  <rect class="cls-1" x="336.76" y="84.57" width="84.07" height="84.07"/>
  <rect class="cls-1" x="420.83" y="84.57" width="84.07" height="84.07"/>
  <rect class="cls-1" x="504.89" y="84.57" width="84.07" height="84.07"/>
  <rect class="cls-1" x="588.96" y="84.57" width="84.07" height="84.07"/>
  <rect class="cls-1" x="673.02" y="84.57" width="84.07" height="84.07"/>
  <rect class="cls-1" x=".5" y="168.63" width="84.07" height="84.07"/>
  <rect class="cls-1" x="84.57" y="168.63" width="84.07" height="84.07"/>
  <rect class="cls-1" x="168.63" y="168.63" width="84.07" height="84.07"/>
  <rect class="cls-1" x="252.7" y="168.63" width="84.07" height="84.07"/>
  <rect class="cls-1" x="336.76" y="168.63" width="84.07" height="84.07"/>
  <rect class="cls-1" x="420.83" y="168.63" width="84.07" height="84.07"/>
  <rect class="cls-1" x="504.89" y="168.63" width="84.07" height="84.07"/>
  <rect class="cls-1" x="588.96" y="168.63" width="84.07" height="84.07"/>
  <rect class="cls-1" x="673.02" y="168.63" width="84.07" height="84.07"/>
  <rect class="cls-1" x=".5" y="252.7" width="84.07" height="84.07"/>
  <rect class="cls-1" x="84.57" y="252.7" width="84.07" height="84.07"/>
  <rect class="cls-1" x="168.63" y="252.7" width="84.07" height="84.07"/>
  <rect class="cls-1" x="252.7" y="252.7" width="84.07" height="84.07"/>
  <rect class="cls-1" x="336.76" y="252.7" width="84.07" height="84.07"/>
  <rect class="cls-1" x="420.83" y="252.7" width="84.07" height="84.07"/>
  <rect class="cls-1" x="504.89" y="252.7" width="84.07" height="84.07"/>
  <rect class="cls-1" x="588.96" y="252.7" width="84.07" height="84.07"/>
  <rect class="cls-1" x="673.02" y="252.7" width="84.07" height="84.07"/>
  <rect class="cls-1" x=".5" y="336.76" width="84.07" height="84.07"/>
  <rect class="cls-1" x="84.57" y="336.76" width="84.07" height="84.07"/>
  <rect class="cls-1" x="168.63" y="336.76" width="84.07" height="84.07"/>
  <rect class="cls-1" x="252.7" y="336.76" width="84.07" height="84.07"/>
  <rect class="cls-1" x="336.76" y="336.76" width="84.07" height="84.07"/>
  <rect class="cls-1" x="420.83" y="336.76" width="84.07" height="84.07"/>
  <rect class="cls-1" x="504.89" y="336.76" width="84.07" height="84.07"/>
  <rect class="cls-1" x="588.96" y="336.76" width="84.07" height="84.07"/>
  <rect class="cls-1" x="673.02" y="336.76" width="84.07" height="84.07"/>
  <rect class="cls-1" x=".5" y="420.83" width="84.07" height="84.07"/>
  <rect class="cls-1" x="84.57" y="420.83" width="84.07" height="84.07"/>
  <rect class="cls-1" x="168.63" y="420.83" width="84.07" height="84.07"/>
  <rect class="cls-1" x="252.7" y="420.83" width="84.07" height="84.07"/>
  <rect class="cls-1" x="336.76" y="420.83" width="84.07" height="84.07"/>
  <rect class="cls-1" x="420.83" y="420.83" width="84.07" height="84.07"/>
  <rect class="cls-1" x="504.89" y="420.83" width="84.07" height="84.07"/>
  <rect class="cls-1" x="588.96" y="420.83" width="84.07" height="84.07"/>
  <rect class="cls-1" x="673.02" y="420.83" width="84.07" height="84.07"/>
  <rect class="cls-1" x=".5" y="504.89" width="84.07" height="84.07"/>
  <rect class="cls-1" x="84.57" y="504.89" width="84.07" height="84.07"/>
  <rect class="cls-1" x="168.63" y="504.89" width="84.07" height="84.07"/>
  <rect class="cls-1" x="252.7" y="504.89" width="84.07" height="84.07"/>
  <rect class="cls-1" x="336.76" y="504.89" width="84.07" height="84.07"/>
  <rect class="cls-1" x="420.83" y="504.89" width="84.07" height="84.07"/>
  <rect class="cls-1" x="504.89" y="504.89" width="84.07" height="84.07"/>
  <rect class="cls-1" x="588.96" y="504.89" width="84.07" height="84.07"/>
  <rect class="cls-1" x="673.02" y="504.89" width="84.07" height="84.07"/>
  <rect class="cls-1" x=".5" y="588.96" width="84.07" height="84.07"/>
  <rect class="cls-1" x="84.57" y="588.96" width="84.07" height="84.07"/>
  <rect class="cls-1" x="168.63" y="588.96" width="84.07" height="84.07"/>
  <rect class="cls-1" x="252.7" y="588.96" width="84.07" height="84.07"/>
  <rect class="cls-1" x="336.76" y="588.96" width="84.07" height="84.07"/>
  <rect class="cls-1" x="420.83" y="588.96" width="84.07" height="84.07"/>
  <rect class="cls-1" x="504.89" y="588.96" width="84.07" height="84.07"/>
  <rect class="cls-1" x="588.96" y="588.96" width="84.07" height="84.07"/>
  <rect class="cls-1" x="673.02" y="588.96" width="84.07" height="84.07"/>
  <rect class="cls-1" x=".5" y="673.02" width="84.07" height="84.07"/>
  <rect class="cls-1" x="84.57" y="673.02" width="84.07" height="84.07"/>
  <rect class="cls-1" x="168.63" y="673.02" width="84.07" height="84.07"/>
  <rect class="cls-1" x="252.7" y="673.02" width="84.07" height="84.07"/>
  <rect class="cls-1" x="336.76" y="673.02" width="84.07" height="84.07"/>
  <rect class="cls-1" x="420.83" y="673.02" width="84.07" height="84.07"/>
  <rect class="cls-1" x="504.89" y="673.02" width="84.07" height="84.07"/>
  <rect class="cls-1" x="588.96" y="673.02" width="84.07" height="84.07"/>
  <rect class="cls-1" x="673.02" y="673.02" width="84.07" height="84.07"/>
  <rect class="cls-1" x=".5" y="757.09" width="84.07" height="84.07"/>
  <rect class="cls-1" x="84.57" y="757.09" width="84.07" height="84.07"/>
  <rect class="cls-1" x="168.63" y="757.09" width="84.07" height="84.07"/>
  <rect class="cls-1" x="252.7" y="757.09" width="84.07" height="84.07"/>
  <rect class="cls-1" x="336.76" y="757.09" width="84.07" height="84.07"/>
  <rect class="cls-1" x="420.83" y="757.09" width="84.07" height="84.07"/>
  <rect class="cls-1" x="504.89" y="757.09" width="84.07" height="84.07"/>
  <rect class="cls-1" x="588.96" y="757.09" width="84.07" height="84.07"/>
  <rect class="cls-1" x="673.02" y="757.09" width="84.07" height="84.07"/>
  <line class="cls-1" x1="84.57" y1="84.57" x2="84.57"/>
  <line class="cls-1" x1="168.63" y1="84.57" x2="168.63" y2="0"/>
  <line class="cls-1" x1="252.7" y1="84.57" x2="252.7"/>
  <line class="cls-1" x1="336.76" y1="84.57" x2="336.76" y2="0"/>
  <line class="cls-1" x1="420.83" y1="84.57" x2="420.83" y2="0"/>
  <line class="cls-1" x1="504.89" y1="84.57" x2="504.89" y2="0"/>
  <line class="cls-1" x1="588.96" y1="84.57" x2="588.96"/>
  <line class="cls-1" x1="673.02" y1="84.57" x2="673.02" y2="0"/>
  <line class="cls-1" x1="757.09" y1="84.57" x2="757.09" y2="0"/>
  <line class="cls-1" x1=".5" y1="84.57" x2=".5" y2="0"/>
  <line class="cls-1" x1="757.09" y1="84.57" x2="841.65" y2="84.57"/>
  <line class="cls-1" x1="757.09" y1="168.63" x2="841.65" y2="168.63"/>
  <line class="cls-1" x1="757.09" y1="252.7" x2="841.65" y2="252.7"/>
  <line class="cls-1" x1="757.09" y1="336.76" x2="841.65" y2="336.76"/>
  <line class="cls-1" x1="757.09" y1="420.83" x2="841.65" y2="420.83"/>
  <line class="cls-1" x1="757.09" y1="504.89" x2="841.65" y2="504.89"/>
  <line class="cls-1" x1="757.09" y1="588.96" x2="841.65" y2="588.96"/>
  <line class="cls-1" x1="757.09" y1="673.02" x2="841.65" y2="673.02"/>
  <line class="cls-1" x1="757.09" y1="757.09" x2="841.65" y2="757.09"/>
  <line class="cls-1" x1="757.09" y1="841.15" x2="841.65" y2="841.15"/>
</svg>