<svg width="44" height="44" viewBox="0 0 44 44" fill="none" xmlns="http://www.w3.org/2000/svg">
<path fill-rule="evenodd" clip-rule="evenodd" d="M31.9585 10.3227C31.5679 9.9322 30.9348 9.9322 30.5443 10.3227L21.6356 19.2314L12.7271 10.3229C12.3365 9.93238 11.7034 9.93238 11.3128 10.3229L10.3231 11.3127C9.93253 11.7032 9.93253 12.3364 10.3231 12.7269L19.2316 21.6354L10.3225 30.5445C9.93196 30.935 9.93196 31.5682 10.3225 31.9587L11.3123 32.9485C11.7028 33.339 12.336 33.339 12.7265 32.9485L21.6356 24.0394L30.5448 32.9487C30.9354 33.3392 31.5685 33.3392 31.959 32.9487L32.9488 31.9589C33.3393 31.5684 33.3393 30.9352 32.9488 30.5447L24.0396 21.6354L32.9483 12.7267C33.3388 12.3362 33.3388 11.703 32.9483 11.3125L31.9585 10.3227Z" fill="white"/>
</svg>
