<?xml version="1.0" encoding="UTF-8"?>
<svg id="_圖層_1" data-name="圖層 1" xmlns="http://www.w3.org/2000/svg" viewBox="0 0 1415.25 1504.97">
  <defs>
    <style>
      .cls-1 {
        fill: #f2c0d6;
      }

      .cls-1, .cls-2, .cls-3, .cls-4, .cls-5 {
        stroke-miterlimit: 10;
      }

      .cls-1, .cls-2, .cls-5 {
        stroke: #020202;
      }

      .cls-2 {
        fill: #e8e8e8;
      }

      .cls-3 {
        fill: #c9c2bd;
        stroke: #070707;
      }

      .cls-4 {
        fill: #56342b;
        stroke: #000;
      }

      .cls-5 {
        fill: #f4d4bd;
      }

      .cls-6 {
        fill: #5b362f;
      }

      .cls-6, .cls-7, .cls-8, .cls-9 {
        stroke-width: 0px;
      }

      .cls-7 {
        fill: #cec9c6;
      }

      .cls-8 {
        fill: #e5c3ac;
      }

      .cls-9 {
        fill: #e8c5af;
      }
    </style>
  </defs>
  <path class="cls-9" d="m612.66,631.72s8.01,62.53-4.6,90.27-46.65,44.12-56.73,49.17.95,33.67,22.38,43.76,49.48,20.54,88.56,14.23,83.21-30.26,104.64-47.91-21.43-39.08-12.61-60.51,25.21-44.12,25.21-44.12c0,0-41.6,23.01-69.34,23.48s-35.3,6.78-60.51-17.18-37.01-51.19-37.01-51.19Z"/>
  <path class="cls-5" d="m606.54,428.85s-28,108.83-19.6,148.03,56,120.4,89.6,134.4,78.4-14,112-36.4,53.2-60.27,75.6-102.94,30.8-92.33,28-143.1-25.2-128.33-103.6-149.75-142.8,51.38-156.8,79.38-25.2,70.37-25.2,70.37Z"/>
  <path class="cls-3" d="m526.12,742.16s35.3,90.77,121.03,86.99,161.37-86.99,161.37-86.99c0,0,31.52-10.09,59.25,0s34.04,12.61,34.04,12.61c0,0-85.97,96.14-101.1,111.27s-105.09,66.83-105.09,66.83c0,0-49.4,43.58-78.69,23.08s-112.25-97.61-123.96-113.23-59.73-73.79-51.41-77.24c3.84-1.59,14.32-11.59,29.94-18.42s21.5-13.87,38.07-9.39l16.56,4.48Z"/>
  <path class="cls-2" d="m372.64,1501.99h-4.28s2.14-34.57,0-64.55c-2.15-29.98-25.7-92.09-19.28-134.92,2.87-19.08,7.85-50.47,12.69-83.76-2.23,23.56-4.39,45.47-6.26,62.34-6.43,57.83,8.56,100.66,17.13,137.07,8.57,36.4,0,83.82,0,83.82Z"/>
  <path class="cls-2" d="m372.64,1501.99s8.57-47.42,0-83.82c-8.57-36.41-23.56-79.24-17.13-137.07,1.87-16.87,4.03-38.78,6.26-62.34-4.84,33.29-9.82,64.68-12.69,83.76-6.42,42.83,17.13,104.94,19.28,134.92,2.14,29.98,0,64.55,0,64.55h-137.07s4.29-47.42,10.71-88.11c6.43-40.69,0-92.09,0-117.79s23.56-164.9,29.98-192.74c6.43-27.84,21.42-152.05,21.42-152.05,0,0,4.28-27.84,12.49-51.4,8.21-23.56,26.06-68.53,26.06-68.53,0,0,13.78-19.69,32.12-27.84,18.13-8.06,70.37-35.07,76.51-38.25.34-.18.76-.08.99.23,6.64,9.02,95.69,129.34,143.09,164.37,49.26,36.41,40.69,34.27,66.39,21.42s107.08-54.21,139.2-90.28c32.13-36.08,115.06-105.75,115.06-105.75,0,0,32.71,16.13,54.13,37.55,21.42,21.41,83.52,94.23,119.93,314.81,36.41,220.59,36.41,278.41,47.11,319.1,10.71,40.69,21.42,75.26,21.42,75.26H372.64Z"/>
  <path class="cls-4" d="m836.15,327.96s-54.79,66.92-114.2,89.32-84.61,14-109.81,39.2-26.24,79.56-23.44,113.16,28.92,60.65,28.92,94.25,5.72,66.99-16.68,97.79-39.2,42.12-64.4,25.26-70-42.06-58.8-109.26,45.83-164.37,66.77-226.04c22.99-67.7,74.02-151.59,138.43-178.61s110.47-22.01,133.62-7.02,19.59,61.95,19.59,61.95Z"/>
  <path class="cls-4" d="m827.42,285.79s39.08-7.56,57.99,32.78,20.17,31.52,40.34,94.55,60.51,194.15,27.74,260.96-7.59,106.86-7.59,106.86c0,0-29.67-28.04-49.25-14.83-25.63,17.29-42.76,29-59.15,29s-16.39,2.52-10.09,10.09,23.95,34.04-16.39,16.39-63.03-21.43-69.34-42.86,6.06-53.7,28.26-89.78c10.09-16.39,41.84-22.66,63.27-65.53s39.59-66.57,38.33-106.92-3.43-74.38-18.73-107.16-29.17-50.43-29.17-63.03,3.78-60.51,3.78-60.51Z"/>
  <path class="cls-6" d="m826.16,337.47s6.3,108.42,30.26,147.5,37.82,54.21,56.73,64.3,45.38,6.3,41.6,0,1.26-7.56-26.47-45.38-39.08-73.12-49.17-109.68-8.82-60.51-31.52-79.42-17.65-20.17-21.43-11.35,0,34.04,0,34.04Z"/>
  <path class="cls-7" d="m379.95,977.38s.02,64.25-2.68,82.8-15.23,155.72-15.23,155.72c0,0,18.44-105,22.64-151.12,4.61-50.6-4.74-87.4-4.74-87.4Z"/>
  <path class="cls-7" d="m912.23,934.64s-11.42,136.68,0,162.01,25.13,57.31,22.85,93.87l-2.28,36.55s8.38-31.71,8.38-47.86,1.2-25.72-9.57-60.42-19.36-184.15-19.36-184.15Z"/>
  <path class="cls-7" d="m960.74,1127.53c-5.37,20.6-9.85,41.42-13.41,62.41-3.56,21.01-6.22,42.18-7.97,63.43-1.74,21.21-2.57,42.5-2.48,63.78.09,21.39,1.11,42.77,3.05,64.06s4.77,42.17,8.51,63.05c.47,2.62.96,5.23,1.45,7.85.36,1.89,3.25,1.09,2.89-.8-3.98-20.88-7.05-41.92-9.18-63.07-2.13-21.07-3.35-42.24-3.66-63.42s.29-42.37,1.8-63.5c1.5-21.1,3.91-42.13,7.23-63.02,3.32-20.92,7.55-41.69,12.68-62.24.64-2.58,1.3-5.16,1.97-7.73.49-1.87-2.41-2.67-2.89-.8h0Z"/>
  <g>
    <path class="cls-6" d="m761.1,300.68c-64.82,29.71-124.27,71.08-174.67,121.52"/>
    <path class="cls-6" d="m760.35,299.39c-25.37,11.64-49.93,25.05-73.44,40.1-23.49,15.04-45.95,31.71-67.15,49.84-11.87,10.15-23.34,20.77-34.39,31.82-1.37,1.37.75,3.49,2.12,2.12,19.65-19.65,40.65-37.95,62.83-54.68,22.17-16.72,45.49-31.92,69.75-45.43,13.65-7.6,27.59-14.66,41.79-21.18,1.75-.8.23-3.39-1.51-2.59h0Z"/>
  </g>
  <g>
    <path class="cls-6" d="m762.9,272.62c-77.77,12.53-147.25,67.8-176.96,140.76"/>
    <path class="cls-6" d="m762.5,271.18c-15.29,2.48-30.29,6.59-44.73,12.18s-28.22,12.56-41.25,20.83c-13.04,8.27-25.29,17.79-36.52,28.39-11.27,10.63-21.5,22.36-30.48,34.98-8.94,12.56-16.63,26.01-22.79,40.14-.77,1.75-1.51,3.52-2.23,5.29s2.17,2.56,2.89.8c5.75-14.1,13.04-27.57,21.57-40.18s18.43-24.45,29.32-35.19,22.73-20.38,35.43-28.82,26.17-15.68,40.25-21.49c14.08-5.81,28.74-10.22,43.71-13.04,1.87-.35,3.75-.68,5.64-.99s1.09-3.2-.8-2.89h0Z"/>
  </g>
  <g>
    <path class="cls-6" d="m550.38,528.24c-33.95,59.78-46.77,131.27-35.72,199.12"/>
    <path class="cls-6" d="m549.08,527.48c-13.34,23.52-23.47,48.85-30.15,75.05s-9.92,53.01-9.63,79.9c.16,15.18,1.48,30.34,3.91,45.33.31,1.9,3.2,1.09,2.89-.8-4.26-26.29-4.92-53.14-2.16-79.63,2.76-26.48,9.01-52.62,18.49-77.5,5.37-14.08,11.81-27.73,19.24-40.83.95-1.68-1.64-3.2-2.59-1.51h0Z"/>
  </g>
  <g>
    <path class="cls-6" d="m566.02,605.36c.45,45.15.9,90.3,1.35,135.46"/>
    <path class="cls-6" d="m564.52,605.36c.18,17.58.35,35.16.53,52.73.18,17.66.35,35.32.53,52.98.1,9.91.2,19.83.3,29.74.02,1.93,3.02,1.93,3,0-.18-17.58-.35-35.16-.53-52.73-.18-17.66-.35-35.32-.53-52.98-.1-9.91-.2-19.83-.3-29.74-.02-1.93-3.02-1.93-3,0h0Z"/>
  </g>
  <g>
    <path class="cls-6" d="m602.83,651.61c5.37,37.3-1.24,76.23-18.64,109.66"/>
    <path class="cls-6" d="m601.38,652.01c4.1,28.74,1.02,58.42-8.63,85.79-2.75,7.79-6.05,15.38-9.85,22.71-.89,1.71,1.7,3.23,2.59,1.51,6.84-13.18,12.06-27.19,15.53-41.63,3.46-14.44,5.2-29.31,5.13-44.15-.04-8.38-.69-16.74-1.87-25.04-.27-1.9-3.16-1.09-2.89.8h0Z"/>
  </g>
  <g>
    <path class="cls-6" d="m544.09,625.44c-3.92,43.68-2.47,87.84,4.31,131.18"/>
    <path class="cls-6" d="m542.59,625.44c-1.53,17.13-2.25,34.34-2.13,51.54s1.04,34.23,2.78,51.26c.98,9.62,2.23,19.22,3.72,28.77.3,1.9,3.19,1.09,2.89-.8-2.63-16.86-4.45-33.85-5.46-50.89-1.01-17.01-1.21-34.06-.6-51.09.34-9.61.95-19.22,1.8-28.8.17-1.92-2.83-1.91-3,0h0Z"/>
  </g>
  <g>
    <path class="cls-6" d="m829.23,670.84c-6.55,20.43-13.11,40.85-19.66,61.28-2.46,7.67-4.94,15.47-5.1,23.52s2.35,16.53,8.42,21.82"/>
    <path class="cls-6" d="m827.78,670.44c-4.93,15.36-9.86,30.72-14.78,46.08-2.4,7.47-4.95,14.92-7.13,22.46-1.98,6.86-3.49,14.11-2.7,21.28s3.4,13.6,8.65,18.26c1.44,1.28,3.57-.84,2.12-2.12-10.3-9.15-8.71-24.24-5.31-36.16,2.1-7.38,4.61-14.66,6.95-21.97,2.34-7.28,4.67-14.57,7.01-21.85,2.69-8.39,5.39-16.78,8.08-25.18.59-1.84-2.3-2.63-2.89-.8h0Z"/>
  </g>
  <g>
    <path class="cls-6" d="m781.24,711.78c-8.75,36.08,5.49,76.7,34.86,99.41"/>
    <path class="cls-6" d="m779.79,711.38c-3.44,14.29-3.39,29.27-.24,43.61s9.35,28,18.2,39.67c4.99,6.58,10.76,12.52,17.29,17.59,1.51,1.17,3.64-.94,2.12-2.12-11.3-8.78-20.37-20.16-26.7-32.98-6.29-12.73-9.85-26.84-10.25-41.03-.22-8.05.58-16.1,2.46-23.94.45-1.88-2.44-2.68-2.89-.8h0Z"/>
  </g>
  <g>
    <path class="cls-6" d="m841.81,319.53c15.07,7.26,26.08,21.22,33.03,36.44,6.95,15.22,10.29,31.79,13.58,48.19,5.74,28.68,11.49,57.37,17.23,86.05"/>
    <path class="cls-6" d="m841.05,320.82c19.89,9.67,31.51,29.91,37.94,50.27,3.76,11.9,6.11,24.18,8.56,36.4,2.61,13.04,5.22,26.08,7.83,39.12,2.94,14.67,5.87,29.34,8.81,44.01.38,1.89,3.27,1.09,2.89-.8-5.3-26.48-10.61-52.97-15.91-79.45-4.73-23.6-8.87-48.48-22.69-68.78-6.62-9.72-15.28-18.17-25.93-23.35-1.73-.84-3.25,1.75-1.51,2.59h0Z"/>
  </g>
  <g>
    <path class="cls-6" d="m883.28,329.94c21.73,41.6,33.4,88.41,33.73,135.35"/>
    <path class="cls-6" d="m881.99,330.7c8.42,16.15,15.33,33.06,20.63,50.48,5.3,17.41,9.03,35.31,11.06,53.39,1.14,10.2,1.75,20.45,1.83,30.72.02,1.93,3.02,1.93,3,0-.14-18.39-2-36.77-5.51-54.83s-8.7-35.82-15.47-52.94c-3.82-9.66-8.14-19.13-12.95-28.34-.89-1.71-3.48-.2-2.59,1.51h0Z"/>
  </g>
  <path class="cls-6" d="m824.76,350.14c-9.87,12.43-21.19,23.68-33.64,33.52s-26.08,18.3-40.44,25.12c-14.36,6.82-29.5,12.01-45.04,15.36-14.8,3.2-29.94,4.48-44.76,7.63-13.84,2.94-27.82,7.67-38.44,17.39-1.34,1.23-2.62,2.53-3.83,3.89-.32.36.21.89.53.53,9.94-11.13,23.88-16.84,38.11-20.23s29.73-4.78,44.51-7.65c15.41-2.99,30.46-7.8,44.79-14.2,14.43-6.44,28.13-14.5,40.78-23.99,12.56-9.42,24.07-20.23,34.19-32.24,1.28-1.52,2.53-3.05,3.77-4.61.3-.37-.23-.91-.53-.53h0Z"/>
  <ellipse class="cls-6" cx="687.74" cy="508.58" rx="26.75" ry="19.23" transform="translate(21.75 1045.32) rotate(-75.35)"/>
  <path class="cls-6" d="m666.9,491.52c5.2-5.19,12.31-8.33,19.66-8.57s15.01,2.48,20.64,7.46c1.01.89,2.49-.59,1.48-1.48-6.04-5.34-14.04-8.35-22.12-8.08-7.9.27-15.55,3.6-21.14,9.19-.95.95.53,2.44,1.48,1.48h0Z"/>
  <path class="cls-6" d="m677.27,482.58c.19.02-.1-.02-.14-.03-.1-.02-.21-.04-.31-.07-.2-.05-.41-.11-.6-.18,0,0-.31-.12-.14-.05-.1-.04-.19-.09-.29-.13-.19-.09-.37-.2-.55-.31s-.35-.23-.52-.36c.13.1-.11-.09-.12-.1-.07-.06-.13-.12-.2-.17-.16-.14-.31-.29-.45-.45-.11-.12-.32-.36-.36-.42-.95-1.26-1.39-2.69-1.19-4.31.07-.56-.53-1.05-1.05-1.05-.62,0-.98.48-1.05,1.05-.26,2.06.49,4.12,1.76,5.73s3.15,2.68,5.21,2.95c.56.07,1.05-.53,1.05-1.05,0-.63-.48-.98-1.05-1.05h0Z"/>
  <path class="cls-6" d="m670.51,486.28c-1.74,0-3.42-.77-4.58-2.13s-1.56-3.23-1.24-4.88c.11-.55-.16-1.13-.73-1.29-.51-.14-1.18.17-1.29.73-.48,2.42.12,4.91,1.7,6.82,1.49,1.8,3.82,2.83,6.15,2.84,1.35,0,1.35-2.09,0-2.09h0Z"/>
  <ellipse class="cls-6" cx="796.43" cy="543.8" rx="26.75" ry="19.23" transform="translate(39.72 1141.63) rotate(-72.64)"/>
  <path class="cls-6" d="m825.17,539.87c-1.73-7.51-6.29-14.22-12.59-18.64-6.79-4.77-15.39-6.54-23.53-5.18-1.33.22-.76,2.24.56,2.02,7.6-1.27,15.61.54,21.92,4.97,5.86,4.12,10.02,10.43,11.63,17.39.3,1.31,2.32.76,2.02-.56h0Z"/>
  <path class="cls-6" d="m818.01,529.1c3.76,1.73,8.71.13,10.5-3.7.24-.51.14-1.13-.38-1.43-.45-.27-1.19-.14-1.43.38-.66,1.41-1.85,2.47-3.25,2.98-.79.29-1.45.41-2.22.41s-1.52-.15-2.16-.44c-.51-.24-1.13-.15-1.43.38-.26.45-.14,1.2.38,1.43h0Z"/>
  <path class="cls-6" d="m821.78,535.82c2.08,1.29,4.8,1.61,7.09.69s3.82-2.57,4.66-4.76c.2-.53-.22-1.15-.73-1.29-.59-.16-1.09.2-1.29.73-.57,1.5-1.84,2.77-3.34,3.35-1.76.68-3.74.45-5.33-.53-1.15-.71-2.2,1.1-1.06,1.81h0Z"/>
  <g>
    <path class="cls-8" d="m741.09,545.82c-4.08,4.61-4.4,11.37-3.93,17.51s1.47,12.51-.65,18.28c-2.12,5.77-8.83,10.44-14.4,7.85"/>
    <path class="cls-6" d="m740.02,544.76c-4.75,5.52-4.85,13.03-4.27,19.92s1.88,15.77-3.89,21.17c-2.35,2.2-5.88,3.7-9.02,2.31-1.75-.77-3.28,1.81-1.51,2.59,6.41,2.82,13.45-1.63,16.13-7.59,3.5-7.77.88-16.37,1.03-24.51.08-4.16.86-8.53,3.65-11.77,1.25-1.46-.86-3.59-2.12-2.12h0Z"/>
  </g>
  <path class="cls-6" d="m688.25,607.78c10.8,14.88,29.82,22.86,48.03,20.95,5.17-.54,10.17-1.86,14.93-3.96,1.76-.78.24-3.36-1.51-2.59-15.72,6.93-34.8,4.13-48.61-5.77-3.92-2.8-7.41-6.25-10.24-10.15-1.12-1.55-3.73-.05-2.59,1.51h0Z"/>
  <ellipse class="cls-1" cx="633.76" cy="548.46" rx="14.73" ry="22.41" transform="translate(-98.31 956.55) rotate(-70.01)"/>
  <ellipse class="cls-1" cx="806.74" cy="611.39" rx="14.73" ry="22.41" transform="translate(-43.59 1160.53) rotate(-70.01)"/>
  <path class="cls-6" d="m645.71,448.89c21.71-5.72,45.33-3.68,65.82,5.48,5.79,2.59,11.32,5.73,16.5,9.38,1.58,1.11,3.08-1.49,1.51-2.59-18.85-13.26-42.31-19.7-65.3-18.27-6.53.41-13.02,1.45-19.34,3.11-1.87.49-1.07,3.39.8,2.89h0Z"/>
  <path class="cls-6" d="m870.21,529.59c-13.02-19.19-32.69-33.54-54.83-40.38-6.27-1.94-12.72-3.23-19.25-3.91-1.92-.2-1.9,2.8,0,3,22.26,2.32,43.51,12.62,59.42,28.32,4.49,4.43,8.53,9.27,12.07,14.49,1.08,1.59,3.68.09,2.59-1.51h0Z"/>
</svg>