<?xml version="1.0" encoding="UTF-8"?>
<svg id="_圖層_2" data-name="圖層 2" xmlns="http://www.w3.org/2000/svg" viewBox="0 0 1257.8 1448.46">
  <defs>
    <style>
      .cls-1, .cls-2 {
        stroke: #000;
      }

      .cls-1, .cls-2, .cls-3, .cls-4, .cls-5 {
        stroke-miterlimit: 10;
      }

      .cls-1, .cls-6 {
        fill: #cc2f2c;
      }

      .cls-2 {
        fill: #56342b;
      }

      .cls-3 {
        fill: #603731;
        stroke: #5b362f;
      }

      .cls-4 {
        fill: #5b362f;
        stroke: #050505;
      }

      .cls-5 {
        fill: #f4d4bd;
        stroke: #020202;
      }

      .cls-7, .cls-8, .cls-9, .cls-6, .cls-10, .cls-11, .cls-12, .cls-13, .cls-14 {
        stroke-width: 0px;
      }

      .cls-8 {
        fill: #aa2424;
      }

      .cls-9 {
        fill: #d34654;
      }

      .cls-10 {
        fill: #f1f1f1;
      }

      .cls-11 {
        fill: #fff;
      }

      .cls-12 {
        fill: #f26b92;
      }

      .cls-13 {
        fill: #e8c5af;
      }

      .cls-14 {
        fill: #020202;
      }
    </style>
  </defs>
  <path class="cls-5" d="m1109.52,843.87c-.01-1.79.04-3.57.23-5.35.78-7.27,4.81-15.14,11.64-16.62,22.26-4.8,16.77,44.26,37.25,15.71,5.59-7.79,13.18-66.16,18.87-67.28,29.05-5.7,62.46,17.03,58.59,49.48-2.62,21.97-16.3,43.24-28.17,60.44-14.62,21.18-33.58,39.8-47.53,61.2-11.55,17.71-16.57,38.29-23.86,58.63-32.04,89.32-78.72-15.76-58.93-49.01,13.04-21.91,29.72-65.56,32.12-90.67.52-5.5-.18-11.02-.22-16.53Z"/>
  <path class="cls-13" d="m415.6,604.12s7.32,38.08,2.45,51.23-38.85,31.32-38.85,31.32c0,0,67.67,47.74,118.35,45.35,50.69-2.39,82.55-45.26,82.55-45.26,0,0-25.11-16.79-33.12-29.57-10.93-17.46-2.14-48.28-2.14-48.28l-129.24-4.79Z"/>
  <path class="cls-5" d="m346.73,526.38c34.56,66.3,100.04,108.84,140.21,108.84,44.31,0,89.92-44.53,126.49-112.17,21.35-39.48,32.96-137.17,18.34-183.21-18.62-58.64-57.71-118.21-151.56-118.21-88.58,0-133.29,64.57-149.08,121.93-13.26,48.16-14.84,124.43,15.6,182.81Z"/>
  <circle class="cls-4" cx="492.48" cy="144.29" r="79.4"/>
  <g>
    <ellipse class="cls-7" cx="425.34" cy="436.9" rx="26.75" ry="19.23" transform="translate(-41.89 828.68) rotate(-85.75)"/>
    <path class="cls-7" d="m401.8,423.82c4.07-5.89,10.31-10.14,17.27-11.81,7.52-1.8,15.59-.43,22.19,3.55,1.16.7,2.21-1.11,1.06-1.81-7.08-4.27-15.75-5.69-23.81-3.76-7.5,1.8-14.15,6.44-18.52,12.77-.77,1.11,1.05,2.16,1.81,1.06h0Z"/>
    <path class="cls-7" d="m410.54,413.21c-.22.01-.44.02-.66,0-.1,0-.2-.01-.3-.02-.05,0-.1,0-.15-.02.11.02.11.01-.02,0-.39-.08-.78-.17-1.16-.31-.03-.01-.29-.11-.12-.04-.09-.04-.18-.08-.27-.13-.2-.1-.39-.2-.57-.31s-.37-.24-.54-.36.07.07-.11-.08c-.08-.07-.15-.13-.23-.2-.3-.27-.58-.56-.83-.88-.08-.1-.08-.11-.02-.03-.03-.04-.06-.08-.09-.12-.06-.08-.11-.17-.17-.25-.12-.18-.23-.37-.33-.56-.05-.09-.09-.18-.13-.27-.1-.19.03.11-.05-.12-.07-.19-.14-.38-.19-.57s-.1-.39-.14-.58c-.01-.07-.02-.13-.03-.2.01.1.01.11,0,.03-.01-.12-.02-.23-.03-.35-.03-.56-.46-1.05-1.05-1.05-.54,0-1.08.48-1.05,1.05.24,4.15,4.05,7.71,8.25,7.48.56-.03,1.05-.46,1.05-1.05,0-.54-.48-1.08-1.05-1.05h0Z"/>
    <path class="cls-7" d="m395.28,412.15c-.03,2.32.97,4.68,2.76,6.19,1.89,1.6,4.36,2.23,6.79,1.79.56-.1.87-.78.73-1.29-.16-.59-.73-.83-1.29-.73-1.65.3-3.55-.18-4.85-1.33-1.34-1.18-2.07-2.88-2.04-4.62.02-1.35-2.08-1.35-2.09,0h0Z"/>
  </g>
  <g>
    <path class="cls-7" d="m563.16,443.55c-5.59-5.58-13.24-8.92-21.14-9.19-8.08-.27-16.08,2.74-22.12,8.08-1.01.89.47,2.37,1.48,1.48,5.63-4.98,13.12-7.71,20.64-7.46s14.46,3.38,19.66,8.57c.95.95,2.44-.53,1.48-1.48h0Z"/>
    <path class="cls-7" d="m551.31,438.18c2.06-.26,3.92-1.3,5.21-2.95s2.01-3.66,1.76-5.73c-.07-.56-.43-1.05-1.05-1.05-.51,0-1.12.48-1.05,1.05.2,1.62-.24,3.06-1.19,4.31-.44.57-1.06,1.14-1.65,1.5-.18.11-.36.21-.55.31-.09.05-.19.09-.29.13.16-.07-.12.04-.14.05-.18.07-.37.12-.55.17-.1.03-.21.05-.31.07-.04,0-.38.06-.19.04-.56.07-1.05.43-1.05,1.05,0,.51.48,1.12,1.05,1.05h0Z"/>
    <path class="cls-7" d="m558.07,441.88c2.32,0,4.66-1.04,6.15-2.84,1.57-1.91,2.17-4.39,1.7-6.82-.11-.56-.77-.87-1.29-.73-.58.16-.84.73-.73,1.29.33,1.65-.11,3.54-1.24,4.88s-2.85,2.12-4.58,2.13c-1.35,0-1.35,2.1,0,2.09h0Z"/>
  </g>
  <path class="cls-7" d="m483.78,456.5c-2.92,7.35.36,15.08,3.34,21.83,2.73,6.16,5.87,13.55,2.06,19.93-1.67,2.8-4.42,4.86-7.79,4.57-1.92-.16-1.91,2.84,0,3,6.73.57,11.64-5.92,12.45-12.02,1.09-8.23-4.02-15.56-6.6-23-1.52-4.39-2.34-9.08-.57-13.52.71-1.79-2.19-2.57-2.89-.8h0Z"/>
  <path class="cls-2" d="m551.39,234.84s-42.71,75.21-97.49,107.31c-54.77,32.1-81.03,28.08-101.62,57.17-20.59,29.09-12.44,82.85-4.01,115.5,8.43,32.65,38.74,54.9,44.41,88.02,5.67,33.12-19.75,17.32-60.09-46.55-38.25-60.57-55.21-101.61-44.97-165.93,11.24-70.61,44.55-146.3,103.47-183.8,58.92-37.5,105.17-40.33,130.52-29.47,25.35,10.86,29.77,57.76,29.77,57.76Z"/>
  <path class="cls-2" d="m539.77,192.22s38.12-11.46,60.99,26.78c22.87,38.24,23.24,29.33,49.65,90.02s15.94,136.55-9.96,206.32c-25.89,69.77-77.36,120.07-79.66,107.61-3.49-18.92,21.22-48.84,38.24-93.64,17.01-44.8,11.15-86.5,5.84-126.51-5.31-40.01-8.89-59.13-27.41-90.2-18.52-31.07-34.09-47.24-35.36-59.78s-2.32-60.59-2.32-60.59Z"/>
  <path class="cls-3" d="m521.13,253.18s24.02,103.67,53.61,137.45c29.6,33.78,54.46,27.91,74.7,33.51,9.04,2.5,16.33-6.11-2.18-27.13-30.37-34.49-49.83-64.16-65.62-97.8-15.79-33.64-18.53-56.98-43.57-71.49-25.04-14.51-20.38-16.56-22.57-7.41-2.19,9.15,5.63,32.87,5.63,32.87Z"/>
  <path class="cls-6" d="m526.34,271.97c-7.79,18.58-17.2,36.89-30.78,51.95-12.98,14.39-29.94,25.24-49.21,28.63-10.6,1.86-21.57,1.24-31.72-2.42-.45-.16-.65.56-.2.72,18.3,6.6,38.63,3.19,55.54-5.7,17.84-9.38,31.44-24.94,41.74-42,5.96-9.88,10.91-20.34,15.37-30.97.19-.44-.54-.64-.72-.2h0Z"/>
  <ellipse class="cls-1" cx="387.76" cy="497.74" rx="25.32" ry="15.31"/>
  <ellipse class="cls-1" cx="573.71" cy="497.74" rx="25.32" ry="15.31"/>
  <path class="cls-7" d="m363.49,392.67c19.24-11.63,42.43-16.3,64.7-13.34,6.28.83,12.47,2.3,18.46,4.34,1.83.62,2.62-2.27.8-2.89-21.9-7.43-46.33-6.98-68.03.96-6.07,2.22-11.92,5.01-17.45,8.35-1.65,1-.14,3.59,1.51,2.59h0Z"/>
  <path class="cls-7" d="m600.82,390.08c-19.82-11.97-43.7-16.76-66.63-13.7-6.41.86-12.72,2.31-18.85,4.39-1.82.62-1.04,3.52.8,2.89,21.32-7.23,44.89-6.82,66.04.82,5.97,2.16,11.69,4.91,17.12,8.19,1.66,1,3.17-1.59,1.51-2.59h0Z"/>
  <path class="cls-6" d="m488.87,719.6c-53.45,2.41-84.77-40.96-109.67-32.93-25.03,8.08-199.24,89.33-211.19,111.42-24.3,44.92,43.51,217,21.86,330.46-21.65,113.47-37.86,219.97-56.01,341.84-12.04,80.83.5,827.61,8.23,839.61,7.09,11,288.16-1.1,328.83.5,177.97,7.1,198.56,10.3,371.95-28.72-19.11-186.41-75.74-834.94-94.85-1021.35-8.79-85.72,59.4-443.45,41.92-462.35-22.75-24.58-153.62-75.81-182.92-96.75-60.58-43.29-46.16,15.02-118.15,18.27Z"/>
  <path class="cls-10" d="m488.42,773.69c-6.54.24-12.6,6.08-12.06,12.65.54,6.6,5.94,11.99,12.95,11.74,6.54-.24,12.6-6.08,12.06-12.65-.54-6.6-5.94-11.99-12.95-11.74Z"/>
  <path class="cls-10" d="m488.42,830.13c-6.54.24-12.6,6.08-12.06,12.65.54,6.6,5.94,11.99,12.95,11.74,6.54-.24,12.6-6.08,12.06-12.65-.54-6.6-5.94-11.99-12.95-11.74Z"/>
  <path class="cls-10" d="m488.42,890.15c-6.54.24-12.6,6.08-12.06,12.65.54,6.6,5.94,11.99,12.95,11.74,6.54-.24,12.6-6.08,12.06-12.65-.54-6.6-5.94-11.99-12.95-11.74Z"/>
  <path class="cls-1" d="m379.19,686.67s-48.1,18.36-66.67,36.33c-18.57,17.96,35.07,40.38,70.91,45.91,35.83,5.53,73.41,13.11,85.46.46,12.06-12.65,19.98-49.77,19.98-49.77,0,0-17.2,2.05-37.31-5.42-20.11-7.47-43.58-23.04-52.77-25.62-9.19-2.58-19.6-1.89-19.6-1.89Z"/>
  <path class="cls-1" d="m621.88,712.22c10.42,9.14,28.78,27.36,28.78,27.36-4.82,13.83-28.69,24.65-55.2,29.33-35.71,6.31-73.41,13.11-85.46.46-12.06-12.65-19.98-49.77-19.98-49.77,0,0,12.64,2.87,33.93-7.73,19.2-9.56,30.69-22.56,39.84-25.28,13.59-4.04,38.68,8.59,58.09,25.63Z"/>
  <path class="cls-6" d="m210.82,1167.45c-9.71,84.47-2.01,647.46-34.11,641.83-11.61-2.03-108.05,10.83-116.25-.12-39.58-52.85-3.39-591.49,5.16-685.92,6.2-68.49,15.72-121.2,28.56-188.38,15.35-80.34,81.9-147.19,81.9-147.19,50.05-28.46,50.73,240.68,34.74,379.78Z"/>
  <path class="cls-6" d="m745.82,1167.45c9.71,84.47,6.84,170.03,38.93,164.41,11.61-2.03,108.05,10.83,116.25-.12,39.58-52.85-1.44-114.07-9.99-208.49-6.2-68.49-15.72-121.2-28.56-188.38-15.35-80.34-81.9-147.19-81.9-147.19-50.05-28.46-50.73,240.68-34.74,379.78Z"/>
  <path class="cls-6" d="m763.56,1230.73s99.29-139.8,154.39-192.61c55.1-52.8,158.04-123.57,158.04-123.57,0,0,77.47,26.46,86.66,42.53,9.18,16.07-46.63,153.82-115.07,243.12-46.51,60.68-131.59,142.3-168.33,153.78-36.73,11.48-50.51,27.55-91.83,0-41.33-27.55-23.85-123.26-23.85-123.26Z"/>
  <path class="cls-8" d="m178.81,959.73c-9.75,104.31,20.55,207.66,32.92,311.69,19.09,160.5-5.36,325.97-70.06,474.09"/>
  <g id="mouth">
    <g>
      <path class="cls-12" d="m486.79,555.25c-18.58,0-29.43-10.46-31.39-17.24-3.79-13.17,6.37-19.89,16.6-14.69,10.67,4.06,18.26,5.79,26.31.96,7.93-4.76,24-5.02,20.47,12.55-1.64,8.18-14.02,18.42-31.99,18.42Z"/>
      <path class="cls-14" d="m486.79,554c-10.59-.05-23.25-3.87-28.96-13.58-2.35-4-2.95-9.85-.3-13.83,2.89-4.33,8.72-4.49,13.08-2.55,6.08,2.71,13.32,5.11,20.07,4.24,3.13-.4,5.87-1.58,8.6-3.12,1.58-.9,3.3-1.52,5.07-1.93,3.37-.78,7.42-.82,10.36,1.27,3.77,2.67,3.73,8.03,2.85,12.09-.93,4.3-4.3,7.85-7.74,10.38-5.12,3.75-11.33,5.96-17.61,6.71-1.8.22-3.61.31-5.42.32-1.61,0-1.61,2.51,0,2.5,7.27-.03,14.58-1.65,20.95-5.23,4.54-2.55,9-6.28,11.22-11.1,2.02-4.39,2.47-10.67-.19-14.9-2.26-3.6-6.47-5.04-10.56-5-2.13.02-4.28.4-6.3,1.05-2.36.77-4.35,2.13-6.6,3.13-7.01,3.1-14.62.76-21.42-1.74-3.05-1.12-5.78-2.48-9.12-2.39-2.62.07-5.16.92-7.21,2.58-4.65,3.77-5.02,10.62-3.21,15.93,1.46,4.3,4.87,7.79,8.45,10.43,5.23,3.86,11.56,6.04,17.97,6.86,2,.26,4,.37,6.02.38,1.61,0,1.61-2.49,0-2.5Z"/>
    </g>
    <path class="cls-11" d="m471.76,524.2c3.62,1.47,10.19,3.72,15.97,4.01,6.04.29,12.87-5.07,16.55-5.24,1.9-.09,7.29,8.92-2.75,12.91-6.58,2.61-19.81,3.31-29.57-.1-8.83-3.09-4.77-13.43-.2-11.58Z"/>
    <path class="cls-9" d="m481.32,542.54c7.71-.7,21.34,1.03,27.67,5.51-11.09,7.67-31.05,8.71-43.46.54,0,0,8.08-5.35,15.79-6.05Z"/>
  </g>
</svg>