<?xml version="1.0" encoding="UTF-8"?>
<svg id="_圖層_2" data-name="圖層 2" xmlns="http://www.w3.org/2000/svg" viewBox="0 0 1257.8 1845.36">
  <defs>
    <style>
      .cls-1 {
        stroke: #cc2f2c;
      }

      .cls-1, .cls-2, .cls-3, .cls-4, .cls-5, .cls-6 {
        stroke-miterlimit: 10;
      }

      .cls-1, .cls-7 {
        fill: #fff;
      }

      .cls-2, .cls-3 {
        stroke: #000;
      }

      .cls-2, .cls-8 {
        fill: #cc2f2c;
      }

      .cls-3 {
        fill: #56342b;
      }

      .cls-4 {
        fill: #603731;
        stroke: #5b362f;
      }

      .cls-5 {
        fill: #5b362f;
        stroke: #050505;
      }

      .cls-6 {
        stroke: #020202;
      }

      .cls-6, .cls-9 {
        fill: #f4d4bd;
      }

      .cls-10, .cls-9, .cls-11, .cls-8, .cls-12, .cls-7, .cls-13 {
        stroke-width: 0px;
      }

      .cls-11 {
        fill: #aa2424;
      }

      .cls-12 {
        fill: #f1f1f1;
      }

      .cls-13 {
        fill: #e8c5af;
      }
    </style>
  </defs>
  <path class="cls-6" d="m1109.52,843.87c-.01-1.79.04-3.57.23-5.35.78-7.27,4.81-15.14,11.64-16.62,22.26-4.8,16.77,44.26,37.25,15.71,5.59-7.79,13.18-66.16,18.87-67.28,29.05-5.7,62.46,17.03,58.59,49.48-2.62,21.97-16.3,43.24-28.17,60.44-14.62,21.18-33.58,39.8-47.53,61.2-11.55,17.71-16.57,38.29-23.86,58.63-32.04,89.32-78.72-15.76-58.93-49.01,13.04-21.91,29.72-65.56,32.12-90.67.52-5.5-.18-11.02-.22-16.53Z"/>
  <g>
    <path class="cls-9" d="m75.94,1864.89c-3.01,22.26-4.59,47.93,11.1,64,9.39,9.61,24.14,13.6,37.09,10.03,12.95-3.57,23.57-14.55,26.71-27.62,2.11-8.8,1.01-18.01-.11-26.99-5.42-43.66-10.84-87.33-16.26-130.99-8.13-1.66-16.39-3.33-24.66-2.64s-16.69,4.07-21.6,10.76c-8.85,12.04-9.25,81.2-12.26,103.46Z"/>
    <path class="cls-7" d="m74.89,1864.6c-2.33,17.24-4.19,36.19,3.02,52.58,3.53,8.02,9.46,14.9,17.17,19.13,7.87,4.31,17.15,5.93,25.99,4.39,8.46-1.47,16.26-6.08,21.95-12.47,6.32-7.1,9.6-15.92,10.02-25.37.25-5.65-.36-11.29-1.04-16.89s-1.45-11.69-2.18-17.53c-1.47-11.83-2.94-23.65-4.4-35.48-2.94-23.65-5.87-47.3-8.81-70.95-.36-2.89-.72-5.79-1.08-8.68-.06-.45-.29-.94-.79-1.04-14.37-2.93-31.24-5.83-43.54,4.41-2.94,2.45-4.92,5.28-6.18,8.84-1.14,3.25-1.86,6.65-2.47,10.03-1.74,9.53-2.61,19.22-3.38,28.86-.86,10.79-1.48,21.6-2.12,32.4-.51,8.57-.94,17.16-1.9,25.69-.08.7-.16,1.4-.26,2.1-.18,1.36,1.9,1.95,2.09.57,1.04-7.75,1.45-15.58,1.93-23.38.64-10.41,1.21-20.83,1.96-31.23s1.51-19.77,2.97-29.56c.57-3.82,1.23-7.64,2.21-11.37.64-2.46,1.37-5.05,2.77-7.2,3.37-5.19,9.54-8.31,15.38-9.75,7.79-1.92,15.94-.99,23.73.45,2.08.38,4.16.81,6.24,1.23l-.79-1.04c2.83,22.82,5.67,45.65,8.5,68.47,1.42,11.41,2.83,22.82,4.25,34.24s2.97,22.64,4.18,33.98c1.07,9.98,1.14,20.27-3.7,29.36-3.95,7.42-10.39,13.46-18.09,16.85-7.99,3.52-17.16,3.75-25.45,1.16-8.41-2.62-15.58-8.15-20.28-15.6-9.28-14.71-8.48-33.56-6.61-50.16.24-2.15.51-4.3.8-6.44.18-1.36-1.9-1.95-2.09-.57Z"/>
  </g>
  <g>
    <path class="cls-9" d="m101.27,1851.34c-9.05.79-13.65,11.77-12.98,20.84.66,9.06,4.5,17.85,3.84,26.92-.67,9.06-9.09,18.69-17.62,15.56-5.64-2.07-8.23-8.51-9.66-14.35-7.7-31.51.26-66.45,20.84-91.51l15.58,42.55Z"/>
    <path class="cls-7" d="m101.27,1850.26c-5.25.53-9.23,4.08-11.51,8.7-2.58,5.24-2.99,10.96-2.17,16.67,1.09,7.52,3.82,14.88,3.5,22.56-.25,5.9-3.54,12.15-8.92,14.9-2.53,1.29-5.48,1.46-8.07.22s-4.46-3.64-5.75-6.2-2.09-5.44-2.75-8.26c-.76-3.27-1.35-6.58-1.77-9.91-1.66-13.22-.72-26.73,2.62-39.63,3.75-14.48,10.52-28.18,20-39.77l-1.81-.48c1.75,4.78,3.5,9.57,5.25,14.35,2.8,7.63,5.59,15.27,8.39,22.9.65,1.77,1.29,3.53,1.94,5.3.47,1.3,2.57.74,2.09-.57-1.75-4.78-3.5-9.57-5.25-14.35-2.8-7.63-5.59-15.27-8.39-22.9-.65-1.77-1.29-3.53-1.94-5.3-.25-.68-1.25-1.16-1.81-.48-8.62,10.55-15.1,22.73-19.13,35.74s-5.67,26.97-4.58,40.63c.53,6.56,1.49,13.33,3.56,19.6,1.78,5.39,5.16,11.15,11.25,12.18,5.95,1.01,11.21-3.11,14.16-7.92,3.73-6.08,3.46-12.99,2.2-19.77s-3.83-14.14-2.86-21.33c.7-5.2,3.11-11,7.97-13.59,1.17-.62,2.46-1,3.78-1.13s1.39-2.3,0-2.16Z"/>
  </g>
  <path class="cls-6" d="m255.41,1900.86s9.41,354.99,29.29,440.85,28.17,257.56,24.02,386.34l-4.15,128.78h109.95s7.97-166.87,10.82-301.13-17.04-196.24-12.26-258.21,28.71-452.13,28.71-452.13h-186.38v55.5Z"/>
  <path class="cls-6" d="m509.58,1900.86s9.41,354.99,29.29,440.85,28.17,257.56,24.02,386.34l-4.15,128.78h109.95s7.97-166.87,10.82-301.13-17.04-196.24-12.26-258.21,28.71-452.13,28.71-452.13h-186.38v55.5Z"/>
  <path class="cls-13" d="m415.6,604.12s7.32,38.08,2.45,51.23-38.85,31.32-38.85,31.32c0,0,67.67,47.74,118.35,45.35s82.55-45.26,82.55-45.26c0,0-25.11-16.79-33.12-29.57-10.93-17.46-2.14-48.28-2.14-48.28l-129.24-4.79Z"/>
  <path class="cls-6" d="m346.73,526.38c34.56,66.3,100.04,108.84,140.21,108.84,44.31,0,89.92-44.53,126.49-112.17,21.35-39.48,32.96-137.17,18.34-183.21-18.62-58.64-57.71-118.21-151.56-118.21-88.58,0-133.29,64.57-149.08,121.93-13.26,48.16-14.84,124.43,15.6,182.81Z"/>
  <circle class="cls-5" cx="492.48" cy="144.29" r="79.4"/>
  <g>
    <ellipse class="cls-10" cx="425.34" cy="436.9" rx="26.75" ry="19.23" transform="translate(-41.89 828.68) rotate(-85.75)"/>
    <path class="cls-10" d="m401.8,423.82c4.07-5.89,10.31-10.14,17.27-11.81,7.52-1.8,15.59-.43,22.19,3.55,1.16.7,2.21-1.11,1.06-1.81-7.08-4.27-15.75-5.69-23.81-3.76-7.5,1.8-14.15,6.44-18.52,12.77-.77,1.11,1.05,2.16,1.81,1.06h0Z"/>
    <path class="cls-10" d="m410.54,413.21c-.22.01-.44.02-.66,0-.1,0-.2-.01-.3-.02-.05,0-.1,0-.15-.02.11.02.11.01-.02,0-.39-.08-.78-.17-1.16-.31-.03-.01-.29-.11-.12-.04-.09-.04-.18-.08-.27-.13-.2-.1-.39-.2-.57-.31s-.37-.24-.54-.36.07.07-.11-.08c-.08-.07-.15-.13-.23-.2-.3-.27-.58-.56-.83-.88-.08-.1-.08-.11-.02-.03-.03-.04-.06-.08-.09-.12-.06-.08-.11-.17-.17-.25-.12-.18-.23-.37-.33-.56-.05-.09-.09-.18-.13-.27-.1-.19.03.11-.05-.12-.07-.19-.14-.38-.19-.57s-.1-.39-.14-.58c-.01-.07-.02-.13-.03-.2.01.1.01.11,0,.03-.01-.12-.02-.23-.03-.35-.03-.56-.46-1.05-1.05-1.05-.54,0-1.08.48-1.05,1.05.24,4.15,4.05,7.71,8.25,7.48.56-.03,1.05-.46,1.05-1.05,0-.54-.48-1.08-1.05-1.05h0Z"/>
    <path class="cls-10" d="m395.28,412.15c-.03,2.32.97,4.68,2.76,6.19,1.89,1.6,4.36,2.23,6.79,1.79.56-.1.87-.78.73-1.29-.16-.59-.73-.83-1.29-.73-1.65.3-3.55-.18-4.85-1.33s-2.07-2.88-2.04-4.62c.02-1.35-2.08-1.35-2.09,0h0Z"/>
  </g>
  <g>
    <ellipse class="cls-10" cx="535.89" cy="438.08" rx="19.23" ry="26.75" transform="translate(-31 40.93) rotate(-4.25)"/>
    <path class="cls-10" d="m561.24,423.95c-4.37-6.33-11.02-10.97-18.52-12.77-8.05-1.93-16.73-.51-23.81,3.76-1.15.7-.1,2.51,1.06,1.81,6.6-3.98,14.68-5.35,22.19-3.55,6.96,1.67,13.2,5.92,17.27,11.81.76,1.1,2.58.06,1.81-1.06h0Z"/>
    <path class="cls-10" d="m550.69,416.48c4.2.23,8.01-3.33,8.25-7.48.03-.57-.5-1.05-1.05-1.05-.59,0-1.01.48-1.05,1.05,0,.1-.01.2-.02.3-.01.13-.01.13,0,.02,0,.05-.02.1-.02.15-.04.21-.09.43-.15.63-.06.19-.12.38-.19.57-.11.3.09-.17-.05.12-.04.09-.09.18-.13.27-.09.18-.19.35-.3.52-.05.08-.11.17-.17.25-.04.06-.08.11-.12.16.05-.06.06-.07.01-.01-.26.33-.55.64-.87.92s-.43.37-.84.62c-.19.11-.38.22-.57.32-.09.04-.18.09-.27.13-.07.03-.06.03.02,0-.06.02-.12.05-.19.07-.38.14-.76.24-1.16.31-.25.05.11,0-.12.02-.1,0-.2.02-.3.02-.24.01-.47.01-.71,0-.57-.03-1.05.5-1.05,1.05,0,.59.48,1.02,1.05,1.05h0Z"/>
    <path class="cls-10" d="m556.4,421.3c2.43.44,4.91-.19,6.79-1.79,1.78-1.51,2.79-3.87,2.76-6.19-.02-1.35-2.11-1.35-2.09,0,.02,1.74-.7,3.43-2.04,4.62s-3.21,1.63-4.85,1.33c-.56-.1-1.13.15-1.29.73-.14.51.17,1.19.73,1.29h0Z"/>
  </g>
  <path class="cls-10" d="m483.78,456.5c-2.92,7.35.36,15.08,3.34,21.83,2.73,6.16,5.87,13.55,2.06,19.93-1.67,2.8-4.42,4.86-7.79,4.57-1.92-.16-1.91,2.84,0,3,6.73.57,11.64-5.92,12.45-12.02,1.09-8.23-4.02-15.56-6.6-23-1.52-4.39-2.34-9.08-.57-13.52.71-1.79-2.19-2.57-2.89-.8h0Z"/>
  <ellipse class="cls-1" cx="481.39" cy="545.92" rx="25.78" ry="16.62"/>
  <path class="cls-3" d="m551.39,234.84s-42.71,75.21-97.49,107.31c-54.77,32.1-81.03,28.08-101.62,57.17-20.59,29.09-12.44,82.85-4.01,115.5,8.43,32.65,38.74,54.9,44.41,88.02,5.67,33.12-19.75,17.32-60.09-46.55-38.25-60.57-55.21-101.61-44.97-165.93,11.24-70.61,44.55-146.3,103.47-183.8,58.92-37.5,105.17-40.33,130.52-29.47,25.35,10.86,29.77,57.76,29.77,57.76Z"/>
  <path class="cls-3" d="m539.77,192.22s38.12-11.46,60.99,26.78c22.87,38.24,23.24,29.33,49.65,90.02,26.41,60.69,15.94,136.55-9.96,206.32-25.89,69.77-77.36,120.07-79.66,107.61-3.49-18.92,21.22-48.84,38.24-93.64,17.01-44.8,11.15-86.5,5.84-126.51-5.31-40.01-8.89-59.13-27.41-90.2-18.52-31.07-34.09-47.24-35.36-59.78-1.27-12.54-2.32-60.59-2.32-60.59Z"/>
  <path class="cls-4" d="m521.13,253.18s24.02,103.67,53.61,137.45c29.6,33.78,54.46,27.91,74.7,33.51,9.04,2.5,16.33-6.11-2.18-27.13-30.37-34.49-49.83-64.16-65.62-97.8-15.79-33.64-18.53-56.98-43.57-71.49-25.04-14.51-20.38-16.56-22.57-7.41s5.63,32.87,5.63,32.87Z"/>
  <path class="cls-8" d="m526.34,271.97c-7.79,18.58-17.2,36.89-30.78,51.95-12.98,14.39-29.94,25.24-49.21,28.63-10.6,1.86-21.57,1.24-31.72-2.42-.45-.16-.65.56-.2.72,18.3,6.6,38.63,3.19,55.54-5.7,17.84-9.38,31.44-24.94,41.74-42,5.96-9.88,10.91-20.34,15.37-30.97.19-.44-.54-.64-.72-.2h0Z"/>
  <ellipse class="cls-2" cx="387.76" cy="497.74" rx="25.32" ry="15.31"/>
  <ellipse class="cls-2" cx="573.71" cy="497.74" rx="25.32" ry="15.31"/>
  <path class="cls-10" d="m363.49,392.67c19.24-11.63,42.43-16.3,64.7-13.34,6.28.83,12.47,2.3,18.46,4.34,1.83.62,2.62-2.27.8-2.89-21.9-7.43-46.33-6.98-68.03.96-6.07,2.22-11.92,5.01-17.45,8.35-1.65,1-.14,3.59,1.51,2.59h0Z"/>
  <path class="cls-10" d="m600.82,390.08c-19.82-11.97-43.7-16.76-66.63-13.7-6.41.86-12.72,2.31-18.85,4.39-1.82.62-1.04,3.52.8,2.89,21.32-7.23,44.89-6.82,66.04.82,5.97,2.16,11.69,4.91,17.12,8.19,1.66,1,3.17-1.59,1.51-2.59h0Z"/>
  <path class="cls-8" d="m488.87,719.6c-53.45,2.41-84.77-40.96-109.67-32.93s-199.24,89.33-211.19,111.42c-24.3,44.92,43.51,217,21.86,330.46-21.65,113.47-37.86,219.97-56.01,341.84-12.04,80.83.5,827.61,8.23,839.61,7.09,11,288.16-1.1,328.83.5,177.97,7.1,198.56,10.3,371.95-28.72-19.11-186.41-75.74-834.94-94.85-1021.35-8.79-85.72,59.4-443.45,41.92-462.35-22.75-24.58-153.62-75.81-182.92-96.75-60.58-43.29-46.16,15.02-118.15,18.27Z"/>
  <path class="cls-12" d="m488.42,773.69c-6.54.24-12.6,6.08-12.06,12.65.54,6.6,5.94,11.99,12.95,11.74,6.54-.24,12.6-6.08,12.06-12.65-.54-6.6-5.94-11.99-12.95-11.74Z"/>
  <path class="cls-12" d="m488.42,830.13c-6.54.24-12.6,6.08-12.06,12.65.54,6.6,5.94,11.99,12.95,11.74,6.54-.24,12.6-6.08,12.06-12.65-.54-6.6-5.94-11.99-12.95-11.74Z"/>
  <path class="cls-12" d="m488.42,890.15c-6.54.24-12.6,6.08-12.06,12.65.54,6.6,5.94,11.99,12.95,11.74,6.54-.24,12.6-6.08,12.06-12.65-.54-6.6-5.94-11.99-12.95-11.74Z"/>
  <path class="cls-2" d="m379.19,686.67s-48.1,18.36-66.67,36.33,35.07,40.38,70.91,45.91,73.41,13.11,85.46.46,19.98-49.77,19.98-49.77c0,0-17.2,2.05-37.31-5.42s-43.58-23.04-52.77-25.62-19.6-1.89-19.6-1.89Z"/>
  <path class="cls-2" d="m621.88,712.22c10.42,9.14,28.78,27.36,28.78,27.36-4.82,13.83-28.69,24.65-55.2,29.33-35.71,6.31-73.41,13.11-85.46.46s-19.98-49.77-19.98-49.77c0,0,12.64,2.87,33.93-7.73,19.2-9.56,30.69-22.56,39.84-25.28,13.59-4.04,38.68,8.59,58.09,25.63Z"/>
  <path class="cls-8" d="m210.82,1167.45c-9.71,84.47-2.01,647.46-34.11,641.83-11.61-2.03-108.05,10.83-116.25-.12-39.58-52.85-3.39-591.49,5.16-685.92,6.2-68.49,15.72-121.2,28.56-188.38,15.35-80.34,81.9-147.19,81.9-147.19,50.05-28.46,50.73,240.68,34.74,379.78Z"/>
  <path class="cls-8" d="m745.82,1167.45c9.71,84.47,6.84,170.03,38.93,164.41,11.61-2.03,108.05,10.83,116.25-.12,39.58-52.85-1.44-114.07-9.99-208.49-6.2-68.49-15.72-121.2-28.56-188.38-15.35-80.34-81.9-147.19-81.9-147.19-50.05-28.46-50.73,240.68-34.74,379.78Z"/>
  <path class="cls-8" d="m763.56,1230.73s99.29-139.8,154.39-192.61,158.04-123.57,158.04-123.57c0,0,77.47,26.46,86.66,42.53s-46.63,153.82-115.07,243.12c-46.51,60.68-131.59,142.3-168.33,153.78s-50.51,27.55-91.83,0-23.85-123.26-23.85-123.26Z"/>
  <path class="cls-11" d="m178.81,959.73c-9.75,104.31,20.55,207.66,32.92,311.69,19.09,160.5-5.36,325.97-70.06,474.09"/>
</svg>