<?xml version="1.0" encoding="UTF-8"?>
<svg id="_圖層_2" data-name="圖層 2" xmlns="http://www.w3.org/2000/svg" viewBox="0 0 1257.8 1845.36">
  <defs>
    <style>
      .cls-1 {
        stroke-width: 1.14px;
      }

      .cls-1, .cls-2, .cls-3, .cls-4, .cls-5, .cls-6, .cls-7, .cls-8, .cls-9 {
        stroke-miterlimit: 10;
      }

      .cls-1, .cls-2, .cls-5, .cls-6 {
        stroke: #000;
      }

      .cls-1, .cls-2, .cls-5, .cls-10 {
        fill: #cc2f2c;
      }

      .cls-2 {
        stroke-width: 1.13px;
      }

      .cls-3, .cls-4, .cls-11 {
        fill: #fff;
      }

      .cls-3, .cls-9 {
        stroke: #020202;
      }

      .cls-4 {
        stroke: #cc2f2c;
      }

      .cls-6 {
        fill: #56342b;
      }

      .cls-7 {
        fill: #603731;
        stroke: #5b362f;
      }

      .cls-8 {
        fill: #5b362f;
        stroke: #050505;
      }

      .cls-9 {
        fill: #f4d4bd;
      }

      .cls-12, .cls-13, .cls-10, .cls-14, .cls-15, .cls-11, .cls-16 {
        stroke-width: 0px;
      }

      .cls-13 {
        fill: #aa2424;
      }

      .cls-14 {
        fill: #b72c2c;
      }

      .cls-15 {
        fill: #f1f1f1;
      }

      .cls-16 {
        fill: #020202;
      }
    </style>
  </defs>
  <g>
    <path class="cls-11" d="m75.94,1864.89c-3.01,22.26-4.59,47.93,11.1,64,9.39,9.61,24.14,13.6,37.09,10.03,12.95-3.57,23.57-14.55,26.71-27.62,2.11-8.8,1.01-18.01-.11-26.99-5.42-43.66-10.84-87.33-16.26-130.99-8.13-1.66-16.39-3.33-24.66-2.64s-16.69,4.07-21.6,10.76c-8.85,12.04-9.25,81.2-12.26,103.46Z"/>
    <path class="cls-16" d="m74.49,1864.49c-2.34,17.37-4.2,36.4,3.06,52.91,3.55,8.08,9.55,15.02,17.32,19.28s17.35,5.99,26.31,4.43,16.41-6.14,22.14-12.58c6.39-7.18,9.71-16.1,10.14-25.67.25-5.65-.36-11.29-1.04-16.89s-1.45-11.69-2.18-17.53c-1.47-11.83-2.94-23.65-4.4-35.48-2.94-23.65-5.87-47.3-8.81-70.95-.36-2.89-.72-5.79-1.08-8.68-.08-.63-.41-1.3-1.1-1.45-14.55-2.97-31.51-5.84-43.95,4.52-3,2.5-5.01,5.39-6.29,9.03-1.14,3.25-1.86,6.65-2.47,10.03-1.74,9.56-2.62,19.29-3.4,28.97-.86,10.79-1.48,21.6-2.12,32.4-.51,8.57-.94,17.16-1.9,25.69-.04.35-.08.71-.12,1.06-.03.24-.12.93-.12.93-.11.81.19,1.6,1.05,1.85.7.2,1.74-.25,1.85-1.05,1.05-7.78,1.47-15.66,1.95-23.49.64-10.41,1.21-20.83,1.96-31.23.71-9.83,1.5-19.69,2.95-29.45.57-3.82,1.23-7.64,2.21-11.37.68-2.62,1.33-4.94,2.73-7.1,3.31-5.1,9.4-8.15,15.13-9.56,7.72-1.91,15.8-.98,23.51.45,2.08.38,4.16.81,6.24,1.23l-1.1-1.45c2.83,22.82,5.67,45.65,8.5,68.47,1.42,11.41,2.83,22.82,4.25,34.24s2.97,22.64,4.18,33.98c1.06,9.9,1.16,20.13-3.64,29.14-3.92,7.36-10.3,13.34-17.94,16.7-7.89,3.48-16.95,3.67-25.13,1.12-8.3-2.59-15.39-8.05-20.03-15.41-9.24-14.64-8.42-33.43-6.56-49.95.24-2.11.5-4.22.79-6.33.11-.81-.19-1.6-1.05-1.85-.7-.2-1.74.25-1.85,1.05Z"/>
  </g>
  <g>
    <path class="cls-11" d="m101.27,1851.34c-9.05.79-13.65,11.77-12.98,20.84.66,9.06,4.5,17.85,3.84,26.92-.67,9.06-9.09,18.69-17.62,15.56-5.64-2.07-8.23-8.51-9.66-14.35-7.7-31.51.26-66.45,20.84-91.51l15.58,42.55Z"/>
    <path class="cls-16" d="m101.27,1849.84c-5.4.55-9.52,4.14-11.87,8.91-2.63,5.35-3.05,11.17-2.21,16.99,1.08,7.48,3.81,14.8,3.49,22.45-.24,5.76-3.47,11.86-8.72,14.54-2.39,1.22-5.19,1.38-7.64.22-2.58-1.22-4.34-3.56-5.6-6.05s-2.06-5.37-2.7-8.16c-.75-3.23-1.34-6.5-1.76-9.8-1.65-13.19-.73-26.65,2.6-39.51,3.73-14.41,10.46-28.05,19.89-39.58l-2.51-.66c1.75,4.78,3.5,9.57,5.25,14.35,2.8,7.63,5.59,15.27,8.39,22.9.65,1.77,1.29,3.53,1.94,5.3s3.56,1.02,2.89-.8c-1.75-4.78-3.5-9.57-5.25-14.35-2.8-7.63-5.59-15.27-8.39-22.9-.65-1.77-1.29-3.53-1.94-5.3-.35-.95-1.73-1.61-2.51-.66-8.67,10.6-15.18,22.84-19.24,35.92-4.07,13.11-5.69,27.05-4.59,40.74.53,6.6,1.49,13.41,3.57,19.71,1.82,5.52,5.31,11.42,11.54,12.47s11.57-3.13,14.64-8.12c3.79-6.18,3.52-13.2,2.24-20.09s-3.82-14.04-2.85-21.16c.69-5.08,3.02-10.76,7.77-13.28,1.1-.59,2.33-.95,3.57-1.08,1.9-.19,1.92-3.19,0-3Z"/>
  </g>
  <path class="cls-9" d="m255.41,1900.86s9.41,354.99,29.29,440.85,28.17,257.56,24.02,386.34l-4.15,128.78h109.95s7.97-166.87,10.82-301.13-17.04-196.24-12.26-258.21,28.71-452.13,28.71-452.13h-186.38v55.5Z"/>
  <path class="cls-9" d="m509.58,1900.86s9.41,354.99,29.29,440.85,28.17,257.56,24.02,386.34l-4.15,128.78h109.95s7.97-166.87,10.82-301.13-17.04-196.24-12.26-258.21,28.71-452.13,28.71-452.13h-186.38v55.5Z"/>
  <g>
    <path class="cls-10" d="m1047.57,1200.2c-46.5,60.68-131.59,142.3-168.32,153.78-36.74,11.48-50.51,27.55-91.84,0-12.68-8.45-19.82-23.32-23.63-39.88-8.56-23.4-10.62-66.82-14.7-113.73-1.89,25.38-2.48,46.26-1.06,60.07,19.12,186.4,75.74,834.94,94.86,1021.34-173.39,39.02-193.98,35.83-371.95,28.72-40.68-1.6-321.75,10.5-328.84-.5-4.54-7.05-10.74-267.92-12.64-498.23-30.22,2.1-64.25,3.7-68.98-2.61-39.59-52.84-3.39-591.49,5.16-685.91,6.2-68.49,15.72-121.2,28.56-188.39,15.35-80.33,81.89-147.19,81.89-147.19,1.96-1.12,3.85-1.77,5.66-1.99,44.12-31.02,175.93-92.07,197.46-99.01,24.9-8.03,56.22,35.34,109.67,32.93,71.99-3.25,57.58-61.56,118.15-18.27,24.95,17.83,123.59,57.64,166.35,84.25,2.27-.02,4.67.66,7.19,2.09,0,0,66.54,66.86,81.9,147.19,9.52,49.84,17.21,91.72,23.09,137.97,11.64-13.44,22.71-25.42,32.4-34.71,55.1-52.81,158.04-123.58,158.04-123.58,0,0,77.47,26.46,86.66,42.53,9.18,16.08-46.64,153.82-115.08,243.13Z"/>
    <path class="cls-12" d="m1046.27,1199.45c-20.12,26.14-42.41,50.64-65.73,73.96-21.93,21.93-44.92,43.35-70.19,61.42-19.8,14.15-42.19,22.73-65.37,29.89-14.57,4.5-28.17,3.26-41.93-3.36-19.05-9.17-30.87-22.28-36.57-42.73-10.79-38.66-12.46-78.4-15.89-118.24-.17-1.92-2.86-1.94-3,0-1.64,22.48-2.6,44.8-.33,67.25,1.17,11.54,2.31,23.07,3.44,34.61,2.87,29.41,5.66,58.84,8.42,88.26,7.2,76.79,14.21,153.59,21.2,230.39,7.85,86.28,15.66,172.55,23.5,258.83,7.23,79.56,14.47,159.11,21.87,238.65,2.94,31.61,5.91,63.22,8.94,94.82,1.27,13.23,2.55,26.45,3.86,39.68.55,5.57,1.1,11.14,1.66,16.71.25,2.49.5,4.97.75,7.46.07.7.74,3.21.39,3.81-.59.98-9.1,1.79-10.86,2.19-47.21,10.51-94.71,20.96-142.83,26.34-38.86,4.34-77.91,4.47-116.95,3.39-39.19-1.09-78.44-4.21-117.65-3.88-28.68.24-57.36,1.08-86.03,1.77-65.75,1.57-131.96,4.66-197.71,1.74-7.45-.33-16.1-.02-23.31-2.26-4.02-1.25-3.24-4.14-3.65-8.46-2.56-27.09-2.97-54.48-3.87-81.66-3.5-106.24-5.22-212.55-6.54-318.83-.37-29.8-.68-59.61-.93-89.41,0-.77-.68-1.56-1.5-1.5-13.84.95-27.72,1.87-41.6,1.86-7.11,0-21.02,1.51-26.44-4.22-3.46-3.66-4.93-10.4-6.2-15.06-5.02-18.35-6.62-37.73-8.05-56.63-4.59-60.66-3.81-121.8-2.61-182.58,1.41-71.46,4.43-142.88,8.22-214.25,3.04-57.41,6.57-114.8,10.83-172.14,5.86-78.83,16.58-157.02,32.53-234.48,9.14-44.35,32.68-85.23,60.55-120.44,5.88-7.43,12.22-17.12,19.83-22.97,1.79-1.37,4.02-1.44,5.98-2.4,2.83-1.37,5.48-3.73,8.13-5.43,6.41-4.11,12.96-7.98,19.56-11.76,33.66-19.26,68.59-36.39,103.66-52.9,14.79-6.97,29.65-13.8,44.66-20.29,8.6-3.72,19.4-10.08,29.1-9.34,16.33,1.25,31.84,13.92,46.15,20.87,18.87,9.16,38.89,14.45,59.98,12.67,16.7-1.41,32.29-6.62,45.97-16.35,9.02-6.41,17.88-16.4,29.52-17.45,16.18-1.46,30.04,11.66,42.86,19.43,14.19,8.6,29.42,15.58,44.38,22.69,37.05,17.6,75.26,33.67,110.68,54.48,4.58,2.69,10.09,3.6,13.96,6.83,3.12,2.61,5.77,6.27,8.42,9.33,11.37,13.13,21.82,27.07,31.28,41.63,12.94,19.92,24.1,41.16,31.95,63.61,9.21,26.3,12.95,54.47,17.85,81.81s9.73,57.23,13.42,86.03c.15,1.15,1.61,2.15,2.56,1.06,35.41-40.74,76.76-74.53,119.7-107,16.71-12.64,33.61-25.02,50.68-37.17,4.96-3.53,9.93-7.04,14.92-10.52,1.24-.86,2.45-1.83,3.75-2.6,1.71-1.02.2-.49.29-.48,3.87.21,8.9,3.16,12.49,4.48,7.99,2.95,15.94,6.03,23.81,9.29,9.49,3.92,18.92,8.06,28.04,12.81,6.56,3.42,14.34,7.17,19.31,12.82,6.32,7.18.47,21.77-1.77,29.64-5.59,19.62-13.27,38.69-21.4,57.37-24.04,55.2-53.58,108.98-90.14,156.93-1.17,1.53,1.43,3.03,2.59,1.51,34.62-45.41,62.78-96.03,86.2-148.03,8.82-19.59,17.1-39.55,23.56-60.06,3-9.53,9.11-24.31,6.09-34.57-1.25-4.25-5.21-7.2-8.65-9.69-7.2-5.22-15.32-9.21-23.33-12.99-16.21-7.64-32.96-14.17-49.82-20.23-2.22-.8-5.32-2.66-7.7-2.13s-5.67,3.94-7.6,5.29c-14.83,10.4-29.52,20.99-44.09,31.75-49.67,36.69-98.38,74.7-139.03,121.47l2.56,1.06c-5.81-45.34-13.92-90.32-22.54-135.2-7.02-36.59-22.85-70.4-43.42-101.3-7.66-11.5-15.94-22.6-24.77-33.22-4.34-5.22-8.71-11.39-13.96-15.75-2.44-2.02-5.21-2.39-8.11-3.48-6.76-2.54-13.15-7.26-19.56-10.69-14.17-7.57-28.64-14.58-43.14-21.49-28.83-13.73-58.21-26.5-86.44-41.46-17.6-9.32-37.83-30.47-59.37-25.75-7.77,1.7-14.02,6.97-20.13,11.74-10.24,7.99-20.78,14.73-33.41,18.29-17.9,5.04-37.16,4.82-54.99-.35-15.76-4.57-29.83-12.81-44.19-20.48-8.75-4.67-18.79-10.23-29.06-9.46-6.92.52-13.94,4.24-20.24,6.89-23.97,10.09-47.55,21.19-70.96,32.5-27.88,13.47-55.63,27.38-82.55,42.69-10.18,5.79-20.05,13.57-30.69,18.27-5.39,2.38-7.97,5.59-11.94,10.07-17.97,20.25-33.89,42.56-46.99,66.25-9.08,16.41-16.81,33.64-22.33,51.58-6.37,20.69-9.45,42.42-13.34,63.67-10.9,59.59-18.83,119.43-23.46,179.81-7.4,96.5-12.82,193.19-16.63,289.89-2.21,56.16-3.82,112.36-3.99,168.56-.14,44.83.16,89.91,4.42,134.57,1.36,14.26,3,28.68,6.54,42.59,2.48,9.77,4.95,20.11,16.04,22.24,7.37,1.42,15.08,1.35,22.56,1.29,10.86-.09,22.65-2.49,33.38-1.46,4.52.43,3.42-.6,4.25,3.83.49,2.63.05,5.92.08,8.6.04,4.79.09,9.58.13,14.38.11,11.56.23,23.11.36,34.67.51,44.84,1.14,89.67,1.92,134.51,1.28,74.08,2.74,148.17,5.33,222.21.73,20.9,1.42,41.84,2.9,62.7.38,5.32-.96,15.59,4.98,18.07,3.85,1.6,8.82,1.64,12.89,2,7.67.67,15.38.94,23.07,1.15,22.61.62,45.25.47,67.87.22,52.94-.56,105.87-2.06,158.8-3.26,18.15-.41,36.32-.9,54.47-.87,31.35.04,62.75,2.38,94.09,3.43,58.68,1.96,116.48.87,174.51-8.8,38.22-6.37,76.09-14.76,113.88-23.25.59-.13,1.17-.82,1.1-1.45-5.55-54.16-10.58-108.37-15.62-162.57-7.17-77.1-14.2-154.21-21.21-231.32-7.63-83.95-15.23-167.91-22.87-251.86-6.91-75.97-13.84-151.94-20.93-227.89-2.79-29.89-5.6-59.77-8.49-89.65-2.44-25.29-6.51-51.01-6.53-76.44-.01-13.91.84-27.82,1.85-41.69h-3c3.21,37.22,3.23,76.54,14.19,112.54,4.7,15.46,9.4,30.71,22.87,40.93,12.09,9.18,27.92,16.99,43.44,16.85,13.42-.12,25.93-6.03,38.25-10.64,11.44-4.28,22.23-7.66,32.7-14.07,25.47-15.6,48.12-36.24,69.64-56.78,28.73-27.43,55.95-56.74,80.19-88.24,1.18-1.53-1.43-3.02-2.59-1.51Z"/>
  </g>
  <path class="cls-3" d="m1109.52,828.6c-.01-1.79.04-3.57.23-5.35.78-7.27,4.81-15.14,11.64-16.62,22.26-4.8,16.77,44.26,37.25,15.71,5.59-7.79,13.18-66.16,18.87-67.28,29.05-5.7,62.46,17.03,58.59,49.48-2.62,21.97-16.3,43.24-28.17,60.44-14.62,21.18-33.58,39.8-47.53,61.2-11.55,17.71-16.57,38.29-23.86,58.63-32.04,89.32-78.72-15.76-58.93-49.01,13.04-21.91,29.72-65.56,32.12-90.67.52-5.5-.18-11.02-.22-16.53Z"/>
  <path class="cls-3" d="m415.6,604.12s7.32,38.08,2.45,51.23-38.85,31.32-38.85,31.32c0,0,67.67,47.74,118.35,45.35s82.55-45.26,82.55-45.26c0,0-25.11-16.79-33.12-29.57-10.93-17.46-2.14-48.28-2.14-48.28l-129.24-4.79Z"/>
  <path class="cls-3" d="m346.73,526.38c34.56,66.3,100.04,108.84,140.21,108.84,44.31,0,89.92-44.53,126.49-112.17,21.35-39.48,32.96-137.17,18.34-183.21-18.62-58.64-57.71-118.21-151.56-118.21-88.58,0-133.29,64.57-149.08,121.93-13.26,48.16-14.84,124.43,15.6,182.81Z"/>
  <circle class="cls-8" cx="492.48" cy="144.29" r="79.4"/>
  <g>
    <ellipse class="cls-12" cx="425.34" cy="436.9" rx="26.75" ry="19.23" transform="translate(-41.89 828.68) rotate(-85.75)"/>
    <path class="cls-12" d="m401.8,423.82c4.07-5.89,10.31-10.14,17.27-11.81,7.52-1.8,15.59-.43,22.19,3.55,1.16.7,2.21-1.11,1.06-1.81-7.08-4.27-15.75-5.69-23.81-3.76-7.5,1.8-14.15,6.44-18.52,12.77-.77,1.11,1.05,2.16,1.81,1.06h0Z"/>
    <path class="cls-12" d="m410.54,413.21c-.22.01-.44.02-.66,0-.1,0-.2-.01-.3-.02-.05,0-.1,0-.15-.02.11.02.11.01-.02,0-.39-.08-.78-.17-1.16-.31-.03-.01-.29-.11-.12-.04-.09-.04-.18-.08-.27-.13-.2-.1-.39-.2-.57-.31s-.37-.24-.54-.36.07.07-.11-.08c-.08-.07-.15-.13-.23-.2-.3-.27-.58-.56-.83-.88-.08-.1-.08-.11-.02-.03-.03-.04-.06-.08-.09-.12-.06-.08-.11-.17-.17-.25-.12-.18-.23-.37-.33-.56-.05-.09-.09-.18-.13-.27-.1-.19.03.11-.05-.12-.07-.19-.14-.38-.19-.57s-.1-.39-.14-.58c-.01-.07-.02-.13-.03-.2.01.1.01.11,0,.03-.01-.12-.02-.23-.03-.35-.03-.56-.46-1.05-1.05-1.05-.54,0-1.08.48-1.05,1.05.24,4.15,4.05,7.71,8.25,7.48.56-.03,1.05-.46,1.05-1.05,0-.54-.48-1.08-1.05-1.05h0Z"/>
    <path class="cls-12" d="m395.28,412.15c-.03,2.32.97,4.68,2.76,6.19,1.89,1.6,4.36,2.23,6.79,1.79.56-.1.87-.78.73-1.29-.16-.59-.73-.83-1.29-.73-1.65.3-3.55-.18-4.85-1.33s-2.07-2.88-2.04-4.62c.02-1.35-2.08-1.35-2.09,0h0Z"/>
  </g>
  <g>
    <ellipse class="cls-12" cx="535.89" cy="438.08" rx="19.23" ry="26.75" transform="translate(-31 40.93) rotate(-4.25)"/>
    <path class="cls-12" d="m561.24,423.95c-4.37-6.33-11.02-10.97-18.52-12.77-8.05-1.93-16.73-.51-23.81,3.76-1.15.7-.1,2.51,1.06,1.81,6.6-3.98,14.68-5.35,22.19-3.55,6.96,1.67,13.2,5.92,17.27,11.81.76,1.1,2.58.06,1.81-1.06h0Z"/>
    <path class="cls-12" d="m550.69,416.48c4.2.23,8.01-3.33,8.25-7.48.03-.57-.5-1.05-1.05-1.05-.59,0-1.01.48-1.05,1.05,0,.1-.01.2-.02.3-.01.13-.01.13,0,.02,0,.05-.02.1-.02.15-.04.21-.09.43-.15.63-.06.19-.12.38-.19.57-.11.3.09-.17-.05.12-.04.09-.09.18-.13.27-.09.18-.19.35-.3.52-.05.08-.11.17-.17.25-.04.06-.08.11-.12.16.05-.06.06-.07.01-.01-.26.33-.55.64-.87.92s-.43.37-.84.62c-.19.11-.38.22-.57.32-.09.04-.18.09-.27.13-.07.03-.06.03.02,0-.06.02-.12.05-.19.07-.38.14-.76.24-1.16.31-.25.05.11,0-.12.02-.1,0-.2.02-.3.02-.24.01-.47.01-.71,0-.57-.03-1.05.5-1.05,1.05,0,.59.48,1.02,1.05,1.05h0Z"/>
    <path class="cls-12" d="m556.4,421.3c2.43.44,4.91-.19,6.79-1.79,1.78-1.51,2.79-3.87,2.76-6.19-.02-1.35-2.11-1.35-2.09,0,.02,1.74-.7,3.43-2.04,4.62s-3.21,1.63-4.85,1.33c-.56-.1-1.13.15-1.29.73-.14.51.17,1.19.73,1.29h0Z"/>
  </g>
  <path class="cls-12" d="m483.78,456.5c-2.92,7.35.36,15.08,3.34,21.83,2.73,6.16,5.87,13.55,2.06,19.93-1.67,2.8-4.42,4.86-7.79,4.57-1.92-.16-1.91,2.84,0,3,6.73.57,11.64-5.92,12.45-12.02,1.09-8.23-4.02-15.56-6.6-23-1.52-4.39-2.34-9.08-.57-13.52.71-1.79-2.19-2.57-2.89-.8h0Z"/>
  <ellipse class="cls-4" cx="481.39" cy="545.92" rx="25.78" ry="16.62"/>
  <path class="cls-6" d="m551.39,234.84s-42.71,75.21-97.49,107.31c-54.77,32.1-81.03,28.08-101.62,57.17-20.59,29.09-12.44,82.85-4.01,115.5,8.43,32.65,38.74,54.9,44.41,88.02,5.67,33.12-19.75,17.32-60.09-46.55-38.25-60.57-55.21-101.61-44.97-165.93,11.24-70.61,44.55-146.3,103.47-183.8,58.92-37.5,105.17-40.33,130.52-29.47,25.35,10.86,29.77,57.76,29.77,57.76Z"/>
  <path class="cls-6" d="m539.77,192.22s38.12-11.46,60.99,26.78c22.87,38.24,23.24,29.33,49.65,90.02,26.41,60.69,15.94,136.55-9.96,206.32-25.89,69.77-77.36,120.07-79.66,107.61-3.49-18.92,21.22-48.84,38.24-93.64,17.01-44.8,11.15-86.5,5.84-126.51-5.31-40.01-8.89-59.13-27.41-90.2-18.52-31.07-34.09-47.24-35.36-59.78-1.27-12.54-2.32-60.59-2.32-60.59Z"/>
  <path class="cls-7" d="m521.13,253.18s24.02,103.67,53.61,137.45c29.6,33.78,54.46,27.91,74.7,33.51,9.04,2.5,16.33-6.11-2.18-27.13-30.37-34.49-49.83-64.16-65.62-97.8-15.79-33.64-18.53-56.98-43.57-71.49-25.04-14.51-20.38-16.56-22.57-7.41s5.63,32.87,5.63,32.87Z"/>
  <path class="cls-10" d="m526.34,271.97c-7.79,18.58-17.2,36.89-30.78,51.95-12.98,14.39-29.94,25.24-49.21,28.63-10.6,1.86-21.57,1.24-31.72-2.42-.45-.16-.65.56-.2.72,18.3,6.6,38.63,3.19,55.54-5.7,17.84-9.38,31.44-24.94,41.74-42,5.96-9.88,10.91-20.34,15.37-30.97.19-.44-.54-.64-.72-.2h0Z"/>
  <ellipse class="cls-5" cx="387.76" cy="497.74" rx="25.32" ry="15.31"/>
  <ellipse class="cls-5" cx="573.71" cy="497.74" rx="25.32" ry="15.31"/>
  <path class="cls-12" d="m363.49,392.67c19.24-11.63,42.43-16.3,64.7-13.34,6.28.83,12.47,2.3,18.46,4.34,1.83.62,2.62-2.27.8-2.89-21.9-7.43-46.33-6.98-68.03.96-6.07,2.22-11.92,5.01-17.45,8.35-1.65,1-.14,3.59,1.51,2.59h0Z"/>
  <path class="cls-12" d="m600.82,390.08c-19.82-11.97-43.7-16.76-66.63-13.7-6.41.86-12.72,2.31-18.85,4.39-1.82.62-1.04,3.52.8,2.89,21.32-7.23,44.89-6.82,66.04.82,5.97,2.16,11.69,4.91,17.12,8.19,1.66,1,3.17-1.59,1.51-2.59h0Z"/>
  <path class="cls-15" d="m488.42,773.69c-6.54.24-12.6,6.08-12.06,12.65.54,6.6,5.94,11.99,12.95,11.74,6.54-.24,12.6-6.08,12.06-12.65-.54-6.6-5.94-11.99-12.95-11.74Z"/>
  <path class="cls-15" d="m488.42,830.13c-6.54.24-12.6,6.08-12.06,12.65.54,6.6,5.94,11.99,12.95,11.74,6.54-.24,12.6-6.08,12.06-12.65-.54-6.6-5.94-11.99-12.95-11.74Z"/>
  <path class="cls-15" d="m488.42,890.15c-6.54.24-12.6,6.08-12.06,12.65.54,6.6,5.94,11.99,12.95,11.74,6.54-.24,12.6-6.08,12.06-12.65-.54-6.6-5.94-11.99-12.95-11.74Z"/>
  <path class="cls-2" d="m370.16,685.5s-54.32,20.74-75.29,41.02c-20.97,20.28,39.6,45.6,80.07,51.85,40.46,6.25,82.89,14.8,96.51.52,13.61-14.29,22.56-56.2,22.56-56.2,0,0-19.42,2.31-42.13-6.12-22.7-8.43-49.21-26.01-59.59-28.93-10.37-2.91-22.13-2.14-22.13-2.14Z"/>
  <path class="cls-1" d="m638.85,714.44c11.88,10.42,32.81,31.18,32.81,31.18-5.49,15.77-32.71,28.1-62.93,33.44-40.7,7.2-83.68,14.94-97.43.52s-22.77-56.73-22.77-56.73c0,0,14.41,3.27,38.68-8.82,21.89-10.9,34.99-25.72,45.41-28.82,15.49-4.6,44.09,9.79,66.22,29.22Z"/>
  <path class="cls-13" d="m178.81,959.73c-9.75,104.31,20.55,207.66,32.92,311.69,19.09,160.5-5.36,325.97-70.06,474.09"/>
  <path class="cls-14" d="m1078.22,1010.12c11.53,14.56,29.6,23.75,48.16,24.48-10.9,11.01-29.81,11.14-42.9,2.86-13.09-8.28-20.83-23.21-23.82-38.42s-1.82-30.87-.64-46.32c0,0,7.67,42.83,19.21,57.39Z"/>
</svg>