<?xml version="1.0" encoding="UTF-8"?>
<svg id="_圖層_1" data-name="圖層 1" xmlns="http://www.w3.org/2000/svg" viewBox="0 0 841.65 841.65">
  <defs>
    <style>
      .cls-1 {
        fill: none;
        stroke: #cc2f2c;
        stroke-miterlimit: 10;
      }
    </style>
  </defs>
  <rect class="cls-1" x=".5" y=".5" width="84.07" height="84.07"/>
  <rect class="cls-1" x="84.57" y=".5" width="84.07" height="84.07"/>
  <rect class="cls-1" x="168.63" y=".5" width="84.07" height="84.07"/>
  <rect class="cls-1" x="252.7" y=".5" width="84.07" height="84.07"/>
  <rect class="cls-1" x="336.76" y=".5" width="84.07" height="84.07"/>
  <rect class="cls-1" x="420.83" y=".5" width="84.07" height="84.07"/>
  <rect class="cls-1" x="504.89" y=".5" width="84.07" height="84.07"/>
  <rect class="cls-1" x="588.96" y=".5" width="84.07" height="84.07"/>
  <rect class="cls-1" x="673.02" y=".5" width="84.07" height="84.07"/>
  <rect class="cls-1" x="757.09" y=".5" width="84.07" height="84.07"/>
  <rect class="cls-1" x=".5" y="84.57" width="84.07" height="84.07"/>
  <rect class="cls-1" x="84.57" y="84.57" width="84.07" height="84.07"/>
  <rect class="cls-1" x="168.63" y="84.57" width="84.07" height="84.07"/>
  <rect class="cls-1" x="252.7" y="84.57" width="84.07" height="84.07"/>
  <rect class="cls-1" x="336.76" y="84.57" width="84.07" height="84.07"/>
  <rect class="cls-1" x="420.83" y="84.57" width="84.07" height="84.07"/>
  <rect class="cls-1" x="504.89" y="84.57" width="84.07" height="84.07"/>
  <rect class="cls-1" x="588.96" y="84.57" width="84.07" height="84.07"/>
  <rect class="cls-1" x="673.02" y="84.57" width="84.07" height="84.07"/>
  <rect class="cls-1" x="757.09" y="84.57" width="84.07" height="84.07"/>
  <rect class="cls-1" x=".5" y="168.63" width="84.07" height="84.07"/>
  <rect class="cls-1" x="84.57" y="168.63" width="84.07" height="84.07"/>
  <rect class="cls-1" x="168.63" y="168.63" width="84.07" height="84.07"/>
  <rect class="cls-1" x="252.7" y="168.63" width="84.07" height="84.07"/>
  <rect class="cls-1" x="336.76" y="168.63" width="84.07" height="84.07"/>
  <rect class="cls-1" x="420.83" y="168.63" width="84.07" height="84.07"/>
  <rect class="cls-1" x="504.89" y="168.63" width="84.07" height="84.07"/>
  <rect class="cls-1" x="588.96" y="168.63" width="84.07" height="84.07"/>
  <rect class="cls-1" x="673.02" y="168.63" width="84.07" height="84.07"/>
  <rect class="cls-1" x="757.09" y="168.63" width="84.07" height="84.07"/>
  <rect class="cls-1" x=".5" y="252.7" width="84.07" height="84.07"/>
  <rect class="cls-1" x="84.57" y="252.7" width="84.07" height="84.07"/>
  <rect class="cls-1" x="168.63" y="252.7" width="84.07" height="84.07"/>
  <rect class="cls-1" x="252.7" y="252.7" width="84.07" height="84.07"/>
  <rect class="cls-1" x="336.76" y="252.7" width="84.07" height="84.07"/>
  <rect class="cls-1" x="420.83" y="252.7" width="84.07" height="84.07"/>
  <rect class="cls-1" x="504.89" y="252.7" width="84.07" height="84.07"/>
  <rect class="cls-1" x="588.96" y="252.7" width="84.07" height="84.07"/>
  <rect class="cls-1" x="673.02" y="252.7" width="84.07" height="84.07"/>
  <rect class="cls-1" x="757.09" y="252.7" width="84.07" height="84.07"/>
  <rect class="cls-1" x=".5" y="336.76" width="84.07" height="84.07"/>
  <rect class="cls-1" x="84.57" y="336.76" width="84.07" height="84.07"/>
  <rect class="cls-1" x="168.63" y="336.76" width="84.07" height="84.07"/>
  <rect class="cls-1" x="252.7" y="336.76" width="84.07" height="84.07"/>
  <rect class="cls-1" x="336.76" y="336.76" width="84.07" height="84.07"/>
  <rect class="cls-1" x="420.83" y="336.76" width="84.07" height="84.07"/>
  <rect class="cls-1" x="504.89" y="336.76" width="84.07" height="84.07"/>
  <rect class="cls-1" x="588.96" y="336.76" width="84.07" height="84.07"/>
  <rect class="cls-1" x="673.02" y="336.76" width="84.07" height="84.07"/>
  <rect class="cls-1" x="757.09" y="336.76" width="84.07" height="84.07"/>
  <rect class="cls-1" x=".5" y="420.83" width="84.07" height="84.07"/>
  <rect class="cls-1" x="84.57" y="420.83" width="84.07" height="84.07"/>
  <rect class="cls-1" x="168.63" y="420.83" width="84.07" height="84.07"/>
  <rect class="cls-1" x="252.7" y="420.83" width="84.07" height="84.07"/>
  <rect class="cls-1" x="336.76" y="420.83" width="84.07" height="84.07"/>
  <rect class="cls-1" x="420.83" y="420.83" width="84.07" height="84.07"/>
  <rect class="cls-1" x="504.89" y="420.83" width="84.07" height="84.07"/>
  <rect class="cls-1" x="588.96" y="420.83" width="84.07" height="84.07"/>
  <rect class="cls-1" x="673.02" y="420.83" width="84.07" height="84.07"/>
  <rect class="cls-1" x="757.09" y="420.83" width="84.07" height="84.07"/>
  <rect class="cls-1" x=".5" y="504.89" width="84.07" height="84.07"/>
  <rect class="cls-1" x="84.57" y="504.89" width="84.07" height="84.07"/>
  <rect class="cls-1" x="168.63" y="504.89" width="84.07" height="84.07"/>
  <rect class="cls-1" x="252.7" y="504.89" width="84.07" height="84.07"/>
  <rect class="cls-1" x="336.76" y="504.89" width="84.07" height="84.07"/>
  <rect class="cls-1" x="420.83" y="504.89" width="84.07" height="84.07"/>
  <rect class="cls-1" x="504.89" y="504.89" width="84.07" height="84.07"/>
  <rect class="cls-1" x="588.96" y="504.89" width="84.07" height="84.07"/>
  <rect class="cls-1" x="673.02" y="504.89" width="84.07" height="84.07"/>
  <rect class="cls-1" x="757.09" y="504.89" width="84.07" height="84.07"/>
  <rect class="cls-1" x=".5" y="588.96" width="84.07" height="84.07"/>
  <rect class="cls-1" x="84.57" y="588.96" width="84.07" height="84.07"/>
  <rect class="cls-1" x="168.63" y="588.96" width="84.07" height="84.07"/>
  <rect class="cls-1" x="252.7" y="588.96" width="84.07" height="84.07"/>
  <rect class="cls-1" x="336.76" y="588.96" width="84.07" height="84.07"/>
  <rect class="cls-1" x="420.83" y="588.96" width="84.07" height="84.07"/>
  <rect class="cls-1" x="504.89" y="588.96" width="84.07" height="84.07"/>
  <rect class="cls-1" x="588.96" y="588.96" width="84.07" height="84.07"/>
  <rect class="cls-1" x="673.02" y="588.96" width="84.07" height="84.07"/>
  <rect class="cls-1" x="757.09" y="588.96" width="84.07" height="84.07"/>
  <rect class="cls-1" x=".5" y="673.02" width="84.07" height="84.07"/>
  <rect class="cls-1" x="84.57" y="673.02" width="84.07" height="84.07"/>
  <rect class="cls-1" x="168.63" y="673.02" width="84.07" height="84.07"/>
  <rect class="cls-1" x="252.7" y="673.02" width="84.07" height="84.07"/>
  <rect class="cls-1" x="336.76" y="673.02" width="84.07" height="84.07"/>
  <rect class="cls-1" x="420.83" y="673.02" width="84.07" height="84.07"/>
  <rect class="cls-1" x="504.89" y="673.02" width="84.07" height="84.07"/>
  <rect class="cls-1" x="588.96" y="673.02" width="84.07" height="84.07"/>
  <rect class="cls-1" x="673.02" y="673.02" width="84.07" height="84.07"/>
  <rect class="cls-1" x="757.09" y="673.02" width="84.07" height="84.07"/>
  <rect class="cls-1" x=".5" y="757.09" width="84.07" height="84.07"/>
  <rect class="cls-1" x="84.57" y="757.09" width="84.07" height="84.07"/>
  <rect class="cls-1" x="168.63" y="757.09" width="84.07" height="84.07"/>
  <rect class="cls-1" x="252.7" y="757.09" width="84.07" height="84.07"/>
  <rect class="cls-1" x="336.76" y="757.09" width="84.07" height="84.07"/>
  <rect class="cls-1" x="420.83" y="757.09" width="84.07" height="84.07"/>
  <rect class="cls-1" x="504.89" y="757.09" width="84.07" height="84.07"/>
  <rect class="cls-1" x="588.96" y="757.09" width="84.07" height="84.07"/>
  <rect class="cls-1" x="673.02" y="757.09" width="84.07" height="84.07"/>
  <rect class="cls-1" x="757.09" y="757.09" width="84.07" height="84.07"/>
</svg>